<?xml version="1.0" encoding="UTF-8" standalone="no"?>
<!DOCTYPE svg PUBLIC "-//W3C//DTD SVG 1.1//EN"
 "http://www.w3.org/Graphics/SVG/1.1/DTD/svg11.dtd">
<!-- Generated by graphviz version 7.0.4 (20221203.1631)
 -->
<!-- Title: ce103_hw4_medical_store_app.InsiderOfTheMenu.box1 Pages: 1 -->
<svg width="1022pt" height="81pt"
 viewBox="0.00 0.00 1022.00 81.00" xmlns="http://www.w3.org/2000/svg" xmlns:xlink="http://www.w3.org/1999/xlink">
<g id="graph0" class="graph" transform="scale(1 1) rotate(0) translate(4 77)">
<title>ce103_hw4_medical_store_app.InsiderOfTheMenu.box1</title>
<!-- Node1 -->
<g id="node1" class="node">
<title>Node1</title>
<g id="a_node1"><a xlink:title=" ">
<polygon fill="#999999" stroke="#666666" points="1014,-51 871,-51 871,-21 1014,-21 1014,-51"/>
<text text-anchor="start" x="879" y="-39" font-family="Helvetica,sans-Serif" font-size="10.00">ce103_hw4_medical_store</text>
<text text-anchor="middle" x="942.5" y="-28" font-family="Helvetica,sans-Serif" font-size="10.00">_app.InsiderOfTheMenu.box1</text>
</a>
</g>
</g>
<!-- Node2 -->
<g id="node2" class="node">
<title>Node2</title>
<g id="a_node2"><a xlink:href="classce103__hw4__medical__store__app_1_1_insider_of_the_menu.html#a0faaccd5f842125ae8f314368c644d3e" target="_top" xlink:title=" ">
<polygon fill="white" stroke="#666666" points="835,-51 668,-51 668,-21 835,-21 835,-51"/>
<text text-anchor="start" x="676" y="-39" font-family="Helvetica,sans-Serif" font-size="10.00">ce103_hw4_medical_store</text>
<text text-anchor="middle" x="751.5" y="-28" font-family="Helvetica,sans-Serif" font-size="10.00">_app.InsiderOfTheMenu.mainmenu</text>
</a>
</g>
</g>
<!-- Node1&#45;&gt;Node2 -->
<g id="edge1" class="edge">
<title>Node1&#45;&gt;Node2</title>
<path fill="none" stroke="#63b8ff" d="M859.11,-36C851.2,-36 843.18,-36 835.27,-36"/>
<polygon fill="#63b8ff" stroke="#63b8ff" points="859.07,-39.5 869.07,-36 859.07,-32.5 859.07,-39.5"/>
</g>
<!-- Node3 -->
<g id="node3" class="node">
<title>Node3</title>
<g id="a_node3"><a xlink:href="classce103__hw4__medical__store__app_1_1_menu.html#af40268756f4be60ece4bf674210a17bb" target="_top" xlink:title=" ">
<polygon fill="white" stroke="#666666" points="465,-73 334,-73 334,-43 465,-43 465,-73"/>
<text text-anchor="start" x="342" y="-61" font-family="Helvetica,sans-Serif" font-size="10.00">ce103_hw4_medical_store</text>
<text text-anchor="middle" x="399.5" y="-50" font-family="Helvetica,sans-Serif" font-size="10.00">_app.Menu.performAction</text>
</a>
</g>
</g>
<!-- Node2&#45;&gt;Node3 -->
<g id="edge2" class="edge">
<title>Node2&#45;&gt;Node3</title>
<path fill="none" stroke="#63b8ff" d="M656.09,-41.93C595.71,-45.73 518.94,-50.56 465.37,-53.92"/>
<polygon fill="#63b8ff" stroke="#63b8ff" points="656.28,-45.43 666.04,-41.31 655.84,-38.44 656.28,-45.43"/>
</g>
<!-- Node6 -->
<g id="node6" class="node">
<title>Node6</title>
<g id="a_node6"><a xlink:href="classce103__hw4__medical__store__app_1_1_menu.html#a8686eac8bd55447713e5620b8b0c7c2a" target="_top" xlink:title=" ">
<polygon fill="white" stroke="#666666" points="632,-30 501,-30 501,0 632,0 632,-30"/>
<text text-anchor="start" x="509" y="-18" font-family="Helvetica,sans-Serif" font-size="10.00">ce103_hw4_medical_store</text>
<text text-anchor="middle" x="566.5" y="-7" font-family="Helvetica,sans-Serif" font-size="10.00">_app.Menu.printMenu</text>
</a>
</g>
</g>
<!-- Node2&#45;&gt;Node6 -->
<g id="edge5" class="edge">
<title>Node2&#45;&gt;Node6</title>
<path fill="none" stroke="#63b8ff" d="M656.17,-25.18C648.11,-24.25 640.08,-23.33 632.32,-22.44"/>
<polygon fill="#63b8ff" stroke="#63b8ff" points="655.73,-28.65 666.06,-26.31 656.53,-21.69 655.73,-28.65"/>
</g>
<!-- Node4 -->
<g id="node4" class="node">
<title>Node4</title>
<g id="a_node4"><a xlink:href="classce103__hw4__medical__store__app_1_1_menu.html#a8890452f69a3d1c94a7951344bd7515b" target="_top" xlink:title=" ">
<polygon fill="white" stroke="#666666" points="298,-51 167,-51 167,-21 298,-21 298,-51"/>
<text text-anchor="start" x="175" y="-39" font-family="Helvetica,sans-Serif" font-size="10.00">ce103_hw4_medical_store</text>
<text text-anchor="middle" x="232.5" y="-28" font-family="Helvetica,sans-Serif" font-size="10.00">_app.Menu.runMenu</text>
</a>
</g>
</g>
<!-- Node3&#45;&gt;Node4 -->
<g id="edge3" class="edge">
<title>Node3&#45;&gt;Node4</title>
<path fill="none" stroke="#63b8ff" d="M322.45,-47.86C314.39,-46.78 306.24,-45.7 298.32,-44.64"/>
<polygon fill="#63b8ff" stroke="#63b8ff" points="321.89,-51.32 332.26,-49.17 322.81,-44.38 321.89,-51.32"/>
</g>
<!-- Node5 -->
<g id="node5" class="node">
<title>Node5</title>
<g id="a_node5"><a xlink:href="classce103__hw4__medical__store__app_1_1_menu.html#a906bd0b055bce495d306a21e81cbec1b" target="_top" xlink:title=" ">
<polygon fill="white" stroke="#666666" points="131,-51 0,-51 0,-21 131,-21 131,-51"/>
<text text-anchor="start" x="8" y="-39" font-family="Helvetica,sans-Serif" font-size="10.00">ce103_hw4_medical_store</text>
<text text-anchor="middle" x="65.5" y="-28" font-family="Helvetica,sans-Serif" font-size="10.00">_app.Menu.main</text>
</a>
</g>
</g>
<!-- Node4&#45;&gt;Node5 -->
<g id="edge4" class="edge">
<title>Node4&#45;&gt;Node5</title>
<path fill="none" stroke="#63b8ff" d="M155.45,-36C147.39,-36 139.24,-36 131.32,-36"/>
<polygon fill="#63b8ff" stroke="#63b8ff" points="155.25,-39.5 165.25,-36 155.25,-32.5 155.25,-39.5"/>
</g>
<!-- Node6&#45;&gt;Node3 -->
<g id="edge6" class="edge">
<title>Node6&#45;&gt;Node3</title>
<path fill="none" stroke="#63b8ff" d="M495.57,-33.22C483.65,-36.33 471.36,-39.53 459.74,-42.56"/>
<polygon fill="#63b8ff" stroke="#63b8ff" points="496.14,-36.69 504.93,-30.78 494.37,-29.92 496.14,-36.69"/>
</g>
<!-- Node6&#45;&gt;Node4 -->
<g id="edge7" class="edge">
<title>Node6&#45;&gt;Node4</title>
<path fill="none" stroke="#63b8ff" d="M489.44,-19.81C431.72,-23.46 353.21,-28.43 298.42,-31.89"/>
<polygon fill="#63b8ff" stroke="#63b8ff" points="489.43,-23.32 499.19,-19.19 488.99,-16.33 489.43,-23.32"/>
</g>
</g>
</svg>
