<?xml version="1.0" encoding="UTF-8" standalone="no"?>
<!DOCTYPE svg PUBLIC "-//W3C//DTD SVG 1.1//EN"
 "http://www.w3.org/Graphics/SVG/1.1/DTD/svg11.dtd">
<!-- Generated by graphviz version 7.0.4 (20221203.1631)
 -->
<!-- Title: ce103_hw4_medical_store_app.InsiderOfTheMenu.addCustomer Pages: 1 -->
<svg width="578pt" height="514pt"
 viewBox="0.00 0.00 578.00 514.00" xmlns="http://www.w3.org/2000/svg" xmlns:xlink="http://www.w3.org/1999/xlink">
<g id="graph0" class="graph" transform="scale(1 1) rotate(0) translate(4 510)">
<title>ce103_hw4_medical_store_app.InsiderOfTheMenu.addCustomer</title>
<!-- Node1 -->
<g id="node1" class="node">
<title>Node1</title>
<g id="a_node1"><a xlink:title=" ">
<polygon fill="#999999" stroke="#666666" points="179,-246 0,-246 0,-216 179,-216 179,-246"/>
<text text-anchor="start" x="8" y="-234" font-family="Helvetica,sans-Serif" font-size="10.00">ce103_hw4_medical_store</text>
<text text-anchor="middle" x="89.5" y="-223" font-family="Helvetica,sans-Serif" font-size="10.00">_app.InsiderOfTheMenu.addCustomer</text>
</a>
</g>
</g>
<!-- Node2 -->
<g id="node2" class="node">
<title>Node2</title>
<g id="a_node2"><a xlink:href="classce103__hw4__medical__store__lib_1_1_file_utility.html#a63f68a104500f89f20d04381d0376ba6" target="_top" xlink:title=" ">
<polygon fill="white" stroke="#666666" points="359.5,-464 225.5,-464 225.5,-434 359.5,-434 359.5,-464"/>
<text text-anchor="start" x="233.5" y="-452" font-family="Helvetica,sans-Serif" font-size="10.00">ce103_hw4_medical_store</text>
<text text-anchor="middle" x="292.5" y="-441" font-family="Helvetica,sans-Serif" font-size="10.00">_lib.FileUtility.appendBlock</text>
</a>
</g>
</g>
<!-- Node1&#45;&gt;Node2 -->
<g id="edge1" class="edge">
<title>Node1&#45;&gt;Node2</title>
<path fill="none" stroke="#63b8ff" d="M96.1,-246.43C110.18,-283.06 150.59,-375.82 215,-425 216.35,-426.03 217.74,-427.02 219.17,-427.96"/>
<polygon fill="#63b8ff" stroke="#63b8ff" points="217.35,-430.95 227.77,-432.85 220.81,-424.87 217.35,-430.95"/>
</g>
<!-- Node3 -->
<g id="node3" class="node">
<title>Node3</title>
<g id="a_node3"><a xlink:href="classce103__hw4__medical__store__app_1_1_insider_of_the_menu.html#a0409ee76fc4d80aea880c4c9702271df" target="_top" xlink:title=" ">
<polygon fill="white" stroke="#666666" points="364,-416 221,-416 221,-386 364,-386 364,-416"/>
<text text-anchor="start" x="229" y="-404" font-family="Helvetica,sans-Serif" font-size="10.00">ce103_hw4_medical_store</text>
<text text-anchor="middle" x="292.5" y="-393" font-family="Helvetica,sans-Serif" font-size="10.00">_app.InsiderOfTheMenu.clear</text>
</a>
</g>
</g>
<!-- Node1&#45;&gt;Node3 -->
<g id="edge2" class="edge">
<title>Node1&#45;&gt;Node3</title>
<path fill="none" stroke="#63b8ff" d="M99.39,-246.27C117.39,-275.89 161.1,-341.35 215,-377 216.95,-378.29 218.97,-379.51 221.05,-380.67"/>
<polygon fill="#63b8ff" stroke="#63b8ff" points="219.25,-383.69 229.76,-384.99 222.35,-377.41 219.25,-383.69"/>
</g>
<!-- Node4 -->
<g id="node4" class="node">
<title>Node4</title>
<g id="a_node4"><a xlink:href="classce103__hw4__medical__store__lib_1_1_customer.html#a292a7e3602e9d85c119d14af8ba29090" target="_top" xlink:title=" ">
<polygon fill="white" stroke="#666666" points="368,-367.5 217,-367.5 217,-326.5 368,-326.5 368,-367.5"/>
<text text-anchor="start" x="225" y="-355.5" font-family="Helvetica,sans-Serif" font-size="10.00">ce103_hw4_medical_store</text>
<text text-anchor="start" x="225" y="-344.5" font-family="Helvetica,sans-Serif" font-size="10.00">_lib.Customer.customerToByte</text>
<text text-anchor="middle" x="292.5" y="-333.5" font-family="Helvetica,sans-Serif" font-size="10.00">ArrayBlock</text>
</a>
</g>
</g>
<!-- Node1&#45;&gt;Node4 -->
<g id="edge3" class="edge">
<title>Node1&#45;&gt;Node4</title>
<path fill="none" stroke="#63b8ff" d="M111.94,-246.34C136.28,-263.43 177.5,-291.37 215,-312 220.66,-315.11 226.64,-318.19 232.67,-321.16"/>
<polygon fill="#63b8ff" stroke="#63b8ff" points="230.92,-324.2 241.45,-325.38 233.95,-317.89 230.92,-324.2"/>
</g>
<!-- Node12 -->
<g id="node12" class="node">
<title>Node12</title>
<g id="a_node12"><a xlink:href="classce103__hw4__medical__store__app_1_1_insider_of_the_menu.html#aa208466ba46c8f7d58d2f2e970d23545" target="_top" xlink:title=" ">
<polygon fill="white" stroke="#666666" points="570,-89 406,-89 406,-59 570,-59 570,-89"/>
<text text-anchor="start" x="414" y="-77" font-family="Helvetica,sans-Serif" font-size="10.00">ce103_hw4_medical_store</text>
<text text-anchor="middle" x="488" y="-66" font-family="Helvetica,sans-Serif" font-size="10.00">_app.InsiderOfTheMenu.main_box</text>
</a>
</g>
</g>
<!-- Node1&#45;&gt;Node12 -->
<g id="edge11" class="edge">
<title>Node1&#45;&gt;Node12</title>
<path fill="none" stroke="#63b8ff" d="M115.41,-246.49C168.05,-277.04 292.12,-337.22 370,-279 415.28,-245.15 377.42,-205.78 406,-157 419.61,-133.78 441.1,-112.17 458.52,-96.83"/>
<polygon fill="#63b8ff" stroke="#63b8ff" points="460.73,-99.55 466.05,-90.39 456.18,-94.23 460.73,-99.55"/>
</g>
<!-- Node13 -->
<g id="node13" class="node">
<title>Node13</title>
<g id="a_node13"><a xlink:href="classce103__hw4__medical__store__lib_1_1_customer.html#a8443925c23f0315b80f1f5f6f5f7267b" target="_top" xlink:title=" ">
<polygon fill="white" stroke="#666666" points="358,-270 227,-270 227,-240 358,-240 358,-270"/>
<text text-anchor="start" x="235" y="-258" font-family="Helvetica,sans-Serif" font-size="10.00">ce103_hw4_medical_store</text>
<text text-anchor="middle" x="292.5" y="-247" font-family="Helvetica,sans-Serif" font-size="10.00">_lib.Customer.setCity</text>
</a>
</g>
</g>
<!-- Node1&#45;&gt;Node13 -->
<g id="edge12" class="edge">
<title>Node1&#45;&gt;Node13</title>
<path fill="none" stroke="#63b8ff" d="M179.25,-241.6C191.36,-243.04 203.71,-244.52 215.56,-245.93"/>
<polygon fill="#63b8ff" stroke="#63b8ff" points="214.91,-249.38 225.26,-247.09 215.74,-242.43 214.91,-249.38"/>
</g>
<!-- Node14 -->
<g id="node14" class="node">
<title>Node14</title>
<g id="a_node14"><a xlink:href="classce103__hw4__medical__store__lib_1_1_customer.html#a7189e6165587d2ae32a164eb7497f24e" target="_top" xlink:title=" ">
<polygon fill="white" stroke="#666666" points="358,-222 227,-222 227,-192 358,-192 358,-222"/>
<text text-anchor="start" x="235" y="-210" font-family="Helvetica,sans-Serif" font-size="10.00">ce103_hw4_medical_store</text>
<text text-anchor="middle" x="292.5" y="-199" font-family="Helvetica,sans-Serif" font-size="10.00">_lib.Customer.setEmail</text>
</a>
</g>
</g>
<!-- Node1&#45;&gt;Node14 -->
<g id="edge13" class="edge">
<title>Node1&#45;&gt;Node14</title>
<path fill="none" stroke="#63b8ff" d="M179.25,-220.4C191.36,-218.96 203.71,-217.48 215.56,-216.07"/>
<polygon fill="#63b8ff" stroke="#63b8ff" points="215.74,-219.57 225.26,-214.91 214.91,-212.62 215.74,-219.57"/>
</g>
<!-- Node15 -->
<g id="node15" class="node">
<title>Node15</title>
<g id="a_node15"><a xlink:href="classce103__hw4__medical__store__lib_1_1_customer.html#abb0726c60d6cd6fe879ef443f4378562" target="_top" xlink:title=" ">
<polygon fill="white" stroke="#666666" points="358,-174 227,-174 227,-144 358,-144 358,-174"/>
<text text-anchor="start" x="235" y="-162" font-family="Helvetica,sans-Serif" font-size="10.00">ce103_hw4_medical_store</text>
<text text-anchor="middle" x="292.5" y="-151" font-family="Helvetica,sans-Serif" font-size="10.00">_lib.Customer.setId</text>
</a>
</g>
</g>
<!-- Node1&#45;&gt;Node15 -->
<g id="edge14" class="edge">
<title>Node1&#45;&gt;Node15</title>
<path fill="none" stroke="#63b8ff" d="M128.68,-215.55C153.2,-205.81 185.8,-193.2 215,-183 219.92,-181.28 225.03,-179.56 230.17,-177.86"/>
<polygon fill="#63b8ff" stroke="#63b8ff" points="230.87,-181.31 239.3,-174.89 228.7,-174.66 230.87,-181.31"/>
</g>
<!-- Node16 -->
<g id="node16" class="node">
<title>Node16</title>
<g id="a_node16"><a xlink:href="classce103__hw4__medical__store__lib_1_1_customer.html#a43138a44bcc676b1f218b27c1b1e4c41" target="_top" xlink:title=" ">
<polygon fill="white" stroke="#666666" points="358,-126 227,-126 227,-96 358,-96 358,-126"/>
<text text-anchor="start" x="235" y="-114" font-family="Helvetica,sans-Serif" font-size="10.00">ce103_hw4_medical_store</text>
<text text-anchor="middle" x="292.5" y="-103" font-family="Helvetica,sans-Serif" font-size="10.00">_lib.Customer.setName</text>
</a>
</g>
</g>
<!-- Node1&#45;&gt;Node16 -->
<g id="edge15" class="edge">
<title>Node1&#45;&gt;Node16</title>
<path fill="none" stroke="#63b8ff" d="M106.51,-215.59C129.04,-194.67 172.16,-157.33 215,-135 217.89,-133.49 220.9,-132.06 223.97,-130.7"/>
<polygon fill="#63b8ff" stroke="#63b8ff" points="225.27,-133.95 233.2,-126.93 222.62,-127.47 225.27,-133.95"/>
</g>
<!-- Node17 -->
<g id="node17" class="node">
<title>Node17</title>
<g id="a_node17"><a xlink:href="classce103__hw4__medical__store__lib_1_1_customer.html#a772a54475697df032e12e788b54e8dc6" target="_top" xlink:title=" ">
<polygon fill="white" stroke="#666666" points="358,-78 227,-78 227,-48 358,-48 358,-78"/>
<text text-anchor="start" x="235" y="-66" font-family="Helvetica,sans-Serif" font-size="10.00">ce103_hw4_medical_store</text>
<text text-anchor="middle" x="292.5" y="-55" font-family="Helvetica,sans-Serif" font-size="10.00">_lib.Customer.setNum</text>
</a>
</g>
</g>
<!-- Node1&#45;&gt;Node17 -->
<g id="edge16" class="edge">
<title>Node1&#45;&gt;Node17</title>
<path fill="none" stroke="#63b8ff" d="M99.44,-215.94C117.54,-186.74 161.4,-122.19 215,-87 216.95,-85.72 218.98,-84.5 221.06,-83.34"/>
<polygon fill="#63b8ff" stroke="#63b8ff" points="222.36,-86.6 229.78,-79.04 219.27,-80.33 222.36,-86.6"/>
</g>
<!-- Node18 -->
<g id="node18" class="node">
<title>Node18</title>
<g id="a_node18"><a xlink:href="classce103__hw4__medical__store__app_1_1_insider_of_the_menu.html#ad8d1f1f6efe690acbc398b741befb617" target="_top" xlink:title=" ">
<polygon fill="white" stroke="#666666" points="370,-30 215,-30 215,0 370,0 370,-30"/>
<text text-anchor="start" x="223" y="-18" font-family="Helvetica,sans-Serif" font-size="10.00">ce103_hw4_medical_store</text>
<text text-anchor="middle" x="292.5" y="-7" font-family="Helvetica,sans-Serif" font-size="10.00">_app.InsiderOfTheMenu.supplier</text>
</a>
</g>
</g>
<!-- Node1&#45;&gt;Node18 -->
<g id="edge17" class="edge">
<title>Node1&#45;&gt;Node18</title>
<path fill="none" stroke="#63b8ff" d="M96.15,-215.73C110.33,-179.48 150.94,-87.67 215,-39 216.35,-37.97 217.75,-36.99 219.18,-36.05"/>
<polygon fill="#63b8ff" stroke="#63b8ff" points="220.82,-39.14 227.79,-31.17 217.36,-33.06 220.82,-39.14"/>
</g>
<!-- Node5 -->
<g id="node5" class="node">
<title>Node5</title>
<g id="a_node5"><a xlink:href="classce103__hw4__medical__store__lib_1_1_customer.html#a36aba6fa51f7a02f602b7e1beeff0fba" target="_top" xlink:title=" ">
<polygon fill="white" stroke="#666666" points="553.5,-506 422.5,-506 422.5,-476 553.5,-476 553.5,-506"/>
<text text-anchor="start" x="430.5" y="-494" font-family="Helvetica,sans-Serif" font-size="10.00">ce103_hw4_medical_store</text>
<text text-anchor="middle" x="488" y="-483" font-family="Helvetica,sans-Serif" font-size="10.00">_lib.Customer.getCity</text>
</a>
</g>
</g>
<!-- Node4&#45;&gt;Node5 -->
<g id="edge4" class="edge">
<title>Node4&#45;&gt;Node5</title>
<path fill="none" stroke="#63b8ff" d="M358.55,-367.84C362.68,-370.54 366.56,-373.58 370,-377 400.57,-407.36 374.16,-437.98 406,-467 408.01,-468.83 410.16,-470.53 412.41,-472.09"/>
<polygon fill="#63b8ff" stroke="#63b8ff" points="410.47,-475.01 420.86,-477.06 414.01,-468.98 410.47,-475.01"/>
</g>
<!-- Node6 -->
<g id="node6" class="node">
<title>Node6</title>
<g id="a_node6"><a xlink:href="classce103__hw4__medical__store__lib_1_1_customer.html#a0f49e94a5abb7d8aa007db0e02056473" target="_top" xlink:title=" ">
<polygon fill="white" stroke="#666666" points="553.5,-458 422.5,-458 422.5,-428 553.5,-428 553.5,-458"/>
<text text-anchor="start" x="430.5" y="-446" font-family="Helvetica,sans-Serif" font-size="10.00">ce103_hw4_medical_store</text>
<text text-anchor="middle" x="488" y="-435" font-family="Helvetica,sans-Serif" font-size="10.00">_lib.Customer.getEmail</text>
</a>
</g>
</g>
<!-- Node4&#45;&gt;Node6 -->
<g id="edge5" class="edge">
<title>Node4&#45;&gt;Node6</title>
<path fill="none" stroke="#63b8ff" d="M355.05,-367.97C360.28,-370.69 365.35,-373.69 370,-377 390.04,-391.24 385.37,-405.63 406,-419 407.97,-420.28 410.01,-421.49 412.11,-422.64"/>
<polygon fill="#63b8ff" stroke="#63b8ff" points="410.36,-425.68 420.88,-426.91 413.42,-419.39 410.36,-425.68"/>
</g>
<!-- Node7 -->
<g id="node7" class="node">
<title>Node7</title>
<g id="a_node7"><a xlink:href="classce103__hw4__medical__store__lib_1_1_customer.html#a58680383b49831fdc9d6d5c77a6640df" target="_top" xlink:title=" ">
<polygon fill="white" stroke="#666666" points="553.5,-410 422.5,-410 422.5,-380 553.5,-380 553.5,-410"/>
<text text-anchor="start" x="430.5" y="-398" font-family="Helvetica,sans-Serif" font-size="10.00">ce103_hw4_medical_store</text>
<text text-anchor="middle" x="488" y="-387" font-family="Helvetica,sans-Serif" font-size="10.00">_lib.Customer.getId</text>
</a>
</g>
</g>
<!-- Node4&#45;&gt;Node7 -->
<g id="edge6" class="edge">
<title>Node4&#45;&gt;Node7</title>
<path fill="none" stroke="#63b8ff" d="M368.31,-365.56C383.14,-369.24 398.7,-373.1 413.49,-376.76"/>
<polygon fill="#63b8ff" stroke="#63b8ff" points="412.6,-380.15 423.15,-379.16 414.29,-373.36 412.6,-380.15"/>
</g>
<!-- Node8 -->
<g id="node8" class="node">
<title>Node8</title>
<g id="a_node8"><a xlink:href="classce103__hw4__medical__store__lib_1_1_customer.html#a13135918fb5adac15dcda407d1040fe5" target="_top" xlink:title=" ">
<polygon fill="white" stroke="#666666" points="553.5,-362 422.5,-362 422.5,-332 553.5,-332 553.5,-362"/>
<text text-anchor="start" x="430.5" y="-350" font-family="Helvetica,sans-Serif" font-size="10.00">ce103_hw4_medical_store</text>
<text text-anchor="middle" x="488" y="-339" font-family="Helvetica,sans-Serif" font-size="10.00">_lib.Customer.getName</text>
</a>
</g>
</g>
<!-- Node4&#45;&gt;Node8 -->
<g id="edge7" class="edge">
<title>Node4&#45;&gt;Node8</title>
<path fill="none" stroke="#63b8ff" d="M368.31,-347C382.33,-347 396.99,-347 411.04,-347"/>
<polygon fill="#63b8ff" stroke="#63b8ff" points="410.63,-350.5 420.63,-347 410.63,-343.5 410.63,-350.5"/>
</g>
<!-- Node9 -->
<g id="node9" class="node">
<title>Node9</title>
<g id="a_node9"><a xlink:href="classce103__hw4__medical__store__lib_1_1_customer.html#ad4ac11104ae983781724a6c2a9eb933e" target="_top" xlink:title=" ">
<polygon fill="white" stroke="#666666" points="553.5,-314 422.5,-314 422.5,-284 553.5,-284 553.5,-314"/>
<text text-anchor="start" x="430.5" y="-302" font-family="Helvetica,sans-Serif" font-size="10.00">ce103_hw4_medical_store</text>
<text text-anchor="middle" x="488" y="-291" font-family="Helvetica,sans-Serif" font-size="10.00">_lib.Customer.getNum</text>
</a>
</g>
</g>
<!-- Node4&#45;&gt;Node9 -->
<g id="edge8" class="edge">
<title>Node4&#45;&gt;Node9</title>
<path fill="none" stroke="#63b8ff" d="M368.31,-328.44C383.14,-324.76 398.7,-320.9 413.49,-317.24"/>
<polygon fill="#63b8ff" stroke="#63b8ff" points="414.29,-320.64 423.15,-314.84 412.6,-313.85 414.29,-320.64"/>
</g>
<!-- Node10 -->
<g id="node10" class="node">
<title>Node10</title>
<g id="a_node10"><a xlink:href="classce103__hw4__medical__store__lib_1_1_conversion_utility.html#a8e0f93579075d0a1b0800e05bbcd66af" target="_top" xlink:title=" ">
<polygon fill="white" stroke="#666666" points="557.5,-265.5 418.5,-265.5 418.5,-224.5 557.5,-224.5 557.5,-265.5"/>
<text text-anchor="start" x="426.5" y="-253.5" font-family="Helvetica,sans-Serif" font-size="10.00">ce103_hw4_medical_store</text>
<text text-anchor="start" x="426.5" y="-242.5" font-family="Helvetica,sans-Serif" font-size="10.00">_lib.ConversionUtility.integer</text>
<text text-anchor="middle" x="488" y="-231.5" font-family="Helvetica,sans-Serif" font-size="10.00">ToByteArray</text>
</a>
</g>
</g>
<!-- Node4&#45;&gt;Node10 -->
<g id="edge9" class="edge">
<title>Node4&#45;&gt;Node10</title>
<path fill="none" stroke="#63b8ff" d="M345.96,-326.15C354.3,-321.96 362.6,-317.22 370,-312 388.75,-298.78 386.77,-287.51 406,-275 408.09,-273.64 410.26,-272.33 412.47,-271.06"/>
<polygon fill="#63b8ff" stroke="#63b8ff" points="413.89,-274.27 421.13,-266.54 410.65,-268.07 413.89,-274.27"/>
</g>
<!-- Node11 -->
<g id="node11" class="node">
<title>Node11</title>
<g id="a_node11"><a xlink:href="classce103__hw4__medical__store__lib_1_1_conversion_utility.html#ab0ff4b89697d8bd6cc3b3a1141a86e3d" target="_top" xlink:title=" ">
<polygon fill="white" stroke="#666666" points="555,-206.5 421,-206.5 421,-165.5 555,-165.5 555,-206.5"/>
<text text-anchor="start" x="429" y="-194.5" font-family="Helvetica,sans-Serif" font-size="10.00">ce103_hw4_medical_store</text>
<text text-anchor="start" x="429" y="-183.5" font-family="Helvetica,sans-Serif" font-size="10.00">_lib.ConversionUtility.string</text>
<text text-anchor="middle" x="488" y="-172.5" font-family="Helvetica,sans-Serif" font-size="10.00">ToByteArray</text>
</a>
</g>
</g>
<!-- Node4&#45;&gt;Node11 -->
<g id="edge10" class="edge">
<title>Node4&#45;&gt;Node11</title>
<path fill="none" stroke="#63b8ff" d="M352.33,-326.1C358.83,-322.12 364.92,-317.45 370,-312 401.07,-278.67 373.71,-248.16 406,-216 407.77,-214.24 409.65,-212.58 411.62,-211.01"/>
<polygon fill="#63b8ff" stroke="#63b8ff" points="413.25,-214.14 419.54,-205.61 409.3,-208.36 413.25,-214.14"/>
</g>
<!-- Node18&#45;&gt;Node12 -->
<g id="edge18" class="edge">
<title>Node18&#45;&gt;Node12</title>
<path fill="none" stroke="#63b8ff" d="M344.09,-30.42C368.97,-38.01 399.18,-47.22 425.41,-55.22"/>
<polygon fill="#63b8ff" stroke="#63b8ff" points="424.34,-58.55 434.92,-58.12 426.38,-51.86 424.34,-58.55"/>
</g>
</g>
</svg>
