<?xml version="1.0" encoding="UTF-8" standalone="no"?>
<!DOCTYPE svg PUBLIC "-//W3C//DTD SVG 1.1//EN"
 "http://www.w3.org/Graphics/SVG/1.1/DTD/svg11.dtd">
<!-- Generated by graphviz version 7.0.4 (20221203.1631)
 -->
<!-- Title: ce103_hw4_medical_store_lib.FileUtility.appendBlock Pages: 1 -->
<!--zoomable 182 -->
<svg id="main" version="1.1" xmlns="http://www.w3.org/2000/svg" xmlns:xlink="http://www.w3.org/1999/xlink" xml:space="preserve" onload="init(evt)">
<style type="text/css"><![CDATA[
.edge:hover path { stroke: red; }
.edge:hover polygon { stroke: red; fill: red; }
]]></style>
<script type="text/javascript"><![CDATA[
var edges = document.getElementsByTagName('g');
if (edges && edges.length) {
  for (var i=0;i<edges.length;i++) {
    if (edges[i].id.substr(0,4)=='edge') {
      edges[i].setAttribute('class','edge');
    }
  }
}
]]></script>
        <defs>
                <circle id="rim" cx="0" cy="0" r="7"/>
                <circle id="rim2" cx="0" cy="0" r="3.5"/>
                <g id="zoomPlus">
                        <use xlink:href="#rim" fill="#404040">
                                <set attributeName="fill" to="#808080" begin="zoomplus.mouseover" end="zoomplus.mouseout"/>
                        </use>
                        <path d="M-4,0h8M0,-4v8" fill="none" stroke="white" stroke-width="1.5" pointer-events="none"/>
                </g>
                <g id="zoomMin">
                        <use xlink:href="#rim" fill="#404040">
                                <set attributeName="fill" to="#808080" begin="zoomminus.mouseover" end="zoomminus.mouseout"/>
                        </use>
                        <path d="M-4,0h8" fill="none" stroke="white" stroke-width="1.5" pointer-events="none"/>
                </g>
                <g id="dirArrow">
                        <path fill="none" stroke="white" stroke-width="1.5" d="M0,-3.0v7 M-2.5,-0.5L0,-3.0L2.5,-0.5"/>
                </g>
               <g id="resetDef">
                       <use xlink:href="#rim2" fill="#404040">
                               <set attributeName="fill" to="#808080" begin="reset.mouseover" end="reset.mouseout"/>
                       </use>
               </g>
        </defs>

<script type="text/javascript">
var viewWidth = 879;
var viewHeight = 182;
var sectionId = 'dynsection-0';
</script>
<script xlink:href="svgpan.js"/>
<svg id="graph" class="graph">
<g id="viewport">
<title>ce103_hw4_medical_store_lib.FileUtility.appendBlock</title>
<!-- Node1 -->
<g id="node1" class="node">
<title>Node1</title>
<g id="a_node1"><a xlink:title=" ">
<polygon fill="#999999" stroke="#666666" points="871,-102 737,-102 737,-72 871,-72 871,-102"/>
<text text-anchor="start" x="745" y="-90" font-family="Helvetica,sans-Serif" font-size="10.00">ce103_hw4_medical_store</text>
<text text-anchor="middle" x="804" y="-79" font-family="Helvetica,sans-Serif" font-size="10.00">_lib.FileUtility.appendBlock</text>
</a>
</g>
</g>
<!-- Node2 -->
<g id="node2" class="node">
<title>Node2</title>
<g id="a_node2"><a xlink:href="classce103__hw4__medical__store__app_1_1_insider_of_the_menu.html#a4e19bce8c519e748af92a2347e490ace" target="_top" xlink:title=" ">
<polygon fill="white" stroke="#666666" points="690.5,-174 511.5,-174 511.5,-144 690.5,-144 690.5,-174"/>
<text text-anchor="start" x="519.5" y="-162" font-family="Helvetica,sans-Serif" font-size="10.00">ce103_hw4_medical_store</text>
<text text-anchor="middle" x="601" y="-151" font-family="Helvetica,sans-Serif" font-size="10.00">_app.InsiderOfTheMenu.addCustomer</text>
</a>
</g>
</g>
<!-- Node1&#45;&gt;Node2 -->
<g id="edge1" class="edge">
<title>Node1&#45;&gt;Node2</title>
<path fill="none" stroke="#63b8ff" d="M764.01,-107.62C745.32,-116.91 722.39,-127.46 701,-135 692.16,-138.12 682.74,-140.97 673.35,-143.54"/>
<polygon fill="#63b8ff" stroke="#63b8ff" points="765.5,-110.79 772.85,-103.15 762.35,-104.54 765.5,-110.79"/>
</g>
<!-- Node6 -->
<g id="node6" class="node">
<title>Node6</title>
<g id="a_node6"><a xlink:href="classce103__hw4__medical__store__app_1_1_insider_of_the_menu.html#a5a985628df103b1884695c250f7638ea" target="_top" xlink:title=" ">
<polygon fill="white" stroke="#666666" points="687.5,-126 514.5,-126 514.5,-96 687.5,-96 687.5,-126"/>
<text text-anchor="start" x="522.5" y="-114" font-family="Helvetica,sans-Serif" font-size="10.00">ce103_hw4_medical_store</text>
<text text-anchor="middle" x="601" y="-103" font-family="Helvetica,sans-Serif" font-size="10.00">_app.InsiderOfTheMenu.addSupplier</text>
</a>
</g>
</g>
<!-- Node1&#45;&gt;Node6 -->
<g id="edge5" class="edge">
<title>Node1&#45;&gt;Node6</title>
<path fill="none" stroke="#63b8ff" d="M725.43,-96.26C713.06,-97.74 700.2,-99.27 687.66,-100.77"/>
<polygon fill="#63b8ff" stroke="#63b8ff" points="725.61,-99.77 735.13,-95.1 724.78,-92.81 725.61,-99.77"/>
</g>
<!-- Node7 -->
<g id="node7" class="node">
<title>Node7</title>
<g id="a_node7"><a xlink:href="classce103__hw4__medical__store__app_1_1_insider_of_the_menu.html#abbb3877121688713fb9c89334fd093b9" target="_top" xlink:title=" ">
<polygon fill="white" stroke="#666666" points="701,-78 501,-78 501,-48 701,-48 701,-78"/>
<text text-anchor="start" x="509" y="-66" font-family="Helvetica,sans-Serif" font-size="10.00">ce103_hw4_medical_store</text>
<text text-anchor="middle" x="601" y="-55" font-family="Helvetica,sans-Serif" font-size="10.00">_app.InsiderOfTheMenu.purchasemedicine</text>
</a>
</g>
</g>
<!-- Node1&#45;&gt;Node7 -->
<g id="edge7" class="edge">
<title>Node1&#45;&gt;Node7</title>
<path fill="none" stroke="#63b8ff" d="M725.3,-77.72C717.45,-76.79 709.41,-75.82 701.38,-74.87"/>
<polygon fill="#63b8ff" stroke="#63b8ff" points="724.78,-81.19 735.13,-78.9 725.61,-74.23 724.78,-81.19"/>
</g>
<!-- Node8 -->
<g id="node8" class="node">
<title>Node8</title>
<g id="a_node8"><a xlink:href="classce103__hw4__medical__store__app_1_1_insider_of_the_menu.html#a06e911654aeebf8dcb003c0bec404f3d" target="_top" xlink:title=" ">
<polygon fill="white" stroke="#666666" points="690.5,-30 511.5,-30 511.5,0 690.5,0 690.5,-30"/>
<text text-anchor="start" x="519.5" y="-18" font-family="Helvetica,sans-Serif" font-size="10.00">ce103_hw4_medical_store</text>
<text text-anchor="middle" x="601" y="-7" font-family="Helvetica,sans-Serif" font-size="10.00">_app.InsiderOfTheMenu.salemedicine</text>
</a>
</g>
</g>
<!-- Node1&#45;&gt;Node8 -->
<g id="edge9" class="edge">
<title>Node1&#45;&gt;Node8</title>
<path fill="none" stroke="#63b8ff" d="M764.01,-66.38C745.32,-57.09 722.39,-46.54 701,-39 692.16,-35.88 682.74,-33.03 673.35,-30.46"/>
<polygon fill="#63b8ff" stroke="#63b8ff" points="762.35,-69.46 772.85,-70.85 765.5,-63.21 762.35,-69.46"/>
</g>
<!-- Node3 -->
<g id="node3" class="node">
<title>Node3</title>
<g id="a_node3"><a xlink:href="classce103__hw4__medical__store__app_1_1_menu.html#af40268756f4be60ece4bf674210a17bb" target="_top" xlink:title=" ">
<polygon fill="white" stroke="#666666" points="465,-102 334,-102 334,-72 465,-72 465,-102"/>
<text text-anchor="start" x="342" y="-90" font-family="Helvetica,sans-Serif" font-size="10.00">ce103_hw4_medical_store</text>
<text text-anchor="middle" x="399.5" y="-79" font-family="Helvetica,sans-Serif" font-size="10.00">_app.Menu.performAction</text>
</a>
</g>
</g>
<!-- Node2&#45;&gt;Node3 -->
<g id="edge2" class="edge">
<title>Node2&#45;&gt;Node3</title>
<path fill="none" stroke="#63b8ff" d="M517.5,-140.39C511.88,-138.69 506.33,-136.9 501,-135 475.86,-126.06 448.62,-112.81 428.85,-102.49"/>
<polygon fill="#63b8ff" stroke="#63b8ff" points="516.33,-143.69 526.91,-143.09 518.27,-136.97 516.33,-143.69"/>
</g>
<!-- Node4 -->
<g id="node4" class="node">
<title>Node4</title>
<g id="a_node4"><a xlink:href="classce103__hw4__medical__store__app_1_1_menu.html#a8890452f69a3d1c94a7951344bd7515b" target="_top" xlink:title=" ">
<polygon fill="white" stroke="#666666" points="298,-102 167,-102 167,-72 298,-72 298,-102"/>
<text text-anchor="start" x="175" y="-90" font-family="Helvetica,sans-Serif" font-size="10.00">ce103_hw4_medical_store</text>
<text text-anchor="middle" x="232.5" y="-79" font-family="Helvetica,sans-Serif" font-size="10.00">_app.Menu.runMenu</text>
</a>
</g>
</g>
<!-- Node3&#45;&gt;Node4 -->
<g id="edge3" class="edge">
<title>Node3&#45;&gt;Node4</title>
<path fill="none" stroke="#63b8ff" d="M322.45,-87C314.39,-87 306.24,-87 298.32,-87"/>
<polygon fill="#63b8ff" stroke="#63b8ff" points="322.25,-90.5 332.25,-87 322.25,-83.5 322.25,-90.5"/>
</g>
<!-- Node5 -->
<g id="node5" class="node">
<title>Node5</title>
<g id="a_node5"><a xlink:href="classce103__hw4__medical__store__app_1_1_menu.html#a906bd0b055bce495d306a21e81cbec1b" target="_top" xlink:title=" ">
<polygon fill="white" stroke="#666666" points="131,-102 0,-102 0,-72 131,-72 131,-102"/>
<text text-anchor="start" x="8" y="-90" font-family="Helvetica,sans-Serif" font-size="10.00">ce103_hw4_medical_store</text>
<text text-anchor="middle" x="65.5" y="-79" font-family="Helvetica,sans-Serif" font-size="10.00">_app.Menu.main</text>
</a>
</g>
</g>
<!-- Node4&#45;&gt;Node5 -->
<g id="edge4" class="edge">
<title>Node4&#45;&gt;Node5</title>
<path fill="none" stroke="#63b8ff" d="M155.45,-87C147.39,-87 139.24,-87 131.32,-87"/>
<polygon fill="#63b8ff" stroke="#63b8ff" points="155.25,-90.5 165.25,-87 155.25,-83.5 155.25,-90.5"/>
</g>
<!-- Node6&#45;&gt;Node3 -->
<g id="edge6" class="edge">
<title>Node6&#45;&gt;Node3</title>
<path fill="none" stroke="#63b8ff" d="M503.05,-99.34C490.28,-97.8 477.45,-96.26 465.4,-94.81"/>
<polygon fill="#63b8ff" stroke="#63b8ff" points="502.39,-102.78 512.73,-100.5 503.22,-95.83 502.39,-102.78"/>
</g>
<!-- Node7&#45;&gt;Node3 -->
<g id="edge8" class="edge">
<title>Node7&#45;&gt;Node3</title>
<path fill="none" stroke="#63b8ff" d="M489.12,-76.34C481.07,-77.31 473.12,-78.26 465.48,-79.18"/>
<polygon fill="#63b8ff" stroke="#63b8ff" points="489.53,-79.82 499.04,-75.15 488.69,-72.87 489.53,-79.82"/>
</g>
<!-- Node8&#45;&gt;Node3 -->
<g id="edge10" class="edge">
<title>Node8&#45;&gt;Node3</title>
<path fill="none" stroke="#63b8ff" d="M517.5,-33.61C511.88,-35.31 506.33,-37.1 501,-39 475.86,-47.94 448.62,-61.19 428.85,-71.51"/>
<polygon fill="#63b8ff" stroke="#63b8ff" points="518.27,-37.03 526.91,-30.91 516.33,-30.31 518.27,-37.03"/>
</g>
</g>
</svg>
        <g id="navigator" transform="translate(0 0)" fill="#404254">
                <rect fill="#f2f5e9" fill-opacity="0.5" stroke="#606060" stroke-width=".5" x="0" y="0" width="60" height="60"/>
                <use id="zoomplus" xlink:href="#zoomPlus" x="17" y="9" onmousedown="handleZoom(evt,'in')"/>
                <use id="zoomminus" xlink:href="#zoomMin" x="42" y="9" onmousedown="handleZoom(evt,'out')"/>
                <use id="reset" xlink:href="#resetDef" x="30" y="36" onmousedown="handleReset()"/>
                <g id="arrowUp" xlink:href="#dirArrow" transform="translate(30 24)" onmousedown="handlePan(0,-1)">
                  <use xlink:href="#rim" fill="#404040">
                        <set attributeName="fill" to="#808080" begin="arrowUp.mouseover" end="arrowUp.mouseout"/>
                  </use>
                  <path fill="none" stroke="white" stroke-width="1.5" d="M0,-3.0v7 M-2.5,-0.5L0,-3.0L2.5,-0.5"/>
                </g>
                <g id="arrowRight" xlink:href="#dirArrow" transform="rotate(90) translate(36 -43)" onmousedown="handlePan(1,0)">
                  <use xlink:href="#rim" fill="#404040">
                        <set attributeName="fill" to="#808080" begin="arrowRight.mouseover" end="arrowRight.mouseout"/>
                  </use>
                  <path fill="none" stroke="white" stroke-width="1.5" d="M0,-3.0v7 M-2.5,-0.5L0,-3.0L2.5,-0.5"/>
                </g>
                <g id="arrowDown" xlink:href="#dirArrow" transform="rotate(180) translate(-30 -48)" onmousedown="handlePan(0,1)">
                  <use xlink:href="#rim" fill="#404040">
                        <set attributeName="fill" to="#808080" begin="arrowDown.mouseover" end="arrowDown.mouseout"/>
                  </use>
                  <path fill="none" stroke="white" stroke-width="1.5" d="M0,-3.0v7 M-2.5,-0.5L0,-3.0L2.5,-0.5"/>
                </g>
                <g id="arrowLeft" xlink:href="#dirArrow" transform="rotate(270) translate(-36 17)" onmousedown="handlePan(-1,0)">
                  <use xlink:href="#rim" fill="#404040">
                        <set attributeName="fill" to="#808080" begin="arrowLeft.mouseover" end="arrowLeft.mouseout"/>
                  </use>
                  <path fill="none" stroke="white" stroke-width="1.5" d="M0,-3.0v7 M-2.5,-0.5L0,-3.0L2.5,-0.5"/>
                </g>
        </g>
        <svg viewBox="0 0 15 15" width="100%" height="30px" preserveAspectRatio="xMaxYMin meet">
         <g id="arrow_out" transform="scale(0.3 0.3)">
          <a xlink:href="classce103__hw4__medical__store__lib_1_1_file_utility_a63f68a104500f89f20d04381d0376ba6_icgraph_org.svg" target="_base">
           <rect id="button" ry="5" rx="5" y="6" x="6" height="38" width="38"
                fill="#f2f5e9" fill-opacity="0.5" stroke="#606060" stroke-width="1.0"/>
           <path id="arrow"
             d="M 11.500037,31.436501 C 11.940474,20.09759 22.043105,11.32322 32.158766,21.979434 L 37.068811,17.246167 C 37.068811,17.246167 37.088388,32 37.088388,32 L 22.160133,31.978069 C 22.160133,31.978069 26.997745,27.140456 26.997745,27.140456 C 18.528582,18.264221 13.291696,25.230495 11.500037,31.436501 z"
             style="fill:#404040;"/>
          </a>
         </g>
        </svg>
</svg>
