<?xml version="1.0" encoding="UTF-8" standalone="no"?>
<!DOCTYPE svg PUBLIC "-//W3C//DTD SVG 1.1//EN"
 "http://www.w3.org/Graphics/SVG/1.1/DTD/svg11.dtd">
<!-- Generated by graphviz version 7.0.4 (20221203.1631)
 -->
<!-- Title: ce103_hw4_medical_store_lib.ConversionUtility.byteArrayToString Pages: 1 -->
<svg width="1069pt" height="326pt"
 viewBox="0.00 0.00 1069.00 326.00" xmlns="http://www.w3.org/2000/svg" xmlns:xlink="http://www.w3.org/1999/xlink">
<g id="graph0" class="graph" transform="scale(1 1) rotate(0) translate(4 322)">
<title>ce103_hw4_medical_store_lib.ConversionUtility.byteArrayToString</title>
<!-- Node1 -->
<g id="node1" class="node">
<title>Node1</title>
<g id="a_node1"><a xlink:title=" ">
<polygon fill="#999999" stroke="#666666" points="1061,-217.5 909,-217.5 909,-176.5 1061,-176.5 1061,-217.5"/>
<text text-anchor="start" x="917" y="-205.5" font-family="Helvetica,sans-Serif" font-size="10.00">ce103_hw4_medical_store</text>
<text text-anchor="start" x="917" y="-194.5" font-family="Helvetica,sans-Serif" font-size="10.00">_lib.ConversionUtility.byteArray</text>
<text text-anchor="middle" x="985" y="-183.5" font-family="Helvetica,sans-Serif" font-size="10.00">ToString</text>
</a>
</g>
</g>
<!-- Node2 -->
<g id="node2" class="node">
<title>Node2</title>
<g id="a_node2"><a xlink:href="classce103__hw4__medical__store__lib_1_1_bill.html#a78ba04afe71387857fefa66b8ce578ff" target="_top" xlink:title=" ">
<polygon fill="white" stroke="#666666" points="873,-314 722,-314 722,-284 873,-284 873,-314"/>
<text text-anchor="start" x="730" y="-302" font-family="Helvetica,sans-Serif" font-size="10.00">ce103_hw4_medical_store</text>
<text text-anchor="middle" x="797.5" y="-291" font-family="Helvetica,sans-Serif" font-size="10.00">_lib.Bill.byteArrayBlockToBook</text>
</a>
</g>
</g>
<!-- Node1&#45;&gt;Node2 -->
<g id="edge1" class="edge">
<title>Node1&#45;&gt;Node2</title>
<path fill="none" stroke="#63b8ff" d="M950.04,-224.92C928.89,-241.25 900.55,-261.28 873,-275 866.68,-278.15 859.85,-281.01 852.98,-283.57"/>
<polygon fill="#63b8ff" stroke="#63b8ff" points="952.03,-227.8 957.74,-218.88 947.71,-222.29 952.03,-227.8"/>
</g>
<!-- Node3 -->
<g id="node3" class="node">
<title>Node3</title>
<g id="a_node3"><a xlink:href="classce103__hw4__medical__store__lib_1_1_customer.html#ae766307af9c3831757bb80b0c8adc4da" target="_top" xlink:title=" ">
<polygon fill="white" stroke="#666666" points="871.5,-265.5 723.5,-265.5 723.5,-224.5 871.5,-224.5 871.5,-265.5"/>
<text text-anchor="start" x="731.5" y="-253.5" font-family="Helvetica,sans-Serif" font-size="10.00">ce103_hw4_medical_store</text>
<text text-anchor="start" x="731.5" y="-242.5" font-family="Helvetica,sans-Serif" font-size="10.00">_lib.Customer.ByteArrayBlock</text>
<text text-anchor="middle" x="797.5" y="-231.5" font-family="Helvetica,sans-Serif" font-size="10.00">ToCustomer</text>
</a>
</g>
</g>
<!-- Node1&#45;&gt;Node3 -->
<g id="edge2" class="edge">
<title>Node1&#45;&gt;Node3</title>
<path fill="none" stroke="#63b8ff" d="M897.65,-219.34C889,-221.58 880.28,-223.84 871.78,-226.04"/>
<polygon fill="#63b8ff" stroke="#63b8ff" points="898.28,-222.8 907.08,-216.9 896.53,-216.02 898.28,-222.8"/>
</g>
<!-- Node9 -->
<g id="node9" class="node">
<title>Node9</title>
<g id="a_node9"><a xlink:href="classce103__hw4__medical__store__lib_1_1_medicine.html#a139a6e9d94edbac2790895a083f11813" target="_top" xlink:title=" ">
<polygon fill="white" stroke="#666666" points="870,-188.5 725,-188.5 725,-147.5 870,-147.5 870,-188.5"/>
<text text-anchor="start" x="733" y="-176.5" font-family="Helvetica,sans-Serif" font-size="10.00">ce103_hw4_medical_store</text>
<text text-anchor="start" x="733" y="-165.5" font-family="Helvetica,sans-Serif" font-size="10.00">_lib.Medicine.ByteArrayBlock</text>
<text text-anchor="middle" x="797.5" y="-154.5" font-family="Helvetica,sans-Serif" font-size="10.00">ToMedicine</text>
</a>
</g>
</g>
<!-- Node1&#45;&gt;Node9 -->
<g id="edge9" class="edge">
<title>Node1&#45;&gt;Node9</title>
<path fill="none" stroke="#63b8ff" d="M897.2,-183.43C888.19,-182.02 879.1,-180.6 870.29,-179.22"/>
<polygon fill="#63b8ff" stroke="#63b8ff" points="896.63,-186.88 907.05,-184.97 897.72,-179.97 896.63,-186.88"/>
</g>
<!-- Node13 -->
<g id="node13" class="node">
<title>Node13</title>
<g id="a_node13"><a xlink:href="classce103__hw4__medical__store__lib_1_1_supplier.html#abad3a97eeb6c990ec1fb06b41739e576" target="_top" xlink:title=" ">
<polygon fill="white" stroke="#666666" points="867.5,-83.5 727.5,-83.5 727.5,-42.5 867.5,-42.5 867.5,-83.5"/>
<text text-anchor="start" x="735.5" y="-71.5" font-family="Helvetica,sans-Serif" font-size="10.00">ce103_hw4_medical_store</text>
<text text-anchor="start" x="735.5" y="-60.5" font-family="Helvetica,sans-Serif" font-size="10.00">_lib.Supplier.byteArrayBlock</text>
<text text-anchor="middle" x="797.5" y="-49.5" font-family="Helvetica,sans-Serif" font-size="10.00">ToSupplier</text>
</a>
</g>
</g>
<!-- Node1&#45;&gt;Node13 -->
<g id="edge16" class="edge">
<title>Node1&#45;&gt;Node13</title>
<path fill="none" stroke="#63b8ff" d="M946,-169.55C910.79,-144.11 859.19,-106.84 827.28,-83.79"/>
<polygon fill="#63b8ff" stroke="#63b8ff" points="943.63,-172.16 953.79,-175.18 947.73,-166.48 943.63,-172.16"/>
</g>
<!-- Node4 -->
<g id="node4" class="node">
<title>Node4</title>
<g id="a_node4"><a xlink:href="classce103__hw4__medical__store__app_1_1_insider_of_the_menu.html#ac0c61e30bf8522c24d43db9d7cfdccba" target="_top" xlink:title=" ">
<polygon fill="white" stroke="#666666" points="670,-318 517,-318 517,-288 670,-288 670,-318"/>
<text text-anchor="start" x="525" y="-306" font-family="Helvetica,sans-Serif" font-size="10.00">ce103_hw4_medical_store</text>
<text text-anchor="middle" x="593.5" y="-295" font-family="Helvetica,sans-Serif" font-size="10.00">_app.InsiderOfTheMenu.listcust</text>
</a>
</g>
</g>
<!-- Node3&#45;&gt;Node4 -->
<g id="edge3" class="edge">
<title>Node3&#45;&gt;Node4</title>
<path fill="none" stroke="#63b8ff" d="M719.04,-269.28C707.98,-272.62 696.71,-275.95 686,-279 675.89,-281.88 665.12,-284.82 654.65,-287.61"/>
<polygon fill="#63b8ff" stroke="#63b8ff" points="720.02,-272.64 728.57,-266.39 717.99,-265.95 720.02,-272.64"/>
</g>
<!-- Node8 -->
<g id="node8" class="node">
<title>Node8</title>
<g id="a_node8"><a xlink:href="classce103__hw4__medical__store__app_1_1_insider_of_the_menu.html#afe96072316b08c7e64c0c00f4d912352" target="_top" xlink:title=" ">
<polygon fill="white" stroke="#666666" points="678.5,-270 508.5,-270 508.5,-240 678.5,-240 678.5,-270"/>
<text text-anchor="start" x="516.5" y="-258" font-family="Helvetica,sans-Serif" font-size="10.00">ce103_hw4_medical_store</text>
<text text-anchor="middle" x="593.5" y="-247" font-family="Helvetica,sans-Serif" font-size="10.00">_app.InsiderOfTheMenu.searchcust</text>
</a>
</g>
</g>
<!-- Node3&#45;&gt;Node8 -->
<g id="edge7" class="edge">
<title>Node3&#45;&gt;Node8</title>
<path fill="none" stroke="#63b8ff" d="M711.78,-249.19C700.91,-249.73 689.77,-250.28 678.9,-250.82"/>
<polygon fill="#63b8ff" stroke="#63b8ff" points="711.68,-252.7 721.49,-248.71 711.33,-245.71 711.68,-252.7"/>
</g>
<!-- Node5 -->
<g id="node5" class="node">
<title>Node5</title>
<g id="a_node5"><a xlink:href="classce103__hw4__medical__store__app_1_1_menu.html#af40268756f4be60ece4bf674210a17bb" target="_top" xlink:title=" ">
<polygon fill="white" stroke="#666666" points="465,-174 334,-174 334,-144 465,-144 465,-174"/>
<text text-anchor="start" x="342" y="-162" font-family="Helvetica,sans-Serif" font-size="10.00">ce103_hw4_medical_store</text>
<text text-anchor="middle" x="399.5" y="-151" font-family="Helvetica,sans-Serif" font-size="10.00">_app.Menu.performAction</text>
</a>
</g>
</g>
<!-- Node4&#45;&gt;Node5 -->
<g id="edge4" class="edge">
<title>Node4&#45;&gt;Node5</title>
<path fill="none" stroke="#63b8ff" d="M507.2,-282.62C505.07,-281.47 503,-280.27 501,-279 457.85,-251.64 423.88,-199.75 408.87,-174.11"/>
<polygon fill="#63b8ff" stroke="#63b8ff" points="505.55,-285.71 516.08,-286.85 508.56,-279.39 505.55,-285.71"/>
</g>
<!-- Node6 -->
<g id="node6" class="node">
<title>Node6</title>
<g id="a_node6"><a xlink:href="classce103__hw4__medical__store__app_1_1_menu.html#a8890452f69a3d1c94a7951344bd7515b" target="_top" xlink:title=" ">
<polygon fill="white" stroke="#666666" points="298,-174 167,-174 167,-144 298,-144 298,-174"/>
<text text-anchor="start" x="175" y="-162" font-family="Helvetica,sans-Serif" font-size="10.00">ce103_hw4_medical_store</text>
<text text-anchor="middle" x="232.5" y="-151" font-family="Helvetica,sans-Serif" font-size="10.00">_app.Menu.runMenu</text>
</a>
</g>
</g>
<!-- Node5&#45;&gt;Node6 -->
<g id="edge5" class="edge">
<title>Node5&#45;&gt;Node6</title>
<path fill="none" stroke="#63b8ff" d="M322.45,-159C314.39,-159 306.24,-159 298.32,-159"/>
<polygon fill="#63b8ff" stroke="#63b8ff" points="322.25,-162.5 332.25,-159 322.25,-155.5 322.25,-162.5"/>
</g>
<!-- Node7 -->
<g id="node7" class="node">
<title>Node7</title>
<g id="a_node7"><a xlink:href="classce103__hw4__medical__store__app_1_1_menu.html#a906bd0b055bce495d306a21e81cbec1b" target="_top" xlink:title=" ">
<polygon fill="white" stroke="#666666" points="131,-174 0,-174 0,-144 131,-144 131,-174"/>
<text text-anchor="start" x="8" y="-162" font-family="Helvetica,sans-Serif" font-size="10.00">ce103_hw4_medical_store</text>
<text text-anchor="middle" x="65.5" y="-151" font-family="Helvetica,sans-Serif" font-size="10.00">_app.Menu.main</text>
</a>
</g>
</g>
<!-- Node6&#45;&gt;Node7 -->
<g id="edge6" class="edge">
<title>Node6&#45;&gt;Node7</title>
<path fill="none" stroke="#63b8ff" d="M155.45,-159C147.39,-159 139.24,-159 131.32,-159"/>
<polygon fill="#63b8ff" stroke="#63b8ff" points="155.25,-162.5 165.25,-159 155.25,-155.5 155.25,-162.5"/>
</g>
<!-- Node8&#45;&gt;Node5 -->
<g id="edge8" class="edge">
<title>Node8&#45;&gt;Node5</title>
<path fill="none" stroke="#63b8ff" d="M511.92,-235.67C508.18,-234.21 504.53,-232.66 501,-231 469.14,-216.04 436.85,-190.7 417.77,-174.42"/>
<polygon fill="#63b8ff" stroke="#63b8ff" points="510.59,-238.91 521.18,-239.02 512.97,-232.33 510.59,-238.91"/>
</g>
<!-- Node10 -->
<g id="node10" class="node">
<title>Node10</title>
<g id="a_node10"><a xlink:href="classce103__hw4__medical__store__app_1_1_insider_of_the_menu.html#ada4f93b1d40bbc169bf20e70efdda5c9" target="_top" xlink:title=" ">
<polygon fill="white" stroke="#666666" points="680,-222 507,-222 507,-192 680,-192 680,-222"/>
<text text-anchor="start" x="515" y="-210" font-family="Helvetica,sans-Serif" font-size="10.00">ce103_hw4_medical_store</text>
<text text-anchor="middle" x="593.5" y="-199" font-family="Helvetica,sans-Serif" font-size="10.00">_app.InsiderOfTheMenu.listmedicine</text>
</a>
</g>
</g>
<!-- Node9&#45;&gt;Node10 -->
<g id="edge10" class="edge">
<title>Node9&#45;&gt;Node10</title>
<path fill="none" stroke="#63b8ff" d="M713.54,-184.02C700.69,-186.5 687.44,-189.06 674.65,-191.53"/>
<polygon fill="#63b8ff" stroke="#63b8ff" points="714.07,-187.48 723.23,-182.15 712.75,-180.61 714.07,-187.48"/>
</g>
<!-- Node11 -->
<g id="node11" class="node">
<title>Node11</title>
<g id="a_node11"><a xlink:href="classce103__hw4__medical__store__app_1_1_insider_of_the_menu.html#a06e911654aeebf8dcb003c0bec404f3d" target="_top" xlink:title=" ">
<polygon fill="white" stroke="#666666" points="683,-174 504,-174 504,-144 683,-144 683,-174"/>
<text text-anchor="start" x="512" y="-162" font-family="Helvetica,sans-Serif" font-size="10.00">ce103_hw4_medical_store</text>
<text text-anchor="middle" x="593.5" y="-151" font-family="Helvetica,sans-Serif" font-size="10.00">_app.InsiderOfTheMenu.salemedicine</text>
</a>
</g>
</g>
<!-- Node9&#45;&gt;Node11 -->
<g id="edge12" class="edge">
<title>Node9&#45;&gt;Node11</title>
<path fill="none" stroke="#63b8ff" d="M713.27,-164.29C703.41,-163.85 693.32,-163.4 683.38,-162.96"/>
<polygon fill="#63b8ff" stroke="#63b8ff" points="713.06,-167.79 723.2,-164.73 713.37,-160.79 713.06,-167.79"/>
</g>
<!-- Node12 -->
<g id="node12" class="node">
<title>Node12</title>
<g id="a_node12"><a xlink:href="classce103__hw4__medical__store__app_1_1_insider_of_the_menu.html#ac76ee95213f4e41b88d57c028f610c33" target="_top" xlink:title=" ">
<polygon fill="white" stroke="#666666" points="686,-126 501,-126 501,-96 686,-96 686,-126"/>
<text text-anchor="start" x="509" y="-114" font-family="Helvetica,sans-Serif" font-size="10.00">ce103_hw4_medical_store</text>
<text text-anchor="middle" x="593.5" y="-103" font-family="Helvetica,sans-Serif" font-size="10.00">_app.InsiderOfTheMenu.stockmedicine</text>
</a>
</g>
</g>
<!-- Node9&#45;&gt;Node12 -->
<g id="edge14" class="edge">
<title>Node9&#45;&gt;Node12</title>
<path fill="none" stroke="#63b8ff" d="M716.89,-143.88C706.52,-140.84 696.02,-137.81 686,-135 675.88,-132.16 665.1,-129.24 654.63,-126.46"/>
<polygon fill="#63b8ff" stroke="#63b8ff" points="715.6,-147.15 726.19,-146.62 717.58,-140.43 715.6,-147.15"/>
</g>
<!-- Node10&#45;&gt;Node5 -->
<g id="edge11" class="edge">
<title>Node10&#45;&gt;Node5</title>
<path fill="none" stroke="#63b8ff" d="M519.71,-188.8C500.75,-184.06 480.51,-179 462.19,-174.42"/>
<polygon fill="#63b8ff" stroke="#63b8ff" points="518.67,-192.15 529.22,-191.18 520.37,-185.36 518.67,-192.15"/>
</g>
<!-- Node11&#45;&gt;Node5 -->
<g id="edge13" class="edge">
<title>Node11&#45;&gt;Node5</title>
<path fill="none" stroke="#63b8ff" d="M492.06,-159C483.01,-159 474.02,-159 465.4,-159"/>
<polygon fill="#63b8ff" stroke="#63b8ff" points="492.01,-162.5 502.01,-159 492.01,-155.5 492.01,-162.5"/>
</g>
<!-- Node12&#45;&gt;Node5 -->
<g id="edge15" class="edge">
<title>Node12&#45;&gt;Node5</title>
<path fill="none" stroke="#63b8ff" d="M519.71,-129.2C500.75,-133.94 480.51,-139 462.19,-143.58"/>
<polygon fill="#63b8ff" stroke="#63b8ff" points="520.37,-132.64 529.22,-126.82 518.67,-125.85 520.37,-132.64"/>
</g>
<!-- Node14 -->
<g id="node14" class="node">
<title>Node14</title>
<g id="a_node14"><a xlink:href="classce103__hw4__medical__store__app_1_1_insider_of_the_menu.html#a94e1694f1b1ad5550fc4cb63026d0088" target="_top" xlink:title=" ">
<polygon fill="white" stroke="#666666" points="671,-78 516,-78 516,-48 671,-48 671,-78"/>
<text text-anchor="start" x="524" y="-66" font-family="Helvetica,sans-Serif" font-size="10.00">ce103_hw4_medical_store</text>
<text text-anchor="middle" x="593.5" y="-55" font-family="Helvetica,sans-Serif" font-size="10.00">_app.InsiderOfTheMenu.listsupp</text>
</a>
</g>
</g>
<!-- Node13&#45;&gt;Node14 -->
<g id="edge17" class="edge">
<title>Node13&#45;&gt;Node14</title>
<path fill="none" stroke="#63b8ff" d="M716.11,-63C701.33,-63 685.93,-63 671.26,-63"/>
<polygon fill="#63b8ff" stroke="#63b8ff" points="715.75,-66.5 725.75,-63 715.75,-59.5 715.75,-66.5"/>
</g>
<!-- Node15 -->
<g id="node15" class="node">
<title>Node15</title>
<g id="a_node15"><a xlink:href="classce103__hw4__medical__store__app_1_1_insider_of_the_menu.html#a3220a571a81455e1bacc73eaff22a3a1" target="_top" xlink:title=" ">
<polygon fill="white" stroke="#666666" points="679.5,-30 507.5,-30 507.5,0 679.5,0 679.5,-30"/>
<text text-anchor="start" x="515.5" y="-18" font-family="Helvetica,sans-Serif" font-size="10.00">ce103_hw4_medical_store</text>
<text text-anchor="middle" x="593.5" y="-7" font-family="Helvetica,sans-Serif" font-size="10.00">_app.InsiderOfTheMenu.searchsupp</text>
</a>
</g>
</g>
<!-- Node13&#45;&gt;Node15 -->
<g id="edge19" class="edge">
<title>Node13&#45;&gt;Node15</title>
<path fill="none" stroke="#63b8ff" d="M716.31,-43.95C697.48,-39.47 677.64,-34.76 659.56,-30.46"/>
<polygon fill="#63b8ff" stroke="#63b8ff" points="715.25,-47.29 725.79,-46.2 716.87,-40.48 715.25,-47.29"/>
</g>
<!-- Node14&#45;&gt;Node5 -->
<g id="edge18" class="edge">
<title>Node14&#45;&gt;Node5</title>
<path fill="none" stroke="#63b8ff" d="M511.92,-82.33C508.18,-83.79 504.53,-85.34 501,-87 469.14,-101.96 436.85,-127.3 417.77,-143.58"/>
<polygon fill="#63b8ff" stroke="#63b8ff" points="512.97,-85.67 521.18,-78.98 510.59,-79.09 512.97,-85.67"/>
</g>
<!-- Node15&#45;&gt;Node5 -->
<g id="edge20" class="edge">
<title>Node15&#45;&gt;Node5</title>
<path fill="none" stroke="#63b8ff" d="M507.2,-35.38C505.07,-36.53 503,-37.73 501,-39 457.85,-66.36 423.88,-118.25 408.87,-143.89"/>
<polygon fill="#63b8ff" stroke="#63b8ff" points="508.56,-38.61 516.08,-31.15 505.55,-32.29 508.56,-38.61"/>
</g>
</g>
</svg>
