<?xml version="1.0" encoding="UTF-8" standalone="no"?>
<!DOCTYPE svg PUBLIC "-//W3C//DTD SVG 1.1//EN"
 "http://www.w3.org/Graphics/SVG/1.1/DTD/svg11.dtd">
<!-- Generated by graphviz version 7.0.4 (20221203.1631)
 -->
<!-- Title: ce103_hw4_medical_store_lib.Bill.bookToByteArrayBlock Pages: 1 -->
<svg width="334pt" height="397pt"
 viewBox="0.00 0.00 334.00 396.50" xmlns="http://www.w3.org/2000/svg" xmlns:xlink="http://www.w3.org/1999/xlink">
<g id="graph0" class="graph" transform="scale(1 1) rotate(0) translate(4 392.5)">
<title>ce103_hw4_medical_store_lib.Bill.bookToByteArrayBlock</title>
<!-- Node1 -->
<g id="node1" class="node">
<title>Node1</title>
<g id="a_node1"><a xlink:title=" ">
<polygon fill="#999999" stroke="#666666" points="151,-220.5 0,-220.5 0,-190.5 151,-190.5 151,-220.5"/>
<text text-anchor="start" x="8" y="-208.5" font-family="Helvetica,sans-Serif" font-size="10.00">ce103_hw4_medical_store</text>
<text text-anchor="middle" x="75.5" y="-197.5" font-family="Helvetica,sans-Serif" font-size="10.00">_lib.Bill.bookToByteArrayBlock</text>
</a>
</g>
</g>
<!-- Node2 -->
<g id="node2" class="node">
<title>Node2</title>
<g id="a_node2"><a xlink:href="classce103__hw4__medical__store__lib_1_1_bill.html#acdfab82988088b07d315ce63a2fe2499" target="_top" xlink:title=" ">
<polygon fill="white" stroke="#666666" points="322,-388.5 191,-388.5 191,-358.5 322,-358.5 322,-388.5"/>
<text text-anchor="start" x="199" y="-376.5" font-family="Helvetica,sans-Serif" font-size="10.00">ce103_hw4_medical_store</text>
<text text-anchor="middle" x="256.5" y="-365.5" font-family="Helvetica,sans-Serif" font-size="10.00">_lib.Bill.getBillno</text>
</a>
</g>
</g>
<!-- Node1&#45;&gt;Node2 -->
<g id="edge1" class="edge">
<title>Node1&#45;&gt;Node2</title>
<path fill="none" stroke="#63b8ff" d="M84.33,-220.89C99.95,-250.1 137.74,-313.83 187,-349.5 188.54,-350.62 190.14,-351.69 191.79,-352.71"/>
<polygon fill="#63b8ff" stroke="#63b8ff" points="189.83,-355.63 200.29,-357.35 193.19,-349.48 189.83,-355.63"/>
</g>
<!-- Node3 -->
<g id="node3" class="node">
<title>Node3</title>
<g id="a_node3"><a xlink:href="classce103__hw4__medical__store__lib_1_1_bill.html#a823b3d5a6d05d1d08c901bf7b498b04f" target="_top" xlink:title=" ">
<polygon fill="white" stroke="#666666" points="322,-340.5 191,-340.5 191,-310.5 322,-310.5 322,-340.5"/>
<text text-anchor="start" x="199" y="-328.5" font-family="Helvetica,sans-Serif" font-size="10.00">ce103_hw4_medical_store</text>
<text text-anchor="middle" x="256.5" y="-317.5" font-family="Helvetica,sans-Serif" font-size="10.00">_lib.Bill.getcustomername</text>
</a>
</g>
</g>
<!-- Node1&#45;&gt;Node3 -->
<g id="edge2" class="edge">
<title>Node1&#45;&gt;Node3</title>
<path fill="none" stroke="#63b8ff" d="M90.46,-220.83C110.17,-241.67 148.1,-278.91 187,-301.5 189.3,-302.83 191.68,-304.11 194.12,-305.33"/>
<polygon fill="#63b8ff" stroke="#63b8ff" points="192.48,-308.43 203.03,-309.41 195.39,-302.06 192.48,-308.43"/>
</g>
<!-- Node4 -->
<g id="node4" class="node">
<title>Node4</title>
<g id="a_node4"><a xlink:href="classce103__hw4__medical__store__lib_1_1_bill.html#ad4dc080d778208c5b61054b073792ac8" target="_top" xlink:title=" ">
<polygon fill="white" stroke="#666666" points="322,-292.5 191,-292.5 191,-262.5 322,-262.5 322,-292.5"/>
<text text-anchor="start" x="199" y="-280.5" font-family="Helvetica,sans-Serif" font-size="10.00">ce103_hw4_medical_store</text>
<text text-anchor="middle" x="256.5" y="-269.5" font-family="Helvetica,sans-Serif" font-size="10.00">_lib.Bill.getid</text>
</a>
</g>
</g>
<!-- Node1&#45;&gt;Node4 -->
<g id="edge3" class="edge">
<title>Node1&#45;&gt;Node4</title>
<path fill="none" stroke="#63b8ff" d="M110.09,-220.85C131.85,-230.6 160.9,-243.28 187,-253.5 191.04,-255.08 195.24,-256.68 199.47,-258.25"/>
<polygon fill="#63b8ff" stroke="#63b8ff" points="197.99,-261.43 208.59,-261.56 200.39,-254.85 197.99,-261.43"/>
</g>
<!-- Node5 -->
<g id="node5" class="node">
<title>Node5</title>
<g id="a_node5"><a xlink:href="classce103__hw4__medical__store__lib_1_1_bill.html#a73f0f7f314bab17df333b341eee04ff4" target="_top" xlink:title=" ">
<polygon fill="white" stroke="#666666" points="322,-244.5 191,-244.5 191,-214.5 322,-214.5 322,-244.5"/>
<text text-anchor="start" x="199" y="-232.5" font-family="Helvetica,sans-Serif" font-size="10.00">ce103_hw4_medical_store</text>
<text text-anchor="middle" x="256.5" y="-221.5" font-family="Helvetica,sans-Serif" font-size="10.00">_lib.Bill.getmedicinename</text>
</a>
</g>
</g>
<!-- Node1&#45;&gt;Node5 -->
<g id="edge4" class="edge">
<title>Node1&#45;&gt;Node5</title>
<path fill="none" stroke="#63b8ff" d="M151.37,-215.54C160.64,-216.78 170.12,-218.05 179.4,-219.3"/>
<polygon fill="#63b8ff" stroke="#63b8ff" points="178.72,-222.74 189.09,-220.6 179.65,-215.8 178.72,-222.74"/>
</g>
<!-- Node6 -->
<g id="node6" class="node">
<title>Node6</title>
<g id="a_node6"><a xlink:href="classce103__hw4__medical__store__lib_1_1_bill.html#ac08e5ee72682adc54b6b468205e3b707" target="_top" xlink:title=" ">
<polygon fill="white" stroke="#666666" points="322,-196.5 191,-196.5 191,-166.5 322,-166.5 322,-196.5"/>
<text text-anchor="start" x="199" y="-184.5" font-family="Helvetica,sans-Serif" font-size="10.00">ce103_hw4_medical_store</text>
<text text-anchor="middle" x="256.5" y="-173.5" font-family="Helvetica,sans-Serif" font-size="10.00">_lib.Bill.getquantity</text>
</a>
</g>
</g>
<!-- Node1&#45;&gt;Node6 -->
<g id="edge5" class="edge">
<title>Node1&#45;&gt;Node6</title>
<path fill="none" stroke="#63b8ff" d="M151.37,-195.46C160.64,-194.22 170.12,-192.95 179.4,-191.7"/>
<polygon fill="#63b8ff" stroke="#63b8ff" points="179.65,-195.2 189.09,-190.4 178.72,-188.26 179.65,-195.2"/>
</g>
<!-- Node7 -->
<g id="node7" class="node">
<title>Node7</title>
<g id="a_node7"><a xlink:href="classce103__hw4__medical__store__lib_1_1_bill.html#aceb12298852c3bc160a3c38cdff7aa3e" target="_top" xlink:title=" ">
<polygon fill="white" stroke="#666666" points="322,-148.5 191,-148.5 191,-118.5 322,-118.5 322,-148.5"/>
<text text-anchor="start" x="199" y="-136.5" font-family="Helvetica,sans-Serif" font-size="10.00">ce103_hw4_medical_store</text>
<text text-anchor="middle" x="256.5" y="-125.5" font-family="Helvetica,sans-Serif" font-size="10.00">_lib.Bill.getrate</text>
</a>
</g>
</g>
<!-- Node1&#45;&gt;Node7 -->
<g id="edge6" class="edge">
<title>Node1&#45;&gt;Node7</title>
<path fill="none" stroke="#63b8ff" d="M110.09,-190.15C131.85,-180.4 160.9,-167.72 187,-157.5 191.04,-155.92 195.24,-154.32 199.47,-152.75"/>
<polygon fill="#63b8ff" stroke="#63b8ff" points="200.39,-156.15 208.59,-149.44 197.99,-149.57 200.39,-156.15"/>
</g>
<!-- Node8 -->
<g id="node8" class="node">
<title>Node8</title>
<g id="a_node8"><a xlink:href="classce103__hw4__medical__store__lib_1_1_conversion_utility.html#a8e0f93579075d0a1b0800e05bbcd66af" target="_top" xlink:title=" ">
<polygon fill="white" stroke="#666666" points="326,-100 187,-100 187,-59 326,-59 326,-100"/>
<text text-anchor="start" x="195" y="-88" font-family="Helvetica,sans-Serif" font-size="10.00">ce103_hw4_medical_store</text>
<text text-anchor="start" x="195" y="-77" font-family="Helvetica,sans-Serif" font-size="10.00">_lib.ConversionUtility.integer</text>
<text text-anchor="middle" x="256.5" y="-66" font-family="Helvetica,sans-Serif" font-size="10.00">ToByteArray</text>
</a>
</g>
</g>
<!-- Node1&#45;&gt;Node8 -->
<g id="edge7" class="edge">
<title>Node1&#45;&gt;Node8</title>
<path fill="none" stroke="#63b8ff" d="M91.05,-190.24C111.15,-169.82 149.2,-133.41 187,-109.5 189.05,-108.2 191.17,-106.94 193.33,-105.7"/>
<polygon fill="#63b8ff" stroke="#63b8ff" points="194.54,-109.02 201.7,-101.21 191.23,-102.85 194.54,-109.02"/>
</g>
<!-- Node9 -->
<g id="node9" class="node">
<title>Node9</title>
<g id="a_node9"><a xlink:href="classce103__hw4__medical__store__lib_1_1_conversion_utility.html#ab0ff4b89697d8bd6cc3b3a1141a86e3d" target="_top" xlink:title=" ">
<polygon fill="white" stroke="#666666" points="323.5,-41 189.5,-41 189.5,0 323.5,0 323.5,-41"/>
<text text-anchor="start" x="197.5" y="-29" font-family="Helvetica,sans-Serif" font-size="10.00">ce103_hw4_medical_store</text>
<text text-anchor="start" x="197.5" y="-18" font-family="Helvetica,sans-Serif" font-size="10.00">_lib.ConversionUtility.string</text>
<text text-anchor="middle" x="256.5" y="-7" font-family="Helvetica,sans-Serif" font-size="10.00">ToByteArray</text>
</a>
</g>
</g>
<!-- Node1&#45;&gt;Node9 -->
<g id="edge8" class="edge">
<title>Node1&#45;&gt;Node9</title>
<path fill="none" stroke="#63b8ff" d="M83.81,-190.21C99.05,-159.8 136.98,-91.13 187,-50.5 188.29,-49.45 189.62,-48.43 190.99,-47.44"/>
<polygon fill="#63b8ff" stroke="#63b8ff" points="192.68,-50.52 199.18,-42.16 188.88,-44.64 192.68,-50.52"/>
</g>
</g>
</svg>
