<?xml version="1.0" encoding="UTF-8" standalone="no"?>
<!DOCTYPE svg PUBLIC "-//W3C//DTD SVG 1.1//EN"
 "http://www.w3.org/Graphics/SVG/1.1/DTD/svg11.dtd">
<!-- Generated by graphviz version 7.0.4 (20221203.1631)
 -->
<!-- Title: ce103_hw4_medical_store_lib.Bill.byteArrayBlockToBook Pages: 1 -->
<svg width="347pt" height="397pt"
 viewBox="0.00 0.00 347.00 396.50" xmlns="http://www.w3.org/2000/svg" xmlns:xlink="http://www.w3.org/1999/xlink">
<g id="graph0" class="graph" transform="scale(1 1) rotate(0) translate(4 392.5)">
<title>ce103_hw4_medical_store_lib.Bill.byteArrayBlockToBook</title>
<!-- Node1 -->
<g id="node1" class="node">
<title>Node1</title>
<g id="a_node1"><a xlink:title=" ">
<polygon fill="#999999" stroke="#666666" points="151,-198 0,-198 0,-168 151,-168 151,-198"/>
<text text-anchor="start" x="8" y="-186" font-family="Helvetica,sans-Serif" font-size="10.00">ce103_hw4_medical_store</text>
<text text-anchor="middle" x="75.5" y="-175" font-family="Helvetica,sans-Serif" font-size="10.00">_lib.Bill.byteArrayBlockToBook</text>
</a>
</g>
</g>
<!-- Node2 -->
<g id="node2" class="node">
<title>Node2</title>
<g id="a_node2"><a xlink:href="classce103__hw4__medical__store__lib_1_1_conversion_utility.html#a73bfc22165c4d39e288482818b96f6a1" target="_top" xlink:title=" ">
<polygon fill="white" stroke="#666666" points="339,-388.5 187,-388.5 187,-347.5 339,-347.5 339,-388.5"/>
<text text-anchor="start" x="195" y="-376.5" font-family="Helvetica,sans-Serif" font-size="10.00">ce103_hw4_medical_store</text>
<text text-anchor="start" x="195" y="-365.5" font-family="Helvetica,sans-Serif" font-size="10.00">_lib.ConversionUtility.byteArray</text>
<text text-anchor="middle" x="263" y="-354.5" font-family="Helvetica,sans-Serif" font-size="10.00">ToInteger</text>
</a>
</g>
</g>
<!-- Node1&#45;&gt;Node2 -->
<g id="edge1" class="edge">
<title>Node1&#45;&gt;Node2</title>
<path fill="none" stroke="#63b8ff" d="M83.41,-198.1C98.17,-228.82 135.68,-299.03 187,-339 187.96,-339.75 188.95,-340.48 189.95,-341.2"/>
<polygon fill="#63b8ff" stroke="#63b8ff" points="187.84,-344 198.16,-346.38 191.57,-338.08 187.84,-344"/>
</g>
<!-- Node3 -->
<g id="node3" class="node">
<title>Node3</title>
<g id="a_node3"><a xlink:href="classce103__hw4__medical__store__lib_1_1_conversion_utility.html#a202f8f242fa0c940170289cb2b08b1f7" target="_top" xlink:title=" ">
<polygon fill="white" stroke="#666666" points="339,-329.5 187,-329.5 187,-288.5 339,-288.5 339,-329.5"/>
<text text-anchor="start" x="195" y="-317.5" font-family="Helvetica,sans-Serif" font-size="10.00">ce103_hw4_medical_store</text>
<text text-anchor="start" x="195" y="-306.5" font-family="Helvetica,sans-Serif" font-size="10.00">_lib.ConversionUtility.byteArray</text>
<text text-anchor="middle" x="263" y="-295.5" font-family="Helvetica,sans-Serif" font-size="10.00">ToString</text>
</a>
</g>
</g>
<!-- Node1&#45;&gt;Node3 -->
<g id="edge2" class="edge">
<title>Node1&#45;&gt;Node3</title>
<path fill="none" stroke="#63b8ff" d="M90.94,-198.44C110.91,-219.06 148.82,-255.7 187,-279 189.27,-280.39 191.62,-281.73 194.02,-283.04"/>
<polygon fill="#63b8ff" stroke="#63b8ff" points="192.26,-286.07 202.77,-287.47 195.43,-279.83 192.26,-286.07"/>
</g>
<!-- Node4 -->
<g id="node4" class="node">
<title>Node4</title>
<g id="a_node4"><a xlink:href="classce103__hw4__medical__store__lib_1_1_bill.html#a9254b9247b71a1be4f099339f9b069c6" target="_top" xlink:title=" ">
<polygon fill="white" stroke="#666666" points="328.5,-270 197.5,-270 197.5,-240 328.5,-240 328.5,-270"/>
<text text-anchor="start" x="205.5" y="-258" font-family="Helvetica,sans-Serif" font-size="10.00">ce103_hw4_medical_store</text>
<text text-anchor="middle" x="263" y="-247" font-family="Helvetica,sans-Serif" font-size="10.00">_lib.Bill.setBillno</text>
</a>
</g>
</g>
<!-- Node1&#45;&gt;Node4 -->
<g id="edge3" class="edge">
<title>Node1&#45;&gt;Node4</title>
<path fill="none" stroke="#63b8ff" d="M109.51,-198.37C131.29,-208.25 160.57,-221.06 187,-231 191.39,-232.65 195.95,-234.29 200.56,-235.89"/>
<polygon fill="#63b8ff" stroke="#63b8ff" points="199.3,-239.16 209.9,-239.06 201.55,-232.53 199.3,-239.16"/>
</g>
<!-- Node5 -->
<g id="node5" class="node">
<title>Node5</title>
<g id="a_node5"><a xlink:href="classce103__hw4__medical__store__lib_1_1_bill.html#ad341ccdd4cff9f71690f06c0b0873978" target="_top" xlink:title=" ">
<polygon fill="white" stroke="#666666" points="328.5,-222 197.5,-222 197.5,-192 328.5,-192 328.5,-222"/>
<text text-anchor="start" x="205.5" y="-210" font-family="Helvetica,sans-Serif" font-size="10.00">ce103_hw4_medical_store</text>
<text text-anchor="middle" x="263" y="-199" font-family="Helvetica,sans-Serif" font-size="10.00">_lib.Bill.setcustomername</text>
</a>
</g>
</g>
<!-- Node1&#45;&gt;Node5 -->
<g id="edge4" class="edge">
<title>Node1&#45;&gt;Node5</title>
<path fill="none" stroke="#63b8ff" d="M151.42,-192.69C162.8,-194.17 174.56,-195.69 185.97,-197.16"/>
<polygon fill="#63b8ff" stroke="#63b8ff" points="185.37,-200.62 195.74,-198.43 186.27,-193.67 185.37,-200.62"/>
</g>
<!-- Node6 -->
<g id="node6" class="node">
<title>Node6</title>
<g id="a_node6"><a xlink:href="classce103__hw4__medical__store__lib_1_1_bill.html#a4a296ebd628a39b591692476ddec3ff8" target="_top" xlink:title=" ">
<polygon fill="white" stroke="#666666" points="328.5,-174 197.5,-174 197.5,-144 328.5,-144 328.5,-174"/>
<text text-anchor="start" x="205.5" y="-162" font-family="Helvetica,sans-Serif" font-size="10.00">ce103_hw4_medical_store</text>
<text text-anchor="middle" x="263" y="-151" font-family="Helvetica,sans-Serif" font-size="10.00">_lib.Bill.setid</text>
</a>
</g>
</g>
<!-- Node1&#45;&gt;Node6 -->
<g id="edge5" class="edge">
<title>Node1&#45;&gt;Node6</title>
<path fill="none" stroke="#63b8ff" d="M151.42,-173.31C162.8,-171.83 174.56,-170.31 185.97,-168.84"/>
<polygon fill="#63b8ff" stroke="#63b8ff" points="186.27,-172.33 195.74,-167.57 185.37,-165.38 186.27,-172.33"/>
</g>
<!-- Node7 -->
<g id="node7" class="node">
<title>Node7</title>
<g id="a_node7"><a xlink:href="classce103__hw4__medical__store__lib_1_1_bill.html#a4eb4b2f3bc93ab7198e8e6c0f3f0b5f2" target="_top" xlink:title=" ">
<polygon fill="white" stroke="#666666" points="328.5,-126 197.5,-126 197.5,-96 328.5,-96 328.5,-126"/>
<text text-anchor="start" x="205.5" y="-114" font-family="Helvetica,sans-Serif" font-size="10.00">ce103_hw4_medical_store</text>
<text text-anchor="middle" x="263" y="-103" font-family="Helvetica,sans-Serif" font-size="10.00">_lib.Bill.setmedicinename</text>
</a>
</g>
</g>
<!-- Node1&#45;&gt;Node7 -->
<g id="edge6" class="edge">
<title>Node1&#45;&gt;Node7</title>
<path fill="none" stroke="#63b8ff" d="M109.51,-167.63C131.29,-157.75 160.57,-144.94 187,-135 191.39,-133.35 195.95,-131.71 200.56,-130.11"/>
<polygon fill="#63b8ff" stroke="#63b8ff" points="201.55,-133.47 209.9,-126.94 199.3,-126.84 201.55,-133.47"/>
</g>
<!-- Node8 -->
<g id="node8" class="node">
<title>Node8</title>
<g id="a_node8"><a xlink:href="classce103__hw4__medical__store__lib_1_1_bill.html#ad69c0061400105718d5383685876749c" target="_top" xlink:title=" ">
<polygon fill="white" stroke="#666666" points="328.5,-78 197.5,-78 197.5,-48 328.5,-48 328.5,-78"/>
<text text-anchor="start" x="205.5" y="-66" font-family="Helvetica,sans-Serif" font-size="10.00">ce103_hw4_medical_store</text>
<text text-anchor="middle" x="263" y="-55" font-family="Helvetica,sans-Serif" font-size="10.00">_lib.Bill.setquantity</text>
</a>
</g>
</g>
<!-- Node1&#45;&gt;Node8 -->
<g id="edge7" class="edge">
<title>Node1&#45;&gt;Node8</title>
<path fill="none" stroke="#63b8ff" d="M90.37,-167.52C109.98,-146.51 147.8,-109.06 187,-87 189.5,-85.59 192.1,-84.25 194.76,-82.98"/>
<polygon fill="#63b8ff" stroke="#63b8ff" points="196.09,-86.22 203.86,-79.02 193.29,-79.8 196.09,-86.22"/>
</g>
<!-- Node9 -->
<g id="node9" class="node">
<title>Node9</title>
<g id="a_node9"><a xlink:href="classce103__hw4__medical__store__lib_1_1_bill.html#acb8bffe86f6438b5bd45427f18aae716" target="_top" xlink:title=" ">
<polygon fill="white" stroke="#666666" points="328.5,-30 197.5,-30 197.5,0 328.5,0 328.5,-30"/>
<text text-anchor="start" x="205.5" y="-18" font-family="Helvetica,sans-Serif" font-size="10.00">ce103_hw4_medical_store</text>
<text text-anchor="middle" x="263" y="-7" font-family="Helvetica,sans-Serif" font-size="10.00">_lib.Bill.setrate</text>
</a>
</g>
</g>
<!-- Node1&#45;&gt;Node9 -->
<g id="edge8" class="edge">
<title>Node1&#45;&gt;Node9</title>
<path fill="none" stroke="#63b8ff" d="M84.01,-167.94C99.32,-138.73 137,-74.17 187,-39 188.76,-37.76 190.59,-36.58 192.47,-35.47"/>
<polygon fill="#63b8ff" stroke="#63b8ff" points="193.66,-38.79 200.9,-31.05 190.42,-32.59 193.66,-38.79"/>
</g>
</g>
</svg>
