<?xml version="1.0" encoding="UTF-8" standalone="no"?>
<!DOCTYPE svg PUBLIC "-//W3C//DTD SVG 1.1//EN"
 "http://www.w3.org/Graphics/SVG/1.1/DTD/svg11.dtd">
<!-- Generated by graphviz version 7.0.4 (20221203.1631)
 -->
<!-- Title: ce103_hw4_medical_store_app.InsiderOfTheMenu.addSupplier Pages: 1 -->
<!--zoomable 633 -->
<svg id="main" version="1.1" xmlns="http://www.w3.org/2000/svg" xmlns:xlink="http://www.w3.org/1999/xlink" xml:space="preserve" onload="init(evt)">
<style type="text/css"><![CDATA[
.edge:hover path { stroke: red; }
.edge:hover polygon { stroke: red; fill: red; }
]]></style>
<script type="text/javascript"><![CDATA[
var edges = document.getElementsByTagName('g');
if (edges && edges.length) {
  for (var i=0;i<edges.length;i++) {
    if (edges[i].id.substr(0,4)=='edge') {
      edges[i].setAttribute('class','edge');
    }
  }
}
]]></script>
        <defs>
                <circle id="rim" cx="0" cy="0" r="7"/>
                <circle id="rim2" cx="0" cy="0" r="3.5"/>
                <g id="zoomPlus">
                        <use xlink:href="#rim" fill="#404040">
                                <set attributeName="fill" to="#808080" begin="zoomplus.mouseover" end="zoomplus.mouseout"/>
                        </use>
                        <path d="M-4,0h8M0,-4v8" fill="none" stroke="white" stroke-width="1.5" pointer-events="none"/>
                </g>
                <g id="zoomMin">
                        <use xlink:href="#rim" fill="#404040">
                                <set attributeName="fill" to="#808080" begin="zoomminus.mouseover" end="zoomminus.mouseout"/>
                        </use>
                        <path d="M-4,0h8" fill="none" stroke="white" stroke-width="1.5" pointer-events="none"/>
                </g>
                <g id="dirArrow">
                        <path fill="none" stroke="white" stroke-width="1.5" d="M0,-3.0v7 M-2.5,-0.5L0,-3.0L2.5,-0.5"/>
                </g>
               <g id="resetDef">
                       <use xlink:href="#rim2" fill="#404040">
                               <set attributeName="fill" to="#808080" begin="reset.mouseover" end="reset.mouseout"/>
                       </use>
               </g>
        </defs>

<script type="text/javascript">
var viewWidth = 572;
var viewHeight = 633;
var sectionId = 'dynsection-2';
</script>
<script xlink:href="svgpan.js"/>
<svg id="graph" class="graph">
<g id="viewport">
<title>ce103_hw4_medical_store_app.InsiderOfTheMenu.addSupplier</title>
<!-- Node1 -->
<g id="node1" class="node">
<title>Node1</title>
<g id="a_node1"><a xlink:title=" ">
<polygon fill="#999999" stroke="#666666" points="173,-418.5 0,-418.5 0,-388.5 173,-388.5 173,-418.5"/>
<text text-anchor="start" x="8" y="-406.5" font-family="Helvetica,sans-Serif" font-size="10.00">ce103_hw4_medical_store</text>
<text text-anchor="middle" x="86.5" y="-395.5" font-family="Helvetica,sans-Serif" font-size="10.00">_app.InsiderOfTheMenu.addSupplier</text>
</a>
</g>
</g>
<!-- Node2 -->
<g id="node2" class="node">
<title>Node2</title>
<g id="a_node2"><a xlink:href="classce103__hw4__medical__store__lib_1_1_file_utility.html#a63f68a104500f89f20d04381d0376ba6" target="_top" xlink:title=" ">
<polygon fill="white" stroke="#666666" points="353.5,-624.5 219.5,-624.5 219.5,-594.5 353.5,-594.5 353.5,-624.5"/>
<text text-anchor="start" x="227.5" y="-612.5" font-family="Helvetica,sans-Serif" font-size="10.00">ce103_hw4_medical_store</text>
<text text-anchor="middle" x="286.5" y="-601.5" font-family="Helvetica,sans-Serif" font-size="10.00">_lib.FileUtility.appendBlock</text>
</a>
</g>
</g>
<!-- Node1&#45;&gt;Node2 -->
<g id="edge1" class="edge">
<title>Node1&#45;&gt;Node2</title>
<path fill="none" stroke="#63b8ff" d="M93.45,-418.75C107.84,-453.63 147.89,-539.71 209,-585.5 210.36,-586.52 211.76,-587.49 213.2,-588.43"/>
<polygon fill="#63b8ff" stroke="#63b8ff" points="211.4,-591.43 221.83,-593.28 214.83,-585.33 211.4,-591.43"/>
</g>
<!-- Node3 -->
<g id="node3" class="node">
<title>Node3</title>
<g id="a_node3"><a xlink:href="classce103__hw4__medical__store__app_1_1_insider_of_the_menu.html#a0409ee76fc4d80aea880c4c9702271df" target="_top" xlink:title=" ">
<polygon fill="white" stroke="#666666" points="358,-576.5 215,-576.5 215,-546.5 358,-546.5 358,-576.5"/>
<text text-anchor="start" x="223" y="-564.5" font-family="Helvetica,sans-Serif" font-size="10.00">ce103_hw4_medical_store</text>
<text text-anchor="middle" x="286.5" y="-553.5" font-family="Helvetica,sans-Serif" font-size="10.00">_app.InsiderOfTheMenu.clear</text>
</a>
</g>
</g>
<!-- Node1&#45;&gt;Node3 -->
<g id="edge2" class="edge">
<title>Node1&#45;&gt;Node3</title>
<path fill="none" stroke="#63b8ff" d="M98.17,-418.75C117.46,-445.28 160.65,-500.21 209,-532.5 213.82,-535.72 219.05,-538.65 224.44,-541.3"/>
<polygon fill="#63b8ff" stroke="#63b8ff" points="222.99,-544.49 233.54,-545.44 225.88,-538.12 222.99,-544.49"/>
</g>
<!-- Node4 -->
<g id="node4" class="node">
<title>Node4</title>
<g id="a_node4"><a xlink:href="classce103__hw4__medical__store__app_1_1_insider_of_the_menu.html#aa208466ba46c8f7d58d2f2e970d23545" target="_top" xlink:title=" ">
<polygon fill="white" stroke="#666666" points="564,-461.5 400,-461.5 400,-431.5 564,-431.5 564,-461.5"/>
<text text-anchor="start" x="408" y="-449.5" font-family="Helvetica,sans-Serif" font-size="10.00">ce103_hw4_medical_store</text>
<text text-anchor="middle" x="482" y="-438.5" font-family="Helvetica,sans-Serif" font-size="10.00">_app.InsiderOfTheMenu.main_box</text>
</a>
</g>
</g>
<!-- Node1&#45;&gt;Node4 -->
<g id="edge3" class="edge">
<title>Node1&#45;&gt;Node4</title>
<path fill="none" stroke="#63b8ff" d="M100.5,-418.9C120.87,-441.7 162.78,-483.44 209,-499.5 274.07,-522.11 296.66,-514.04 364,-499.5 392.79,-493.28 423.02,-479.37 445.53,-467.36"/>
<polygon fill="#63b8ff" stroke="#63b8ff" points="447.2,-470.44 454.29,-462.57 443.84,-464.3 447.2,-470.44"/>
</g>
<!-- Node5 -->
<g id="node5" class="node">
<title>Node5</title>
<g id="a_node5"><a xlink:href="classce103__hw4__medical__store__lib_1_1_supplier.html#a63e69b6765041b2217c0411560f543d4" target="_top" xlink:title=" ">
<polygon fill="white" stroke="#666666" points="352,-490.5 221,-490.5 221,-460.5 352,-460.5 352,-490.5"/>
<text text-anchor="start" x="229" y="-478.5" font-family="Helvetica,sans-Serif" font-size="10.00">ce103_hw4_medical_store</text>
<text text-anchor="middle" x="286.5" y="-467.5" font-family="Helvetica,sans-Serif" font-size="10.00">_lib.Supplier.setCity</text>
</a>
</g>
</g>
<!-- Node1&#45;&gt;Node5 -->
<g id="edge4" class="edge">
<title>Node1&#45;&gt;Node5</title>
<path fill="none" stroke="#63b8ff" d="M124.46,-418.91C148.4,-428.69 180.35,-441.36 209,-451.5 213.7,-453.16 218.59,-454.83 223.51,-456.47"/>
<polygon fill="#63b8ff" stroke="#63b8ff" points="222.27,-459.75 232.87,-459.53 224.45,-453.1 222.27,-459.75"/>
</g>
<!-- Node6 -->
<g id="node6" class="node">
<title>Node6</title>
<g id="a_node6"><a xlink:href="classce103__hw4__medical__store__lib_1_1_supplier.html#aa287ef6ae91ce808df837776ddb76c19" target="_top" xlink:title=" ">
<polygon fill="white" stroke="#666666" points="352.5,-442.5 220.5,-442.5 220.5,-412.5 352.5,-412.5 352.5,-442.5"/>
<text text-anchor="start" x="228.5" y="-430.5" font-family="Helvetica,sans-Serif" font-size="10.00">ce103_hw4_medical_store</text>
<text text-anchor="middle" x="286.5" y="-419.5" font-family="Helvetica,sans-Serif" font-size="10.00">_lib.Supplier.setContactNo</text>
</a>
</g>
</g>
<!-- Node1&#45;&gt;Node6 -->
<g id="edge5" class="edge">
<title>Node1&#45;&gt;Node6</title>
<path fill="none" stroke="#63b8ff" d="M173.48,-413.92C185.22,-415.35 197.21,-416.8 208.77,-418.2"/>
<polygon fill="#63b8ff" stroke="#63b8ff" points="208.32,-421.67 218.67,-419.4 209.16,-414.72 208.32,-421.67"/>
</g>
<!-- Node7 -->
<g id="node7" class="node">
<title>Node7</title>
<g id="a_node7"><a xlink:href="classce103__hw4__medical__store__lib_1_1_supplier.html#ad1b1647cc905e9c92aad10a6a2bf244a" target="_top" xlink:title=" ">
<polygon fill="white" stroke="#666666" points="352,-394.5 221,-394.5 221,-364.5 352,-364.5 352,-394.5"/>
<text text-anchor="start" x="229" y="-382.5" font-family="Helvetica,sans-Serif" font-size="10.00">ce103_hw4_medical_store</text>
<text text-anchor="middle" x="286.5" y="-371.5" font-family="Helvetica,sans-Serif" font-size="10.00">_lib.Supplier.setemailID</text>
</a>
</g>
</g>
<!-- Node1&#45;&gt;Node7 -->
<g id="edge6" class="edge">
<title>Node1&#45;&gt;Node7</title>
<path fill="none" stroke="#63b8ff" d="M173.48,-393.08C185.5,-391.62 197.79,-390.13 209.6,-388.7"/>
<polygon fill="#63b8ff" stroke="#63b8ff" points="209.76,-392.21 219.26,-387.53 208.91,-385.26 209.76,-392.21"/>
</g>
<!-- Node8 -->
<g id="node8" class="node">
<title>Node8</title>
<g id="a_node8"><a xlink:href="classce103__hw4__medical__store__lib_1_1_supplier.html#a447efde29cb96c324429232d65f41e52" target="_top" xlink:title=" ">
<polygon fill="white" stroke="#666666" points="352,-346.5 221,-346.5 221,-316.5 352,-316.5 352,-346.5"/>
<text text-anchor="start" x="229" y="-334.5" font-family="Helvetica,sans-Serif" font-size="10.00">ce103_hw4_medical_store</text>
<text text-anchor="middle" x="286.5" y="-323.5" font-family="Helvetica,sans-Serif" font-size="10.00">_lib.Supplier.setsupplierId</text>
</a>
</g>
</g>
<!-- Node1&#45;&gt;Node8 -->
<g id="edge7" class="edge">
<title>Node1&#45;&gt;Node8</title>
<path fill="none" stroke="#63b8ff" d="M124.46,-388.09C148.4,-378.31 180.35,-365.64 209,-355.5 213.7,-353.84 218.59,-352.17 223.51,-350.53"/>
<polygon fill="#63b8ff" stroke="#63b8ff" points="224.45,-353.9 232.87,-347.47 222.27,-347.25 224.45,-353.9"/>
</g>
<!-- Node9 -->
<g id="node9" class="node">
<title>Node9</title>
<g id="a_node9"><a xlink:href="classce103__hw4__medical__store__lib_1_1_supplier.html#a673179f4d8714ef18b4053fe3b75a0a4" target="_top" xlink:title=" ">
<polygon fill="white" stroke="#666666" points="358.5,-298.5 214.5,-298.5 214.5,-268.5 358.5,-268.5 358.5,-298.5"/>
<text text-anchor="start" x="222.5" y="-286.5" font-family="Helvetica,sans-Serif" font-size="10.00">ce103_hw4_medical_store</text>
<text text-anchor="middle" x="286.5" y="-275.5" font-family="Helvetica,sans-Serif" font-size="10.00">_lib.Supplier.setsuppliername</text>
</a>
</g>
</g>
<!-- Node1&#45;&gt;Node9 -->
<g id="edge8" class="edge">
<title>Node1&#45;&gt;Node9</title>
<path fill="none" stroke="#63b8ff" d="M103.05,-388.07C124.95,-367.12 166.93,-329.74 209,-307.5 211.83,-306.01 214.76,-304.59 217.76,-303.24"/>
<polygon fill="#63b8ff" stroke="#63b8ff" points="218.86,-306.58 226.76,-299.52 216.18,-300.11 218.86,-306.58"/>
</g>
<!-- Node10 -->
<g id="node10" class="node">
<title>Node10</title>
<g id="a_node10"><a xlink:href="classce103__hw4__medical__store__app_1_1_insider_of_the_menu.html#ad8d1f1f6efe690acbc398b741befb617" target="_top" xlink:title=" ">
<polygon fill="white" stroke="#666666" points="364,-250.5 209,-250.5 209,-220.5 364,-220.5 364,-250.5"/>
<text text-anchor="start" x="217" y="-238.5" font-family="Helvetica,sans-Serif" font-size="10.00">ce103_hw4_medical_store</text>
<text text-anchor="middle" x="286.5" y="-227.5" font-family="Helvetica,sans-Serif" font-size="10.00">_app.InsiderOfTheMenu.supplier</text>
</a>
</g>
</g>
<!-- Node1&#45;&gt;Node10 -->
<g id="edge9" class="edge">
<title>Node1&#45;&gt;Node10</title>
<path fill="none" stroke="#63b8ff" d="M96.13,-388.44C113.63,-359.22 156.16,-294.65 209,-259.5 210.83,-258.29 212.72,-257.13 214.66,-256.03"/>
<polygon fill="#63b8ff" stroke="#63b8ff" points="215.99,-259.28 223.35,-251.67 212.85,-253.02 215.99,-259.28"/>
</g>
<!-- Node11 -->
<g id="node11" class="node">
<title>Node11</title>
<g id="a_node11"><a xlink:href="classce103__hw4__medical__store__lib_1_1_supplier.html#afba177fb9d808aa5157203709401032e" target="_top" xlink:title=" ">
<polygon fill="white" stroke="#666666" points="355,-202 218,-202 218,-161 355,-161 355,-202"/>
<text text-anchor="start" x="226" y="-190" font-family="Helvetica,sans-Serif" font-size="10.00">ce103_hw4_medical_store</text>
<text text-anchor="start" x="226" y="-179" font-family="Helvetica,sans-Serif" font-size="10.00">_lib.Supplier.supplierToByte</text>
<text text-anchor="middle" x="286.5" y="-168" font-family="Helvetica,sans-Serif" font-size="10.00">ArrayBlock</text>
</a>
</g>
</g>
<!-- Node1&#45;&gt;Node11 -->
<g id="edge11" class="edge">
<title>Node1&#45;&gt;Node11</title>
<path fill="none" stroke="#63b8ff" d="M93.24,-388.25C107.43,-352.45 147.55,-262.23 209,-211.5 210.27,-210.45 211.59,-209.43 212.93,-208.45"/>
<polygon fill="#63b8ff" stroke="#63b8ff" points="214.49,-211.61 221,-203.24 210.7,-205.73 214.49,-211.61"/>
</g>
<!-- Node10&#45;&gt;Node4 -->
<g id="edge10" class="edge">
<title>Node10&#45;&gt;Node4</title>
<path fill="none" stroke="#63b8ff" d="M352.11,-250.88C356.4,-253.34 360.43,-256.19 364,-259.5 395.61,-288.78 377.92,-312.51 400,-349.5 416.31,-376.82 440.14,-404.32 457.73,-423.02"/>
<polygon fill="#63b8ff" stroke="#63b8ff" points="455.08,-425.31 464.52,-430.12 460.13,-420.47 455.08,-425.31"/>
</g>
<!-- Node12 -->
<g id="node12" class="node">
<title>Node12</title>
<g id="a_node12"><a xlink:href="classce103__hw4__medical__store__lib_1_1_supplier.html#a735a56c6c0308a2f0ee870075f7bc320" target="_top" xlink:title=" ">
<polygon fill="white" stroke="#666666" points="547.5,-340.5 416.5,-340.5 416.5,-310.5 547.5,-310.5 547.5,-340.5"/>
<text text-anchor="start" x="424.5" y="-328.5" font-family="Helvetica,sans-Serif" font-size="10.00">ce103_hw4_medical_store</text>
<text text-anchor="middle" x="482" y="-317.5" font-family="Helvetica,sans-Serif" font-size="10.00">_lib.Supplier.getCity</text>
</a>
</g>
</g>
<!-- Node11&#45;&gt;Node12 -->
<g id="edge12" class="edge">
<title>Node11&#45;&gt;Node12</title>
<path fill="none" stroke="#63b8ff" d="M352.55,-202.34C356.68,-205.04 360.56,-208.08 364,-211.5 394.57,-241.86 368.16,-272.48 400,-301.5 402.01,-303.33 404.16,-305.03 406.41,-306.59"/>
<polygon fill="#63b8ff" stroke="#63b8ff" points="404.47,-309.51 414.86,-311.56 408.01,-303.48 404.47,-309.51"/>
</g>
<!-- Node13 -->
<g id="node13" class="node">
<title>Node13</title>
<g id="a_node13"><a xlink:href="classce103__hw4__medical__store__lib_1_1_supplier.html#af1622d0e0af60af6763a2283e987b4a2" target="_top" xlink:title=" ">
<polygon fill="white" stroke="#666666" points="548,-292.5 416,-292.5 416,-262.5 548,-262.5 548,-292.5"/>
<text text-anchor="start" x="424" y="-280.5" font-family="Helvetica,sans-Serif" font-size="10.00">ce103_hw4_medical_store</text>
<text text-anchor="middle" x="482" y="-269.5" font-family="Helvetica,sans-Serif" font-size="10.00">_lib.Supplier.getContactNo</text>
</a>
</g>
</g>
<!-- Node11&#45;&gt;Node13 -->
<g id="edge13" class="edge">
<title>Node11&#45;&gt;Node13</title>
<path fill="none" stroke="#63b8ff" d="M349.05,-202.47C354.28,-205.19 359.35,-208.19 364,-211.5 384.04,-225.74 379.37,-240.13 400,-253.5 401.97,-254.78 404.01,-255.99 406.11,-257.14"/>
<polygon fill="#63b8ff" stroke="#63b8ff" points="404.36,-260.18 414.88,-261.41 407.42,-253.89 404.36,-260.18"/>
</g>
<!-- Node14 -->
<g id="node14" class="node">
<title>Node14</title>
<g id="a_node14"><a xlink:href="classce103__hw4__medical__store__lib_1_1_supplier.html#a99a20bfe60b8ce74d349418a92f0c660" target="_top" xlink:title=" ">
<polygon fill="white" stroke="#666666" points="547.5,-244.5 416.5,-244.5 416.5,-214.5 547.5,-214.5 547.5,-244.5"/>
<text text-anchor="start" x="424.5" y="-232.5" font-family="Helvetica,sans-Serif" font-size="10.00">ce103_hw4_medical_store</text>
<text text-anchor="middle" x="482" y="-221.5" font-family="Helvetica,sans-Serif" font-size="10.00">_lib.Supplier.getemailID</text>
</a>
</g>
</g>
<!-- Node11&#45;&gt;Node14 -->
<g id="edge14" class="edge">
<title>Node11&#45;&gt;Node14</title>
<path fill="none" stroke="#63b8ff" d="M355.45,-198.36C372.33,-202.54 390.5,-207.05 407.63,-211.3"/>
<polygon fill="#63b8ff" stroke="#63b8ff" points="406.7,-214.67 417.25,-213.69 408.38,-207.88 406.7,-214.67"/>
</g>
<!-- Node15 -->
<g id="node15" class="node">
<title>Node15</title>
<g id="a_node15"><a xlink:href="classce103__hw4__medical__store__lib_1_1_supplier.html#a37b7283600f4fa52dec2d2e686e99899" target="_top" xlink:title=" ">
<polygon fill="white" stroke="#666666" points="547.5,-196.5 416.5,-196.5 416.5,-166.5 547.5,-166.5 547.5,-196.5"/>
<text text-anchor="start" x="424.5" y="-184.5" font-family="Helvetica,sans-Serif" font-size="10.00">ce103_hw4_medical_store</text>
<text text-anchor="middle" x="482" y="-173.5" font-family="Helvetica,sans-Serif" font-size="10.00">_lib.Supplier.getsupplierId</text>
</a>
</g>
</g>
<!-- Node11&#45;&gt;Node15 -->
<g id="edge15" class="edge">
<title>Node11&#45;&gt;Node15</title>
<path fill="none" stroke="#63b8ff" d="M355.45,-181.5C371.46,-181.5 388.64,-181.5 404.98,-181.5"/>
<polygon fill="#63b8ff" stroke="#63b8ff" points="404.63,-185 414.63,-181.5 404.63,-178 404.63,-185"/>
</g>
<!-- Node16 -->
<g id="node16" class="node">
<title>Node16</title>
<g id="a_node16"><a xlink:href="classce103__hw4__medical__store__lib_1_1_supplier.html#adb3937b10b3159b30c99ebbfc69889cc" target="_top" xlink:title=" ">
<polygon fill="white" stroke="#666666" points="554,-148.5 410,-148.5 410,-118.5 554,-118.5 554,-148.5"/>
<text text-anchor="start" x="418" y="-136.5" font-family="Helvetica,sans-Serif" font-size="10.00">ce103_hw4_medical_store</text>
<text text-anchor="middle" x="482" y="-125.5" font-family="Helvetica,sans-Serif" font-size="10.00">_lib.Supplier.getsuppliername</text>
</a>
</g>
</g>
<!-- Node11&#45;&gt;Node16 -->
<g id="edge16" class="edge">
<title>Node11&#45;&gt;Node16</title>
<path fill="none" stroke="#63b8ff" d="M355.45,-164.64C372.33,-160.46 390.5,-155.95 407.63,-151.7"/>
<polygon fill="#63b8ff" stroke="#63b8ff" points="408.38,-155.12 417.25,-149.31 406.7,-148.33 408.38,-155.12"/>
</g>
<!-- Node17 -->
<g id="node17" class="node">
<title>Node17</title>
<g id="a_node17"><a xlink:href="classce103__hw4__medical__store__lib_1_1_conversion_utility.html#a8e0f93579075d0a1b0800e05bbcd66af" target="_top" xlink:title=" ">
<polygon fill="white" stroke="#666666" points="551.5,-100 412.5,-100 412.5,-59 551.5,-59 551.5,-100"/>
<text text-anchor="start" x="420.5" y="-88" font-family="Helvetica,sans-Serif" font-size="10.00">ce103_hw4_medical_store</text>
<text text-anchor="start" x="420.5" y="-77" font-family="Helvetica,sans-Serif" font-size="10.00">_lib.ConversionUtility.integer</text>
<text text-anchor="middle" x="482" y="-66" font-family="Helvetica,sans-Serif" font-size="10.00">ToByteArray</text>
</a>
</g>
</g>
<!-- Node11&#45;&gt;Node17 -->
<g id="edge17" class="edge">
<title>Node11&#45;&gt;Node17</title>
<path fill="none" stroke="#63b8ff" d="M316.09,-160.76C338.25,-145.31 370.11,-124.38 400,-109.5 403.22,-107.9 406.55,-106.33 409.94,-104.81"/>
<polygon fill="#63b8ff" stroke="#63b8ff" points="411.04,-108.14 418.85,-100.98 408.28,-101.71 411.04,-108.14"/>
</g>
<!-- Node18 -->
<g id="node18" class="node">
<title>Node18</title>
<g id="a_node18"><a xlink:href="classce103__hw4__medical__store__lib_1_1_conversion_utility.html#ab0ff4b89697d8bd6cc3b3a1141a86e3d" target="_top" xlink:title=" ">
<polygon fill="white" stroke="#666666" points="549,-41 415,-41 415,0 549,0 549,-41"/>
<text text-anchor="start" x="423" y="-29" font-family="Helvetica,sans-Serif" font-size="10.00">ce103_hw4_medical_store</text>
<text text-anchor="start" x="423" y="-18" font-family="Helvetica,sans-Serif" font-size="10.00">_lib.ConversionUtility.string</text>
<text text-anchor="middle" x="482" y="-7" font-family="Helvetica,sans-Serif" font-size="10.00">ToByteArray</text>
</a>
</g>
</g>
<!-- Node11&#45;&gt;Node18 -->
<g id="edge18" class="edge">
<title>Node11&#45;&gt;Node18</title>
<path fill="none" stroke="#63b8ff" d="M300.18,-160.69C318.74,-131.88 355.9,-79.96 400,-49.5 401.56,-48.42 403.17,-47.38 404.82,-46.37"/>
<polygon fill="#63b8ff" stroke="#63b8ff" points="406.2,-49.6 413.25,-41.7 402.8,-43.48 406.2,-49.6"/>
</g>
</g>
</svg>
        <g id="navigator" transform="translate(0 0)" fill="#404254">
                <rect fill="#f2f5e9" fill-opacity="0.5" stroke="#606060" stroke-width=".5" x="0" y="0" width="60" height="60"/>
                <use id="zoomplus" xlink:href="#zoomPlus" x="17" y="9" onmousedown="handleZoom(evt,'in')"/>
                <use id="zoomminus" xlink:href="#zoomMin" x="42" y="9" onmousedown="handleZoom(evt,'out')"/>
                <use id="reset" xlink:href="#resetDef" x="30" y="36" onmousedown="handleReset()"/>
                <g id="arrowUp" xlink:href="#dirArrow" transform="translate(30 24)" onmousedown="handlePan(0,-1)">
                  <use xlink:href="#rim" fill="#404040">
                        <set attributeName="fill" to="#808080" begin="arrowUp.mouseover" end="arrowUp.mouseout"/>
                  </use>
                  <path fill="none" stroke="white" stroke-width="1.5" d="M0,-3.0v7 M-2.5,-0.5L0,-3.0L2.5,-0.5"/>
                </g>
                <g id="arrowRight" xlink:href="#dirArrow" transform="rotate(90) translate(36 -43)" onmousedown="handlePan(1,0)">
                  <use xlink:href="#rim" fill="#404040">
                        <set attributeName="fill" to="#808080" begin="arrowRight.mouseover" end="arrowRight.mouseout"/>
                  </use>
                  <path fill="none" stroke="white" stroke-width="1.5" d="M0,-3.0v7 M-2.5,-0.5L0,-3.0L2.5,-0.5"/>
                </g>
                <g id="arrowDown" xlink:href="#dirArrow" transform="rotate(180) translate(-30 -48)" onmousedown="handlePan(0,1)">
                  <use xlink:href="#rim" fill="#404040">
                        <set attributeName="fill" to="#808080" begin="arrowDown.mouseover" end="arrowDown.mouseout"/>
                  </use>
                  <path fill="none" stroke="white" stroke-width="1.5" d="M0,-3.0v7 M-2.5,-0.5L0,-3.0L2.5,-0.5"/>
                </g>
                <g id="arrowLeft" xlink:href="#dirArrow" transform="rotate(270) translate(-36 17)" onmousedown="handlePan(-1,0)">
                  <use xlink:href="#rim" fill="#404040">
                        <set attributeName="fill" to="#808080" begin="arrowLeft.mouseover" end="arrowLeft.mouseout"/>
                  </use>
                  <path fill="none" stroke="white" stroke-width="1.5" d="M0,-3.0v7 M-2.5,-0.5L0,-3.0L2.5,-0.5"/>
                </g>
        </g>
        <svg viewBox="0 0 15 15" width="100%" height="30px" preserveAspectRatio="xMaxYMin meet">
         <g id="arrow_out" transform="scale(0.3 0.3)">
          <a xlink:href="classce103__hw4__medical__store__app_1_1_insider_of_the_menu_a5a985628df103b1884695c250f7638ea_cgraph_org.svg" target="_base">
           <rect id="button" ry="5" rx="5" y="6" x="6" height="38" width="38"
                fill="#f2f5e9" fill-opacity="0.5" stroke="#606060" stroke-width="1.0"/>
           <path id="arrow"
             d="M 11.500037,31.436501 C 11.940474,20.09759 22.043105,11.32322 32.158766,21.979434 L 37.068811,17.246167 C 37.068811,17.246167 37.088388,32 37.088388,32 L 22.160133,31.978069 C 22.160133,31.978069 26.997745,27.140456 26.997745,27.140456 C 18.528582,18.264221 13.291696,25.230495 11.500037,31.436501 z"
             style="fill:#404040;"/>
          </a>
         </g>
        </svg>
</svg>
