<?xml version="1.0" encoding="UTF-8" standalone="no"?>
<!DOCTYPE svg PUBLIC "-//W3C//DTD SVG 1.1//EN"
 "http://www.w3.org/Graphics/SVG/1.1/DTD/svg11.dtd">
<!-- Generated by graphviz version 7.0.4 (20221203.1631)
 -->
<!-- Title: ce103_hw4_medical_store_app.Menu.clearScreen Pages: 1 -->
<svg width="807pt" height="81pt"
 viewBox="0.00 0.00 807.00 81.00" xmlns="http://www.w3.org/2000/svg" xmlns:xlink="http://www.w3.org/1999/xlink">
<g id="graph0" class="graph" transform="scale(1 1) rotate(0) translate(4 77)">
<title>ce103_hw4_medical_store_app.Menu.clearScreen</title>
<!-- Node1 -->
<g id="node1" class="node">
<title>Node1</title>
<g id="a_node1"><a xlink:title=" ">
<polygon fill="#999999" stroke="#666666" points="799,-51 668,-51 668,-21 799,-21 799,-51"/>
<text text-anchor="start" x="676" y="-39" font-family="Helvetica,sans-Serif" font-size="10.00">ce103_hw4_medical_store</text>
<text text-anchor="middle" x="733.5" y="-28" font-family="Helvetica,sans-Serif" font-size="10.00">_app.Menu.clearScreen</text>
</a>
</g>
</g>
<!-- Node2 -->
<g id="node2" class="node">
<title>Node2</title>
<g id="a_node2"><a xlink:href="classce103__hw4__medical__store__app_1_1_menu.html#af40268756f4be60ece4bf674210a17bb" target="_top" xlink:title=" ">
<polygon fill="white" stroke="#666666" points="465,-73 334,-73 334,-43 465,-43 465,-73"/>
<text text-anchor="start" x="342" y="-61" font-family="Helvetica,sans-Serif" font-size="10.00">ce103_hw4_medical_store</text>
<text text-anchor="middle" x="399.5" y="-50" font-family="Helvetica,sans-Serif" font-size="10.00">_app.Menu.performAction</text>
</a>
</g>
</g>
<!-- Node1&#45;&gt;Node2 -->
<g id="edge1" class="edge">
<title>Node1&#45;&gt;Node2</title>
<path fill="none" stroke="#63b8ff" d="M656.44,-41.04C598.72,-44.86 520.21,-50.07 465.42,-53.7"/>
<polygon fill="#63b8ff" stroke="#63b8ff" points="656.44,-44.55 666.19,-40.39 655.98,-37.56 656.44,-44.55"/>
</g>
<!-- Node5 -->
<g id="node5" class="node">
<title>Node5</title>
<g id="a_node5"><a xlink:href="classce103__hw4__medical__store__app_1_1_menu.html#a8686eac8bd55447713e5620b8b0c7c2a" target="_top" xlink:title=" ">
<polygon fill="white" stroke="#666666" points="632,-30 501,-30 501,0 632,0 632,-30"/>
<text text-anchor="start" x="509" y="-18" font-family="Helvetica,sans-Serif" font-size="10.00">ce103_hw4_medical_store</text>
<text text-anchor="middle" x="566.5" y="-7" font-family="Helvetica,sans-Serif" font-size="10.00">_app.Menu.printMenu</text>
</a>
</g>
</g>
<!-- Node1&#45;&gt;Node5 -->
<g id="edge4" class="edge">
<title>Node1&#45;&gt;Node5</title>
<path fill="none" stroke="#63b8ff" d="M656.45,-26.32C648.39,-25.29 640.24,-24.26 632.32,-23.25"/>
<polygon fill="#63b8ff" stroke="#63b8ff" points="655.9,-29.78 666.26,-27.57 656.78,-22.83 655.9,-29.78"/>
</g>
<!-- Node3 -->
<g id="node3" class="node">
<title>Node3</title>
<g id="a_node3"><a xlink:href="classce103__hw4__medical__store__app_1_1_menu.html#a8890452f69a3d1c94a7951344bd7515b" target="_top" xlink:title=" ">
<polygon fill="white" stroke="#666666" points="298,-51 167,-51 167,-21 298,-21 298,-51"/>
<text text-anchor="start" x="175" y="-39" font-family="Helvetica,sans-Serif" font-size="10.00">ce103_hw4_medical_store</text>
<text text-anchor="middle" x="232.5" y="-28" font-family="Helvetica,sans-Serif" font-size="10.00">_app.Menu.runMenu</text>
</a>
</g>
</g>
<!-- Node2&#45;&gt;Node3 -->
<g id="edge2" class="edge">
<title>Node2&#45;&gt;Node3</title>
<path fill="none" stroke="#63b8ff" d="M322.45,-47.86C314.39,-46.78 306.24,-45.7 298.32,-44.64"/>
<polygon fill="#63b8ff" stroke="#63b8ff" points="321.89,-51.32 332.26,-49.17 322.81,-44.38 321.89,-51.32"/>
</g>
<!-- Node4 -->
<g id="node4" class="node">
<title>Node4</title>
<g id="a_node4"><a xlink:href="classce103__hw4__medical__store__app_1_1_menu.html#a906bd0b055bce495d306a21e81cbec1b" target="_top" xlink:title=" ">
<polygon fill="white" stroke="#666666" points="131,-51 0,-51 0,-21 131,-21 131,-51"/>
<text text-anchor="start" x="8" y="-39" font-family="Helvetica,sans-Serif" font-size="10.00">ce103_hw4_medical_store</text>
<text text-anchor="middle" x="65.5" y="-28" font-family="Helvetica,sans-Serif" font-size="10.00">_app.Menu.main</text>
</a>
</g>
</g>
<!-- Node3&#45;&gt;Node4 -->
<g id="edge3" class="edge">
<title>Node3&#45;&gt;Node4</title>
<path fill="none" stroke="#63b8ff" d="M155.45,-36C147.39,-36 139.24,-36 131.32,-36"/>
<polygon fill="#63b8ff" stroke="#63b8ff" points="155.25,-39.5 165.25,-36 155.25,-32.5 155.25,-39.5"/>
</g>
<!-- Node5&#45;&gt;Node2 -->
<g id="edge5" class="edge">
<title>Node5&#45;&gt;Node2</title>
<path fill="none" stroke="#63b8ff" d="M495.57,-33.22C483.65,-36.33 471.36,-39.53 459.74,-42.56"/>
<polygon fill="#63b8ff" stroke="#63b8ff" points="496.14,-36.69 504.93,-30.78 494.37,-29.92 496.14,-36.69"/>
</g>
<!-- Node5&#45;&gt;Node3 -->
<g id="edge6" class="edge">
<title>Node5&#45;&gt;Node3</title>
<path fill="none" stroke="#63b8ff" d="M489.44,-19.81C431.72,-23.46 353.21,-28.43 298.42,-31.89"/>
<polygon fill="#63b8ff" stroke="#63b8ff" points="489.43,-23.32 499.19,-19.19 488.99,-16.33 489.43,-23.32"/>
</g>
</g>
</svg>
