<?xml version="1.0" encoding="UTF-8" standalone="no"?>
<!DOCTYPE svg PUBLIC "-//W3C//DTD SVG 1.1//EN"
 "http://www.w3.org/Graphics/SVG/1.1/DTD/svg11.dtd">
<!-- Generated by graphviz version 7.0.4 (20221203.1631)
 -->
<!-- Title: ce103_hw4_medical_store_lib.Medicine.ByteArrayBlockToMedicine Pages: 1 -->
<!--zoomable 589 -->
<svg id="main" version="1.1" xmlns="http://www.w3.org/2000/svg" xmlns:xlink="http://www.w3.org/1999/xlink" xml:space="preserve" onload="init(evt)">
<style type="text/css"><![CDATA[
.edge:hover path { stroke: red; }
.edge:hover polygon { stroke: red; fill: red; }
]]></style>
<script type="text/javascript"><![CDATA[
var edges = document.getElementsByTagName('g');
if (edges && edges.length) {
  for (var i=0;i<edges.length;i++) {
    if (edges[i].id.substr(0,4)=='edge') {
      edges[i].setAttribute('class','edge');
    }
  }
}
]]></script>
        <defs>
                <circle id="rim" cx="0" cy="0" r="7"/>
                <circle id="rim2" cx="0" cy="0" r="3.5"/>
                <g id="zoomPlus">
                        <use xlink:href="#rim" fill="#404040">
                                <set attributeName="fill" to="#808080" begin="zoomplus.mouseover" end="zoomplus.mouseout"/>
                        </use>
                        <path d="M-4,0h8M0,-4v8" fill="none" stroke="white" stroke-width="1.5" pointer-events="none"/>
                </g>
                <g id="zoomMin">
                        <use xlink:href="#rim" fill="#404040">
                                <set attributeName="fill" to="#808080" begin="zoomminus.mouseover" end="zoomminus.mouseout"/>
                        </use>
                        <path d="M-4,0h8" fill="none" stroke="white" stroke-width="1.5" pointer-events="none"/>
                </g>
                <g id="dirArrow">
                        <path fill="none" stroke="white" stroke-width="1.5" d="M0,-3.0v7 M-2.5,-0.5L0,-3.0L2.5,-0.5"/>
                </g>
               <g id="resetDef">
                       <use xlink:href="#rim2" fill="#404040">
                               <set attributeName="fill" to="#808080" begin="reset.mouseover" end="reset.mouseout"/>
                       </use>
               </g>
        </defs>

<script type="text/javascript">
var viewWidth = 344;
var viewHeight = 589;
var sectionId = 'dynsection-0';
</script>
<script xlink:href="svgpan.js"/>
<svg id="graph" class="graph">
<g id="viewport">
<title>ce103_hw4_medical_store_lib.Medicine.ByteArrayBlockToMedicine</title>
<!-- Node1 -->
<g id="node1" class="node">
<title>Node1</title>
<g id="a_node1"><a xlink:title=" ">
<polygon fill="#999999" stroke="#666666" points="145,-299.5 0,-299.5 0,-258.5 145,-258.5 145,-299.5"/>
<text text-anchor="start" x="8" y="-287.5" font-family="Helvetica,sans-Serif" font-size="10.00">ce103_hw4_medical_store</text>
<text text-anchor="start" x="8" y="-276.5" font-family="Helvetica,sans-Serif" font-size="10.00">_lib.Medicine.ByteArrayBlock</text>
<text text-anchor="middle" x="72.5" y="-265.5" font-family="Helvetica,sans-Serif" font-size="10.00">ToMedicine</text>
</a>
</g>
</g>
<!-- Node2 -->
<g id="node2" class="node">
<title>Node2</title>
<g id="a_node2"><a xlink:href="classce103__hw4__medical__store__lib_1_1_conversion_utility.html#a73bfc22165c4d39e288482818b96f6a1" target="_top" xlink:title=" ">
<polygon fill="white" stroke="#666666" points="334.5,-580.5 182.5,-580.5 182.5,-539.5 334.5,-539.5 334.5,-580.5"/>
<text text-anchor="start" x="190.5" y="-568.5" font-family="Helvetica,sans-Serif" font-size="10.00">ce103_hw4_medical_store</text>
<text text-anchor="start" x="190.5" y="-557.5" font-family="Helvetica,sans-Serif" font-size="10.00">_lib.ConversionUtility.byteArray</text>
<text text-anchor="middle" x="258.5" y="-546.5" font-family="Helvetica,sans-Serif" font-size="10.00">ToInteger</text>
</a>
</g>
</g>
<!-- Node1&#45;&gt;Node2 -->
<g id="edge1" class="edge">
<title>Node1&#45;&gt;Node2</title>
<path fill="none" stroke="#63b8ff" d="M76.7,-299.73C85.09,-347.2 112.03,-464.79 181,-531 181.38,-531.37 181.77,-531.73 182.17,-532.09"/>
<polygon fill="#63b8ff" stroke="#63b8ff" points="179.85,-534.72 189.9,-538.07 184.13,-529.19 179.85,-534.72"/>
</g>
<!-- Node3 -->
<g id="node3" class="node">
<title>Node3</title>
<g id="a_node3"><a xlink:href="classce103__hw4__medical__store__lib_1_1_conversion_utility.html#a202f8f242fa0c940170289cb2b08b1f7" target="_top" xlink:title=" ">
<polygon fill="white" stroke="#666666" points="334.5,-521.5 182.5,-521.5 182.5,-480.5 334.5,-480.5 334.5,-521.5"/>
<text text-anchor="start" x="190.5" y="-509.5" font-family="Helvetica,sans-Serif" font-size="10.00">ce103_hw4_medical_store</text>
<text text-anchor="start" x="190.5" y="-498.5" font-family="Helvetica,sans-Serif" font-size="10.00">_lib.ConversionUtility.byteArray</text>
<text text-anchor="middle" x="258.5" y="-487.5" font-family="Helvetica,sans-Serif" font-size="10.00">ToString</text>
</a>
</g>
</g>
<!-- Node1&#45;&gt;Node3 -->
<g id="edge2" class="edge">
<title>Node1&#45;&gt;Node3</title>
<path fill="none" stroke="#63b8ff" d="M79.93,-299.96C92.89,-338.9 125.71,-422.8 181,-471 182.09,-471.95 183.21,-472.87 184.36,-473.76"/>
<polygon fill="#63b8ff" stroke="#63b8ff" points="182.2,-476.52 192.44,-479.24 186.13,-470.73 182.2,-476.52"/>
</g>
<!-- Node4 -->
<g id="node4" class="node">
<title>Node4</title>
<g id="a_node4"><a xlink:href="classce103__hw4__medical__store__lib_1_1_medicine.html#a1790d6561a4c38c21f3e3367e869fef7" target="_top" xlink:title=" ">
<polygon fill="white" stroke="#666666" points="324,-462 193,-462 193,-432 324,-432 324,-462"/>
<text text-anchor="start" x="201" y="-450" font-family="Helvetica,sans-Serif" font-size="10.00">ce103_hw4_medical_store</text>
<text text-anchor="middle" x="258.5" y="-439" font-family="Helvetica,sans-Serif" font-size="10.00">_lib.Medicine.setCabnitno</text>
</a>
</g>
</g>
<!-- Node1&#45;&gt;Node4 -->
<g id="edge3" class="edge">
<title>Node1&#45;&gt;Node4</title>
<path fill="none" stroke="#63b8ff" d="M83.64,-299.91C99.89,-331.23 134.68,-390.16 181,-423 182.6,-424.13 184.26,-425.22 185.96,-426.25"/>
<polygon fill="#63b8ff" stroke="#63b8ff" points="184.3,-429.33 194.77,-430.93 187.58,-423.15 184.3,-429.33"/>
</g>
<!-- Node5 -->
<g id="node5" class="node">
<title>Node5</title>
<g id="a_node5"><a xlink:href="classce103__hw4__medical__store__lib_1_1_medicine.html#ab3afe862a422908e5a509744553ec858" target="_top" xlink:title=" ">
<polygon fill="white" stroke="#666666" points="336,-414 181,-414 181,-384 336,-384 336,-414"/>
<text text-anchor="start" x="189" y="-402" font-family="Helvetica,sans-Serif" font-size="10.00">ce103_hw4_medical_store</text>
<text text-anchor="middle" x="258.5" y="-391" font-family="Helvetica,sans-Serif" font-size="10.00">_lib.Medicine.setCompanyname</text>
</a>
</g>
</g>
<!-- Node1&#45;&gt;Node5 -->
<g id="edge4" class="edge">
<title>Node1&#45;&gt;Node5</title>
<path fill="none" stroke="#63b8ff" d="M91.71,-299.83C111.65,-321.45 145.53,-354.86 181,-375 183.49,-376.41 186.07,-377.75 188.72,-379.03"/>
<polygon fill="#63b8ff" stroke="#63b8ff" points="187.21,-382.19 197.78,-382.98 190.01,-375.77 187.21,-382.19"/>
</g>
<!-- Node6 -->
<g id="node6" class="node">
<title>Node6</title>
<g id="a_node6"><a xlink:href="classce103__hw4__medical__store__lib_1_1_medicine.html#a8cf2549ba5a4f75287214b32b6af9bed" target="_top" xlink:title=" ">
<polygon fill="white" stroke="#666666" points="324,-366 193,-366 193,-336 324,-336 324,-366"/>
<text text-anchor="start" x="201" y="-354" font-family="Helvetica,sans-Serif" font-size="10.00">ce103_hw4_medical_store</text>
<text text-anchor="middle" x="258.5" y="-343" font-family="Helvetica,sans-Serif" font-size="10.00">_lib.Medicine.setExpdate</text>
</a>
</g>
</g>
<!-- Node1&#45;&gt;Node6 -->
<g id="edge5" class="edge">
<title>Node1&#45;&gt;Node6</title>
<path fill="none" stroke="#63b8ff" d="M117.21,-299.9C136.55,-308.78 159.69,-318.93 181,-327 185.39,-328.66 189.96,-330.31 194.57,-331.9"/>
<polygon fill="#63b8ff" stroke="#63b8ff" points="193.34,-335.18 203.94,-335.06 195.58,-328.55 193.34,-335.18"/>
</g>
<!-- Node7 -->
<g id="node7" class="node">
<title>Node7</title>
<g id="a_node7"><a xlink:href="classce103__hw4__medical__store__lib_1_1_medicine.html#a5e1cfaca9d613e322ce0fefd317281a0" target="_top" xlink:title=" ">
<polygon fill="white" stroke="#666666" points="324,-318 193,-318 193,-288 324,-288 324,-318"/>
<text text-anchor="start" x="201" y="-306" font-family="Helvetica,sans-Serif" font-size="10.00">ce103_hw4_medical_store</text>
<text text-anchor="middle" x="258.5" y="-295" font-family="Helvetica,sans-Serif" font-size="10.00">_lib.Medicine.setId</text>
</a>
</g>
</g>
<!-- Node1&#45;&gt;Node7 -->
<g id="edge6" class="edge">
<title>Node1&#45;&gt;Node7</title>
<path fill="none" stroke="#63b8ff" d="M145.43,-288.38C157.19,-289.92 169.42,-291.51 181.28,-293.06"/>
<polygon fill="#63b8ff" stroke="#63b8ff" points="180.64,-296.5 191.01,-294.33 181.55,-289.56 180.64,-296.5"/>
</g>
<!-- Node8 -->
<g id="node8" class="node">
<title>Node8</title>
<g id="a_node8"><a xlink:href="classce103__hw4__medical__store__lib_1_1_medicine.html#a2d176e8be994b2cc41e7881cad4de254" target="_top" xlink:title=" ">
<polygon fill="white" stroke="#666666" points="335,-270 182,-270 182,-240 335,-240 335,-270"/>
<text text-anchor="start" x="190" y="-258" font-family="Helvetica,sans-Serif" font-size="10.00">ce103_hw4_medical_store</text>
<text text-anchor="middle" x="258.5" y="-247" font-family="Helvetica,sans-Serif" font-size="10.00">_lib.Medicine.setMedicinename</text>
</a>
</g>
</g>
<!-- Node1&#45;&gt;Node8 -->
<g id="edge7" class="edge">
<title>Node1&#45;&gt;Node8</title>
<path fill="none" stroke="#63b8ff" d="M145.43,-269.62C153.61,-268.55 162.01,-267.46 170.35,-266.37"/>
<polygon fill="#63b8ff" stroke="#63b8ff" points="170.71,-269.85 180.17,-265.09 169.8,-262.91 170.71,-269.85"/>
</g>
<!-- Node9 -->
<g id="node9" class="node">
<title>Node9</title>
<g id="a_node9"><a xlink:href="classce103__hw4__medical__store__lib_1_1_medicine.html#a294117889ca6ade2dd7c2894d9728b06" target="_top" xlink:title=" ">
<polygon fill="white" stroke="#666666" points="324,-222 193,-222 193,-192 324,-192 324,-222"/>
<text text-anchor="start" x="201" y="-210" font-family="Helvetica,sans-Serif" font-size="10.00">ce103_hw4_medical_store</text>
<text text-anchor="middle" x="258.5" y="-199" font-family="Helvetica,sans-Serif" font-size="10.00">_lib.Medicine.setQuantity</text>
</a>
</g>
</g>
<!-- Node1&#45;&gt;Node9 -->
<g id="edge8" class="edge">
<title>Node1&#45;&gt;Node9</title>
<path fill="none" stroke="#63b8ff" d="M117.21,-258.1C136.55,-249.22 159.69,-239.07 181,-231 185.39,-229.34 189.96,-227.69 194.57,-226.1"/>
<polygon fill="#63b8ff" stroke="#63b8ff" points="195.58,-229.45 203.94,-222.94 193.34,-222.82 195.58,-229.45"/>
</g>
<!-- Node10 -->
<g id="node10" class="node">
<title>Node10</title>
<g id="a_node10"><a xlink:href="classce103__hw4__medical__store__lib_1_1_medicine.html#a4512c14bfa4feeb4292bf43941d26d50" target="_top" xlink:title=" ">
<polygon fill="white" stroke="#666666" points="324,-174 193,-174 193,-144 324,-144 324,-174"/>
<text text-anchor="start" x="201" y="-162" font-family="Helvetica,sans-Serif" font-size="10.00">ce103_hw4_medical_store</text>
<text text-anchor="middle" x="258.5" y="-151" font-family="Helvetica,sans-Serif" font-size="10.00">_lib.Medicine.setRackno</text>
</a>
</g>
</g>
<!-- Node1&#45;&gt;Node10 -->
<g id="edge9" class="edge">
<title>Node1&#45;&gt;Node10</title>
<path fill="none" stroke="#63b8ff" d="M91.71,-258.17C111.65,-236.55 145.53,-203.14 181,-183 183.49,-181.59 186.07,-180.25 188.72,-178.97"/>
<polygon fill="#63b8ff" stroke="#63b8ff" points="190.01,-182.23 197.78,-175.02 187.21,-175.81 190.01,-182.23"/>
</g>
<!-- Node11 -->
<g id="node11" class="node">
<title>Node11</title>
<g id="a_node11"><a xlink:href="classce103__hw4__medical__store__lib_1_1_medicine.html#aadc0d18bf721bc167b63d79965ad41bd" target="_top" xlink:title=" ">
<polygon fill="white" stroke="#666666" points="324,-126 193,-126 193,-96 324,-96 324,-126"/>
<text text-anchor="start" x="201" y="-114" font-family="Helvetica,sans-Serif" font-size="10.00">ce103_hw4_medical_store</text>
<text text-anchor="middle" x="258.5" y="-103" font-family="Helvetica,sans-Serif" font-size="10.00">_lib.Medicine.setSalecost</text>
</a>
</g>
</g>
<!-- Node1&#45;&gt;Node11 -->
<g id="edge10" class="edge">
<title>Node1&#45;&gt;Node11</title>
<path fill="none" stroke="#63b8ff" d="M83.64,-258.09C99.89,-226.77 134.68,-167.84 181,-135 182.6,-133.87 184.26,-132.78 185.96,-131.75"/>
<polygon fill="#63b8ff" stroke="#63b8ff" points="187.58,-134.85 194.77,-127.07 184.3,-128.67 187.58,-134.85"/>
</g>
<!-- Node12 -->
<g id="node12" class="node">
<title>Node12</title>
<g id="a_node12"><a xlink:href="classce103__hw4__medical__store__lib_1_1_medicine.html#a613496dacee191c7b4a9c7b9b771eb34" target="_top" xlink:title=" ">
<polygon fill="white" stroke="#666666" points="333,-78 184,-78 184,-48 333,-48 333,-78"/>
<text text-anchor="start" x="192" y="-66" font-family="Helvetica,sans-Serif" font-size="10.00">ce103_hw4_medical_store</text>
<text text-anchor="middle" x="258.5" y="-55" font-family="Helvetica,sans-Serif" font-size="10.00">_lib.Medicine.setSuppliername</text>
</a>
</g>
</g>
<!-- Node1&#45;&gt;Node12 -->
<g id="edge11" class="edge">
<title>Node1&#45;&gt;Node12</title>
<path fill="none" stroke="#63b8ff" d="M79.43,-258.29C91.73,-219.01 123.77,-133.49 181,-87 182.28,-85.96 183.61,-84.96 184.98,-84.01"/>
<polygon fill="#63b8ff" stroke="#63b8ff" points="186.41,-87.23 193.19,-79.09 182.81,-81.23 186.41,-87.23"/>
</g>
<!-- Node13 -->
<g id="node13" class="node">
<title>Node13</title>
<g id="a_node13"><a xlink:href="classce103__hw4__medical__store__lib_1_1_medicine.html#a54ef3541b91d8c01c7ad24c7c2e8addc" target="_top" xlink:title=" ">
<polygon fill="white" stroke="#666666" points="324,-30 193,-30 193,0 324,0 324,-30"/>
<text text-anchor="start" x="201" y="-18" font-family="Helvetica,sans-Serif" font-size="10.00">ce103_hw4_medical_store</text>
<text text-anchor="middle" x="258.5" y="-7" font-family="Helvetica,sans-Serif" font-size="10.00">_lib.Medicine.setUnitcost</text>
</a>
</g>
</g>
<!-- Node1&#45;&gt;Node13 -->
<g id="edge12" class="edge">
<title>Node1&#45;&gt;Node13</title>
<path fill="none" stroke="#63b8ff" d="M76.89,-258.28C85.53,-212.03 112.77,-99.68 181,-39 181.94,-38.17 182.9,-37.36 183.89,-36.59"/>
<polygon fill="#63b8ff" stroke="#63b8ff" points="185.71,-39.58 192.14,-31.16 181.87,-33.73 185.71,-39.58"/>
</g>
</g>
</svg>
        <g id="navigator" transform="translate(0 0)" fill="#404254">
                <rect fill="#f2f5e9" fill-opacity="0.5" stroke="#606060" stroke-width=".5" x="0" y="0" width="60" height="60"/>
                <use id="zoomplus" xlink:href="#zoomPlus" x="17" y="9" onmousedown="handleZoom(evt,'in')"/>
                <use id="zoomminus" xlink:href="#zoomMin" x="42" y="9" onmousedown="handleZoom(evt,'out')"/>
                <use id="reset" xlink:href="#resetDef" x="30" y="36" onmousedown="handleReset()"/>
                <g id="arrowUp" xlink:href="#dirArrow" transform="translate(30 24)" onmousedown="handlePan(0,-1)">
                  <use xlink:href="#rim" fill="#404040">
                        <set attributeName="fill" to="#808080" begin="arrowUp.mouseover" end="arrowUp.mouseout"/>
                  </use>
                  <path fill="none" stroke="white" stroke-width="1.5" d="M0,-3.0v7 M-2.5,-0.5L0,-3.0L2.5,-0.5"/>
                </g>
                <g id="arrowRight" xlink:href="#dirArrow" transform="rotate(90) translate(36 -43)" onmousedown="handlePan(1,0)">
                  <use xlink:href="#rim" fill="#404040">
                        <set attributeName="fill" to="#808080" begin="arrowRight.mouseover" end="arrowRight.mouseout"/>
                  </use>
                  <path fill="none" stroke="white" stroke-width="1.5" d="M0,-3.0v7 M-2.5,-0.5L0,-3.0L2.5,-0.5"/>
                </g>
                <g id="arrowDown" xlink:href="#dirArrow" transform="rotate(180) translate(-30 -48)" onmousedown="handlePan(0,1)">
                  <use xlink:href="#rim" fill="#404040">
                        <set attributeName="fill" to="#808080" begin="arrowDown.mouseover" end="arrowDown.mouseout"/>
                  </use>
                  <path fill="none" stroke="white" stroke-width="1.5" d="M0,-3.0v7 M-2.5,-0.5L0,-3.0L2.5,-0.5"/>
                </g>
                <g id="arrowLeft" xlink:href="#dirArrow" transform="rotate(270) translate(-36 17)" onmousedown="handlePan(-1,0)">
                  <use xlink:href="#rim" fill="#404040">
                        <set attributeName="fill" to="#808080" begin="arrowLeft.mouseover" end="arrowLeft.mouseout"/>
                  </use>
                  <path fill="none" stroke="white" stroke-width="1.5" d="M0,-3.0v7 M-2.5,-0.5L0,-3.0L2.5,-0.5"/>
                </g>
        </g>
        <svg viewBox="0 0 15 15" width="100%" height="30px" preserveAspectRatio="xMaxYMin meet">
         <g id="arrow_out" transform="scale(0.3 0.3)">
          <a xlink:href="classce103__hw4__medical__store__lib_1_1_medicine_a139a6e9d94edbac2790895a083f11813_cgraph_org.svg" target="_base">
           <rect id="button" ry="5" rx="5" y="6" x="6" height="38" width="38"
                fill="#f2f5e9" fill-opacity="0.5" stroke="#606060" stroke-width="1.0"/>
           <path id="arrow"
             d="M 11.500037,31.436501 C 11.940474,20.09759 22.043105,11.32322 32.158766,21.979434 L 37.068811,17.246167 C 37.068811,17.246167 37.088388,32 37.088388,32 L 22.160133,31.978069 C 22.160133,31.978069 26.997745,27.140456 26.997745,27.140456 C 18.528582,18.264221 13.291696,25.230495 11.500037,31.436501 z"
             style="fill:#404040;"/>
          </a>
         </g>
        </svg>
</svg>
