<?xml version="1.0" encoding="UTF-8" standalone="no"?>
<!DOCTYPE svg PUBLIC "-//W3C//DTD SVG 1.1//EN"
 "http://www.w3.org/Graphics/SVG/1.1/DTD/svg11.dtd">
<!-- Generated by graphviz version 7.0.4 (20221203.1631)
 -->
<!-- Title: ce103_hw4_medical_store_app.InsiderOfTheMenu.purchasemedicine Pages: 1 -->
<svg width="599pt" height="910pt"
 viewBox="0.00 0.00 599.00 909.50" xmlns="http://www.w3.org/2000/svg" xmlns:xlink="http://www.w3.org/1999/xlink">
<g id="graph0" class="graph" transform="scale(1 1) rotate(0) translate(4 905.5)">
<title>ce103_hw4_medical_store_app.InsiderOfTheMenu.purchasemedicine</title>
<!-- Node1 -->
<g id="node1" class="node">
<title>Node1</title>
<g id="a_node1"><a xlink:title=" ">
<polygon fill="#999999" stroke="#666666" points="200,-366 0,-366 0,-336 200,-336 200,-366"/>
<text text-anchor="start" x="8" y="-354" font-family="Helvetica,sans-Serif" font-size="10.00">ce103_hw4_medical_store</text>
<text text-anchor="middle" x="100" y="-343" font-family="Helvetica,sans-Serif" font-size="10.00">_app.InsiderOfTheMenu.purchasemedicine</text>
</a>
</g>
</g>
<!-- Node2 -->
<g id="node2" class="node">
<title>Node2</title>
<g id="a_node2"><a xlink:href="classce103__hw4__medical__store__lib_1_1_file_utility.html#a63f68a104500f89f20d04381d0376ba6" target="_top" xlink:title=" ">
<polygon fill="white" stroke="#666666" points="380.5,-704 246.5,-704 246.5,-674 380.5,-674 380.5,-704"/>
<text text-anchor="start" x="254.5" y="-692" font-family="Helvetica,sans-Serif" font-size="10.00">ce103_hw4_medical_store</text>
<text text-anchor="middle" x="313.5" y="-681" font-family="Helvetica,sans-Serif" font-size="10.00">_lib.FileUtility.appendBlock</text>
</a>
</g>
</g>
<!-- Node1&#45;&gt;Node2 -->
<g id="edge1" class="edge">
<title>Node1&#45;&gt;Node2</title>
<path fill="none" stroke="#63b8ff" d="M103.04,-366.36C110.59,-416.9 141.53,-579.71 236,-665 236.9,-665.82 237.84,-666.6 238.79,-667.37"/>
<polygon fill="#63b8ff" stroke="#63b8ff" points="236.47,-670.02 246.73,-672.68 240.36,-664.21 236.47,-670.02"/>
</g>
<!-- Node3 -->
<g id="node3" class="node">
<title>Node3</title>
<g id="a_node3"><a xlink:href="classce103__hw4__medical__store__app_1_1_insider_of_the_menu.html#a0409ee76fc4d80aea880c4c9702271df" target="_top" xlink:title=" ">
<polygon fill="white" stroke="#666666" points="385,-656 242,-656 242,-626 385,-626 385,-656"/>
<text text-anchor="start" x="250" y="-644" font-family="Helvetica,sans-Serif" font-size="10.00">ce103_hw4_medical_store</text>
<text text-anchor="middle" x="313.5" y="-633" font-family="Helvetica,sans-Serif" font-size="10.00">_app.InsiderOfTheMenu.clear</text>
</a>
</g>
</g>
<!-- Node1&#45;&gt;Node3 -->
<g id="edge2" class="edge">
<title>Node1&#45;&gt;Node3</title>
<path fill="none" stroke="#63b8ff" d="M104.32,-366.22C114.97,-411.47 152.61,-546.39 236,-617 237.11,-617.94 238.25,-618.84 239.42,-619.7"/>
<polygon fill="#63b8ff" stroke="#63b8ff" points="237.34,-622.53 247.68,-624.86 241.06,-616.59 237.34,-622.53"/>
</g>
<!-- Node4 -->
<g id="node4" class="node">
<title>Node4</title>
<g id="a_node4"><a xlink:href="classce103__hw4__medical__store__app_1_1_insider_of_the_menu.html#aa208466ba46c8f7d58d2f2e970d23545" target="_top" xlink:title=" ">
<polygon fill="white" stroke="#666666" points="591,-142 427,-142 427,-112 591,-112 591,-142"/>
<text text-anchor="start" x="435" y="-130" font-family="Helvetica,sans-Serif" font-size="10.00">ce103_hw4_medical_store</text>
<text text-anchor="middle" x="509" y="-119" font-family="Helvetica,sans-Serif" font-size="10.00">_app.InsiderOfTheMenu.main_box</text>
</a>
</g>
</g>
<!-- Node1&#45;&gt;Node4 -->
<g id="edge3" class="edge">
<title>Node1&#45;&gt;Node4</title>
<path fill="none" stroke="#63b8ff" d="M107.63,-366.43C123.63,-401.47 168.18,-486.49 236,-519 298.12,-548.77 338.99,-564.18 391,-519 434.2,-481.47 408.07,-318.01 427,-264 441.83,-221.69 470.4,-177.97 489.34,-151.63"/>
<polygon fill="#63b8ff" stroke="#63b8ff" points="492.1,-153.78 495.18,-143.65 486.45,-149.65 492.1,-153.78"/>
</g>
<!-- Node5 -->
<g id="node5" class="node">
<title>Node5</title>
<g id="a_node5"><a xlink:href="classce103__hw4__medical__store__lib_1_1_medicine.html#a6046b568ddbacc606799c55c34c93584" target="_top" xlink:title=" ">
<polygon fill="white" stroke="#666666" points="386.5,-607.5 240.5,-607.5 240.5,-566.5 386.5,-566.5 386.5,-607.5"/>
<text text-anchor="start" x="248.5" y="-595.5" font-family="Helvetica,sans-Serif" font-size="10.00">ce103_hw4_medical_store</text>
<text text-anchor="start" x="248.5" y="-584.5" font-family="Helvetica,sans-Serif" font-size="10.00">_lib.Medicine.medicineToByte</text>
<text text-anchor="middle" x="313.5" y="-573.5" font-family="Helvetica,sans-Serif" font-size="10.00">ArrayBlock</text>
</a>
</g>
</g>
<!-- Node1&#45;&gt;Node5 -->
<g id="edge4" class="edge">
<title>Node1&#45;&gt;Node5</title>
<path fill="none" stroke="#63b8ff" d="M107.72,-366.45C124.41,-403.2 171.13,-496.89 236,-552 239.57,-555.03 243.44,-557.85 247.49,-560.47"/>
<polygon fill="#63b8ff" stroke="#63b8ff" points="245.5,-563.36 255.89,-565.43 249.06,-557.33 245.5,-563.36"/>
</g>
<!-- Node19 -->
<g id="node19" class="node">
<title>Node19</title>
<g id="a_node19"><a xlink:href="classce103__hw4__medical__store__lib_1_1_medicine.html#a1790d6561a4c38c21f3e3367e869fef7" target="_top" xlink:title=" ">
<polygon fill="white" stroke="#666666" points="379,-510 248,-510 248,-480 379,-480 379,-510"/>
<text text-anchor="start" x="256" y="-498" font-family="Helvetica,sans-Serif" font-size="10.00">ce103_hw4_medical_store</text>
<text text-anchor="middle" x="313.5" y="-487" font-family="Helvetica,sans-Serif" font-size="10.00">_lib.Medicine.setCabnitno</text>
</a>
</g>
</g>
<!-- Node1&#45;&gt;Node19 -->
<g id="edge18" class="edge">
<title>Node1&#45;&gt;Node19</title>
<path fill="none" stroke="#63b8ff" d="M114.01,-366.16C136.46,-391.39 184.98,-442.1 236,-471 238.49,-472.41 241.07,-473.75 243.72,-475.02"/>
<polygon fill="#63b8ff" stroke="#63b8ff" points="242.22,-478.18 252.78,-478.97 245.02,-471.77 242.22,-478.18"/>
</g>
<!-- Node20 -->
<g id="node20" class="node">
<title>Node20</title>
<g id="a_node20"><a xlink:href="classce103__hw4__medical__store__lib_1_1_medicine.html#ab3afe862a422908e5a509744553ec858" target="_top" xlink:title=" ">
<polygon fill="white" stroke="#666666" points="391,-462 236,-462 236,-432 391,-432 391,-462"/>
<text text-anchor="start" x="244" y="-450" font-family="Helvetica,sans-Serif" font-size="10.00">ce103_hw4_medical_store</text>
<text text-anchor="middle" x="313.5" y="-439" font-family="Helvetica,sans-Serif" font-size="10.00">_lib.Medicine.setCompanyname</text>
</a>
</g>
</g>
<!-- Node1&#45;&gt;Node20 -->
<g id="edge19" class="edge">
<title>Node1&#45;&gt;Node20</title>
<path fill="none" stroke="#63b8ff" d="M126.19,-366.26C152.8,-381.95 196.32,-406.36 236,-423 240,-424.68 244.16,-426.3 248.39,-427.86"/>
<polygon fill="#63b8ff" stroke="#63b8ff" points="246.93,-431.06 257.53,-431.1 249.27,-424.46 246.93,-431.06"/>
</g>
<!-- Node21 -->
<g id="node21" class="node">
<title>Node21</title>
<g id="a_node21"><a xlink:href="classce103__hw4__medical__store__lib_1_1_medicine.html#a8cf2549ba5a4f75287214b32b6af9bed" target="_top" xlink:title=" ">
<polygon fill="white" stroke="#666666" points="379,-414 248,-414 248,-384 379,-384 379,-414"/>
<text text-anchor="start" x="256" y="-402" font-family="Helvetica,sans-Serif" font-size="10.00">ce103_hw4_medical_store</text>
<text text-anchor="middle" x="313.5" y="-391" font-family="Helvetica,sans-Serif" font-size="10.00">_lib.Medicine.setExpdate</text>
</a>
</g>
</g>
<!-- Node1&#45;&gt;Node21 -->
<g id="edge20" class="edge">
<title>Node1&#45;&gt;Node21</title>
<path fill="none" stroke="#63b8ff" d="M169.08,-366.45C190.67,-371.35 214.68,-376.8 236.77,-381.81"/>
<polygon fill="#63b8ff" stroke="#63b8ff" points="235.78,-385.18 246.31,-383.98 237.33,-378.35 235.78,-385.18"/>
</g>
<!-- Node22 -->
<g id="node22" class="node">
<title>Node22</title>
<g id="a_node22"><a xlink:href="classce103__hw4__medical__store__lib_1_1_medicine.html#a5e1cfaca9d613e322ce0fefd317281a0" target="_top" xlink:title=" ">
<polygon fill="white" stroke="#666666" points="379,-366 248,-366 248,-336 379,-336 379,-366"/>
<text text-anchor="start" x="256" y="-354" font-family="Helvetica,sans-Serif" font-size="10.00">ce103_hw4_medical_store</text>
<text text-anchor="middle" x="313.5" y="-343" font-family="Helvetica,sans-Serif" font-size="10.00">_lib.Medicine.setId</text>
</a>
</g>
</g>
<!-- Node1&#45;&gt;Node22 -->
<g id="edge21" class="edge">
<title>Node1&#45;&gt;Node22</title>
<path fill="none" stroke="#63b8ff" d="M200.25,-351C212.32,-351 224.51,-351 236.18,-351"/>
<polygon fill="#63b8ff" stroke="#63b8ff" points="236.14,-354.5 246.14,-351 236.14,-347.5 236.14,-354.5"/>
</g>
<!-- Node23 -->
<g id="node23" class="node">
<title>Node23</title>
<g id="a_node23"><a xlink:href="classce103__hw4__medical__store__lib_1_1_medicine.html#a33482e8d40528958d459922998fcc380" target="_top" xlink:title=" ">
<polygon fill="white" stroke="#666666" points="379,-318 248,-318 248,-288 379,-288 379,-318"/>
<text text-anchor="start" x="256" y="-306" font-family="Helvetica,sans-Serif" font-size="10.00">ce103_hw4_medical_store</text>
<text text-anchor="middle" x="313.5" y="-295" font-family="Helvetica,sans-Serif" font-size="10.00">_lib.Medicine.setMfgdate</text>
</a>
</g>
</g>
<!-- Node1&#45;&gt;Node23 -->
<g id="edge22" class="edge">
<title>Node1&#45;&gt;Node23</title>
<path fill="none" stroke="#63b8ff" d="M169.08,-335.55C190.67,-330.65 214.68,-325.2 236.77,-320.19"/>
<polygon fill="#63b8ff" stroke="#63b8ff" points="237.33,-323.65 246.31,-318.02 235.78,-316.82 237.33,-323.65"/>
</g>
<!-- Node24 -->
<g id="node24" class="node">
<title>Node24</title>
<g id="a_node24"><a xlink:href="classce103__hw4__medical__store__lib_1_1_medicine.html#a294117889ca6ade2dd7c2894d9728b06" target="_top" xlink:title=" ">
<polygon fill="white" stroke="#666666" points="379,-270 248,-270 248,-240 379,-240 379,-270"/>
<text text-anchor="start" x="256" y="-258" font-family="Helvetica,sans-Serif" font-size="10.00">ce103_hw4_medical_store</text>
<text text-anchor="middle" x="313.5" y="-247" font-family="Helvetica,sans-Serif" font-size="10.00">_lib.Medicine.setQuantity</text>
</a>
</g>
</g>
<!-- Node1&#45;&gt;Node24 -->
<g id="edge23" class="edge">
<title>Node1&#45;&gt;Node24</title>
<path fill="none" stroke="#63b8ff" d="M126.19,-335.74C152.8,-320.05 196.32,-295.64 236,-279 240,-277.32 244.16,-275.7 248.39,-274.14"/>
<polygon fill="#63b8ff" stroke="#63b8ff" points="249.27,-277.54 257.53,-270.9 246.93,-270.94 249.27,-277.54"/>
</g>
<!-- Node25 -->
<g id="node25" class="node">
<title>Node25</title>
<g id="a_node25"><a xlink:href="classce103__hw4__medical__store__lib_1_1_medicine.html#a4512c14bfa4feeb4292bf43941d26d50" target="_top" xlink:title=" ">
<polygon fill="white" stroke="#666666" points="379,-222 248,-222 248,-192 379,-192 379,-222"/>
<text text-anchor="start" x="256" y="-210" font-family="Helvetica,sans-Serif" font-size="10.00">ce103_hw4_medical_store</text>
<text text-anchor="middle" x="313.5" y="-199" font-family="Helvetica,sans-Serif" font-size="10.00">_lib.Medicine.setRackno</text>
</a>
</g>
</g>
<!-- Node1&#45;&gt;Node25 -->
<g id="edge24" class="edge">
<title>Node1&#45;&gt;Node25</title>
<path fill="none" stroke="#63b8ff" d="M114.01,-335.84C136.46,-310.61 184.98,-259.9 236,-231 238.49,-229.59 241.07,-228.25 243.72,-226.98"/>
<polygon fill="#63b8ff" stroke="#63b8ff" points="245.02,-230.23 252.78,-223.03 242.22,-223.82 245.02,-230.23"/>
</g>
<!-- Node26 -->
<g id="node26" class="node">
<title>Node26</title>
<g id="a_node26"><a xlink:href="classce103__hw4__medical__store__lib_1_1_medicine.html#aadc0d18bf721bc167b63d79965ad41bd" target="_top" xlink:title=" ">
<polygon fill="white" stroke="#666666" points="379,-174 248,-174 248,-144 379,-144 379,-174"/>
<text text-anchor="start" x="256" y="-162" font-family="Helvetica,sans-Serif" font-size="10.00">ce103_hw4_medical_store</text>
<text text-anchor="middle" x="313.5" y="-151" font-family="Helvetica,sans-Serif" font-size="10.00">_lib.Medicine.setSalecost</text>
</a>
</g>
</g>
<!-- Node1&#45;&gt;Node26 -->
<g id="edge25" class="edge">
<title>Node1&#45;&gt;Node26</title>
<path fill="none" stroke="#63b8ff" d="M108.95,-335.97C127.04,-303.21 174.5,-224.98 236,-183 237.81,-181.76 239.69,-180.59 241.62,-179.47"/>
<polygon fill="#63b8ff" stroke="#63b8ff" points="242.96,-182.72 250.28,-175.05 239.78,-176.48 242.96,-182.72"/>
</g>
<!-- Node27 -->
<g id="node27" class="node">
<title>Node27</title>
<g id="a_node27"><a xlink:href="classce103__hw4__medical__store__lib_1_1_medicine.html#a613496dacee191c7b4a9c7b9b771eb34" target="_top" xlink:title=" ">
<polygon fill="white" stroke="#666666" points="388,-126 239,-126 239,-96 388,-96 388,-126"/>
<text text-anchor="start" x="247" y="-114" font-family="Helvetica,sans-Serif" font-size="10.00">ce103_hw4_medical_store</text>
<text text-anchor="middle" x="313.5" y="-103" font-family="Helvetica,sans-Serif" font-size="10.00">_lib.Medicine.setSuppliername</text>
</a>
</g>
</g>
<!-- Node1&#45;&gt;Node27 -->
<g id="edge26" class="edge">
<title>Node1&#45;&gt;Node27</title>
<path fill="none" stroke="#63b8ff" d="M106.29,-335.59C120.64,-296.12 164.1,-190.58 236,-135 237.34,-133.96 238.73,-132.97 240.16,-132.02"/>
<polygon fill="#63b8ff" stroke="#63b8ff" points="241.8,-135.11 248.73,-127.1 238.32,-129.04 241.8,-135.11"/>
</g>
<!-- Node28 -->
<g id="node28" class="node">
<title>Node28</title>
<g id="a_node28"><a xlink:href="classce103__hw4__medical__store__lib_1_1_medicine.html#a54ef3541b91d8c01c7ad24c7c2e8addc" target="_top" xlink:title=" ">
<polygon fill="white" stroke="#666666" points="379,-78 248,-78 248,-48 379,-48 379,-78"/>
<text text-anchor="start" x="256" y="-66" font-family="Helvetica,sans-Serif" font-size="10.00">ce103_hw4_medical_store</text>
<text text-anchor="middle" x="313.5" y="-55" font-family="Helvetica,sans-Serif" font-size="10.00">_lib.Medicine.setUnitcost</text>
</a>
</g>
</g>
<!-- Node1&#45;&gt;Node28 -->
<g id="edge27" class="edge">
<title>Node1&#45;&gt;Node28</title>
<path fill="none" stroke="#63b8ff" d="M104.43,-335.57C115.29,-290.34 153.19,-156.9 236,-87 237.11,-86.07 238.25,-85.17 239.43,-84.3"/>
<polygon fill="#63b8ff" stroke="#63b8ff" points="241.06,-87.41 247.69,-79.15 237.35,-81.47 241.06,-87.41"/>
</g>
<!-- Node29 -->
<g id="node29" class="node">
<title>Node29</title>
<g id="a_node29"><a xlink:href="classce103__hw4__medical__store__app_1_1_insider_of_the_menu.html#ad8d1f1f6efe690acbc398b741befb617" target="_top" xlink:title=" ">
<polygon fill="white" stroke="#666666" points="391,-30 236,-30 236,0 391,0 391,-30"/>
<text text-anchor="start" x="244" y="-18" font-family="Helvetica,sans-Serif" font-size="10.00">ce103_hw4_medical_store</text>
<text text-anchor="middle" x="313.5" y="-7" font-family="Helvetica,sans-Serif" font-size="10.00">_app.InsiderOfTheMenu.supplier</text>
</a>
</g>
</g>
<!-- Node1&#45;&gt;Node29 -->
<g id="edge28" class="edge">
<title>Node1&#45;&gt;Node29</title>
<path fill="none" stroke="#63b8ff" d="M103.08,-335.74C110.72,-285.51 141.93,-123.73 236,-39 236.9,-38.18 237.84,-37.4 238.79,-36.64"/>
<polygon fill="#63b8ff" stroke="#63b8ff" points="240.37,-39.8 246.73,-31.33 236.48,-33.98 240.37,-39.8"/>
</g>
<!-- Node6 -->
<g id="node6" class="node">
<title>Node6</title>
<g id="a_node6"><a xlink:href="classce103__hw4__medical__store__lib_1_1_medicine.html#a7f1a70d47380ba5ae74fbeb571ea0ff0" target="_top" xlink:title=" ">
<polygon fill="white" stroke="#666666" points="574.5,-842 443.5,-842 443.5,-812 574.5,-812 574.5,-842"/>
<text text-anchor="start" x="451.5" y="-830" font-family="Helvetica,sans-Serif" font-size="10.00">ce103_hw4_medical_store</text>
<text text-anchor="middle" x="509" y="-819" font-family="Helvetica,sans-Serif" font-size="10.00">_lib.Medicine.getCabnitno</text>
</a>
</g>
</g>
<!-- Node5&#45;&gt;Node6 -->
<g id="edge5" class="edge">
<title>Node5&#45;&gt;Node6</title>
<path fill="none" stroke="#63b8ff" d="M381.35,-607.91C384.91,-610.59 388.17,-613.6 391,-617 444.86,-681.72 370.41,-740.65 427,-803 428.98,-805.19 431.16,-807.18 433.48,-808.99"/>
<polygon fill="#63b8ff" stroke="#63b8ff" points="431.48,-811.87 441.78,-814.32 435.25,-805.97 431.48,-811.87"/>
</g>
<!-- Node7 -->
<g id="node7" class="node">
<title>Node7</title>
<g id="a_node7"><a xlink:href="classce103__hw4__medical__store__lib_1_1_medicine.html#a74ce7ec34dace6f6852660e099323ee0" target="_top" xlink:title=" ">
<polygon fill="white" stroke="#666666" points="586.5,-794 431.5,-794 431.5,-764 586.5,-764 586.5,-794"/>
<text text-anchor="start" x="439.5" y="-782" font-family="Helvetica,sans-Serif" font-size="10.00">ce103_hw4_medical_store</text>
<text text-anchor="middle" x="509" y="-771" font-family="Helvetica,sans-Serif" font-size="10.00">_lib.Medicine.getCompanyname</text>
</a>
</g>
</g>
<!-- Node5&#45;&gt;Node7 -->
<g id="edge6" class="edge">
<title>Node5&#45;&gt;Node7</title>
<path fill="none" stroke="#63b8ff" d="M380.75,-607.87C384.5,-610.56 387.97,-613.59 391,-617 433.09,-664.4 382.92,-709.45 427,-755 427.49,-755.51 428,-756.01 428.51,-756.5"/>
<polygon fill="#63b8ff" stroke="#63b8ff" points="426.36,-759.26 436.41,-762.62 430.64,-753.72 426.36,-759.26"/>
</g>
<!-- Node8 -->
<g id="node8" class="node">
<title>Node8</title>
<g id="a_node8"><a xlink:href="classce103__hw4__medical__store__lib_1_1_medicine.html#a22bdefff626a496f3781aa2e566f93b0" target="_top" xlink:title=" ">
<polygon fill="white" stroke="#666666" points="574.5,-746 443.5,-746 443.5,-716 574.5,-716 574.5,-746"/>
<text text-anchor="start" x="451.5" y="-734" font-family="Helvetica,sans-Serif" font-size="10.00">ce103_hw4_medical_store</text>
<text text-anchor="middle" x="509" y="-723" font-family="Helvetica,sans-Serif" font-size="10.00">_lib.Medicine.getExpdate</text>
</a>
</g>
</g>
<!-- Node5&#45;&gt;Node8 -->
<g id="edge7" class="edge">
<title>Node5&#45;&gt;Node8</title>
<path fill="none" stroke="#63b8ff" d="M379.55,-607.84C383.68,-610.54 387.56,-613.58 391,-617 421.57,-647.36 395.16,-677.98 427,-707 429.01,-708.83 431.16,-710.53 433.41,-712.09"/>
<polygon fill="#63b8ff" stroke="#63b8ff" points="431.47,-715.01 441.86,-717.06 435.01,-708.98 431.47,-715.01"/>
</g>
<!-- Node9 -->
<g id="node9" class="node">
<title>Node9</title>
<g id="a_node9"><a xlink:href="classce103__hw4__medical__store__lib_1_1_medicine.html#ae0a058f869ac524cb5e9ed0a17e46c00" target="_top" xlink:title=" ">
<polygon fill="white" stroke="#666666" points="574.5,-698 443.5,-698 443.5,-668 574.5,-668 574.5,-698"/>
<text text-anchor="start" x="451.5" y="-686" font-family="Helvetica,sans-Serif" font-size="10.00">ce103_hw4_medical_store</text>
<text text-anchor="middle" x="509" y="-675" font-family="Helvetica,sans-Serif" font-size="10.00">_lib.Medicine.getId</text>
</a>
</g>
</g>
<!-- Node5&#45;&gt;Node9 -->
<g id="edge8" class="edge">
<title>Node5&#45;&gt;Node9</title>
<path fill="none" stroke="#63b8ff" d="M376.05,-607.97C381.28,-610.69 386.35,-613.69 391,-617 411.04,-631.24 406.37,-645.63 427,-659 428.97,-660.28 431.01,-661.49 433.11,-662.64"/>
<polygon fill="#63b8ff" stroke="#63b8ff" points="431.36,-665.68 441.88,-666.91 434.42,-659.39 431.36,-665.68"/>
</g>
<!-- Node10 -->
<g id="node10" class="node">
<title>Node10</title>
<g id="a_node10"><a xlink:href="classce103__hw4__medical__store__lib_1_1_medicine.html#a904d9c11fd249b1bd91c085296ce8379" target="_top" xlink:title=" ">
<polygon fill="white" stroke="#666666" points="585.5,-650 432.5,-650 432.5,-620 585.5,-620 585.5,-650"/>
<text text-anchor="start" x="440.5" y="-638" font-family="Helvetica,sans-Serif" font-size="10.00">ce103_hw4_medical_store</text>
<text text-anchor="middle" x="509" y="-627" font-family="Helvetica,sans-Serif" font-size="10.00">_lib.Medicine.getMedicinename</text>
</a>
</g>
</g>
<!-- Node5&#45;&gt;Node10 -->
<g id="edge9" class="edge">
<title>Node5&#45;&gt;Node10</title>
<path fill="none" stroke="#63b8ff" d="M386.83,-604.94C402.53,-608.84 419.14,-612.96 434.87,-616.86"/>
<polygon fill="#63b8ff" stroke="#63b8ff" points="433.58,-620.15 444.13,-619.16 435.27,-613.35 433.58,-620.15"/>
</g>
<!-- Node11 -->
<g id="node11" class="node">
<title>Node11</title>
<g id="a_node11"><a xlink:href="classce103__hw4__medical__store__lib_1_1_medicine.html#a9335d85263321d2a98c73ba13c6b4143" target="_top" xlink:title=" ">
<polygon fill="white" stroke="#666666" points="574.5,-602 443.5,-602 443.5,-572 574.5,-572 574.5,-602"/>
<text text-anchor="start" x="451.5" y="-590" font-family="Helvetica,sans-Serif" font-size="10.00">ce103_hw4_medical_store</text>
<text text-anchor="middle" x="509" y="-579" font-family="Helvetica,sans-Serif" font-size="10.00">_lib.Medicine.getMfgdate</text>
</a>
</g>
</g>
<!-- Node5&#45;&gt;Node11 -->
<g id="edge10" class="edge">
<title>Node5&#45;&gt;Node11</title>
<path fill="none" stroke="#63b8ff" d="M386.83,-587C401.54,-587 417.06,-587 431.9,-587"/>
<polygon fill="#63b8ff" stroke="#63b8ff" points="431.58,-590.5 441.58,-587 431.58,-583.5 431.58,-590.5"/>
</g>
<!-- Node12 -->
<g id="node12" class="node">
<title>Node12</title>
<g id="a_node12"><a xlink:href="classce103__hw4__medical__store__lib_1_1_medicine.html#a0a6557a0382a15e7f3510f9007d5c3e3" target="_top" xlink:title=" ">
<polygon fill="white" stroke="#666666" points="574.5,-554 443.5,-554 443.5,-524 574.5,-524 574.5,-554"/>
<text text-anchor="start" x="451.5" y="-542" font-family="Helvetica,sans-Serif" font-size="10.00">ce103_hw4_medical_store</text>
<text text-anchor="middle" x="509" y="-531" font-family="Helvetica,sans-Serif" font-size="10.00">_lib.Medicine.getQuantity</text>
</a>
</g>
</g>
<!-- Node5&#45;&gt;Node12 -->
<g id="edge11" class="edge">
<title>Node5&#45;&gt;Node12</title>
<path fill="none" stroke="#63b8ff" d="M386.83,-569.06C402.53,-565.16 419.14,-561.04 434.87,-557.14"/>
<polygon fill="#63b8ff" stroke="#63b8ff" points="435.27,-560.65 444.13,-554.84 433.58,-553.85 435.27,-560.65"/>
</g>
<!-- Node13 -->
<g id="node13" class="node">
<title>Node13</title>
<g id="a_node13"><a xlink:href="classce103__hw4__medical__store__lib_1_1_medicine.html#aa8bbbfb594c665f8c36c8b49b8ebc391" target="_top" xlink:title=" ">
<polygon fill="white" stroke="#666666" points="574.5,-506 443.5,-506 443.5,-476 574.5,-476 574.5,-506"/>
<text text-anchor="start" x="451.5" y="-494" font-family="Helvetica,sans-Serif" font-size="10.00">ce103_hw4_medical_store</text>
<text text-anchor="middle" x="509" y="-483" font-family="Helvetica,sans-Serif" font-size="10.00">_lib.Medicine.getRackno</text>
</a>
</g>
</g>
<!-- Node5&#45;&gt;Node13 -->
<g id="edge12" class="edge">
<title>Node5&#45;&gt;Node13</title>
<path fill="none" stroke="#63b8ff" d="M366.96,-566.15C375.3,-561.96 383.6,-557.22 391,-552 409.75,-538.78 407.36,-526.87 427,-515 429.28,-513.62 431.64,-512.32 434.06,-511.09"/>
<polygon fill="#63b8ff" stroke="#63b8ff" points="435.28,-514.38 442.92,-507.05 432.37,-508.02 435.28,-514.38"/>
</g>
<!-- Node14 -->
<g id="node14" class="node">
<title>Node14</title>
<g id="a_node14"><a xlink:href="classce103__hw4__medical__store__lib_1_1_medicine.html#ae1dec56590f85ec5a3249783ba8329d4" target="_top" xlink:title=" ">
<polygon fill="white" stroke="#666666" points="574.5,-458 443.5,-458 443.5,-428 574.5,-428 574.5,-458"/>
<text text-anchor="start" x="451.5" y="-446" font-family="Helvetica,sans-Serif" font-size="10.00">ce103_hw4_medical_store</text>
<text text-anchor="middle" x="509" y="-435" font-family="Helvetica,sans-Serif" font-size="10.00">_lib.Medicine.getSalecost</text>
</a>
</g>
</g>
<!-- Node5&#45;&gt;Node14 -->
<g id="edge13" class="edge">
<title>Node5&#45;&gt;Node14</title>
<path fill="none" stroke="#63b8ff" d="M372.73,-566.12C379.41,-562.12 385.71,-557.45 391,-552 419.59,-522.58 396.4,-494.33 427,-467 429.03,-465.19 431.19,-463.51 433.46,-461.96"/>
<polygon fill="#63b8ff" stroke="#63b8ff" points="435.06,-465.08 441.95,-457.03 431.54,-459.02 435.06,-465.08"/>
</g>
<!-- Node15 -->
<g id="node15" class="node">
<title>Node15</title>
<g id="a_node15"><a xlink:href="classce103__hw4__medical__store__lib_1_1_medicine.html#a1dd5fe09b47634908bc261dbad75c328" target="_top" xlink:title=" ">
<polygon fill="white" stroke="#666666" points="583.5,-410 434.5,-410 434.5,-380 583.5,-380 583.5,-410"/>
<text text-anchor="start" x="442.5" y="-398" font-family="Helvetica,sans-Serif" font-size="10.00">ce103_hw4_medical_store</text>
<text text-anchor="middle" x="509" y="-387" font-family="Helvetica,sans-Serif" font-size="10.00">_lib.Medicine.getSuppliername</text>
</a>
</g>
</g>
<!-- Node5&#45;&gt;Node15 -->
<g id="edge14" class="edge">
<title>Node5&#45;&gt;Node15</title>
<path fill="none" stroke="#63b8ff" d="M374.59,-566.06C380.71,-562.11 386.37,-557.46 391,-552 430.59,-505.28 384.21,-462.81 427,-419 427.5,-418.49 428,-417.99 428.52,-417.51"/>
<polygon fill="#63b8ff" stroke="#63b8ff" points="430.65,-420.29 436.44,-411.41 426.38,-414.74 430.65,-420.29"/>
</g>
<!-- Node16 -->
<g id="node16" class="node">
<title>Node16</title>
<g id="a_node16"><a xlink:href="classce103__hw4__medical__store__lib_1_1_medicine.html#ae1a28d11b94f9042013c4a5c56f704f4" target="_top" xlink:title=" ">
<polygon fill="white" stroke="#666666" points="574.5,-362 443.5,-362 443.5,-332 574.5,-332 574.5,-362"/>
<text text-anchor="start" x="451.5" y="-350" font-family="Helvetica,sans-Serif" font-size="10.00">ce103_hw4_medical_store</text>
<text text-anchor="middle" x="509" y="-339" font-family="Helvetica,sans-Serif" font-size="10.00">_lib.Medicine.getUnitcost</text>
</a>
</g>
</g>
<!-- Node5&#45;&gt;Node16 -->
<g id="edge15" class="edge">
<title>Node5&#45;&gt;Node16</title>
<path fill="none" stroke="#63b8ff" d="M375.33,-566.12C381.24,-562.17 386.65,-557.5 391,-552 441.87,-487.66 371.72,-431.59 427,-371 428.99,-368.82 431.17,-366.83 433.49,-365.02"/>
<polygon fill="#63b8ff" stroke="#63b8ff" points="435.27,-368.04 441.81,-359.71 431.5,-362.14 435.27,-368.04"/>
</g>
<!-- Node17 -->
<g id="node17" class="node">
<title>Node17</title>
<g id="a_node17"><a xlink:href="classce103__hw4__medical__store__lib_1_1_conversion_utility.html#a8e0f93579075d0a1b0800e05bbcd66af" target="_top" xlink:title=" ">
<polygon fill="white" stroke="#666666" points="578.5,-313.5 439.5,-313.5 439.5,-272.5 578.5,-272.5 578.5,-313.5"/>
<text text-anchor="start" x="447.5" y="-301.5" font-family="Helvetica,sans-Serif" font-size="10.00">ce103_hw4_medical_store</text>
<text text-anchor="start" x="447.5" y="-290.5" font-family="Helvetica,sans-Serif" font-size="10.00">_lib.ConversionUtility.integer</text>
<text text-anchor="middle" x="509" y="-279.5" font-family="Helvetica,sans-Serif" font-size="10.00">ToByteArray</text>
</a>
</g>
</g>
<!-- Node5&#45;&gt;Node17 -->
<g id="edge16" class="edge">
<title>Node5&#45;&gt;Node17</title>
<path fill="none" stroke="#63b8ff" d="M375.92,-566.04C381.65,-562.11 386.85,-557.47 391,-552 453.25,-469.91 361.74,-402.72 427,-323 428.1,-321.66 429.26,-320.38 430.48,-319.15"/>
<polygon fill="#63b8ff" stroke="#63b8ff" points="432.65,-321.9 438.14,-312.84 428.2,-316.5 432.65,-321.9"/>
</g>
<!-- Node18 -->
<g id="node18" class="node">
<title>Node18</title>
<g id="a_node18"><a xlink:href="classce103__hw4__medical__store__lib_1_1_conversion_utility.html#ab0ff4b89697d8bd6cc3b3a1141a86e3d" target="_top" xlink:title=" ">
<polygon fill="white" stroke="#666666" points="576,-901.5 442,-901.5 442,-860.5 576,-860.5 576,-901.5"/>
<text text-anchor="start" x="450" y="-889.5" font-family="Helvetica,sans-Serif" font-size="10.00">ce103_hw4_medical_store</text>
<text text-anchor="start" x="450" y="-878.5" font-family="Helvetica,sans-Serif" font-size="10.00">_lib.ConversionUtility.string</text>
<text text-anchor="middle" x="509" y="-867.5" font-family="Helvetica,sans-Serif" font-size="10.00">ToByteArray</text>
</a>
</g>
</g>
<!-- Node5&#45;&gt;Node18 -->
<g id="edge17" class="edge">
<title>Node5&#45;&gt;Node18</title>
<path fill="none" stroke="#63b8ff" d="M381.5,-607.78C385.02,-610.49 388.24,-613.55 391,-617 456.74,-699.16 360.48,-769.47 427,-851 428.66,-853.03 430.46,-854.92 432.39,-856.69"/>
<polygon fill="#63b8ff" stroke="#63b8ff" points="430.26,-859.46 440.35,-862.72 434.49,-853.89 430.26,-859.46"/>
</g>
<!-- Node29&#45;&gt;Node4 -->
<g id="edge29" class="edge">
<title>Node29&#45;&gt;Node4</title>
<path fill="none" stroke="#63b8ff" d="M371.36,-30.43C378.12,-32.97 384.81,-35.82 391,-39 425.38,-56.65 460.19,-84.38 482.8,-103.99"/>
<polygon fill="#63b8ff" stroke="#63b8ff" points="480.46,-106.59 490.28,-110.58 485.09,-101.34 480.46,-106.59"/>
</g>
</g>
</svg>
