<?xml version="1.0" encoding="UTF-8" standalone="no"?>
<!DOCTYPE svg PUBLIC "-//W3C//DTD SVG 1.1//EN"
 "http://www.w3.org/Graphics/SVG/1.1/DTD/svg11.dtd">
<!-- Generated by graphviz version 7.0.4 (20221203.1631)
 -->
<!-- Title: ce103_hw4_medical_store_app.InsiderOfTheMenu.supplier Pages: 1 -->
<!--zoomable 268 -->
<svg id="main" version="1.1" xmlns="http://www.w3.org/2000/svg" xmlns:xlink="http://www.w3.org/1999/xlink" xml:space="preserve" onload="init(evt)">
<style type="text/css"><![CDATA[
.edge:hover path { stroke: red; }
.edge:hover polygon { stroke: red; fill: red; }
]]></style>
<script type="text/javascript"><![CDATA[
var edges = document.getElementsByTagName('g');
if (edges && edges.length) {
  for (var i=0;i<edges.length;i++) {
    if (edges[i].id.substr(0,4)=='edge') {
      edges[i].setAttribute('class','edge');
    }
  }
}
]]></script>
        <defs>
                <circle id="rim" cx="0" cy="0" r="7"/>
                <circle id="rim2" cx="0" cy="0" r="3.5"/>
                <g id="zoomPlus">
                        <use xlink:href="#rim" fill="#404040">
                                <set attributeName="fill" to="#808080" begin="zoomplus.mouseover" end="zoomplus.mouseout"/>
                        </use>
                        <path d="M-4,0h8M0,-4v8" fill="none" stroke="white" stroke-width="1.5" pointer-events="none"/>
                </g>
                <g id="zoomMin">
                        <use xlink:href="#rim" fill="#404040">
                                <set attributeName="fill" to="#808080" begin="zoomminus.mouseover" end="zoomminus.mouseout"/>
                        </use>
                        <path d="M-4,0h8" fill="none" stroke="white" stroke-width="1.5" pointer-events="none"/>
                </g>
                <g id="dirArrow">
                        <path fill="none" stroke="white" stroke-width="1.5" d="M0,-3.0v7 M-2.5,-0.5L0,-3.0L2.5,-0.5"/>
                </g>
               <g id="resetDef">
                       <use xlink:href="#rim2" fill="#404040">
                               <set attributeName="fill" to="#808080" begin="reset.mouseover" end="reset.mouseout"/>
                       </use>
               </g>
        </defs>

<script type="text/javascript">
var viewWidth = 900;
var viewHeight = 268;
var sectionId = 'dynsection-38';
</script>
<script xlink:href="svgpan.js"/>
<svg id="graph" class="graph">
<g id="viewport">
<title>ce103_hw4_medical_store_app.InsiderOfTheMenu.supplier</title>
<!-- Node1 -->
<g id="node1" class="node">
<title>Node1</title>
<g id="a_node1"><a xlink:title=" ">
<polygon fill="#999999" stroke="#666666" points="892,-150 737,-150 737,-120 892,-120 892,-150"/>
<text text-anchor="start" x="745" y="-138" font-family="Helvetica,sans-Serif" font-size="10.00">ce103_hw4_medical_store</text>
<text text-anchor="middle" x="814.5" y="-127" font-family="Helvetica,sans-Serif" font-size="10.00">_app.InsiderOfTheMenu.supplier</text>
</a>
</g>
</g>
<!-- Node2 -->
<g id="node2" class="node">
<title>Node2</title>
<g id="a_node2"><a xlink:href="classce103__hw4__medical__store__app_1_1_insider_of_the_menu.html#a4e19bce8c519e748af92a2347e490ace" target="_top" xlink:title=" ">
<polygon fill="white" stroke="#666666" points="690.5,-260 511.5,-260 511.5,-230 690.5,-230 690.5,-260"/>
<text text-anchor="start" x="519.5" y="-248" font-family="Helvetica,sans-Serif" font-size="10.00">ce103_hw4_medical_store</text>
<text text-anchor="middle" x="601" y="-237" font-family="Helvetica,sans-Serif" font-size="10.00">_app.InsiderOfTheMenu.addCustomer</text>
</a>
</g>
</g>
<!-- Node1&#45;&gt;Node2 -->
<g id="edge1" class="edge">
<title>Node1&#45;&gt;Node2</title>
<path fill="none" stroke="#63b8ff" d="M787.74,-157.46C765.93,-175.48 733.17,-200.28 701,-216 690.22,-221.27 678.3,-225.76 666.58,-229.53"/>
<polygon fill="#63b8ff" stroke="#63b8ff" points="789.82,-160.29 795.23,-151.17 785.32,-154.93 789.82,-160.29"/>
</g>
<!-- Node3 -->
<g id="node3" class="node">
<title>Node3</title>
<g id="a_node3"><a xlink:href="classce103__hw4__medical__store__app_1_1_menu.html#af40268756f4be60ece4bf674210a17bb" target="_top" xlink:title=" ">
<polygon fill="white" stroke="#666666" points="465,-150 334,-150 334,-120 465,-120 465,-150"/>
<text text-anchor="start" x="342" y="-138" font-family="Helvetica,sans-Serif" font-size="10.00">ce103_hw4_medical_store</text>
<text text-anchor="middle" x="399.5" y="-127" font-family="Helvetica,sans-Serif" font-size="10.00">_app.Menu.performAction</text>
</a>
</g>
</g>
<!-- Node1&#45;&gt;Node3 -->
<g id="edge9" class="edge">
<title>Node1&#45;&gt;Node3</title>
<path fill="none" stroke="#63b8ff" d="M776.09,-155.48C754.77,-165.98 727.16,-177.65 701,-183 613.91,-200.8 587.69,-202.64 501,-183 473.28,-176.72 444.26,-161.83 424.57,-150.28"/>
<polygon fill="#63b8ff" stroke="#63b8ff" points="777.63,-158.62 784.97,-150.98 774.46,-152.38 777.63,-158.62"/>
</g>
<!-- Node6 -->
<g id="node6" class="node">
<title>Node6</title>
<g id="a_node6"><a xlink:href="classce103__hw4__medical__store__app_1_1_insider_of_the_menu.html#a5a985628df103b1884695c250f7638ea" target="_top" xlink:title=" ">
<polygon fill="white" stroke="#666666" points="687.5,-174 514.5,-174 514.5,-144 687.5,-144 687.5,-174"/>
<text text-anchor="start" x="522.5" y="-162" font-family="Helvetica,sans-Serif" font-size="10.00">ce103_hw4_medical_store</text>
<text text-anchor="middle" x="601" y="-151" font-family="Helvetica,sans-Serif" font-size="10.00">_app.InsiderOfTheMenu.addSupplier</text>
</a>
</g>
</g>
<!-- Node1&#45;&gt;Node6 -->
<g id="edge5" class="edge">
<title>Node1&#45;&gt;Node6</title>
<path fill="none" stroke="#63b8ff" d="M725.28,-145.01C712.9,-146.42 700.18,-147.86 687.84,-149.26"/>
<polygon fill="#63b8ff" stroke="#63b8ff" points="725.5,-148.51 735.04,-143.9 724.71,-141.55 725.5,-148.51"/>
</g>
<!-- Node7 -->
<g id="node7" class="node">
<title>Node7</title>
<g id="a_node7"><a xlink:href="classce103__hw4__medical__store__app_1_1_insider_of_the_menu.html#a94e1694f1b1ad5550fc4cb63026d0088" target="_top" xlink:title=" ">
<polygon fill="white" stroke="#666666" points="678.5,-126 523.5,-126 523.5,-96 678.5,-96 678.5,-126"/>
<text text-anchor="start" x="531.5" y="-114" font-family="Helvetica,sans-Serif" font-size="10.00">ce103_hw4_medical_store</text>
<text text-anchor="middle" x="601" y="-103" font-family="Helvetica,sans-Serif" font-size="10.00">_app.InsiderOfTheMenu.listsupp</text>
</a>
</g>
</g>
<!-- Node1&#45;&gt;Node7 -->
<g id="edge7" class="edge">
<title>Node1&#45;&gt;Node7</title>
<path fill="none" stroke="#63b8ff" d="M725.41,-125C709.97,-123.25 694.01,-121.44 678.9,-119.73"/>
<polygon fill="#63b8ff" stroke="#63b8ff" points="724.71,-128.45 735.04,-126.1 725.5,-121.49 724.71,-128.45"/>
</g>
<!-- Node8 -->
<g id="node8" class="node">
<title>Node8</title>
<g id="a_node8"><a xlink:href="classce103__hw4__medical__store__app_1_1_insider_of_the_menu.html#abbb3877121688713fb9c89334fd093b9" target="_top" xlink:title=" ">
<polygon fill="white" stroke="#666666" points="701,-78 501,-78 501,-48 701,-48 701,-78"/>
<text text-anchor="start" x="509" y="-66" font-family="Helvetica,sans-Serif" font-size="10.00">ce103_hw4_medical_store</text>
<text text-anchor="middle" x="601" y="-55" font-family="Helvetica,sans-Serif" font-size="10.00">_app.InsiderOfTheMenu.purchasemedicine</text>
</a>
</g>
</g>
<!-- Node1&#45;&gt;Node8 -->
<g id="edge10" class="edge">
<title>Node1&#45;&gt;Node8</title>
<path fill="none" stroke="#63b8ff" d="M771.15,-114.96C750.33,-105.62 724.68,-94.86 701,-87 691.77,-83.94 681.93,-81.08 672.18,-78.48"/>
<polygon fill="#63b8ff" stroke="#63b8ff" points="769.63,-118.11 780.18,-119.07 772.52,-111.74 769.63,-118.11"/>
</g>
<!-- Node9 -->
<g id="node9" class="node">
<title>Node9</title>
<g id="a_node9"><a xlink:href="classce103__hw4__medical__store__app_1_1_insider_of_the_menu.html#afe96072316b08c7e64c0c00f4d912352" target="_top" xlink:title=" ">
<polygon fill="white" stroke="#666666" points="686,-30 516,-30 516,0 686,0 686,-30"/>
<text text-anchor="start" x="524" y="-18" font-family="Helvetica,sans-Serif" font-size="10.00">ce103_hw4_medical_store</text>
<text text-anchor="middle" x="601" y="-7" font-family="Helvetica,sans-Serif" font-size="10.00">_app.InsiderOfTheMenu.searchcust</text>
</a>
</g>
</g>
<!-- Node1&#45;&gt;Node9 -->
<g id="edge12" class="edge">
<title>Node1&#45;&gt;Node9</title>
<path fill="none" stroke="#63b8ff" d="M792.56,-111.69C771.53,-89.7 737.14,-57.45 701,-39 694.62,-35.74 687.78,-32.92 680.79,-30.46"/>
<polygon fill="#63b8ff" stroke="#63b8ff" points="789.77,-113.83 799.16,-118.74 794.88,-109.05 789.77,-113.83"/>
</g>
<!-- Node2&#45;&gt;Node3 -->
<g id="edge2" class="edge">
<title>Node2&#45;&gt;Node3</title>
<path fill="none" stroke="#63b8ff" d="M523.05,-225.75C515.44,-222.88 507.96,-219.64 501,-216 467.24,-198.35 434,-168.42 415.47,-150.31"/>
<polygon fill="#63b8ff" stroke="#63b8ff" points="521.85,-229.04 532.45,-229.07 524.18,-222.44 521.85,-229.04"/>
</g>
<!-- Node4 -->
<g id="node4" class="node">
<title>Node4</title>
<g id="a_node4"><a xlink:href="classce103__hw4__medical__store__app_1_1_menu.html#a8890452f69a3d1c94a7951344bd7515b" target="_top" xlink:title=" ">
<polygon fill="white" stroke="#666666" points="298,-150 167,-150 167,-120 298,-120 298,-150"/>
<text text-anchor="start" x="175" y="-138" font-family="Helvetica,sans-Serif" font-size="10.00">ce103_hw4_medical_store</text>
<text text-anchor="middle" x="232.5" y="-127" font-family="Helvetica,sans-Serif" font-size="10.00">_app.Menu.runMenu</text>
</a>
</g>
</g>
<!-- Node3&#45;&gt;Node4 -->
<g id="edge3" class="edge">
<title>Node3&#45;&gt;Node4</title>
<path fill="none" stroke="#63b8ff" d="M322.45,-135C314.39,-135 306.24,-135 298.32,-135"/>
<polygon fill="#63b8ff" stroke="#63b8ff" points="322.25,-138.5 332.25,-135 322.25,-131.5 322.25,-138.5"/>
</g>
<!-- Node5 -->
<g id="node5" class="node">
<title>Node5</title>
<g id="a_node5"><a xlink:href="classce103__hw4__medical__store__app_1_1_menu.html#a906bd0b055bce495d306a21e81cbec1b" target="_top" xlink:title=" ">
<polygon fill="white" stroke="#666666" points="131,-150 0,-150 0,-120 131,-120 131,-150"/>
<text text-anchor="start" x="8" y="-138" font-family="Helvetica,sans-Serif" font-size="10.00">ce103_hw4_medical_store</text>
<text text-anchor="middle" x="65.5" y="-127" font-family="Helvetica,sans-Serif" font-size="10.00">_app.Menu.main</text>
</a>
</g>
</g>
<!-- Node4&#45;&gt;Node5 -->
<g id="edge4" class="edge">
<title>Node4&#45;&gt;Node5</title>
<path fill="none" stroke="#63b8ff" d="M155.45,-135C147.39,-135 139.24,-135 131.32,-135"/>
<polygon fill="#63b8ff" stroke="#63b8ff" points="155.25,-138.5 165.25,-135 155.25,-131.5 155.25,-138.5"/>
</g>
<!-- Node6&#45;&gt;Node3 -->
<g id="edge6" class="edge">
<title>Node6&#45;&gt;Node3</title>
<path fill="none" stroke="#63b8ff" d="M503.05,-147.34C490.28,-145.8 477.45,-144.26 465.4,-142.81"/>
<polygon fill="#63b8ff" stroke="#63b8ff" points="502.39,-150.78 512.73,-148.5 503.22,-143.83 502.39,-150.78"/>
</g>
<!-- Node7&#45;&gt;Node3 -->
<g id="edge8" class="edge">
<title>Node7&#45;&gt;Node3</title>
<path fill="none" stroke="#63b8ff" d="M511.85,-121.6C496.2,-123.49 480.17,-125.42 465.31,-127.2"/>
<polygon fill="#63b8ff" stroke="#63b8ff" points="512.14,-125.09 521.65,-120.43 511.3,-118.15 512.14,-125.09"/>
</g>
<!-- Node8&#45;&gt;Node3 -->
<g id="edge11" class="edge">
<title>Node8&#45;&gt;Node3</title>
<path fill="none" stroke="#63b8ff" d="M517.5,-81.61C511.88,-83.31 506.33,-85.1 501,-87 475.86,-95.94 448.62,-109.19 428.85,-119.51"/>
<polygon fill="#63b8ff" stroke="#63b8ff" points="518.27,-85.03 526.91,-78.91 516.33,-78.31 518.27,-85.03"/>
</g>
<!-- Node9&#45;&gt;Node3 -->
<g id="edge13" class="edge">
<title>Node9&#45;&gt;Node3</title>
<path fill="none" stroke="#63b8ff" d="M509.37,-34.83C506.51,-36.13 503.71,-37.52 501,-39 463.1,-59.71 429.07,-98.4 412.02,-119.79"/>
<polygon fill="#63b8ff" stroke="#63b8ff" points="510.66,-38.08 518.58,-31.04 508,-31.6 510.66,-38.08"/>
</g>
</g>
</svg>
        <g id="navigator" transform="translate(0 0)" fill="#404254">
                <rect fill="#f2f5e9" fill-opacity="0.5" stroke="#606060" stroke-width=".5" x="0" y="0" width="60" height="60"/>
                <use id="zoomplus" xlink:href="#zoomPlus" x="17" y="9" onmousedown="handleZoom(evt,'in')"/>
                <use id="zoomminus" xlink:href="#zoomMin" x="42" y="9" onmousedown="handleZoom(evt,'out')"/>
                <use id="reset" xlink:href="#resetDef" x="30" y="36" onmousedown="handleReset()"/>
                <g id="arrowUp" xlink:href="#dirArrow" transform="translate(30 24)" onmousedown="handlePan(0,-1)">
                  <use xlink:href="#rim" fill="#404040">
                        <set attributeName="fill" to="#808080" begin="arrowUp.mouseover" end="arrowUp.mouseout"/>
                  </use>
                  <path fill="none" stroke="white" stroke-width="1.5" d="M0,-3.0v7 M-2.5,-0.5L0,-3.0L2.5,-0.5"/>
                </g>
                <g id="arrowRight" xlink:href="#dirArrow" transform="rotate(90) translate(36 -43)" onmousedown="handlePan(1,0)">
                  <use xlink:href="#rim" fill="#404040">
                        <set attributeName="fill" to="#808080" begin="arrowRight.mouseover" end="arrowRight.mouseout"/>
                  </use>
                  <path fill="none" stroke="white" stroke-width="1.5" d="M0,-3.0v7 M-2.5,-0.5L0,-3.0L2.5,-0.5"/>
                </g>
                <g id="arrowDown" xlink:href="#dirArrow" transform="rotate(180) translate(-30 -48)" onmousedown="handlePan(0,1)">
                  <use xlink:href="#rim" fill="#404040">
                        <set attributeName="fill" to="#808080" begin="arrowDown.mouseover" end="arrowDown.mouseout"/>
                  </use>
                  <path fill="none" stroke="white" stroke-width="1.5" d="M0,-3.0v7 M-2.5,-0.5L0,-3.0L2.5,-0.5"/>
                </g>
                <g id="arrowLeft" xlink:href="#dirArrow" transform="rotate(270) translate(-36 17)" onmousedown="handlePan(-1,0)">
                  <use xlink:href="#rim" fill="#404040">
                        <set attributeName="fill" to="#808080" begin="arrowLeft.mouseover" end="arrowLeft.mouseout"/>
                  </use>
                  <path fill="none" stroke="white" stroke-width="1.5" d="M0,-3.0v7 M-2.5,-0.5L0,-3.0L2.5,-0.5"/>
                </g>
        </g>
        <svg viewBox="0 0 15 15" width="100%" height="30px" preserveAspectRatio="xMaxYMin meet">
         <g id="arrow_out" transform="scale(0.3 0.3)">
          <a xlink:href="classce103__hw4__medical__store__app_1_1_insider_of_the_menu_ad8d1f1f6efe690acbc398b741befb617_icgraph_org.svg" target="_base">
           <rect id="button" ry="5" rx="5" y="6" x="6" height="38" width="38"
                fill="#f2f5e9" fill-opacity="0.5" stroke="#606060" stroke-width="1.0"/>
           <path id="arrow"
             d="M 11.500037,31.436501 C 11.940474,20.09759 22.043105,11.32322 32.158766,21.979434 L 37.068811,17.246167 C 37.068811,17.246167 37.088388,32 37.088388,32 L 22.160133,31.978069 C 22.160133,31.978069 26.997745,27.140456 26.997745,27.140456 C 18.528582,18.264221 13.291696,25.230495 11.500037,31.436501 z"
             style="fill:#404040;"/>
          </a>
         </g>
        </svg>
</svg>
