<?xml version="1.0" encoding="UTF-8" standalone="no"?>
<!DOCTYPE svg PUBLIC "-//W3C//DTD SVG 1.1//EN"
 "http://www.w3.org/Graphics/SVG/1.1/DTD/svg11.dtd">
<!-- Generated by graphviz version 7.0.4 (20221203.1631)
 -->
<!-- Title: ce103_hw4_medical_store_app.Menu Pages: 1 -->
<svg width="210pt" height="115pt"
 viewBox="0.00 0.00 210.00 115.00" xmlns="http://www.w3.org/2000/svg" xmlns:xlink="http://www.w3.org/1999/xlink">
<g id="graph0" class="graph" transform="scale(1 1) rotate(0) translate(4 111)">
<title>ce103_hw4_medical_store_app.Menu</title>
<!-- Node1 -->
<g id="node1" class="node">
<title>Node1</title>
<g id="a_node1"><a xlink:title=" ">
<polygon fill="#999999" stroke="#666666" points="186,-30 55,-30 55,0 186,0 186,-30"/>
<text text-anchor="start" x="63" y="-18" font-family="Helvetica,sans-Serif" font-size="10.00">ce103_hw4_medical_store</text>
<text text-anchor="middle" x="120.5" y="-7" font-family="Helvetica,sans-Serif" font-size="10.00">_app.Menu</text>
</a>
</g>
</g>
<!-- Node2 -->
<g id="node2" class="node">
<title>Node2</title>
<g id="a_node2"><a xlink:href="classce103__hw4__medical__store__app_1_1_insider_of_the_menu.html" target="_top" xlink:title=" ">
<polygon fill="white" stroke="#666666" points="131,-107 0,-107 0,-77 131,-77 131,-107"/>
<text text-anchor="start" x="8" y="-95" font-family="Helvetica,sans-Serif" font-size="10.00">ce103_hw4_medical_store</text>
<text text-anchor="middle" x="65.5" y="-84" font-family="Helvetica,sans-Serif" font-size="10.00">_app.InsiderOfTheMenu</text>
</a>
</g>
</g>
<!-- Node2&#45;&gt;Node1 -->
<g id="edge1" class="edge">
<title>Node2&#45;&gt;Node1</title>
<path fill="none" stroke="#9a32cd" stroke-dasharray="5,2" d="M82.8,-67.41C91.69,-55.28 102.25,-40.88 109.93,-30.42"/>
<polygon fill="#9a32cd" stroke="#9a32cd" points="80.09,-65.18 77,-75.32 85.74,-69.32 80.09,-65.18"/>
<text text-anchor="middle" x="118" y="-51" font-family="Helvetica,sans-Serif" font-size="10.00"> functions</text>
</g>
<!-- Node3 -->
<g id="node3" class="node">
<title>Node3</title>
<g id="a_node3"><a xlink:title=" ">
<polygon fill="white" stroke="#666666" points="202,-101.5 149,-101.5 149,-82.5 202,-82.5 202,-101.5"/>
<text text-anchor="middle" x="175.5" y="-89.5" font-family="Helvetica,sans-Serif" font-size="10.00">Scanner</text>
</a>
</g>
</g>
<!-- Node3&#45;&gt;Node1 -->
<g id="edge2" class="edge">
<title>Node3&#45;&gt;Node1</title>
<path fill="none" stroke="#9a32cd" stroke-dasharray="5,2" d="M162.38,-73.11C152.76,-60 139.89,-42.44 130.96,-30.27"/>
<polygon fill="#9a32cd" stroke="#9a32cd" points="159.34,-74.89 168.08,-80.88 164.99,-70.75 159.34,-74.89"/>
<text text-anchor="middle" x="157.5" y="-51" font-family="Helvetica,sans-Serif" font-size="10.00"> kb</text>
</g>
</g>
</svg>
