<?xml version="1.0" encoding="UTF-8" standalone="no"?>
<!DOCTYPE svg PUBLIC "-//W3C//DTD SVG 1.1//EN"
 "http://www.w3.org/Graphics/SVG/1.1/DTD/svg11.dtd">
<!-- Generated by graphviz version 7.0.4 (20221203.1631)
 -->
<!-- Title: ce103_hw4_medical_store_app.Menu.printMenu Pages: 1 -->
<!--zoomable 110 -->
<svg id="main" version="1.1" xmlns="http://www.w3.org/2000/svg" xmlns:xlink="http://www.w3.org/1999/xlink" xml:space="preserve" onload="init(evt)">
<style type="text/css"><![CDATA[
.edge:hover path { stroke: red; }
.edge:hover polygon { stroke: red; fill: red; }
]]></style>
<script type="text/javascript"><![CDATA[
var edges = document.getElementsByTagName('g');
if (edges && edges.length) {
  for (var i=0;i<edges.length;i++) {
    if (edges[i].id.substr(0,4)=='edge') {
      edges[i].setAttribute('class','edge');
    }
  }
}
]]></script>
        <defs>
                <circle id="rim" cx="0" cy="0" r="7"/>
                <circle id="rim2" cx="0" cy="0" r="3.5"/>
                <g id="zoomPlus">
                        <use xlink:href="#rim" fill="#404040">
                                <set attributeName="fill" to="#808080" begin="zoomplus.mouseover" end="zoomplus.mouseout"/>
                        </use>
                        <path d="M-4,0h8M0,-4v8" fill="none" stroke="white" stroke-width="1.5" pointer-events="none"/>
                </g>
                <g id="zoomMin">
                        <use xlink:href="#rim" fill="#404040">
                                <set attributeName="fill" to="#808080" begin="zoomminus.mouseover" end="zoomminus.mouseout"/>
                        </use>
                        <path d="M-4,0h8" fill="none" stroke="white" stroke-width="1.5" pointer-events="none"/>
                </g>
                <g id="dirArrow">
                        <path fill="none" stroke="white" stroke-width="1.5" d="M0,-3.0v7 M-2.5,-0.5L0,-3.0L2.5,-0.5"/>
                </g>
               <g id="resetDef">
                       <use xlink:href="#rim2" fill="#404040">
                               <set attributeName="fill" to="#808080" begin="reset.mouseover" end="reset.mouseout"/>
                       </use>
               </g>
        </defs>

<script type="text/javascript">
var viewWidth = 542;
var viewHeight = 110;
var sectionId = 'dynsection-5';
</script>
<script xlink:href="svgpan.js"/>
<svg id="graph" class="graph">
<g id="viewport">
<title>ce103_hw4_medical_store_app.Menu.printMenu</title>
<!-- Node1 -->
<g id="node1" class="node">
<title>Node1</title>
<g id="a_node1"><a xlink:title=" ">
<polygon fill="#999999" stroke="#666666" points="131,-78 0,-78 0,-48 131,-48 131,-78"/>
<text text-anchor="start" x="8" y="-66" font-family="Helvetica,sans-Serif" font-size="10.00">ce103_hw4_medical_store</text>
<text text-anchor="middle" x="65.5" y="-55" font-family="Helvetica,sans-Serif" font-size="10.00">_app.Menu.printMenu</text>
</a>
</g>
</g>
<!-- Node2 -->
<g id="node2" class="node">
<title>Node2</title>
<g id="a_node2"><a xlink:href="classce103__hw4__medical__store__app_1_1_menu.html#a7369ba81e54cfed06ccbae69217b62b0" target="_top" xlink:title=" ">
<polygon fill="white" stroke="#666666" points="316,-102 185,-102 185,-72 316,-72 316,-102"/>
<text text-anchor="start" x="193" y="-90" font-family="Helvetica,sans-Serif" font-size="10.00">ce103_hw4_medical_store</text>
<text text-anchor="middle" x="250.5" y="-79" font-family="Helvetica,sans-Serif" font-size="10.00">_app.Menu.clearScreen</text>
</a>
</g>
</g>
<!-- Node1&#45;&gt;Node2 -->
<g id="edge1" class="edge">
<title>Node1&#45;&gt;Node2</title>
<path fill="none" stroke="#63b8ff" d="M131.28,-71.5C144.91,-73.28 159.4,-75.18 173.41,-77.02"/>
<polygon fill="#63b8ff" stroke="#63b8ff" points="172.63,-80.45 183,-78.28 173.54,-73.51 172.63,-80.45"/>
</g>
<!-- Node3 -->
<g id="node3" class="node">
<title>Node3</title>
<g id="a_node3"><a xlink:href="classce103__hw4__medical__store__app_1_1_insider_of_the_menu.html#a0faaccd5f842125ae8f314368c644d3e" target="_top" xlink:title=" ">
<polygon fill="white" stroke="#666666" points="334,-54 167,-54 167,-24 334,-24 334,-54"/>
<text text-anchor="start" x="175" y="-42" font-family="Helvetica,sans-Serif" font-size="10.00">ce103_hw4_medical_store</text>
<text text-anchor="middle" x="250.5" y="-31" font-family="Helvetica,sans-Serif" font-size="10.00">_app.InsiderOfTheMenu.mainmenu</text>
</a>
</g>
</g>
<!-- Node1&#45;&gt;Node3 -->
<g id="edge2" class="edge">
<title>Node1&#45;&gt;Node3</title>
<path fill="none" stroke="#63b8ff" d="M131.28,-54.5C139.03,-53.49 147.07,-52.43 155.14,-51.38"/>
<polygon fill="#63b8ff" stroke="#63b8ff" points="155.58,-54.85 165.04,-50.08 154.67,-47.91 155.58,-54.85"/>
</g>
<!-- Node4 -->
<g id="node4" class="node">
<title>Node4</title>
<g id="a_node4"><a xlink:href="classce103__hw4__medical__store__app_1_1_insider_of_the_menu.html#a7a57002be660ff4209acaae52fb2aa5f" target="_top" xlink:title=" ">
<polygon fill="white" stroke="#666666" points="523.5,-78 380.5,-78 380.5,-48 523.5,-48 523.5,-78"/>
<text text-anchor="start" x="388.5" y="-66" font-family="Helvetica,sans-Serif" font-size="10.00">ce103_hw4_medical_store</text>
<text text-anchor="middle" x="452" y="-55" font-family="Helvetica,sans-Serif" font-size="10.00">_app.InsiderOfTheMenu.box1</text>
</a>
</g>
</g>
<!-- Node3&#45;&gt;Node4 -->
<g id="edge3" class="edge">
<title>Node3&#45;&gt;Node4</title>
<path fill="none" stroke="#63b8ff" d="M334.37,-48.97C345.77,-50.34 357.48,-51.75 368.87,-53.12"/>
<polygon fill="#63b8ff" stroke="#63b8ff" points="368.28,-56.57 378.62,-54.29 369.11,-49.62 368.28,-56.57"/>
</g>
<!-- Node5 -->
<g id="node5" class="node">
<title>Node5</title>
<g id="a_node5"><a xlink:href="classce103__hw4__medical__store__app_1_1_insider_of_the_menu.html#aa208466ba46c8f7d58d2f2e970d23545" target="_top" xlink:title=" ">
<polygon fill="white" stroke="#666666" points="534,-30 370,-30 370,0 534,0 534,-30"/>
<text text-anchor="start" x="378" y="-18" font-family="Helvetica,sans-Serif" font-size="10.00">ce103_hw4_medical_store</text>
<text text-anchor="middle" x="452" y="-7" font-family="Helvetica,sans-Serif" font-size="10.00">_app.InsiderOfTheMenu.main_box</text>
</a>
</g>
</g>
<!-- Node3&#45;&gt;Node5 -->
<g id="edge4" class="edge">
<title>Node3&#45;&gt;Node5</title>
<path fill="none" stroke="#63b8ff" d="M334.37,-29.03C342.3,-28.08 350.38,-27.1 358.4,-26.14"/>
<polygon fill="#63b8ff" stroke="#63b8ff" points="358.65,-29.63 368.17,-24.97 357.82,-22.68 358.65,-29.63"/>
</g>
</g>
</svg>
        <g id="navigator" transform="translate(0 0)" fill="#404254">
                <rect fill="#f2f5e9" fill-opacity="0.5" stroke="#606060" stroke-width=".5" x="0" y="0" width="60" height="60"/>
                <use id="zoomplus" xlink:href="#zoomPlus" x="17" y="9" onmousedown="handleZoom(evt,'in')"/>
                <use id="zoomminus" xlink:href="#zoomMin" x="42" y="9" onmousedown="handleZoom(evt,'out')"/>
                <use id="reset" xlink:href="#resetDef" x="30" y="36" onmousedown="handleReset()"/>
                <g id="arrowUp" xlink:href="#dirArrow" transform="translate(30 24)" onmousedown="handlePan(0,-1)">
                  <use xlink:href="#rim" fill="#404040">
                        <set attributeName="fill" to="#808080" begin="arrowUp.mouseover" end="arrowUp.mouseout"/>
                  </use>
                  <path fill="none" stroke="white" stroke-width="1.5" d="M0,-3.0v7 M-2.5,-0.5L0,-3.0L2.5,-0.5"/>
                </g>
                <g id="arrowRight" xlink:href="#dirArrow" transform="rotate(90) translate(36 -43)" onmousedown="handlePan(1,0)">
                  <use xlink:href="#rim" fill="#404040">
                        <set attributeName="fill" to="#808080" begin="arrowRight.mouseover" end="arrowRight.mouseout"/>
                  </use>
                  <path fill="none" stroke="white" stroke-width="1.5" d="M0,-3.0v7 M-2.5,-0.5L0,-3.0L2.5,-0.5"/>
                </g>
                <g id="arrowDown" xlink:href="#dirArrow" transform="rotate(180) translate(-30 -48)" onmousedown="handlePan(0,1)">
                  <use xlink:href="#rim" fill="#404040">
                        <set attributeName="fill" to="#808080" begin="arrowDown.mouseover" end="arrowDown.mouseout"/>
                  </use>
                  <path fill="none" stroke="white" stroke-width="1.5" d="M0,-3.0v7 M-2.5,-0.5L0,-3.0L2.5,-0.5"/>
                </g>
                <g id="arrowLeft" xlink:href="#dirArrow" transform="rotate(270) translate(-36 17)" onmousedown="handlePan(-1,0)">
                  <use xlink:href="#rim" fill="#404040">
                        <set attributeName="fill" to="#808080" begin="arrowLeft.mouseover" end="arrowLeft.mouseout"/>
                  </use>
                  <path fill="none" stroke="white" stroke-width="1.5" d="M0,-3.0v7 M-2.5,-0.5L0,-3.0L2.5,-0.5"/>
                </g>
        </g>
        <svg viewBox="0 0 15 15" width="100%" height="30px" preserveAspectRatio="xMaxYMin meet">
         <g id="arrow_out" transform="scale(0.3 0.3)">
          <a xlink:href="classce103__hw4__medical__store__app_1_1_menu_a8686eac8bd55447713e5620b8b0c7c2a_cgraph_org.svg" target="_base">
           <rect id="button" ry="5" rx="5" y="6" x="6" height="38" width="38"
                fill="#f2f5e9" fill-opacity="0.5" stroke="#606060" stroke-width="1.0"/>
           <path id="arrow"
             d="M 11.500037,31.436501 C 11.940474,20.09759 22.043105,11.32322 32.158766,21.979434 L 37.068811,17.246167 C 37.068811,17.246167 37.088388,32 37.088388,32 L 22.160133,31.978069 C 22.160133,31.978069 26.997745,27.140456 26.997745,27.140456 C 18.528582,18.264221 13.291696,25.230495 11.500037,31.436501 z"
             style="fill:#404040;"/>
          </a>
         </g>
        </svg>
</svg>
