<?xml version="1.0" encoding="UTF-8" standalone="no"?>
<!DOCTYPE svg PUBLIC "-//W3C//DTD SVG 1.1//EN"
 "http://www.w3.org/Graphics/SVG/1.1/DTD/svg11.dtd">
<!-- Generated by graphviz version 7.0.4 (20221203.1631)
 -->
<!-- Title: ce103_hw4_medical_store_lib.Medicine.setId Pages: 1 -->
<svg width="1097pt" height="177pt"
 viewBox="0.00 0.00 1097.00 177.00" xmlns="http://www.w3.org/2000/svg" xmlns:xlink="http://www.w3.org/1999/xlink">
<g id="graph0" class="graph" transform="scale(1 1) rotate(0) translate(4 173)">
<title>ce103_hw4_medical_store_lib.Medicine.setId</title>
<!-- Node1 -->
<g id="node1" class="node">
<title>Node1</title>
<g id="a_node1"><a xlink:title=" ">
<polygon fill="#999999" stroke="#666666" points="1089,-73 958,-73 958,-43 1089,-43 1089,-73"/>
<text text-anchor="start" x="966" y="-61" font-family="Helvetica,sans-Serif" font-size="10.00">ce103_hw4_medical_store</text>
<text text-anchor="middle" x="1023.5" y="-50" font-family="Helvetica,sans-Serif" font-size="10.00">_lib.Medicine.setId</text>
</a>
</g>
</g>
<!-- Node2 -->
<g id="node2" class="node">
<title>Node2</title>
<g id="a_node2"><a xlink:href="classce103__hw4__medical__store__lib_1_1_medicine.html#a139a6e9d94edbac2790895a083f11813" target="_top" xlink:title=" ">
<polygon fill="white" stroke="#666666" points="894.5,-127.5 749.5,-127.5 749.5,-86.5 894.5,-86.5 894.5,-127.5"/>
<text text-anchor="start" x="757.5" y="-115.5" font-family="Helvetica,sans-Serif" font-size="10.00">ce103_hw4_medical_store</text>
<text text-anchor="start" x="757.5" y="-104.5" font-family="Helvetica,sans-Serif" font-size="10.00">_lib.Medicine.ByteArrayBlock</text>
<text text-anchor="middle" x="822" y="-93.5" font-family="Helvetica,sans-Serif" font-size="10.00">ToMedicine</text>
</a>
</g>
</g>
<!-- Node1&#45;&gt;Node2 -->
<g id="edge1" class="edge">
<title>Node1&#45;&gt;Node2</title>
<path fill="none" stroke="#63b8ff" d="M948.86,-76.09C931.24,-80.41 912.46,-85.03 894.92,-89.33"/>
<polygon fill="#63b8ff" stroke="#63b8ff" points="949.3,-79.58 958.18,-73.8 947.63,-72.78 949.3,-79.58"/>
</g>
<!-- Node7 -->
<g id="node7" class="node">
<title>Node7</title>
<g id="a_node7"><a xlink:href="classce103__hw4__medical__store__app_1_1_insider_of_the_menu.html#a06e911654aeebf8dcb003c0bec404f3d" target="_top" xlink:title=" ">
<polygon fill="white" stroke="#666666" points="683,-73 504,-73 504,-43 683,-43 683,-73"/>
<text text-anchor="start" x="512" y="-61" font-family="Helvetica,sans-Serif" font-size="10.00">ce103_hw4_medical_store</text>
<text text-anchor="middle" x="593.5" y="-50" font-family="Helvetica,sans-Serif" font-size="10.00">_app.InsiderOfTheMenu.salemedicine</text>
</a>
</g>
</g>
<!-- Node1&#45;&gt;Node7 -->
<g id="edge12" class="edge">
<title>Node1&#45;&gt;Node7</title>
<path fill="none" stroke="#63b8ff" d="M946.48,-58C872.82,-58 761.15,-58 683.41,-58"/>
<polygon fill="#63b8ff" stroke="#63b8ff" points="946.45,-61.5 956.45,-58 946.45,-54.5 946.45,-61.5"/>
</g>
<!-- Node9 -->
<g id="node9" class="node">
<title>Node9</title>
<g id="a_node9"><a xlink:href="classce103__hw4__medical__store__app_1_1_insider_of_the_menu.html#abbb3877121688713fb9c89334fd093b9" target="_top" xlink:title=" ">
<polygon fill="white" stroke="#666666" points="922,-30 722,-30 722,0 922,0 922,-30"/>
<text text-anchor="start" x="730" y="-18" font-family="Helvetica,sans-Serif" font-size="10.00">ce103_hw4_medical_store</text>
<text text-anchor="middle" x="822" y="-7" font-family="Helvetica,sans-Serif" font-size="10.00">_app.InsiderOfTheMenu.purchasemedicine</text>
</a>
</g>
</g>
<!-- Node1&#45;&gt;Node9 -->
<g id="edge10" class="edge">
<title>Node1&#45;&gt;Node9</title>
<path fill="none" stroke="#63b8ff" d="M946.68,-41.66C929.63,-37.98 911.58,-34.09 894.69,-30.45"/>
<polygon fill="#63b8ff" stroke="#63b8ff" points="945.74,-45.03 956.25,-43.72 947.21,-38.19 945.74,-45.03"/>
</g>
<!-- Node3 -->
<g id="node3" class="node">
<title>Node3</title>
<g id="a_node3"><a xlink:href="classce103__hw4__medical__store__app_1_1_insider_of_the_menu.html#ada4f93b1d40bbc169bf20e70efdda5c9" target="_top" xlink:title=" ">
<polygon fill="white" stroke="#666666" points="680,-169 507,-169 507,-139 680,-139 680,-169"/>
<text text-anchor="start" x="515" y="-157" font-family="Helvetica,sans-Serif" font-size="10.00">ce103_hw4_medical_store</text>
<text text-anchor="middle" x="593.5" y="-146" font-family="Helvetica,sans-Serif" font-size="10.00">_app.InsiderOfTheMenu.listmedicine</text>
</a>
</g>
</g>
<!-- Node2&#45;&gt;Node3 -->
<g id="edge2" class="edge">
<title>Node2&#45;&gt;Node3</title>
<path fill="none" stroke="#63b8ff" d="M737.77,-124.27C715.25,-128.94 691.03,-133.97 669.02,-138.54"/>
<polygon fill="#63b8ff" stroke="#63b8ff" points="738.46,-127.7 747.54,-122.24 737.04,-120.85 738.46,-127.7"/>
</g>
<!-- Node2&#45;&gt;Node7 -->
<g id="edge6" class="edge">
<title>Node2&#45;&gt;Node7</title>
<path fill="none" stroke="#63b8ff" d="M737.95,-89.03C714.31,-83.92 688.78,-78.4 665.9,-73.45"/>
<polygon fill="#63b8ff" stroke="#63b8ff" points="737.03,-92.42 747.54,-91.11 738.51,-85.57 737.03,-92.42"/>
</g>
<!-- Node8 -->
<g id="node8" class="node">
<title>Node8</title>
<g id="a_node8"><a xlink:href="classce103__hw4__medical__store__app_1_1_insider_of_the_menu.html#ac76ee95213f4e41b88d57c028f610c33" target="_top" xlink:title=" ">
<polygon fill="white" stroke="#666666" points="686,-121 501,-121 501,-91 686,-91 686,-121"/>
<text text-anchor="start" x="509" y="-109" font-family="Helvetica,sans-Serif" font-size="10.00">ce103_hw4_medical_store</text>
<text text-anchor="middle" x="593.5" y="-98" font-family="Helvetica,sans-Serif" font-size="10.00">_app.InsiderOfTheMenu.stockmedicine</text>
</a>
</g>
</g>
<!-- Node2&#45;&gt;Node8 -->
<g id="edge8" class="edge">
<title>Node2&#45;&gt;Node8</title>
<path fill="none" stroke="#63b8ff" d="M737.61,-106.63C720.89,-106.56 703.23,-106.48 686.23,-106.41"/>
<polygon fill="#63b8ff" stroke="#63b8ff" points="737.49,-110.13 747.51,-106.68 737.52,-103.13 737.49,-110.13"/>
</g>
<!-- Node4 -->
<g id="node4" class="node">
<title>Node4</title>
<g id="a_node4"><a xlink:href="classce103__hw4__medical__store__app_1_1_menu.html#af40268756f4be60ece4bf674210a17bb" target="_top" xlink:title=" ">
<polygon fill="white" stroke="#666666" points="465,-97 334,-97 334,-67 465,-67 465,-97"/>
<text text-anchor="start" x="342" y="-85" font-family="Helvetica,sans-Serif" font-size="10.00">ce103_hw4_medical_store</text>
<text text-anchor="middle" x="399.5" y="-74" font-family="Helvetica,sans-Serif" font-size="10.00">_app.Menu.performAction</text>
</a>
</g>
</g>
<!-- Node3&#45;&gt;Node4 -->
<g id="edge3" class="edge">
<title>Node3&#45;&gt;Node4</title>
<path fill="none" stroke="#63b8ff" d="M516.59,-135.28C511.28,-133.61 506.04,-131.84 501,-130 475.94,-120.82 448.7,-107.59 428.9,-97.34"/>
<polygon fill="#63b8ff" stroke="#63b8ff" points="515.51,-138.61 526.09,-138.15 517.53,-131.91 515.51,-138.61"/>
</g>
<!-- Node5 -->
<g id="node5" class="node">
<title>Node5</title>
<g id="a_node5"><a xlink:href="classce103__hw4__medical__store__app_1_1_menu.html#a8890452f69a3d1c94a7951344bd7515b" target="_top" xlink:title=" ">
<polygon fill="white" stroke="#666666" points="298,-97 167,-97 167,-67 298,-67 298,-97"/>
<text text-anchor="start" x="175" y="-85" font-family="Helvetica,sans-Serif" font-size="10.00">ce103_hw4_medical_store</text>
<text text-anchor="middle" x="232.5" y="-74" font-family="Helvetica,sans-Serif" font-size="10.00">_app.Menu.runMenu</text>
</a>
</g>
</g>
<!-- Node4&#45;&gt;Node5 -->
<g id="edge4" class="edge">
<title>Node4&#45;&gt;Node5</title>
<path fill="none" stroke="#63b8ff" d="M322.45,-82C314.39,-82 306.24,-82 298.32,-82"/>
<polygon fill="#63b8ff" stroke="#63b8ff" points="322.25,-85.5 332.25,-82 322.25,-78.5 322.25,-85.5"/>
</g>
<!-- Node6 -->
<g id="node6" class="node">
<title>Node6</title>
<g id="a_node6"><a xlink:href="classce103__hw4__medical__store__app_1_1_menu.html#a906bd0b055bce495d306a21e81cbec1b" target="_top" xlink:title=" ">
<polygon fill="white" stroke="#666666" points="131,-97 0,-97 0,-67 131,-67 131,-97"/>
<text text-anchor="start" x="8" y="-85" font-family="Helvetica,sans-Serif" font-size="10.00">ce103_hw4_medical_store</text>
<text text-anchor="middle" x="65.5" y="-74" font-family="Helvetica,sans-Serif" font-size="10.00">_app.Menu.main</text>
</a>
</g>
</g>
<!-- Node5&#45;&gt;Node6 -->
<g id="edge5" class="edge">
<title>Node5&#45;&gt;Node6</title>
<path fill="none" stroke="#63b8ff" d="M155.45,-82C147.39,-82 139.24,-82 131.32,-82"/>
<polygon fill="#63b8ff" stroke="#63b8ff" points="155.25,-85.5 165.25,-82 155.25,-78.5 155.25,-85.5"/>
</g>
<!-- Node7&#45;&gt;Node4 -->
<g id="edge7" class="edge">
<title>Node7&#45;&gt;Node4</title>
<path fill="none" stroke="#63b8ff" d="M492.36,-70.52C483.21,-71.66 474.11,-72.8 465.4,-73.89"/>
<polygon fill="#63b8ff" stroke="#63b8ff" points="492.54,-74.02 502.02,-69.31 491.67,-67.08 492.54,-74.02"/>
</g>
<!-- Node8&#45;&gt;Node4 -->
<g id="edge9" class="edge">
<title>Node8&#45;&gt;Node4</title>
<path fill="none" stroke="#63b8ff" d="M489.51,-93.13C481.3,-92.1 473.16,-91.08 465.33,-90.1"/>
<polygon fill="#63b8ff" stroke="#63b8ff" points="488.86,-96.57 499.22,-94.34 489.73,-89.63 488.86,-96.57"/>
</g>
<!-- Node9&#45;&gt;Node4 -->
<g id="edge11" class="edge">
<title>Node9&#45;&gt;Node4</title>
<path fill="none" stroke="#63b8ff" d="M710.35,-11.17C647.96,-11.58 569.11,-16.43 501,-34 473.85,-41 445.22,-55.47 425.49,-66.7"/>
<polygon fill="#63b8ff" stroke="#63b8ff" points="710.29,-14.67 720.29,-11.15 710.28,-7.67 710.29,-14.67"/>
</g>
</g>
</svg>
