<?xml version="1.0" encoding="UTF-8" standalone="no"?>
<!DOCTYPE svg PUBLIC "-//W3C//DTD SVG 1.1//EN"
 "http://www.w3.org/Graphics/SVG/1.1/DTD/svg11.dtd">
<!-- Generated by graphviz version 7.0.4 (20221203.1631)
 -->
<!-- Title: ce103_hw4_medical_store_app.InsiderOfTheMenu.medicine Pages: 1 -->
<svg width="885pt" height="59pt"
 viewBox="0.00 0.00 885.00 59.00" xmlns="http://www.w3.org/2000/svg" xmlns:xlink="http://www.w3.org/1999/xlink">
<g id="graph0" class="graph" transform="scale(1 1) rotate(0) translate(4 55)">
<title>ce103_hw4_medical_store_app.InsiderOfTheMenu.medicine</title>
<!-- Node1 -->
<g id="node1" class="node">
<title>Node1</title>
<g id="a_node1"><a xlink:title=" ">
<polygon fill="#999999" stroke="#666666" points="877,-51 716,-51 716,-21 877,-21 877,-51"/>
<text text-anchor="start" x="724" y="-39" font-family="Helvetica,sans-Serif" font-size="10.00">ce103_hw4_medical_store</text>
<text text-anchor="middle" x="796.5" y="-28" font-family="Helvetica,sans-Serif" font-size="10.00">_app.InsiderOfTheMenu.medicine</text>
</a>
</g>
</g>
<!-- Node2 -->
<g id="node2" class="node">
<title>Node2</title>
<g id="a_node2"><a xlink:href="classce103__hw4__medical__store__app_1_1_menu.html#af40268756f4be60ece4bf674210a17bb" target="_top" xlink:title=" ">
<polygon fill="white" stroke="#666666" points="465,-51 334,-51 334,-21 465,-21 465,-51"/>
<text text-anchor="start" x="342" y="-39" font-family="Helvetica,sans-Serif" font-size="10.00">ce103_hw4_medical_store</text>
<text text-anchor="middle" x="399.5" y="-28" font-family="Helvetica,sans-Serif" font-size="10.00">_app.Menu.performAction</text>
</a>
</g>
</g>
<!-- Node1&#45;&gt;Node2 -->
<g id="edge1" class="edge">
<title>Node1&#45;&gt;Node2</title>
<path fill="none" stroke="#63b8ff" d="M704.42,-38.59C696.16,-38.75 687.93,-38.9 680,-39 600.45,-40.03 580.55,-40.19 501,-39 489.48,-38.83 477.22,-38.55 465.37,-38.22"/>
<polygon fill="#63b8ff" stroke="#63b8ff" points="704.23,-42.09 714.15,-38.38 704.08,-35.09 704.23,-42.09"/>
</g>
<!-- Node5 -->
<g id="node5" class="node">
<title>Node5</title>
<g id="a_node5"><a xlink:href="classce103__hw4__medical__store__app_1_1_insider_of_the_menu.html#a06e911654aeebf8dcb003c0bec404f3d" target="_top" xlink:title=" ">
<polygon fill="white" stroke="#666666" points="680,-30 501,-30 501,0 680,0 680,-30"/>
<text text-anchor="start" x="509" y="-18" font-family="Helvetica,sans-Serif" font-size="10.00">ce103_hw4_medical_store</text>
<text text-anchor="middle" x="590.5" y="-7" font-family="Helvetica,sans-Serif" font-size="10.00">_app.InsiderOfTheMenu.salemedicine</text>
</a>
</g>
</g>
<!-- Node1&#45;&gt;Node5 -->
<g id="edge4" class="edge">
<title>Node1&#45;&gt;Node5</title>
<path fill="none" stroke="#63b8ff" d="M704.48,-26.63C696.45,-25.8 688.33,-24.97 680.31,-24.14"/>
<polygon fill="#63b8ff" stroke="#63b8ff" points="703.94,-30.09 714.25,-27.64 704.66,-23.13 703.94,-30.09"/>
</g>
<!-- Node3 -->
<g id="node3" class="node">
<title>Node3</title>
<g id="a_node3"><a xlink:href="classce103__hw4__medical__store__app_1_1_menu.html#a8890452f69a3d1c94a7951344bd7515b" target="_top" xlink:title=" ">
<polygon fill="white" stroke="#666666" points="298,-51 167,-51 167,-21 298,-21 298,-51"/>
<text text-anchor="start" x="175" y="-39" font-family="Helvetica,sans-Serif" font-size="10.00">ce103_hw4_medical_store</text>
<text text-anchor="middle" x="232.5" y="-28" font-family="Helvetica,sans-Serif" font-size="10.00">_app.Menu.runMenu</text>
</a>
</g>
</g>
<!-- Node2&#45;&gt;Node3 -->
<g id="edge2" class="edge">
<title>Node2&#45;&gt;Node3</title>
<path fill="none" stroke="#63b8ff" d="M322.45,-36C314.39,-36 306.24,-36 298.32,-36"/>
<polygon fill="#63b8ff" stroke="#63b8ff" points="322.25,-39.5 332.25,-36 322.25,-32.5 322.25,-39.5"/>
</g>
<!-- Node4 -->
<g id="node4" class="node">
<title>Node4</title>
<g id="a_node4"><a xlink:href="classce103__hw4__medical__store__app_1_1_menu.html#a906bd0b055bce495d306a21e81cbec1b" target="_top" xlink:title=" ">
<polygon fill="white" stroke="#666666" points="131,-51 0,-51 0,-21 131,-21 131,-51"/>
<text text-anchor="start" x="8" y="-39" font-family="Helvetica,sans-Serif" font-size="10.00">ce103_hw4_medical_store</text>
<text text-anchor="middle" x="65.5" y="-28" font-family="Helvetica,sans-Serif" font-size="10.00">_app.Menu.main</text>
</a>
</g>
</g>
<!-- Node3&#45;&gt;Node4 -->
<g id="edge3" class="edge">
<title>Node3&#45;&gt;Node4</title>
<path fill="none" stroke="#63b8ff" d="M155.45,-36C147.39,-36 139.24,-36 131.32,-36"/>
<polygon fill="#63b8ff" stroke="#63b8ff" points="155.25,-39.5 165.25,-36 155.25,-32.5 155.25,-39.5"/>
</g>
<!-- Node5&#45;&gt;Node2 -->
<g id="edge5" class="edge">
<title>Node5&#45;&gt;Node2</title>
<path fill="none" stroke="#63b8ff" d="M489.11,-26.15C481.05,-27.05 473.04,-27.94 465.32,-28.8"/>
<polygon fill="#63b8ff" stroke="#63b8ff" points="489.48,-29.64 499.03,-25.05 488.7,-22.68 489.48,-29.64"/>
</g>
</g>
</svg>
