<?xml version="1.0" encoding="UTF-8" standalone="no"?>
<!DOCTYPE svg PUBLIC "-//W3C//DTD SVG 1.1//EN"
 "http://www.w3.org/Graphics/SVG/1.1/DTD/svg11.dtd">
<!-- Generated by graphviz version 7.0.4 (20221203.1631)
 -->
<!-- Title: ce103_hw4_medical_store_lib.Medicine.getCompanyname Pages: 1 -->
<svg width="1109pt" height="137pt"
 viewBox="0.00 0.00 1109.00 137.00" xmlns="http://www.w3.org/2000/svg" xmlns:xlink="http://www.w3.org/1999/xlink">
<g id="graph0" class="graph" transform="scale(1 1) rotate(0) translate(4 133)">
<title>ce103_hw4_medical_store_lib.Medicine.getCompanyname</title>
<!-- Node1 -->
<g id="node1" class="node">
<title>Node1</title>
<g id="a_node1"><a xlink:title=" ">
<polygon fill="#999999" stroke="#666666" points="1101,-75 946,-75 946,-45 1101,-45 1101,-75"/>
<text text-anchor="start" x="954" y="-63" font-family="Helvetica,sans-Serif" font-size="10.00">ce103_hw4_medical_store</text>
<text text-anchor="middle" x="1023.5" y="-52" font-family="Helvetica,sans-Serif" font-size="10.00">_lib.Medicine.getCompanyname</text>
</a>
</g>
</g>
<!-- Node2 -->
<g id="node2" class="node">
<title>Node2</title>
<g id="a_node2"><a xlink:href="classce103__hw4__medical__store__app_1_1_insider_of_the_menu.html#ada4f93b1d40bbc169bf20e70efdda5c9" target="_top" xlink:title=" ">
<polygon fill="white" stroke="#666666" points="910,-129 737,-129 737,-99 910,-99 910,-129"/>
<text text-anchor="start" x="745" y="-117" font-family="Helvetica,sans-Serif" font-size="10.00">ce103_hw4_medical_store</text>
<text text-anchor="middle" x="823.5" y="-106" font-family="Helvetica,sans-Serif" font-size="10.00">_app.InsiderOfTheMenu.listmedicine</text>
</a>
</g>
</g>
<!-- Node1&#45;&gt;Node2 -->
<g id="edge1" class="edge">
<title>Node1&#45;&gt;Node2</title>
<path fill="none" stroke="#63b8ff" d="M954.96,-78.42C930.97,-84.96 904.24,-92.25 881.25,-98.52"/>
<polygon fill="#63b8ff" stroke="#63b8ff" points="955.57,-81.88 964.3,-75.87 953.73,-75.13 955.57,-81.88"/>
</g>
<!-- Node6 -->
<g id="node6" class="node">
<title>Node6</title>
<g id="a_node6"><a xlink:href="classce103__hw4__medical__store__lib_1_1_medicine.html#a6046b568ddbacc606799c55c34c93584" target="_top" xlink:title=" ">
<polygon fill="white" stroke="#666666" points="896.5,-80.5 750.5,-80.5 750.5,-39.5 896.5,-39.5 896.5,-80.5"/>
<text text-anchor="start" x="758.5" y="-68.5" font-family="Helvetica,sans-Serif" font-size="10.00">ce103_hw4_medical_store</text>
<text text-anchor="start" x="758.5" y="-57.5" font-family="Helvetica,sans-Serif" font-size="10.00">_lib.Medicine.medicineToByte</text>
<text text-anchor="middle" x="823.5" y="-46.5" font-family="Helvetica,sans-Serif" font-size="10.00">ArrayBlock</text>
</a>
</g>
</g>
<!-- Node1&#45;&gt;Node6 -->
<g id="edge5" class="edge">
<title>Node1&#45;&gt;Node6</title>
<path fill="none" stroke="#63b8ff" d="M934.24,-60C921.7,-60 908.94,-60 896.75,-60"/>
<polygon fill="#63b8ff" stroke="#63b8ff" points="934.15,-63.5 944.15,-60 934.15,-56.5 934.15,-63.5"/>
</g>
<!-- Node8 -->
<g id="node8" class="node">
<title>Node8</title>
<g id="a_node8"><a xlink:href="classce103__hw4__medical__store__app_1_1_insider_of_the_menu.html#a06e911654aeebf8dcb003c0bec404f3d" target="_top" xlink:title=" ">
<polygon fill="white" stroke="#666666" points="690.5,-30 511.5,-30 511.5,0 690.5,0 690.5,-30"/>
<text text-anchor="start" x="519.5" y="-18" font-family="Helvetica,sans-Serif" font-size="10.00">ce103_hw4_medical_store</text>
<text text-anchor="middle" x="601" y="-7" font-family="Helvetica,sans-Serif" font-size="10.00">_app.InsiderOfTheMenu.salemedicine</text>
</a>
</g>
</g>
<!-- Node1&#45;&gt;Node8 -->
<g id="edge10" class="edge">
<title>Node1&#45;&gt;Node8</title>
<path fill="none" stroke="#63b8ff" d="M962.84,-41.57C945.91,-37.04 927.37,-32.71 910,-30 836.74,-18.58 752.6,-15.13 690.79,-14.36"/>
<polygon fill="#63b8ff" stroke="#63b8ff" points="961.67,-44.88 972.24,-44.17 963.53,-38.13 961.67,-44.88"/>
</g>
<!-- Node3 -->
<g id="node3" class="node">
<title>Node3</title>
<g id="a_node3"><a xlink:href="classce103__hw4__medical__store__app_1_1_menu.html#af40268756f4be60ece4bf674210a17bb" target="_top" xlink:title=" ">
<polygon fill="white" stroke="#666666" points="465,-78 334,-78 334,-48 465,-48 465,-78"/>
<text text-anchor="start" x="342" y="-66" font-family="Helvetica,sans-Serif" font-size="10.00">ce103_hw4_medical_store</text>
<text text-anchor="middle" x="399.5" y="-55" font-family="Helvetica,sans-Serif" font-size="10.00">_app.Menu.performAction</text>
</a>
</g>
</g>
<!-- Node2&#45;&gt;Node3 -->
<g id="edge2" class="edge">
<title>Node2&#45;&gt;Node3</title>
<path fill="none" stroke="#63b8ff" d="M725.49,-109.67C661.46,-105.87 575.87,-99.01 501,-87 487.18,-84.78 472.46,-81.69 458.66,-78.46"/>
<polygon fill="#63b8ff" stroke="#63b8ff" points="725.09,-113.15 735.27,-110.23 725.49,-106.16 725.09,-113.15"/>
</g>
<!-- Node4 -->
<g id="node4" class="node">
<title>Node4</title>
<g id="a_node4"><a xlink:href="classce103__hw4__medical__store__app_1_1_menu.html#a8890452f69a3d1c94a7951344bd7515b" target="_top" xlink:title=" ">
<polygon fill="white" stroke="#666666" points="298,-78 167,-78 167,-48 298,-48 298,-78"/>
<text text-anchor="start" x="175" y="-66" font-family="Helvetica,sans-Serif" font-size="10.00">ce103_hw4_medical_store</text>
<text text-anchor="middle" x="232.5" y="-55" font-family="Helvetica,sans-Serif" font-size="10.00">_app.Menu.runMenu</text>
</a>
</g>
</g>
<!-- Node3&#45;&gt;Node4 -->
<g id="edge3" class="edge">
<title>Node3&#45;&gt;Node4</title>
<path fill="none" stroke="#63b8ff" d="M322.45,-63C314.39,-63 306.24,-63 298.32,-63"/>
<polygon fill="#63b8ff" stroke="#63b8ff" points="322.25,-66.5 332.25,-63 322.25,-59.5 322.25,-66.5"/>
</g>
<!-- Node5 -->
<g id="node5" class="node">
<title>Node5</title>
<g id="a_node5"><a xlink:href="classce103__hw4__medical__store__app_1_1_menu.html#a906bd0b055bce495d306a21e81cbec1b" target="_top" xlink:title=" ">
<polygon fill="white" stroke="#666666" points="131,-78 0,-78 0,-48 131,-48 131,-78"/>
<text text-anchor="start" x="8" y="-66" font-family="Helvetica,sans-Serif" font-size="10.00">ce103_hw4_medical_store</text>
<text text-anchor="middle" x="65.5" y="-55" font-family="Helvetica,sans-Serif" font-size="10.00">_app.Menu.main</text>
</a>
</g>
</g>
<!-- Node4&#45;&gt;Node5 -->
<g id="edge4" class="edge">
<title>Node4&#45;&gt;Node5</title>
<path fill="none" stroke="#63b8ff" d="M155.45,-63C147.39,-63 139.24,-63 131.32,-63"/>
<polygon fill="#63b8ff" stroke="#63b8ff" points="155.25,-66.5 165.25,-63 155.25,-59.5 155.25,-66.5"/>
</g>
<!-- Node7 -->
<g id="node7" class="node">
<title>Node7</title>
<g id="a_node7"><a xlink:href="classce103__hw4__medical__store__app_1_1_insider_of_the_menu.html#abbb3877121688713fb9c89334fd093b9" target="_top" xlink:title=" ">
<polygon fill="white" stroke="#666666" points="701,-78 501,-78 501,-48 701,-48 701,-78"/>
<text text-anchor="start" x="509" y="-66" font-family="Helvetica,sans-Serif" font-size="10.00">ce103_hw4_medical_store</text>
<text text-anchor="middle" x="601" y="-55" font-family="Helvetica,sans-Serif" font-size="10.00">_app.InsiderOfTheMenu.purchasemedicine</text>
</a>
</g>
</g>
<!-- Node6&#45;&gt;Node7 -->
<g id="edge6" class="edge">
<title>Node6&#45;&gt;Node7</title>
<path fill="none" stroke="#63b8ff" d="M739.09,-61.13C726.71,-61.3 713.85,-61.48 701.19,-61.65"/>
<polygon fill="#63b8ff" stroke="#63b8ff" points="738.84,-64.64 748.79,-61 738.74,-57.64 738.84,-64.64"/>
</g>
<!-- Node6&#45;&gt;Node8 -->
<g id="edge8" class="edge">
<title>Node6&#45;&gt;Node8</title>
<path fill="none" stroke="#63b8ff" d="M739.24,-43.01C719.06,-38.89 697.59,-34.51 677.77,-30.46"/>
<polygon fill="#63b8ff" stroke="#63b8ff" points="738.32,-46.39 748.82,-44.96 739.72,-39.53 738.32,-46.39"/>
</g>
<!-- Node7&#45;&gt;Node3 -->
<g id="edge7" class="edge">
<title>Node7&#45;&gt;Node3</title>
<path fill="none" stroke="#63b8ff" d="M489.12,-63C481.07,-63 473.12,-63 465.48,-63"/>
<polygon fill="#63b8ff" stroke="#63b8ff" points="489.03,-66.5 499.03,-63 489.03,-59.5 489.03,-66.5"/>
</g>
<!-- Node8&#45;&gt;Node3 -->
<g id="edge9" class="edge">
<title>Node8&#45;&gt;Node3</title>
<path fill="none" stroke="#63b8ff" d="M524.64,-33.13C504.86,-37.89 483.73,-42.98 464.6,-47.58"/>
<polygon fill="#63b8ff" stroke="#63b8ff" points="525.4,-36.55 534.31,-30.81 523.77,-29.74 525.4,-36.55"/>
</g>
</g>
</svg>
