<?xml version="1.0" encoding="UTF-8" standalone="no"?>
<!DOCTYPE svg PUBLIC "-//W3C//DTD SVG 1.1//EN"
 "http://www.w3.org/Graphics/SVG/1.1/DTD/svg11.dtd">
<!-- Generated by graphviz version 7.0.4 (20221203.1631)
 -->
<!-- Title: ce103_hw4_medical_store_app.InsiderOfTheMenu.editCustomer Pages: 1 -->
<svg width="585pt" height="511pt"
 viewBox="0.00 0.00 585.00 511.00" xmlns="http://www.w3.org/2000/svg" xmlns:xlink="http://www.w3.org/1999/xlink">
<g id="graph0" class="graph" transform="scale(1 1) rotate(0) translate(4 507)">
<title>ce103_hw4_medical_store_app.InsiderOfTheMenu.editCustomer</title>
<!-- Node1 -->
<g id="node1" class="node">
<title>Node1</title>
<g id="a_node1"><a xlink:title=" ">
<polygon fill="#999999" stroke="#666666" points="179,-246 0,-246 0,-216 179,-216 179,-246"/>
<text text-anchor="start" x="8" y="-234" font-family="Helvetica,sans-Serif" font-size="10.00">ce103_hw4_medical_store</text>
<text text-anchor="middle" x="89.5" y="-223" font-family="Helvetica,sans-Serif" font-size="10.00">_app.InsiderOfTheMenu.editCustomer</text>
</a>
</g>
</g>
<!-- Node2 -->
<g id="node2" class="node">
<title>Node2</title>
<g id="a_node2"><a xlink:href="classce103__hw4__medical__store__app_1_1_insider_of_the_menu.html#a0409ee76fc4d80aea880c4c9702271df" target="_top" xlink:title=" ">
<polygon fill="white" stroke="#666666" points="566.5,-503 423.5,-503 423.5,-473 566.5,-473 566.5,-503"/>
<text text-anchor="start" x="431.5" y="-491" font-family="Helvetica,sans-Serif" font-size="10.00">ce103_hw4_medical_store</text>
<text text-anchor="middle" x="495" y="-480" font-family="Helvetica,sans-Serif" font-size="10.00">_app.InsiderOfTheMenu.clear</text>
</a>
</g>
</g>
<!-- Node1&#45;&gt;Node2 -->
<g id="edge1" class="edge">
<title>Node1&#45;&gt;Node2</title>
<path fill="none" stroke="#63b8ff" d="M93.46,-246.34C102.63,-289.33 134.97,-411.23 215,-464 272.77,-502.09 352.54,-505.24 411.99,-500.54"/>
<polygon fill="#63b8ff" stroke="#63b8ff" points="412.07,-504.04 421.72,-499.67 411.44,-497.07 412.07,-504.04"/>
</g>
<!-- Node3 -->
<g id="node3" class="node">
<title>Node3</title>
<g id="a_node3"><a xlink:href="classce103__hw4__medical__store__app_1_1_insider_of_the_menu.html#a3a0461cf6ef97ea7761931d922129d14" target="_top" xlink:title=" ">
<polygon fill="white" stroke="#666666" points="377,-455 215,-455 215,-425 377,-425 377,-455"/>
<text text-anchor="start" x="223" y="-443" font-family="Helvetica,sans-Serif" font-size="10.00">ce103_hw4_medical_store</text>
<text text-anchor="middle" x="296" y="-432" font-family="Helvetica,sans-Serif" font-size="10.00">_app.InsiderOfTheMenu.customer</text>
</a>
</g>
</g>
<!-- Node1&#45;&gt;Node3 -->
<g id="edge2" class="edge">
<title>Node1&#45;&gt;Node3</title>
<path fill="none" stroke="#63b8ff" d="M100.56,-246.2C120.27,-275.29 166.3,-339.94 215,-385 228.37,-397.37 244.71,-409.1 259.12,-418.52"/>
<polygon fill="#63b8ff" stroke="#63b8ff" points="257.15,-421.41 267.46,-423.84 260.91,-415.51 257.15,-421.41"/>
</g>
<!-- Node4 -->
<g id="node4" class="node">
<title>Node4</title>
<g id="a_node4"><a xlink:href="classce103__hw4__medical__store__app_1_1_insider_of_the_menu.html#aa208466ba46c8f7d58d2f2e970d23545" target="_top" xlink:title=" ">
<polygon fill="white" stroke="#666666" points="577,-455 413,-455 413,-425 577,-425 577,-455"/>
<text text-anchor="start" x="421" y="-443" font-family="Helvetica,sans-Serif" font-size="10.00">ce103_hw4_medical_store</text>
<text text-anchor="middle" x="495" y="-432" font-family="Helvetica,sans-Serif" font-size="10.00">_app.InsiderOfTheMenu.main_box</text>
</a>
</g>
</g>
<!-- Node1&#45;&gt;Node4 -->
<g id="edge13" class="edge">
<title>Node1&#45;&gt;Node4</title>
<path fill="none" stroke="#63b8ff" d="M104.88,-246.49C126.78,-269.34 170.65,-312.25 215,-339 279.34,-377.8 360.92,-405.18 419.22,-421.55"/>
<polygon fill="#63b8ff" stroke="#63b8ff" points="418.17,-424.89 428.74,-424.17 420.03,-418.14 418.17,-424.89"/>
</g>
<!-- Node5 -->
<g id="node5" class="node">
<title>Node5</title>
<g id="a_node5"><a xlink:href="classce103__hw4__medical__store__lib_1_1_customer.html#a292a7e3602e9d85c119d14af8ba29090" target="_top" xlink:title=" ">
<polygon fill="white" stroke="#666666" points="371.5,-329.5 220.5,-329.5 220.5,-288.5 371.5,-288.5 371.5,-329.5"/>
<text text-anchor="start" x="228.5" y="-317.5" font-family="Helvetica,sans-Serif" font-size="10.00">ce103_hw4_medical_store</text>
<text text-anchor="start" x="228.5" y="-306.5" font-family="Helvetica,sans-Serif" font-size="10.00">_lib.Customer.customerToByte</text>
<text text-anchor="middle" x="296" y="-295.5" font-family="Helvetica,sans-Serif" font-size="10.00">ArrayBlock</text>
</a>
</g>
</g>
<!-- Node1&#45;&gt;Node5 -->
<g id="edge5" class="edge">
<title>Node1&#45;&gt;Node5</title>
<path fill="none" stroke="#63b8ff" d="M130.27,-246.44C154.7,-255.9 186.63,-268.21 215,-279 219.37,-280.66 223.87,-282.37 228.41,-284.08"/>
<polygon fill="#63b8ff" stroke="#63b8ff" points="227.02,-287.3 237.61,-287.55 229.49,-280.75 227.02,-287.3"/>
</g>
<!-- Node13 -->
<g id="node13" class="node">
<title>Node13</title>
<g id="a_node13"><a xlink:href="classce103__hw4__medical__store__lib_1_1_customer.html#a8443925c23f0315b80f1f5f6f5f7267b" target="_top" xlink:title=" ">
<polygon fill="white" stroke="#666666" points="361.5,-270 230.5,-270 230.5,-240 361.5,-240 361.5,-270"/>
<text text-anchor="start" x="238.5" y="-258" font-family="Helvetica,sans-Serif" font-size="10.00">ce103_hw4_medical_store</text>
<text text-anchor="middle" x="296" y="-247" font-family="Helvetica,sans-Serif" font-size="10.00">_lib.Customer.setCity</text>
</a>
</g>
</g>
<!-- Node1&#45;&gt;Node13 -->
<g id="edge14" class="edge">
<title>Node1&#45;&gt;Node13</title>
<path fill="none" stroke="#63b8ff" d="M179.3,-241.42C192.56,-242.98 206.12,-244.57 219.08,-246.09"/>
<polygon fill="#63b8ff" stroke="#63b8ff" points="218.44,-249.54 228.78,-247.23 219.26,-242.59 218.44,-249.54"/>
</g>
<!-- Node14 -->
<g id="node14" class="node">
<title>Node14</title>
<g id="a_node14"><a xlink:href="classce103__hw4__medical__store__lib_1_1_customer.html#a7189e6165587d2ae32a164eb7497f24e" target="_top" xlink:title=" ">
<polygon fill="white" stroke="#666666" points="361.5,-222 230.5,-222 230.5,-192 361.5,-192 361.5,-222"/>
<text text-anchor="start" x="238.5" y="-210" font-family="Helvetica,sans-Serif" font-size="10.00">ce103_hw4_medical_store</text>
<text text-anchor="middle" x="296" y="-199" font-family="Helvetica,sans-Serif" font-size="10.00">_lib.Customer.setEmail</text>
</a>
</g>
</g>
<!-- Node1&#45;&gt;Node14 -->
<g id="edge15" class="edge">
<title>Node1&#45;&gt;Node14</title>
<path fill="none" stroke="#63b8ff" d="M179.3,-220.58C192.56,-219.02 206.12,-217.43 219.08,-215.91"/>
<polygon fill="#63b8ff" stroke="#63b8ff" points="219.26,-219.41 228.78,-214.77 218.44,-212.46 219.26,-219.41"/>
</g>
<!-- Node15 -->
<g id="node15" class="node">
<title>Node15</title>
<g id="a_node15"><a xlink:href="classce103__hw4__medical__store__lib_1_1_customer.html#abb0726c60d6cd6fe879ef443f4378562" target="_top" xlink:title=" ">
<polygon fill="white" stroke="#666666" points="361.5,-174 230.5,-174 230.5,-144 361.5,-144 361.5,-174"/>
<text text-anchor="start" x="238.5" y="-162" font-family="Helvetica,sans-Serif" font-size="10.00">ce103_hw4_medical_store</text>
<text text-anchor="middle" x="296" y="-151" font-family="Helvetica,sans-Serif" font-size="10.00">_lib.Customer.setId</text>
</a>
</g>
</g>
<!-- Node1&#45;&gt;Node15 -->
<g id="edge16" class="edge">
<title>Node1&#45;&gt;Node15</title>
<path fill="none" stroke="#63b8ff" d="M128.37,-215.53C152.9,-205.73 185.63,-193.05 215,-183 220.05,-181.27 225.3,-179.54 230.59,-177.85"/>
<polygon fill="#63b8ff" stroke="#63b8ff" points="231.52,-181.23 240.01,-174.9 229.43,-174.55 231.52,-181.23"/>
</g>
<!-- Node16 -->
<g id="node16" class="node">
<title>Node16</title>
<g id="a_node16"><a xlink:href="classce103__hw4__medical__store__lib_1_1_customer.html#a43138a44bcc676b1f218b27c1b1e4c41" target="_top" xlink:title=" ">
<polygon fill="white" stroke="#666666" points="361.5,-126 230.5,-126 230.5,-96 361.5,-96 361.5,-126"/>
<text text-anchor="start" x="238.5" y="-114" font-family="Helvetica,sans-Serif" font-size="10.00">ce103_hw4_medical_store</text>
<text text-anchor="middle" x="296" y="-103" font-family="Helvetica,sans-Serif" font-size="10.00">_lib.Customer.setName</text>
</a>
</g>
</g>
<!-- Node1&#45;&gt;Node16 -->
<g id="edge17" class="edge">
<title>Node1&#45;&gt;Node16</title>
<path fill="none" stroke="#63b8ff" d="M106.47,-215.52C128.96,-194.51 172.02,-157.06 215,-135 217.9,-133.51 220.91,-132.1 223.99,-130.76"/>
<polygon fill="#63b8ff" stroke="#63b8ff" points="225.26,-134.02 233.24,-127.05 222.66,-127.52 225.26,-134.02"/>
</g>
<!-- Node17 -->
<g id="node17" class="node">
<title>Node17</title>
<g id="a_node17"><a xlink:href="classce103__hw4__medical__store__lib_1_1_customer.html#a772a54475697df032e12e788b54e8dc6" target="_top" xlink:title=" ">
<polygon fill="white" stroke="#666666" points="361.5,-78 230.5,-78 230.5,-48 361.5,-48 361.5,-78"/>
<text text-anchor="start" x="238.5" y="-66" font-family="Helvetica,sans-Serif" font-size="10.00">ce103_hw4_medical_store</text>
<text text-anchor="middle" x="296" y="-55" font-family="Helvetica,sans-Serif" font-size="10.00">_lib.Customer.setNum</text>
</a>
</g>
</g>
<!-- Node1&#45;&gt;Node17 -->
<g id="edge18" class="edge">
<title>Node1&#45;&gt;Node17</title>
<path fill="none" stroke="#63b8ff" d="M99.4,-215.88C117.44,-186.58 161.19,-121.85 215,-87 217,-85.71 219.07,-84.48 221.19,-83.32"/>
<polygon fill="#63b8ff" stroke="#63b8ff" points="222.64,-86.51 230.11,-78.99 219.58,-80.21 222.64,-86.51"/>
</g>
<!-- Node18 -->
<g id="node18" class="node">
<title>Node18</title>
<g id="a_node18"><a xlink:href="classce103__hw4__medical__store__lib_1_1_file_utility.html#a6cde8a0c6ed240ea85b864754d566f1b" target="_top" xlink:title=" ">
<polygon fill="white" stroke="#666666" points="362,-30 230,-30 230,0 362,0 362,-30"/>
<text text-anchor="start" x="238" y="-18" font-family="Helvetica,sans-Serif" font-size="10.00">ce103_hw4_medical_store</text>
<text text-anchor="middle" x="296" y="-7" font-family="Helvetica,sans-Serif" font-size="10.00">_lib.FileUtility.updateBlock</text>
</a>
</g>
</g>
<!-- Node1&#45;&gt;Node18 -->
<g id="edge19" class="edge">
<title>Node1&#45;&gt;Node18</title>
<path fill="none" stroke="#63b8ff" d="M96.11,-215.67C110.2,-179.31 150.64,-87.27 215,-39 216.56,-37.83 218.17,-36.72 219.82,-35.67"/>
<polygon fill="#63b8ff" stroke="#63b8ff" points="221.37,-38.81 228.43,-30.92 217.99,-32.68 221.37,-38.81"/>
</g>
<!-- Node3&#45;&gt;Node2 -->
<g id="edge3" class="edge">
<title>Node3&#45;&gt;Node2</title>
<path fill="none" stroke="#63b8ff" d="M360.42,-455.45C379.31,-460.06 400.18,-465.14 419.7,-469.9"/>
<polygon fill="#63b8ff" stroke="#63b8ff" points="418.69,-473.25 429.23,-472.22 420.34,-466.45 418.69,-473.25"/>
</g>
<!-- Node3&#45;&gt;Node4 -->
<g id="edge4" class="edge">
<title>Node3&#45;&gt;Node4</title>
<path fill="none" stroke="#63b8ff" d="M377.41,-440C385.29,-440 393.34,-440 401.33,-440"/>
<polygon fill="#63b8ff" stroke="#63b8ff" points="401.05,-443.5 411.05,-440 401.05,-436.5 401.05,-443.5"/>
</g>
<!-- Node6 -->
<g id="node6" class="node">
<title>Node6</title>
<g id="a_node6"><a xlink:href="classce103__hw4__medical__store__lib_1_1_customer.html#a36aba6fa51f7a02f602b7e1beeff0fba" target="_top" xlink:title=" ">
<polygon fill="white" stroke="#666666" points="560.5,-407 429.5,-407 429.5,-377 560.5,-377 560.5,-407"/>
<text text-anchor="start" x="437.5" y="-395" font-family="Helvetica,sans-Serif" font-size="10.00">ce103_hw4_medical_store</text>
<text text-anchor="middle" x="495" y="-384" font-family="Helvetica,sans-Serif" font-size="10.00">_lib.Customer.getCity</text>
</a>
</g>
</g>
<!-- Node5&#45;&gt;Node6 -->
<g id="edge6" class="edge">
<title>Node5&#45;&gt;Node6</title>
<path fill="none" stroke="#63b8ff" d="M333.81,-329.91C356.23,-342.08 385.72,-357.12 413,-368 417.29,-369.71 421.75,-371.36 426.28,-372.95"/>
<polygon fill="#63b8ff" stroke="#63b8ff" points="424.87,-376.17 435.47,-376.03 427.1,-369.53 424.87,-376.17"/>
</g>
<!-- Node7 -->
<g id="node7" class="node">
<title>Node7</title>
<g id="a_node7"><a xlink:href="classce103__hw4__medical__store__lib_1_1_customer.html#a0f49e94a5abb7d8aa007db0e02056473" target="_top" xlink:title=" ">
<polygon fill="white" stroke="#666666" points="560.5,-359 429.5,-359 429.5,-329 560.5,-329 560.5,-359"/>
<text text-anchor="start" x="437.5" y="-347" font-family="Helvetica,sans-Serif" font-size="10.00">ce103_hw4_medical_store</text>
<text text-anchor="middle" x="495" y="-336" font-family="Helvetica,sans-Serif" font-size="10.00">_lib.Customer.getEmail</text>
</a>
</g>
</g>
<!-- Node5&#45;&gt;Node7 -->
<g id="edge7" class="edge">
<title>Node5&#45;&gt;Node7</title>
<path fill="none" stroke="#63b8ff" d="M371.76,-322.28C387,-324.99 403.05,-327.84 418.32,-330.55"/>
<polygon fill="#63b8ff" stroke="#63b8ff" points="417.33,-333.93 427.79,-332.24 418.55,-327.04 417.33,-333.93"/>
</g>
<!-- Node8 -->
<g id="node8" class="node">
<title>Node8</title>
<g id="a_node8"><a xlink:href="classce103__hw4__medical__store__lib_1_1_customer.html#a58680383b49831fdc9d6d5c77a6640df" target="_top" xlink:title=" ">
<polygon fill="white" stroke="#666666" points="560.5,-311 429.5,-311 429.5,-281 560.5,-281 560.5,-311"/>
<text text-anchor="start" x="437.5" y="-299" font-family="Helvetica,sans-Serif" font-size="10.00">ce103_hw4_medical_store</text>
<text text-anchor="middle" x="495" y="-288" font-family="Helvetica,sans-Serif" font-size="10.00">_lib.Customer.getId</text>
</a>
</g>
</g>
<!-- Node5&#45;&gt;Node8 -->
<g id="edge8" class="edge">
<title>Node5&#45;&gt;Node8</title>
<path fill="none" stroke="#63b8ff" d="M371.76,-304.07C386.85,-303.07 402.73,-302.02 417.87,-301.02"/>
<polygon fill="#63b8ff" stroke="#63b8ff" points="418.02,-304.52 427.77,-300.37 417.56,-297.54 418.02,-304.52"/>
</g>
<!-- Node9 -->
<g id="node9" class="node">
<title>Node9</title>
<g id="a_node9"><a xlink:href="classce103__hw4__medical__store__lib_1_1_customer.html#a13135918fb5adac15dcda407d1040fe5" target="_top" xlink:title=" ">
<polygon fill="white" stroke="#666666" points="560.5,-263 429.5,-263 429.5,-233 560.5,-233 560.5,-263"/>
<text text-anchor="start" x="437.5" y="-251" font-family="Helvetica,sans-Serif" font-size="10.00">ce103_hw4_medical_store</text>
<text text-anchor="middle" x="495" y="-240" font-family="Helvetica,sans-Serif" font-size="10.00">_lib.Customer.getName</text>
</a>
</g>
</g>
<!-- Node5&#45;&gt;Node9 -->
<g id="edge9" class="edge">
<title>Node5&#45;&gt;Node9</title>
<path fill="none" stroke="#63b8ff" d="M361.96,-288.02C378.58,-282.72 396.43,-277.1 413,-272 418.7,-270.25 424.62,-268.45 430.56,-266.66"/>
<polygon fill="#63b8ff" stroke="#63b8ff" points="431.21,-270.12 439.78,-263.9 429.2,-263.42 431.21,-270.12"/>
</g>
<!-- Node10 -->
<g id="node10" class="node">
<title>Node10</title>
<g id="a_node10"><a xlink:href="classce103__hw4__medical__store__lib_1_1_customer.html#ad4ac11104ae983781724a6c2a9eb933e" target="_top" xlink:title=" ">
<polygon fill="white" stroke="#666666" points="560.5,-215 429.5,-215 429.5,-185 560.5,-185 560.5,-215"/>
<text text-anchor="start" x="437.5" y="-203" font-family="Helvetica,sans-Serif" font-size="10.00">ce103_hw4_medical_store</text>
<text text-anchor="middle" x="495" y="-192" font-family="Helvetica,sans-Serif" font-size="10.00">_lib.Customer.getNum</text>
</a>
</g>
</g>
<!-- Node5&#45;&gt;Node10 -->
<g id="edge10" class="edge">
<title>Node5&#45;&gt;Node10</title>
<path fill="none" stroke="#63b8ff" d="M363.46,-288.01C368.25,-285.33 372.83,-282.34 377,-279 399.81,-260.74 389.56,-241.44 413,-224 414.93,-222.56 416.95,-221.21 419.03,-219.94"/>
<polygon fill="#63b8ff" stroke="#63b8ff" points="420.65,-223.05 427.85,-215.27 417.37,-216.86 420.65,-223.05"/>
</g>
<!-- Node11 -->
<g id="node11" class="node">
<title>Node11</title>
<g id="a_node11"><a xlink:href="classce103__hw4__medical__store__lib_1_1_conversion_utility.html#a8e0f93579075d0a1b0800e05bbcd66af" target="_top" xlink:title=" ">
<polygon fill="white" stroke="#666666" points="564.5,-166.5 425.5,-166.5 425.5,-125.5 564.5,-125.5 564.5,-166.5"/>
<text text-anchor="start" x="433.5" y="-154.5" font-family="Helvetica,sans-Serif" font-size="10.00">ce103_hw4_medical_store</text>
<text text-anchor="start" x="433.5" y="-143.5" font-family="Helvetica,sans-Serif" font-size="10.00">_lib.ConversionUtility.integer</text>
<text text-anchor="middle" x="495" y="-132.5" font-family="Helvetica,sans-Serif" font-size="10.00">ToByteArray</text>
</a>
</g>
</g>
<!-- Node5&#45;&gt;Node11 -->
<g id="edge11" class="edge">
<title>Node5&#45;&gt;Node11</title>
<path fill="none" stroke="#63b8ff" d="M365.94,-288.08C369.94,-285.41 373.68,-282.39 377,-279 410.9,-244.33 379.03,-210.61 413,-176 414.03,-174.95 415.11,-173.93 416.22,-172.95"/>
<polygon fill="#63b8ff" stroke="#63b8ff" points="418.24,-175.81 424.14,-167.01 414.04,-170.21 418.24,-175.81"/>
</g>
<!-- Node12 -->
<g id="node12" class="node">
<title>Node12</title>
<g id="a_node12"><a xlink:href="classce103__hw4__medical__store__lib_1_1_conversion_utility.html#ab0ff4b89697d8bd6cc3b3a1141a86e3d" target="_top" xlink:title=" ">
<polygon fill="white" stroke="#666666" points="562,-107.5 428,-107.5 428,-66.5 562,-66.5 562,-107.5"/>
<text text-anchor="start" x="436" y="-95.5" font-family="Helvetica,sans-Serif" font-size="10.00">ce103_hw4_medical_store</text>
<text text-anchor="start" x="436" y="-84.5" font-family="Helvetica,sans-Serif" font-size="10.00">_lib.ConversionUtility.string</text>
<text text-anchor="middle" x="495" y="-73.5" font-family="Helvetica,sans-Serif" font-size="10.00">ToByteArray</text>
</a>
</g>
</g>
<!-- Node5&#45;&gt;Node12 -->
<g id="edge12" class="edge">
<title>Node5&#45;&gt;Node12</title>
<path fill="none" stroke="#63b8ff" d="M366.78,-288.26C370.53,-285.54 373.99,-282.47 377,-279 425.62,-222.96 363.96,-171.67 413,-116 414.68,-114.09 416.5,-112.3 418.43,-110.63"/>
<polygon fill="#63b8ff" stroke="#63b8ff" points="420.25,-113.64 426.29,-104.93 416.14,-107.97 420.25,-113.64"/>
</g>
</g>
</svg>
