<?xml version="1.0" encoding="UTF-8" standalone="no"?>
<!DOCTYPE svg PUBLIC "-//W3C//DTD SVG 1.1//EN"
 "http://www.w3.org/Graphics/SVG/1.1/DTD/svg11.dtd">
<!-- Generated by graphviz version 7.0.4 (20221203.1631)
 -->
<!-- Title: ce103_hw4_medical_store_app.InsiderOfTheMenu.clear Pages: 1 -->
<!--zoomable 525 -->
<svg id="main" version="1.1" xmlns="http://www.w3.org/2000/svg" xmlns:xlink="http://www.w3.org/1999/xlink" xml:space="preserve" onload="init(evt)">
<style type="text/css"><![CDATA[
.edge:hover path { stroke: red; }
.edge:hover polygon { stroke: red; fill: red; }
]]></style>
<script type="text/javascript"><![CDATA[
var edges = document.getElementsByTagName('g');
if (edges && edges.length) {
  for (var i=0;i<edges.length;i++) {
    if (edges[i].id.substr(0,4)=='edge') {
      edges[i].setAttribute('class','edge');
    }
  }
}
]]></script>
        <defs>
                <circle id="rim" cx="0" cy="0" r="7"/>
                <circle id="rim2" cx="0" cy="0" r="3.5"/>
                <g id="zoomPlus">
                        <use xlink:href="#rim" fill="#404040">
                                <set attributeName="fill" to="#808080" begin="zoomplus.mouseover" end="zoomplus.mouseout"/>
                        </use>
                        <path d="M-4,0h8M0,-4v8" fill="none" stroke="white" stroke-width="1.5" pointer-events="none"/>
                </g>
                <g id="zoomMin">
                        <use xlink:href="#rim" fill="#404040">
                                <set attributeName="fill" to="#808080" begin="zoomminus.mouseover" end="zoomminus.mouseout"/>
                        </use>
                        <path d="M-4,0h8" fill="none" stroke="white" stroke-width="1.5" pointer-events="none"/>
                </g>
                <g id="dirArrow">
                        <path fill="none" stroke="white" stroke-width="1.5" d="M0,-3.0v7 M-2.5,-0.5L0,-3.0L2.5,-0.5"/>
                </g>
               <g id="resetDef">
                       <use xlink:href="#rim2" fill="#404040">
                               <set attributeName="fill" to="#808080" begin="reset.mouseover" end="reset.mouseout"/>
                       </use>
               </g>
        </defs>

<script type="text/javascript">
var viewWidth = 1103;
var viewHeight = 525;
var sectionId = 'dynsection-5';
</script>
<script xlink:href="svgpan.js"/>
<svg id="graph" class="graph">
<g id="viewport">
<title>ce103_hw4_medical_store_app.InsiderOfTheMenu.clear</title>
<!-- Node1 -->
<g id="node1" class="node">
<title>Node1</title>
<g id="a_node1"><a xlink:title=" ">
<polygon fill="#999999" stroke="#666666" points="1095,-277.86 952,-277.86 952,-247.86 1095,-247.86 1095,-277.86"/>
<text text-anchor="start" x="960" y="-265.86" font-family="Helvetica,sans-Serif" font-size="10.00">ce103_hw4_medical_store</text>
<text text-anchor="middle" x="1023.5" y="-254.86" font-family="Helvetica,sans-Serif" font-size="10.00">_app.InsiderOfTheMenu.clear</text>
</a>
</g>
</g>
<!-- Node2 -->
<g id="node2" class="node">
<title>Node2</title>
<g id="a_node2"><a xlink:href="classce103__hw4__medical__store__app_1_1_insider_of_the_menu.html#a4e19bce8c519e748af92a2347e490ace" target="_top" xlink:title=" ">
<polygon fill="white" stroke="#666666" points="680,-509.86 501,-509.86 501,-479.86 680,-479.86 680,-509.86"/>
<text text-anchor="start" x="509" y="-497.86" font-family="Helvetica,sans-Serif" font-size="10.00">ce103_hw4_medical_store</text>
<text text-anchor="middle" x="590.5" y="-486.86" font-family="Helvetica,sans-Serif" font-size="10.00">_app.InsiderOfTheMenu.addCustomer</text>
</a>
</g>
</g>
<!-- Node1&#45;&gt;Node2 -->
<g id="edge1" class="edge">
<title>Node1&#45;&gt;Node2</title>
<path fill="none" stroke="#63b8ff" d="M1017.99,-289.39C1008.49,-336.21 981.59,-432.62 916,-475.86 841.79,-524.77 736.07,-520.69 665.69,-510.31"/>
<polygon fill="#63b8ff" stroke="#63b8ff" points="1021.43,-290.07 1019.86,-279.59 1014.55,-288.76 1021.43,-290.07"/>
</g>
<!-- Node6 -->
<g id="node6" class="node">
<title>Node6</title>
<g id="a_node6"><a xlink:href="classce103__hw4__medical__store__app_1_1_insider_of_the_menu.html#a5a985628df103b1884695c250f7638ea" target="_top" xlink:title=" ">
<polygon fill="white" stroke="#666666" points="902.5,-466.86 729.5,-466.86 729.5,-436.86 902.5,-436.86 902.5,-466.86"/>
<text text-anchor="start" x="737.5" y="-454.86" font-family="Helvetica,sans-Serif" font-size="10.00">ce103_hw4_medical_store</text>
<text text-anchor="middle" x="816" y="-443.86" font-family="Helvetica,sans-Serif" font-size="10.00">_app.InsiderOfTheMenu.addSupplier</text>
</a>
</g>
</g>
<!-- Node1&#45;&gt;Node6 -->
<g id="edge5" class="edge">
<title>Node1&#45;&gt;Node6</title>
<path fill="none" stroke="#63b8ff" d="M1012.13,-288.7C996.56,-324.22 963.78,-387.71 916,-422.86 908.57,-428.32 900.12,-432.76 891.37,-436.37"/>
<polygon fill="#63b8ff" stroke="#63b8ff" points="1015.3,-290.19 1015.98,-279.62 1008.85,-287.46 1015.3,-290.19"/>
</g>
<!-- Node7 -->
<g id="node7" class="node">
<title>Node7</title>
<g id="a_node7"><a xlink:href="classce103__hw4__medical__store__app_1_1_insider_of_the_menu.html#a3a0461cf6ef97ea7761931d922129d14" target="_top" xlink:title=" ">
<polygon fill="white" stroke="#666666" points="897,-380.86 735,-380.86 735,-350.86 897,-350.86 897,-380.86"/>
<text text-anchor="start" x="743" y="-368.86" font-family="Helvetica,sans-Serif" font-size="10.00">ce103_hw4_medical_store</text>
<text text-anchor="middle" x="816" y="-357.86" font-family="Helvetica,sans-Serif" font-size="10.00">_app.InsiderOfTheMenu.customer</text>
</a>
</g>
</g>
<!-- Node1&#45;&gt;Node7 -->
<g id="edge7" class="edge">
<title>Node1&#45;&gt;Node7</title>
<path fill="none" stroke="#63b8ff" d="M995.58,-285.23C974.91,-301.48 945.06,-322.96 916,-336.86 905.01,-342.11 892.88,-346.62 880.98,-350.41"/>
<polygon fill="#63b8ff" stroke="#63b8ff" points="997.59,-288.11 1003.22,-279.13 993.22,-282.64 997.59,-288.11"/>
</g>
<!-- Node8 -->
<g id="node8" class="node">
<title>Node8</title>
<g id="a_node8"><a xlink:href="classce103__hw4__medical__store__app_1_1_insider_of_the_menu.html#aa560a0597ff17489f751b94beddfaf9a" target="_top" xlink:title=" ">
<polygon fill="white" stroke="#666666" points="680,-423.86 501,-423.86 501,-393.86 680,-393.86 680,-423.86"/>
<text text-anchor="start" x="509" y="-411.86" font-family="Helvetica,sans-Serif" font-size="10.00">ce103_hw4_medical_store</text>
<text text-anchor="middle" x="590.5" y="-400.86" font-family="Helvetica,sans-Serif" font-size="10.00">_app.InsiderOfTheMenu.editCustomer</text>
</a>
</g>
</g>
<!-- Node1&#45;&gt;Node8 -->
<g id="edge15" class="edge">
<title>Node1&#45;&gt;Node8</title>
<path fill="none" stroke="#63b8ff" d="M1009.84,-287.86C993,-318.08 960.16,-367.66 916,-389.86 842.89,-426.6 748.49,-427.82 680.38,-421.96"/>
<polygon fill="#63b8ff" stroke="#63b8ff" points="1012.74,-289.84 1014.4,-279.38 1006.58,-286.53 1012.74,-289.84"/>
</g>
<!-- Node9 -->
<g id="node9" class="node">
<title>Node9</title>
<g id="a_node9"><a xlink:href="classce103__hw4__medical__store__app_1_1_insider_of_the_menu.html#ac0c61e30bf8522c24d43db9d7cfdccba" target="_top" xlink:title=" ">
<polygon fill="white" stroke="#666666" points="667,-337.86 514,-337.86 514,-307.86 667,-307.86 667,-337.86"/>
<text text-anchor="start" x="522" y="-325.86" font-family="Helvetica,sans-Serif" font-size="10.00">ce103_hw4_medical_store</text>
<text text-anchor="middle" x="590.5" y="-314.86" font-family="Helvetica,sans-Serif" font-size="10.00">_app.InsiderOfTheMenu.listcust</text>
</a>
</g>
</g>
<!-- Node1&#45;&gt;Node9 -->
<g id="edge18" class="edge">
<title>Node1&#45;&gt;Node9</title>
<path fill="none" stroke="#63b8ff" d="M940.37,-277.94C932.15,-279.32 923.91,-280.65 916,-281.86 831.09,-294.78 733.24,-306.75 667.38,-314.37"/>
<polygon fill="#63b8ff" stroke="#63b8ff" points="940.79,-281.42 950.06,-276.29 939.61,-274.52 940.79,-281.42"/>
</g>
<!-- Node10 -->
<g id="node10" class="node">
<title>Node10</title>
<g id="a_node10"><a xlink:href="classce103__hw4__medical__store__app_1_1_insider_of_the_menu.html#a3220a571a81455e1bacc73eaff22a3a1" target="_top" xlink:title=" ">
<polygon fill="white" stroke="#666666" points="676.5,-289.86 504.5,-289.86 504.5,-259.86 676.5,-259.86 676.5,-289.86"/>
<text text-anchor="start" x="512.5" y="-277.86" font-family="Helvetica,sans-Serif" font-size="10.00">ce103_hw4_medical_store</text>
<text text-anchor="middle" x="590.5" y="-266.86" font-family="Helvetica,sans-Serif" font-size="10.00">_app.InsiderOfTheMenu.searchsupp</text>
</a>
</g>
</g>
<!-- Node1&#45;&gt;Node10 -->
<g id="edge27" class="edge">
<title>Node1&#45;&gt;Node10</title>
<path fill="none" stroke="#63b8ff" d="M940.5,-265.17C932.22,-265.4 923.94,-265.63 916,-265.86 834.88,-268.12 742.34,-270.69 676.9,-272.5"/>
<polygon fill="#63b8ff" stroke="#63b8ff" points="940.34,-268.67 950.24,-264.9 940.14,-261.68 940.34,-268.67"/>
</g>
<!-- Node11 -->
<g id="node11" class="node">
<title>Node11</title>
<g id="a_node11"><a xlink:href="classce103__hw4__medical__store__app_1_1_insider_of_the_menu.html#aefa6b5dc1b968c81b8d10998a0981577" target="_top" xlink:title=" ">
<polygon fill="white" stroke="#666666" points="902.5,-256.86 729.5,-256.86 729.5,-226.86 902.5,-226.86 902.5,-256.86"/>
<text text-anchor="start" x="737.5" y="-244.86" font-family="Helvetica,sans-Serif" font-size="10.00">ce103_hw4_medical_store</text>
<text text-anchor="middle" x="816" y="-233.86" font-family="Helvetica,sans-Serif" font-size="10.00">_app.InsiderOfTheMenu.editSupplier</text>
</a>
</g>
</g>
<!-- Node1&#45;&gt;Node11 -->
<g id="edge16" class="edge">
<title>Node1&#45;&gt;Node11</title>
<path fill="none" stroke="#63b8ff" d="M940.51,-254.48C928.09,-253.21 915.25,-251.9 902.76,-250.62"/>
<polygon fill="#63b8ff" stroke="#63b8ff" points="939.97,-257.94 950.27,-255.47 940.68,-250.98 939.97,-257.94"/>
</g>
<!-- Node12 -->
<g id="node12" class="node">
<title>Node12</title>
<g id="a_node12"><a xlink:href="classce103__hw4__medical__store__app_1_1_insider_of_the_menu.html#ada4f93b1d40bbc169bf20e70efdda5c9" target="_top" xlink:title=" ">
<polygon fill="white" stroke="#666666" points="902.5,-208.86 729.5,-208.86 729.5,-178.86 902.5,-178.86 902.5,-208.86"/>
<text text-anchor="start" x="737.5" y="-196.86" font-family="Helvetica,sans-Serif" font-size="10.00">ce103_hw4_medical_store</text>
<text text-anchor="middle" x="816" y="-185.86" font-family="Helvetica,sans-Serif" font-size="10.00">_app.InsiderOfTheMenu.listmedicine</text>
</a>
</g>
</g>
<!-- Node1&#45;&gt;Node12 -->
<g id="edge19" class="edge">
<title>Node1&#45;&gt;Node12</title>
<path fill="none" stroke="#63b8ff" d="M979.43,-242.78C960.28,-234.34 937.29,-224.88 916,-217.86 906.68,-214.78 896.75,-211.91 886.91,-209.3"/>
<polygon fill="#63b8ff" stroke="#63b8ff" points="977.99,-245.97 988.54,-246.85 980.84,-239.58 977.99,-245.97"/>
</g>
<!-- Node13 -->
<g id="node13" class="node">
<title>Node13</title>
<g id="a_node13"><a xlink:href="classce103__hw4__medical__store__app_1_1_insider_of_the_menu.html#abbb3877121688713fb9c89334fd093b9" target="_top" xlink:title=" ">
<polygon fill="white" stroke="#666666" points="916,-160.86 716,-160.86 716,-130.86 916,-130.86 916,-160.86"/>
<text text-anchor="start" x="724" y="-148.86" font-family="Helvetica,sans-Serif" font-size="10.00">ce103_hw4_medical_store</text>
<text text-anchor="middle" x="816" y="-137.86" font-family="Helvetica,sans-Serif" font-size="10.00">_app.InsiderOfTheMenu.purchasemedicine</text>
</a>
</g>
</g>
<!-- Node1&#45;&gt;Node13 -->
<g id="edge21" class="edge">
<title>Node1&#45;&gt;Node13</title>
<path fill="none" stroke="#63b8ff" d="M1001.84,-239.25C981.93,-217.98 949.91,-187.42 916,-169.86 909.72,-166.6 902.98,-163.78 896.09,-161.33"/>
<polygon fill="#63b8ff" stroke="#63b8ff" points="999,-241.33 1008.33,-246.34 1004.16,-236.6 999,-241.33"/>
</g>
<!-- Node14 -->
<g id="node14" class="node">
<title>Node14</title>
<g id="a_node14"><a xlink:href="classce103__hw4__medical__store__app_1_1_insider_of_the_menu.html#a06e911654aeebf8dcb003c0bec404f3d" target="_top" xlink:title=" ">
<polygon fill="white" stroke="#666666" points="680,-127.86 501,-127.86 501,-97.86 680,-97.86 680,-127.86"/>
<text text-anchor="start" x="509" y="-115.86" font-family="Helvetica,sans-Serif" font-size="10.00">ce103_hw4_medical_store</text>
<text text-anchor="middle" x="590.5" y="-104.86" font-family="Helvetica,sans-Serif" font-size="10.00">_app.InsiderOfTheMenu.salemedicine</text>
</a>
</g>
</g>
<!-- Node1&#45;&gt;Node14 -->
<g id="edge23" class="edge">
<title>Node1&#45;&gt;Node14</title>
<path fill="none" stroke="#63b8ff" d="M1011.88,-237.45C996.37,-204.02 964.02,-146.6 916,-121.86 838.1,-81.71 735.11,-87.02 666.25,-97.37"/>
<polygon fill="#63b8ff" stroke="#63b8ff" points="1008.61,-238.7 1015.88,-246.41 1015,-235.85 1008.61,-238.7"/>
</g>
<!-- Node15 -->
<g id="node15" class="node">
<title>Node15</title>
<g id="a_node15"><a xlink:href="classce103__hw4__medical__store__app_1_1_insider_of_the_menu.html#afe96072316b08c7e64c0c00f4d912352" target="_top" xlink:title=" ">
<polygon fill="white" stroke="#666666" points="675.5,-79.86 505.5,-79.86 505.5,-49.86 675.5,-49.86 675.5,-79.86"/>
<text text-anchor="start" x="513.5" y="-67.86" font-family="Helvetica,sans-Serif" font-size="10.00">ce103_hw4_medical_store</text>
<text text-anchor="middle" x="590.5" y="-56.86" font-family="Helvetica,sans-Serif" font-size="10.00">_app.InsiderOfTheMenu.searchcust</text>
</a>
</g>
</g>
<!-- Node1&#45;&gt;Node15 -->
<g id="edge25" class="edge">
<title>Node1&#45;&gt;Node15</title>
<path fill="none" stroke="#63b8ff" d="M1015.31,-236.77C1002.67,-196.47 972.32,-120.14 916,-85.86 843.91,-41.97 745.35,-42.18 675.83,-49.95"/>
<polygon fill="#63b8ff" stroke="#63b8ff" points="1011.89,-237.55 1018.11,-246.13 1018.6,-235.55 1011.89,-237.55"/>
</g>
<!-- Node16 -->
<g id="node16" class="node">
<title>Node16</title>
<g id="a_node16"><a xlink:href="classce103__hw4__medical__store__app_1_1_insider_of_the_menu.html#ac76ee95213f4e41b88d57c028f610c33" target="_top" xlink:title=" ">
<polygon fill="white" stroke="#666666" points="908.5,-36.86 723.5,-36.86 723.5,-6.86 908.5,-6.86 908.5,-36.86"/>
<text text-anchor="start" x="731.5" y="-24.86" font-family="Helvetica,sans-Serif" font-size="10.00">ce103_hw4_medical_store</text>
<text text-anchor="middle" x="816" y="-13.86" font-family="Helvetica,sans-Serif" font-size="10.00">_app.InsiderOfTheMenu.stockmedicine</text>
</a>
</g>
</g>
<!-- Node1&#45;&gt;Node16 -->
<g id="edge28" class="edge">
<title>Node1&#45;&gt;Node16</title>
<path fill="none" stroke="#63b8ff" d="M1016.5,-236.27C1004.96,-191.33 975.4,-100.39 916,-50.86 909.4,-45.35 901.79,-40.89 893.79,-37.27"/>
<polygon fill="#63b8ff" stroke="#63b8ff" points="1013.09,-237.05 1018.86,-245.93 1019.88,-235.39 1013.09,-237.05"/>
</g>
<!-- Node3 -->
<g id="node3" class="node">
<title>Node3</title>
<g id="a_node3"><a xlink:href="classce103__hw4__medical__store__app_1_1_menu.html#af40268756f4be60ece4bf674210a17bb" target="_top" xlink:title=" ">
<polygon fill="white" stroke="#666666" points="465,-267.86 334,-267.86 334,-237.86 465,-237.86 465,-267.86"/>
<text text-anchor="start" x="342" y="-255.86" font-family="Helvetica,sans-Serif" font-size="10.00">ce103_hw4_medical_store</text>
<text text-anchor="middle" x="399.5" y="-244.86" font-family="Helvetica,sans-Serif" font-size="10.00">_app.Menu.performAction</text>
</a>
</g>
</g>
<!-- Node2&#45;&gt;Node3 -->
<g id="edge2" class="edge">
<title>Node2&#45;&gt;Node3</title>
<path fill="none" stroke="#63b8ff" d="M512.55,-474.27C508.44,-471.78 504.55,-468.99 501,-465.86 438.16,-410.38 411.52,-307.16 403.4,-268.24"/>
<polygon fill="#63b8ff" stroke="#63b8ff" points="510.67,-477.24 521.14,-478.85 513.96,-471.06 510.67,-477.24"/>
</g>
<!-- Node4 -->
<g id="node4" class="node">
<title>Node4</title>
<g id="a_node4"><a xlink:href="classce103__hw4__medical__store__app_1_1_menu.html#a8890452f69a3d1c94a7951344bd7515b" target="_top" xlink:title=" ">
<polygon fill="white" stroke="#666666" points="298,-267.86 167,-267.86 167,-237.86 298,-237.86 298,-267.86"/>
<text text-anchor="start" x="175" y="-255.86" font-family="Helvetica,sans-Serif" font-size="10.00">ce103_hw4_medical_store</text>
<text text-anchor="middle" x="232.5" y="-244.86" font-family="Helvetica,sans-Serif" font-size="10.00">_app.Menu.runMenu</text>
</a>
</g>
</g>
<!-- Node3&#45;&gt;Node4 -->
<g id="edge3" class="edge">
<title>Node3&#45;&gt;Node4</title>
<path fill="none" stroke="#63b8ff" d="M322.45,-252.86C314.39,-252.86 306.24,-252.86 298.32,-252.86"/>
<polygon fill="#63b8ff" stroke="#63b8ff" points="322.25,-256.36 332.25,-252.86 322.25,-249.36 322.25,-256.36"/>
</g>
<!-- Node5 -->
<g id="node5" class="node">
<title>Node5</title>
<g id="a_node5"><a xlink:href="classce103__hw4__medical__store__app_1_1_menu.html#a906bd0b055bce495d306a21e81cbec1b" target="_top" xlink:title=" ">
<polygon fill="white" stroke="#666666" points="131,-267.86 0,-267.86 0,-237.86 131,-237.86 131,-267.86"/>
<text text-anchor="start" x="8" y="-255.86" font-family="Helvetica,sans-Serif" font-size="10.00">ce103_hw4_medical_store</text>
<text text-anchor="middle" x="65.5" y="-244.86" font-family="Helvetica,sans-Serif" font-size="10.00">_app.Menu.main</text>
</a>
</g>
</g>
<!-- Node4&#45;&gt;Node5 -->
<g id="edge4" class="edge">
<title>Node4&#45;&gt;Node5</title>
<path fill="none" stroke="#63b8ff" d="M155.45,-252.86C147.39,-252.86 139.24,-252.86 131.32,-252.86"/>
<polygon fill="#63b8ff" stroke="#63b8ff" points="155.25,-256.36 165.25,-252.86 155.25,-249.36 155.25,-256.36"/>
</g>
<!-- Node6&#45;&gt;Node3 -->
<g id="edge6" class="edge">
<title>Node6&#45;&gt;Node3</title>
<path fill="none" stroke="#63b8ff" d="M717.59,-455.96C638.98,-457.46 535.93,-454.8 501,-432.86 439.63,-394.29 412.47,-304.11 403.79,-268.1"/>
<polygon fill="#63b8ff" stroke="#63b8ff" points="717.57,-459.46 727.49,-455.74 717.41,-452.46 717.57,-459.46"/>
</g>
<!-- Node7&#45;&gt;Node3 -->
<g id="edge12" class="edge">
<title>Node7&#45;&gt;Node3</title>
<path fill="none" stroke="#63b8ff" d="M723.4,-376.29C658.67,-379.92 571.28,-377.09 501,-346.86 461.5,-329.86 427.86,-290.29 411.37,-268.3"/>
<polygon fill="#63b8ff" stroke="#63b8ff" points="723.54,-379.79 733.3,-375.67 723.09,-372.8 723.54,-379.79"/>
</g>
<!-- Node7&#45;&gt;Node8 -->
<g id="edge8" class="edge">
<title>Node7&#45;&gt;Node8</title>
<path fill="none" stroke="#63b8ff" d="M723.5,-383.46C706.4,-386.75 688.65,-390.17 671.91,-393.38"/>
<polygon fill="#63b8ff" stroke="#63b8ff" points="723.98,-386.93 733.14,-381.6 722.66,-380.06 723.98,-386.93"/>
</g>
<!-- Node7&#45;&gt;Node9 -->
<g id="edge10" class="edge">
<title>Node7&#45;&gt;Node9</title>
<path fill="none" stroke="#63b8ff" d="M723.46,-348.24C704.84,-344.66 685.44,-340.93 667.43,-337.46"/>
<polygon fill="#63b8ff" stroke="#63b8ff" points="722.66,-351.65 733.14,-350.11 723.98,-344.78 722.66,-351.65"/>
</g>
<!-- Node7&#45;&gt;Node10 -->
<g id="edge13" class="edge">
<title>Node7&#45;&gt;Node10</title>
<path fill="none" stroke="#63b8ff" d="M777.76,-344.9C751.14,-330.53 714.12,-311.81 680,-298.86 671.81,-295.75 663.06,-292.87 654.36,-290.26"/>
<polygon fill="#63b8ff" stroke="#63b8ff" points="776,-347.93 786.46,-349.64 779.36,-341.78 776,-347.93"/>
</g>
<!-- Node8&#45;&gt;Node3 -->
<g id="edge9" class="edge">
<title>Node8&#45;&gt;Node3</title>
<path fill="none" stroke="#63b8ff" d="M516.73,-388.98C511.21,-386.3 505.89,-383.27 501,-379.86 457.41,-349.46 423.41,-294.72 408.59,-268.15"/>
<polygon fill="#63b8ff" stroke="#63b8ff" points="514.89,-392 525.45,-392.85 517.73,-385.6 514.89,-392"/>
</g>
<!-- Node9&#45;&gt;Node3 -->
<g id="edge11" class="edge">
<title>Node9&#45;&gt;Node3</title>
<path fill="none" stroke="#63b8ff" d="M516.68,-304.14C511.34,-302.46 506.07,-300.69 501,-298.86 476.82,-290.11 450.42,-277.92 430.74,-268.28"/>
<polygon fill="#63b8ff" stroke="#63b8ff" points="515.64,-307.49 526.23,-307.05 517.68,-300.79 515.64,-307.49"/>
</g>
<!-- Node10&#45;&gt;Node3 -->
<g id="edge14" class="edge">
<title>Node10&#45;&gt;Node3</title>
<path fill="none" stroke="#63b8ff" d="M492.81,-263.6C483.52,-262.52 474.26,-261.44 465.39,-260.41"/>
<polygon fill="#63b8ff" stroke="#63b8ff" points="492.28,-267.06 502.62,-264.74 493.09,-260.11 492.28,-267.06"/>
</g>
<!-- Node11&#45;&gt;Node3 -->
<g id="edge17" class="edge">
<title>Node11&#45;&gt;Node3</title>
<path fill="none" stroke="#63b8ff" d="M717.85,-244.43C640,-246.5 532.95,-249.34 465.24,-251.14"/>
<polygon fill="#63b8ff" stroke="#63b8ff" points="717.7,-247.94 727.6,-244.17 717.51,-240.94 717.7,-247.94"/>
</g>
<!-- Node12&#45;&gt;Node3 -->
<g id="edge20" class="edge">
<title>Node12&#45;&gt;Node3</title>
<path fill="none" stroke="#63b8ff" d="M717.85,-207.68C640,-218.76 532.95,-234 465.24,-243.64"/>
<polygon fill="#63b8ff" stroke="#63b8ff" points="718.21,-211.17 727.62,-206.29 717.22,-204.24 718.21,-211.17"/>
</g>
<!-- Node13&#45;&gt;Node3 -->
<g id="edge22" class="edge">
<title>Node13&#45;&gt;Node3</title>
<path fill="none" stroke="#63b8ff" d="M704.59,-162.7C643.77,-173.39 567.37,-189.13 501,-209.86 477.27,-217.27 451.51,-228.35 432.01,-237.41"/>
<polygon fill="#63b8ff" stroke="#63b8ff" points="705.01,-166.18 714.27,-161.03 703.81,-159.28 705.01,-166.18"/>
</g>
<!-- Node14&#45;&gt;Node3 -->
<g id="edge24" class="edge">
<title>Node14&#45;&gt;Node3</title>
<path fill="none" stroke="#63b8ff" d="M517.54,-132.82C511.76,-135.5 506.17,-138.5 501,-141.86 460.88,-167.9 426.51,-213.85 410.36,-237.63"/>
<polygon fill="#63b8ff" stroke="#63b8ff" points="518.85,-136.07 526.69,-128.94 516.11,-129.63 518.85,-136.07"/>
</g>
<!-- Node15&#45;&gt;Node3 -->
<g id="edge26" class="edge">
<title>Node15&#45;&gt;Node3</title>
<path fill="none" stroke="#63b8ff" d="M505.74,-85.57C504.12,-86.61 502.53,-87.71 501,-88.86 448.08,-128.5 416.9,-204.92 405.49,-237.52"/>
<polygon fill="#63b8ff" stroke="#63b8ff" points="507.12,-88.81 514.16,-80.9 503.72,-82.7 507.12,-88.81"/>
</g>
<!-- Node16&#45;&gt;Node3 -->
<g id="edge29" class="edge">
<title>Node16&#45;&gt;Node3</title>
<path fill="none" stroke="#63b8ff" d="M729.29,-4.86C661.56,3.69 567.65,4.19 501,-40.86 431.31,-87.95 408.66,-197.01 402.5,-237.42"/>
<polygon fill="#63b8ff" stroke="#63b8ff" points="728.47,-8.28 738.85,-6.15 729.41,-1.34 728.47,-8.28"/>
</g>
</g>
</svg>
        <g id="navigator" transform="translate(0 0)" fill="#404254">
                <rect fill="#f2f5e9" fill-opacity="0.5" stroke="#606060" stroke-width=".5" x="0" y="0" width="60" height="60"/>
                <use id="zoomplus" xlink:href="#zoomPlus" x="17" y="9" onmousedown="handleZoom(evt,'in')"/>
                <use id="zoomminus" xlink:href="#zoomMin" x="42" y="9" onmousedown="handleZoom(evt,'out')"/>
                <use id="reset" xlink:href="#resetDef" x="30" y="36" onmousedown="handleReset()"/>
                <g id="arrowUp" xlink:href="#dirArrow" transform="translate(30 24)" onmousedown="handlePan(0,-1)">
                  <use xlink:href="#rim" fill="#404040">
                        <set attributeName="fill" to="#808080" begin="arrowUp.mouseover" end="arrowUp.mouseout"/>
                  </use>
                  <path fill="none" stroke="white" stroke-width="1.5" d="M0,-3.0v7 M-2.5,-0.5L0,-3.0L2.5,-0.5"/>
                </g>
                <g id="arrowRight" xlink:href="#dirArrow" transform="rotate(90) translate(36 -43)" onmousedown="handlePan(1,0)">
                  <use xlink:href="#rim" fill="#404040">
                        <set attributeName="fill" to="#808080" begin="arrowRight.mouseover" end="arrowRight.mouseout"/>
                  </use>
                  <path fill="none" stroke="white" stroke-width="1.5" d="M0,-3.0v7 M-2.5,-0.5L0,-3.0L2.5,-0.5"/>
                </g>
                <g id="arrowDown" xlink:href="#dirArrow" transform="rotate(180) translate(-30 -48)" onmousedown="handlePan(0,1)">
                  <use xlink:href="#rim" fill="#404040">
                        <set attributeName="fill" to="#808080" begin="arrowDown.mouseover" end="arrowDown.mouseout"/>
                  </use>
                  <path fill="none" stroke="white" stroke-width="1.5" d="M0,-3.0v7 M-2.5,-0.5L0,-3.0L2.5,-0.5"/>
                </g>
                <g id="arrowLeft" xlink:href="#dirArrow" transform="rotate(270) translate(-36 17)" onmousedown="handlePan(-1,0)">
                  <use xlink:href="#rim" fill="#404040">
                        <set attributeName="fill" to="#808080" begin="arrowLeft.mouseover" end="arrowLeft.mouseout"/>
                  </use>
                  <path fill="none" stroke="white" stroke-width="1.5" d="M0,-3.0v7 M-2.5,-0.5L0,-3.0L2.5,-0.5"/>
                </g>
        </g>
        <svg viewBox="0 0 15 15" width="100%" height="30px" preserveAspectRatio="xMaxYMin meet">
         <g id="arrow_out" transform="scale(0.3 0.3)">
          <a xlink:href="classce103__hw4__medical__store__app_1_1_insider_of_the_menu_a0409ee76fc4d80aea880c4c9702271df_icgraph_org.svg" target="_base">
           <rect id="button" ry="5" rx="5" y="6" x="6" height="38" width="38"
                fill="#f2f5e9" fill-opacity="0.5" stroke="#606060" stroke-width="1.0"/>
           <path id="arrow"
             d="M 11.500037,31.436501 C 11.940474,20.09759 22.043105,11.32322 32.158766,21.979434 L 37.068811,17.246167 C 37.068811,17.246167 37.088388,32 37.088388,32 L 22.160133,31.978069 C 22.160133,31.978069 26.997745,27.140456 26.997745,27.140456 C 18.528582,18.264221 13.291696,25.230495 11.500037,31.436501 z"
             style="fill:#404040;"/>
          </a>
         </g>
        </svg>
</svg>
