<?xml version="1.0" encoding="UTF-8" standalone="no"?>
<!DOCTYPE svg PUBLIC "-//W3C//DTD SVG 1.1//EN"
 "http://www.w3.org/Graphics/SVG/1.1/DTD/svg11.dtd">
<!-- Generated by graphviz version 7.0.4 (20221203.1631)
 -->
<!-- Title: ce103_hw4_medical_store_app.InsiderOfTheMenu.editSupplier Pages: 1 -->
<!--zoomable 547 -->
<svg id="main" version="1.1" xmlns="http://www.w3.org/2000/svg" xmlns:xlink="http://www.w3.org/1999/xlink" xml:space="preserve" onload="init(evt)">
<style type="text/css"><![CDATA[
.edge:hover path { stroke: red; }
.edge:hover polygon { stroke: red; fill: red; }
]]></style>
<script type="text/javascript"><![CDATA[
var edges = document.getElementsByTagName('g');
if (edges && edges.length) {
  for (var i=0;i<edges.length;i++) {
    if (edges[i].id.substr(0,4)=='edge') {
      edges[i].setAttribute('class','edge');
    }
  }
}
]]></script>
        <defs>
                <circle id="rim" cx="0" cy="0" r="7"/>
                <circle id="rim2" cx="0" cy="0" r="3.5"/>
                <g id="zoomPlus">
                        <use xlink:href="#rim" fill="#404040">
                                <set attributeName="fill" to="#808080" begin="zoomplus.mouseover" end="zoomplus.mouseout"/>
                        </use>
                        <path d="M-4,0h8M0,-4v8" fill="none" stroke="white" stroke-width="1.5" pointer-events="none"/>
                </g>
                <g id="zoomMin">
                        <use xlink:href="#rim" fill="#404040">
                                <set attributeName="fill" to="#808080" begin="zoomminus.mouseover" end="zoomminus.mouseout"/>
                        </use>
                        <path d="M-4,0h8" fill="none" stroke="white" stroke-width="1.5" pointer-events="none"/>
                </g>
                <g id="dirArrow">
                        <path fill="none" stroke="white" stroke-width="1.5" d="M0,-3.0v7 M-2.5,-0.5L0,-3.0L2.5,-0.5"/>
                </g>
               <g id="resetDef">
                       <use xlink:href="#rim2" fill="#404040">
                               <set attributeName="fill" to="#808080" begin="reset.mouseover" end="reset.mouseout"/>
                       </use>
               </g>
        </defs>

<script type="text/javascript">
var viewWidth = 561;
var viewHeight = 547;
var sectionId = 'dynsection-10';
</script>
<script xlink:href="svgpan.js"/>
<svg id="graph" class="graph">
<g id="viewport">
<title>ce103_hw4_medical_store_app.InsiderOfTheMenu.editSupplier</title>
<!-- Node1 -->
<g id="node1" class="node">
<title>Node1</title>
<g id="a_node1"><a xlink:title=" ">
<polygon fill="#999999" stroke="#666666" points="173,-346.5 0,-346.5 0,-316.5 173,-316.5 173,-346.5"/>
<text text-anchor="start" x="8" y="-334.5" font-family="Helvetica,sans-Serif" font-size="10.00">ce103_hw4_medical_store</text>
<text text-anchor="middle" x="86.5" y="-323.5" font-family="Helvetica,sans-Serif" font-size="10.00">_app.InsiderOfTheMenu.editSupplier</text>
</a>
</g>
</g>
<!-- Node2 -->
<g id="node2" class="node">
<title>Node2</title>
<g id="a_node2"><a xlink:href="classce103__hw4__medical__store__app_1_1_insider_of_the_menu.html#a0409ee76fc4d80aea880c4c9702271df" target="_top" xlink:title=" ">
<polygon fill="white" stroke="#666666" points="362.5,-538.5 219.5,-538.5 219.5,-508.5 362.5,-508.5 362.5,-538.5"/>
<text text-anchor="start" x="227.5" y="-526.5" font-family="Helvetica,sans-Serif" font-size="10.00">ce103_hw4_medical_store</text>
<text text-anchor="middle" x="291" y="-515.5" font-family="Helvetica,sans-Serif" font-size="10.00">_app.InsiderOfTheMenu.clear</text>
</a>
</g>
</g>
<!-- Node1&#45;&gt;Node2 -->
<g id="edge1" class="edge">
<title>Node1&#45;&gt;Node2</title>
<path fill="none" stroke="#63b8ff" d="M94.2,-346.62C109.55,-379.54 150.55,-458.09 209,-499.5 210.6,-500.64 212.26,-501.72 213.97,-502.75"/>
<polygon fill="#63b8ff" stroke="#63b8ff" points="212.31,-505.84 222.79,-507.42 215.59,-499.65 212.31,-505.84"/>
</g>
<!-- Node3 -->
<g id="node3" class="node">
<title>Node3</title>
<g id="a_node3"><a xlink:href="classce103__hw4__medical__store__app_1_1_insider_of_the_menu.html#aa208466ba46c8f7d58d2f2e970d23545" target="_top" xlink:title=" ">
<polygon fill="white" stroke="#666666" points="373,-490.5 209,-490.5 209,-460.5 373,-460.5 373,-490.5"/>
<text text-anchor="start" x="217" y="-478.5" font-family="Helvetica,sans-Serif" font-size="10.00">ce103_hw4_medical_store</text>
<text text-anchor="middle" x="291" y="-467.5" font-family="Helvetica,sans-Serif" font-size="10.00">_app.InsiderOfTheMenu.main_box</text>
</a>
</g>
</g>
<!-- Node1&#45;&gt;Node3 -->
<g id="edge2" class="edge">
<title>Node1&#45;&gt;Node3</title>
<path fill="none" stroke="#63b8ff" d="M98.82,-346.81C118.44,-372.27 161.27,-423.3 209,-451.5 211.43,-452.94 213.95,-454.29 216.54,-455.57"/>
<polygon fill="#63b8ff" stroke="#63b8ff" points="214.85,-458.65 225.4,-459.52 217.69,-452.25 214.85,-458.65"/>
</g>
<!-- Node4 -->
<g id="node4" class="node">
<title>Node4</title>
<g id="a_node4"><a xlink:href="classce103__hw4__medical__store__lib_1_1_supplier.html#a63e69b6765041b2217c0411560f543d4" target="_top" xlink:title=" ">
<polygon fill="white" stroke="#666666" points="356.5,-442.5 225.5,-442.5 225.5,-412.5 356.5,-412.5 356.5,-442.5"/>
<text text-anchor="start" x="233.5" y="-430.5" font-family="Helvetica,sans-Serif" font-size="10.00">ce103_hw4_medical_store</text>
<text text-anchor="middle" x="291" y="-419.5" font-family="Helvetica,sans-Serif" font-size="10.00">_lib.Supplier.setCity</text>
</a>
</g>
</g>
<!-- Node1&#45;&gt;Node4 -->
<g id="edge3" class="edge">
<title>Node1&#45;&gt;Node4</title>
<path fill="none" stroke="#63b8ff" d="M109.45,-346.77C133.13,-362.7 172.37,-387.51 209,-403.5 212.78,-405.15 216.72,-406.73 220.72,-408.23"/>
<polygon fill="#63b8ff" stroke="#63b8ff" points="219.4,-411.48 229.99,-411.52 221.74,-404.88 219.4,-411.48"/>
</g>
<!-- Node5 -->
<g id="node5" class="node">
<title>Node5</title>
<g id="a_node5"><a xlink:href="classce103__hw4__medical__store__lib_1_1_supplier.html#aa287ef6ae91ce808df837776ddb76c19" target="_top" xlink:title=" ">
<polygon fill="white" stroke="#666666" points="357,-394.5 225,-394.5 225,-364.5 357,-364.5 357,-394.5"/>
<text text-anchor="start" x="233" y="-382.5" font-family="Helvetica,sans-Serif" font-size="10.00">ce103_hw4_medical_store</text>
<text text-anchor="middle" x="291" y="-371.5" font-family="Helvetica,sans-Serif" font-size="10.00">_lib.Supplier.setContactNo</text>
</a>
</g>
</g>
<!-- Node1&#45;&gt;Node5 -->
<g id="edge4" class="edge">
<title>Node1&#45;&gt;Node5</title>
<path fill="none" stroke="#63b8ff" d="M152.69,-346.95C172.2,-351.58 193.76,-356.69 213.91,-361.46"/>
<polygon fill="#63b8ff" stroke="#63b8ff" points="212.92,-364.83 223.46,-363.73 214.54,-358.02 212.92,-364.83"/>
</g>
<!-- Node6 -->
<g id="node6" class="node">
<title>Node6</title>
<g id="a_node6"><a xlink:href="classce103__hw4__medical__store__lib_1_1_supplier.html#ad1b1647cc905e9c92aad10a6a2bf244a" target="_top" xlink:title=" ">
<polygon fill="white" stroke="#666666" points="356.5,-346.5 225.5,-346.5 225.5,-316.5 356.5,-316.5 356.5,-346.5"/>
<text text-anchor="start" x="233.5" y="-334.5" font-family="Helvetica,sans-Serif" font-size="10.00">ce103_hw4_medical_store</text>
<text text-anchor="middle" x="291" y="-323.5" font-family="Helvetica,sans-Serif" font-size="10.00">_lib.Supplier.setemailID</text>
</a>
</g>
</g>
<!-- Node1&#45;&gt;Node6 -->
<g id="edge5" class="edge">
<title>Node1&#45;&gt;Node6</title>
<path fill="none" stroke="#63b8ff" d="M173.38,-331.5C186.8,-331.5 200.59,-331.5 213.78,-331.5"/>
<polygon fill="#63b8ff" stroke="#63b8ff" points="213.68,-335 223.68,-331.5 213.68,-328 213.68,-335"/>
</g>
<!-- Node7 -->
<g id="node7" class="node">
<title>Node7</title>
<g id="a_node7"><a xlink:href="classce103__hw4__medical__store__lib_1_1_supplier.html#a447efde29cb96c324429232d65f41e52" target="_top" xlink:title=" ">
<polygon fill="white" stroke="#666666" points="356.5,-298.5 225.5,-298.5 225.5,-268.5 356.5,-268.5 356.5,-298.5"/>
<text text-anchor="start" x="233.5" y="-286.5" font-family="Helvetica,sans-Serif" font-size="10.00">ce103_hw4_medical_store</text>
<text text-anchor="middle" x="291" y="-275.5" font-family="Helvetica,sans-Serif" font-size="10.00">_lib.Supplier.setsupplierId</text>
</a>
</g>
</g>
<!-- Node1&#45;&gt;Node7 -->
<g id="edge6" class="edge">
<title>Node1&#45;&gt;Node7</title>
<path fill="none" stroke="#63b8ff" d="M152.69,-316.05C172.3,-311.4 193.98,-306.26 214.21,-301.46"/>
<polygon fill="#63b8ff" stroke="#63b8ff" points="214.89,-304.9 223.81,-299.19 213.27,-298.09 214.89,-304.9"/>
</g>
<!-- Node8 -->
<g id="node8" class="node">
<title>Node8</title>
<g id="a_node8"><a xlink:href="classce103__hw4__medical__store__lib_1_1_supplier.html#a673179f4d8714ef18b4053fe3b75a0a4" target="_top" xlink:title=" ">
<polygon fill="white" stroke="#666666" points="363,-250.5 219,-250.5 219,-220.5 363,-220.5 363,-250.5"/>
<text text-anchor="start" x="227" y="-238.5" font-family="Helvetica,sans-Serif" font-size="10.00">ce103_hw4_medical_store</text>
<text text-anchor="middle" x="291" y="-227.5" font-family="Helvetica,sans-Serif" font-size="10.00">_lib.Supplier.setsuppliername</text>
</a>
</g>
</g>
<!-- Node1&#45;&gt;Node8 -->
<g id="edge7" class="edge">
<title>Node1&#45;&gt;Node8</title>
<path fill="none" stroke="#63b8ff" d="M109.45,-316.23C133.13,-300.3 172.37,-275.49 209,-259.5 212.78,-257.85 216.72,-256.27 220.72,-254.77"/>
<polygon fill="#63b8ff" stroke="#63b8ff" points="221.74,-258.12 229.99,-251.48 219.4,-251.52 221.74,-258.12"/>
</g>
<!-- Node9 -->
<g id="node9" class="node">
<title>Node9</title>
<g id="a_node9"><a xlink:href="classce103__hw4__medical__store__lib_1_1_supplier.html#afba177fb9d808aa5157203709401032e" target="_top" xlink:title=" ">
<polygon fill="white" stroke="#666666" points="359.5,-202 222.5,-202 222.5,-161 359.5,-161 359.5,-202"/>
<text text-anchor="start" x="230.5" y="-190" font-family="Helvetica,sans-Serif" font-size="10.00">ce103_hw4_medical_store</text>
<text text-anchor="start" x="230.5" y="-179" font-family="Helvetica,sans-Serif" font-size="10.00">_lib.Supplier.supplierToByte</text>
<text text-anchor="middle" x="291" y="-168" font-family="Helvetica,sans-Serif" font-size="10.00">ArrayBlock</text>
</a>
</g>
</g>
<!-- Node1&#45;&gt;Node9 -->
<g id="edge8" class="edge">
<title>Node1&#45;&gt;Node9</title>
<path fill="none" stroke="#63b8ff" d="M99.35,-316.13C119.42,-291.04 162.48,-241.12 209,-211.5 211.11,-210.16 213.28,-208.86 215.51,-207.62"/>
<polygon fill="#63b8ff" stroke="#63b8ff" points="216.91,-210.83 224.2,-203.14 213.7,-204.61 216.91,-210.83"/>
</g>
<!-- Node17 -->
<g id="node17" class="node">
<title>Node17</title>
<g id="a_node17"><a xlink:href="classce103__hw4__medical__store__lib_1_1_file_utility.html#a6cde8a0c6ed240ea85b864754d566f1b" target="_top" xlink:title=" ">
<polygon fill="white" stroke="#666666" points="357,-142.5 225,-142.5 225,-112.5 357,-112.5 357,-142.5"/>
<text text-anchor="start" x="233" y="-130.5" font-family="Helvetica,sans-Serif" font-size="10.00">ce103_hw4_medical_store</text>
<text text-anchor="middle" x="291" y="-119.5" font-family="Helvetica,sans-Serif" font-size="10.00">_lib.FileUtility.updateBlock</text>
</a>
</g>
</g>
<!-- Node1&#45;&gt;Node17 -->
<g id="edge16" class="edge">
<title>Node1&#45;&gt;Node17</title>
<path fill="none" stroke="#63b8ff" d="M93.62,-316.22C108.22,-281.72 148.46,-197.29 209,-152.5 211.02,-151.01 213.13,-149.6 215.31,-148.28"/>
<polygon fill="#63b8ff" stroke="#63b8ff" points="216.72,-151.49 223.91,-143.71 213.43,-145.31 216.72,-151.49"/>
</g>
<!-- Node10 -->
<g id="node10" class="node">
<title>Node10</title>
<g id="a_node10"><a xlink:href="classce103__hw4__medical__store__lib_1_1_supplier.html#a735a56c6c0308a2f0ee870075f7bc320" target="_top" xlink:title=" ">
<polygon fill="white" stroke="#666666" points="546.5,-340.5 415.5,-340.5 415.5,-310.5 546.5,-310.5 546.5,-340.5"/>
<text text-anchor="start" x="423.5" y="-328.5" font-family="Helvetica,sans-Serif" font-size="10.00">ce103_hw4_medical_store</text>
<text text-anchor="middle" x="481" y="-317.5" font-family="Helvetica,sans-Serif" font-size="10.00">_lib.Supplier.getCity</text>
</a>
</g>
</g>
<!-- Node9&#45;&gt;Node10 -->
<g id="edge9" class="edge">
<title>Node9&#45;&gt;Node10</title>
<path fill="none" stroke="#63b8ff" d="M359.69,-201.3C364.51,-204.25 369.03,-207.63 373,-211.5 403.85,-241.57 377.72,-271.88 409,-301.5 409.76,-302.22 410.55,-302.93 411.36,-303.61"/>
<polygon fill="#63b8ff" stroke="#63b8ff" points="409.25,-306.4 419.45,-309.26 413.26,-300.67 409.25,-306.4"/>
</g>
<!-- Node11 -->
<g id="node11" class="node">
<title>Node11</title>
<g id="a_node11"><a xlink:href="classce103__hw4__medical__store__lib_1_1_supplier.html#af1622d0e0af60af6763a2283e987b4a2" target="_top" xlink:title=" ">
<polygon fill="white" stroke="#666666" points="547,-292.5 415,-292.5 415,-262.5 547,-262.5 547,-292.5"/>
<text text-anchor="start" x="423" y="-280.5" font-family="Helvetica,sans-Serif" font-size="10.00">ce103_hw4_medical_store</text>
<text text-anchor="middle" x="481" y="-269.5" font-family="Helvetica,sans-Serif" font-size="10.00">_lib.Supplier.getContactNo</text>
</a>
</g>
</g>
<!-- Node9&#45;&gt;Node11 -->
<g id="edge10" class="edge">
<title>Node9&#45;&gt;Node11</title>
<path fill="none" stroke="#63b8ff" d="M357.59,-202.42C362.98,-205.14 368.2,-208.16 373,-211.5 393.17,-225.55 388.63,-239.74 409,-253.5 410.82,-254.73 412.71,-255.9 414.65,-257.02"/>
<polygon fill="#63b8ff" stroke="#63b8ff" points="412.85,-260.03 423.35,-261.46 416.03,-253.79 412.85,-260.03"/>
</g>
<!-- Node12 -->
<g id="node12" class="node">
<title>Node12</title>
<g id="a_node12"><a xlink:href="classce103__hw4__medical__store__lib_1_1_supplier.html#a99a20bfe60b8ce74d349418a92f0c660" target="_top" xlink:title=" ">
<polygon fill="white" stroke="#666666" points="546.5,-244.5 415.5,-244.5 415.5,-214.5 546.5,-214.5 546.5,-244.5"/>
<text text-anchor="start" x="423.5" y="-232.5" font-family="Helvetica,sans-Serif" font-size="10.00">ce103_hw4_medical_store</text>
<text text-anchor="middle" x="481" y="-221.5" font-family="Helvetica,sans-Serif" font-size="10.00">_lib.Supplier.getemailID</text>
</a>
</g>
</g>
<!-- Node9&#45;&gt;Node12 -->
<g id="edge11" class="edge">
<title>Node9&#45;&gt;Node12</title>
<path fill="none" stroke="#63b8ff" d="M359.87,-198.83C375.68,-202.87 392.56,-207.18 408.52,-211.25"/>
<polygon fill="#63b8ff" stroke="#63b8ff" points="407.38,-214.57 417.93,-213.65 409.11,-207.79 407.38,-214.57"/>
</g>
<!-- Node13 -->
<g id="node13" class="node">
<title>Node13</title>
<g id="a_node13"><a xlink:href="classce103__hw4__medical__store__lib_1_1_supplier.html#a37b7283600f4fa52dec2d2e686e99899" target="_top" xlink:title=" ">
<polygon fill="white" stroke="#666666" points="546.5,-196.5 415.5,-196.5 415.5,-166.5 546.5,-166.5 546.5,-196.5"/>
<text text-anchor="start" x="423.5" y="-184.5" font-family="Helvetica,sans-Serif" font-size="10.00">ce103_hw4_medical_store</text>
<text text-anchor="middle" x="481" y="-173.5" font-family="Helvetica,sans-Serif" font-size="10.00">_lib.Supplier.getsupplierId</text>
</a>
</g>
</g>
<!-- Node9&#45;&gt;Node13 -->
<g id="edge12" class="edge">
<title>Node9&#45;&gt;Node13</title>
<path fill="none" stroke="#63b8ff" d="M359.87,-181.5C374.06,-181.5 389.12,-181.5 403.6,-181.5"/>
<polygon fill="#63b8ff" stroke="#63b8ff" points="403.54,-185 413.54,-181.5 403.54,-178 403.54,-185"/>
</g>
<!-- Node14 -->
<g id="node14" class="node">
<title>Node14</title>
<g id="a_node14"><a xlink:href="classce103__hw4__medical__store__lib_1_1_supplier.html#adb3937b10b3159b30c99ebbfc69889cc" target="_top" xlink:title=" ">
<polygon fill="white" stroke="#666666" points="553,-148.5 409,-148.5 409,-118.5 553,-118.5 553,-148.5"/>
<text text-anchor="start" x="417" y="-136.5" font-family="Helvetica,sans-Serif" font-size="10.00">ce103_hw4_medical_store</text>
<text text-anchor="middle" x="481" y="-125.5" font-family="Helvetica,sans-Serif" font-size="10.00">_lib.Supplier.getsuppliername</text>
</a>
</g>
</g>
<!-- Node9&#45;&gt;Node14 -->
<g id="edge13" class="edge">
<title>Node9&#45;&gt;Node14</title>
<path fill="none" stroke="#63b8ff" d="M359.87,-164.17C375.68,-160.13 392.56,-155.82 408.52,-151.75"/>
<polygon fill="#63b8ff" stroke="#63b8ff" points="409.11,-155.21 417.93,-149.35 407.38,-148.43 409.11,-155.21"/>
</g>
<!-- Node15 -->
<g id="node15" class="node">
<title>Node15</title>
<g id="a_node15"><a xlink:href="classce103__hw4__medical__store__lib_1_1_conversion_utility.html#a8e0f93579075d0a1b0800e05bbcd66af" target="_top" xlink:title=" ">
<polygon fill="white" stroke="#666666" points="550.5,-100 411.5,-100 411.5,-59 550.5,-59 550.5,-100"/>
<text text-anchor="start" x="419.5" y="-88" font-family="Helvetica,sans-Serif" font-size="10.00">ce103_hw4_medical_store</text>
<text text-anchor="start" x="419.5" y="-77" font-family="Helvetica,sans-Serif" font-size="10.00">_lib.ConversionUtility.integer</text>
<text text-anchor="middle" x="481" y="-66" font-family="Helvetica,sans-Serif" font-size="10.00">ToByteArray</text>
</a>
</g>
</g>
<!-- Node9&#45;&gt;Node15 -->
<g id="edge14" class="edge">
<title>Node9&#45;&gt;Node15</title>
<path fill="none" stroke="#63b8ff" d="M357.59,-160.58C362.98,-157.86 368.2,-154.84 373,-151.5 393.17,-137.45 389.15,-124 409,-109.5 410.56,-108.36 412.17,-107.25 413.82,-106.18"/>
<polygon fill="#63b8ff" stroke="#63b8ff" points="415.49,-109.26 422.32,-101.16 411.93,-103.23 415.49,-109.26"/>
</g>
<!-- Node16 -->
<g id="node16" class="node">
<title>Node16</title>
<g id="a_node16"><a xlink:href="classce103__hw4__medical__store__lib_1_1_conversion_utility.html#ab0ff4b89697d8bd6cc3b3a1141a86e3d" target="_top" xlink:title=" ">
<polygon fill="white" stroke="#666666" points="548,-41 414,-41 414,0 548,0 548,-41"/>
<text text-anchor="start" x="422" y="-29" font-family="Helvetica,sans-Serif" font-size="10.00">ce103_hw4_medical_store</text>
<text text-anchor="start" x="422" y="-18" font-family="Helvetica,sans-Serif" font-size="10.00">_lib.ConversionUtility.string</text>
<text text-anchor="middle" x="481" y="-7" font-family="Helvetica,sans-Serif" font-size="10.00">ToByteArray</text>
</a>
</g>
</g>
<!-- Node9&#45;&gt;Node16 -->
<g id="edge15" class="edge">
<title>Node9&#45;&gt;Node16</title>
<path fill="none" stroke="#63b8ff" d="M359.85,-161.87C364.64,-158.88 369.1,-155.45 373,-151.5 406.49,-117.6 376.28,-85.15 409,-50.5 409.7,-49.76 410.43,-49.03 411.17,-48.32"/>
<polygon fill="#63b8ff" stroke="#63b8ff" points="413.04,-51.31 418.63,-42.31 408.65,-45.86 413.04,-51.31"/>
</g>
</g>
</svg>
        <g id="navigator" transform="translate(0 0)" fill="#404254">
                <rect fill="#f2f5e9" fill-opacity="0.5" stroke="#606060" stroke-width=".5" x="0" y="0" width="60" height="60"/>
                <use id="zoomplus" xlink:href="#zoomPlus" x="17" y="9" onmousedown="handleZoom(evt,'in')"/>
                <use id="zoomminus" xlink:href="#zoomMin" x="42" y="9" onmousedown="handleZoom(evt,'out')"/>
                <use id="reset" xlink:href="#resetDef" x="30" y="36" onmousedown="handleReset()"/>
                <g id="arrowUp" xlink:href="#dirArrow" transform="translate(30 24)" onmousedown="handlePan(0,-1)">
                  <use xlink:href="#rim" fill="#404040">
                        <set attributeName="fill" to="#808080" begin="arrowUp.mouseover" end="arrowUp.mouseout"/>
                  </use>
                  <path fill="none" stroke="white" stroke-width="1.5" d="M0,-3.0v7 M-2.5,-0.5L0,-3.0L2.5,-0.5"/>
                </g>
                <g id="arrowRight" xlink:href="#dirArrow" transform="rotate(90) translate(36 -43)" onmousedown="handlePan(1,0)">
                  <use xlink:href="#rim" fill="#404040">
                        <set attributeName="fill" to="#808080" begin="arrowRight.mouseover" end="arrowRight.mouseout"/>
                  </use>
                  <path fill="none" stroke="white" stroke-width="1.5" d="M0,-3.0v7 M-2.5,-0.5L0,-3.0L2.5,-0.5"/>
                </g>
                <g id="arrowDown" xlink:href="#dirArrow" transform="rotate(180) translate(-30 -48)" onmousedown="handlePan(0,1)">
                  <use xlink:href="#rim" fill="#404040">
                        <set attributeName="fill" to="#808080" begin="arrowDown.mouseover" end="arrowDown.mouseout"/>
                  </use>
                  <path fill="none" stroke="white" stroke-width="1.5" d="M0,-3.0v7 M-2.5,-0.5L0,-3.0L2.5,-0.5"/>
                </g>
                <g id="arrowLeft" xlink:href="#dirArrow" transform="rotate(270) translate(-36 17)" onmousedown="handlePan(-1,0)">
                  <use xlink:href="#rim" fill="#404040">
                        <set attributeName="fill" to="#808080" begin="arrowLeft.mouseover" end="arrowLeft.mouseout"/>
                  </use>
                  <path fill="none" stroke="white" stroke-width="1.5" d="M0,-3.0v7 M-2.5,-0.5L0,-3.0L2.5,-0.5"/>
                </g>
        </g>
        <svg viewBox="0 0 15 15" width="100%" height="30px" preserveAspectRatio="xMaxYMin meet">
         <g id="arrow_out" transform="scale(0.3 0.3)">
          <a xlink:href="classce103__hw4__medical__store__app_1_1_insider_of_the_menu_aefa6b5dc1b968c81b8d10998a0981577_cgraph_org.svg" target="_base">
           <rect id="button" ry="5" rx="5" y="6" x="6" height="38" width="38"
                fill="#f2f5e9" fill-opacity="0.5" stroke="#606060" stroke-width="1.0"/>
           <path id="arrow"
             d="M 11.500037,31.436501 C 11.940474,20.09759 22.043105,11.32322 32.158766,21.979434 L 37.068811,17.246167 C 37.068811,17.246167 37.088388,32 37.088388,32 L 22.160133,31.978069 C 22.160133,31.978069 26.997745,27.140456 26.997745,27.140456 C 18.528582,18.264221 13.291696,25.230495 11.500037,31.436501 z"
             style="fill:#404040;"/>
          </a>
         </g>
        </svg>
</svg>
