<?xml version="1.0" encoding="UTF-8" standalone="no"?>
<!DOCTYPE svg PUBLIC "-//W3C//DTD SVG 1.1//EN"
 "http://www.w3.org/Graphics/SVG/1.1/DTD/svg11.dtd">
<!-- Generated by graphviz version 7.0.4 (20221203.1631)
 -->
<!-- Title: ce103_hw4_medical_store_app.InsiderOfTheMenu.stockmedicine Pages: 1 -->
<!--zoomable 715 -->
<svg id="main" version="1.1" xmlns="http://www.w3.org/2000/svg" xmlns:xlink="http://www.w3.org/1999/xlink" xml:space="preserve" onload="init(evt)">
<style type="text/css"><![CDATA[
.edge:hover path { stroke: red; }
.edge:hover polygon { stroke: red; fill: red; }
]]></style>
<script type="text/javascript"><![CDATA[
var edges = document.getElementsByTagName('g');
if (edges && edges.length) {
  for (var i=0;i<edges.length;i++) {
    if (edges[i].id.substr(0,4)=='edge') {
      edges[i].setAttribute('class','edge');
    }
  }
}
]]></script>
        <defs>
                <circle id="rim" cx="0" cy="0" r="7"/>
                <circle id="rim2" cx="0" cy="0" r="3.5"/>
                <g id="zoomPlus">
                        <use xlink:href="#rim" fill="#404040">
                                <set attributeName="fill" to="#808080" begin="zoomplus.mouseover" end="zoomplus.mouseout"/>
                        </use>
                        <path d="M-4,0h8M0,-4v8" fill="none" stroke="white" stroke-width="1.5" pointer-events="none"/>
                </g>
                <g id="zoomMin">
                        <use xlink:href="#rim" fill="#404040">
                                <set attributeName="fill" to="#808080" begin="zoomminus.mouseover" end="zoomminus.mouseout"/>
                        </use>
                        <path d="M-4,0h8" fill="none" stroke="white" stroke-width="1.5" pointer-events="none"/>
                </g>
                <g id="dirArrow">
                        <path fill="none" stroke="white" stroke-width="1.5" d="M0,-3.0v7 M-2.5,-0.5L0,-3.0L2.5,-0.5"/>
                </g>
               <g id="resetDef">
                       <use xlink:href="#rim2" fill="#404040">
                               <set attributeName="fill" to="#808080" begin="reset.mouseover" end="reset.mouseout"/>
                       </use>
               </g>
        </defs>

<script type="text/javascript">
var viewWidth = 584;
var viewHeight = 715;
var sectionId = 'dynsection-35';
</script>
<script xlink:href="svgpan.js"/>
<svg id="graph" class="graph">
<g id="viewport">
<title>ce103_hw4_medical_store_app.InsiderOfTheMenu.stockmedicine</title>
<!-- Node1 -->
<g id="node1" class="node">
<title>Node1</title>
<g id="a_node1"><a xlink:title=" ">
<polygon fill="#999999" stroke="#666666" points="185,-222 0,-222 0,-192 185,-192 185,-222"/>
<text text-anchor="start" x="8" y="-210" font-family="Helvetica,sans-Serif" font-size="10.00">ce103_hw4_medical_store</text>
<text text-anchor="middle" x="92.5" y="-199" font-family="Helvetica,sans-Serif" font-size="10.00">_app.InsiderOfTheMenu.stockmedicine</text>
</a>
</g>
</g>
<!-- Node2 -->
<g id="node2" class="node">
<title>Node2</title>
<g id="a_node2"><a xlink:href="classce103__hw4__medical__store__lib_1_1_medicine.html#a139a6e9d94edbac2790895a083f11813" target="_top" xlink:title=" ">
<polygon fill="white" stroke="#666666" points="375.5,-425.5 230.5,-425.5 230.5,-384.5 375.5,-384.5 375.5,-425.5"/>
<text text-anchor="start" x="238.5" y="-413.5" font-family="Helvetica,sans-Serif" font-size="10.00">ce103_hw4_medical_store</text>
<text text-anchor="start" x="238.5" y="-402.5" font-family="Helvetica,sans-Serif" font-size="10.00">_lib.Medicine.ByteArrayBlock</text>
<text text-anchor="middle" x="303" y="-391.5" font-family="Helvetica,sans-Serif" font-size="10.00">ToMedicine</text>
</a>
</g>
</g>
<!-- Node1&#45;&gt;Node2 -->
<g id="edge1" class="edge">
<title>Node1&#45;&gt;Node2</title>
<path fill="none" stroke="#63b8ff" d="M101.2,-222.31C118.34,-254.93 162.77,-331.81 221,-375 222.57,-376.17 224.2,-377.29 225.86,-378.38"/>
<polygon fill="#63b8ff" stroke="#63b8ff" points="224.07,-381.39 234.47,-383.41 227.6,-375.34 224.07,-381.39"/>
</g>
<!-- Node15 -->
<g id="node15" class="node">
<title>Node15</title>
<g id="a_node15"><a xlink:href="classce103__hw4__medical__store__app_1_1_insider_of_the_menu.html#a0409ee76fc4d80aea880c4c9702271df" target="_top" xlink:title=" ">
<polygon fill="white" stroke="#666666" points="374.5,-366 231.5,-366 231.5,-336 374.5,-336 374.5,-366"/>
<text text-anchor="start" x="239.5" y="-354" font-family="Helvetica,sans-Serif" font-size="10.00">ce103_hw4_medical_store</text>
<text text-anchor="middle" x="303" y="-343" font-family="Helvetica,sans-Serif" font-size="10.00">_app.InsiderOfTheMenu.clear</text>
</a>
</g>
</g>
<!-- Node1&#45;&gt;Node15 -->
<g id="edge14" class="edge">
<title>Node1&#45;&gt;Node15</title>
<path fill="none" stroke="#63b8ff" d="M105.55,-222.28C126.4,-247.7 171.72,-298.68 221,-327 223.5,-328.44 226.1,-329.8 228.76,-331.08"/>
<polygon fill="#63b8ff" stroke="#63b8ff" points="227.34,-334.28 237.9,-335.06 230.13,-327.86 227.34,-334.28"/>
</g>
<!-- Node16 -->
<g id="node16" class="node">
<title>Node16</title>
<g id="a_node16"><a xlink:href="classce103__hw4__medical__store__lib_1_1_medicine.html#a22bdefff626a496f3781aa2e566f93b0" target="_top" xlink:title=" ">
<polygon fill="white" stroke="#666666" points="368.5,-318 237.5,-318 237.5,-288 368.5,-288 368.5,-318"/>
<text text-anchor="start" x="245.5" y="-306" font-family="Helvetica,sans-Serif" font-size="10.00">ce103_hw4_medical_store</text>
<text text-anchor="middle" x="303" y="-295" font-family="Helvetica,sans-Serif" font-size="10.00">_lib.Medicine.getExpdate</text>
</a>
</g>
</g>
<!-- Node1&#45;&gt;Node16 -->
<g id="edge15" class="edge">
<title>Node1&#45;&gt;Node16</title>
<path fill="none" stroke="#63b8ff" d="M117.11,-222.49C142.1,-238.36 183.09,-262.92 221,-279 224.99,-280.69 229.13,-282.31 233.35,-283.85"/>
<polygon fill="#63b8ff" stroke="#63b8ff" points="231.89,-287.05 242.48,-287.03 234.19,-280.44 231.89,-287.05"/>
</g>
<!-- Node17 -->
<g id="node17" class="node">
<title>Node17</title>
<g id="a_node17"><a xlink:href="classce103__hw4__medical__store__lib_1_1_medicine.html#ae0a058f869ac524cb5e9ed0a17e46c00" target="_top" xlink:title=" ">
<polygon fill="white" stroke="#666666" points="368.5,-270 237.5,-270 237.5,-240 368.5,-240 368.5,-270"/>
<text text-anchor="start" x="245.5" y="-258" font-family="Helvetica,sans-Serif" font-size="10.00">ce103_hw4_medical_store</text>
<text text-anchor="middle" x="303" y="-247" font-family="Helvetica,sans-Serif" font-size="10.00">_lib.Medicine.getId</text>
</a>
</g>
</g>
<!-- Node1&#45;&gt;Node17 -->
<g id="edge16" class="edge">
<title>Node1&#45;&gt;Node17</title>
<path fill="none" stroke="#63b8ff" d="M160.62,-222.45C181.5,-227.26 204.67,-232.59 226.11,-237.53"/>
<polygon fill="#63b8ff" stroke="#63b8ff" points="225.14,-240.9 235.67,-239.73 226.71,-234.07 225.14,-240.9"/>
</g>
<!-- Node18 -->
<g id="node18" class="node">
<title>Node18</title>
<g id="a_node18"><a xlink:href="classce103__hw4__medical__store__lib_1_1_medicine.html#a904d9c11fd249b1bd91c085296ce8379" target="_top" xlink:title=" ">
<polygon fill="white" stroke="#666666" points="379.5,-222 226.5,-222 226.5,-192 379.5,-192 379.5,-222"/>
<text text-anchor="start" x="234.5" y="-210" font-family="Helvetica,sans-Serif" font-size="10.00">ce103_hw4_medical_store</text>
<text text-anchor="middle" x="303" y="-199" font-family="Helvetica,sans-Serif" font-size="10.00">_lib.Medicine.getMedicinename</text>
</a>
</g>
</g>
<!-- Node1&#45;&gt;Node18 -->
<g id="edge17" class="edge">
<title>Node1&#45;&gt;Node18</title>
<path fill="none" stroke="#63b8ff" d="M185.25,-207C195.07,-207 205.04,-207 214.8,-207"/>
<polygon fill="#63b8ff" stroke="#63b8ff" points="214.63,-210.5 224.63,-207 214.63,-203.5 214.63,-210.5"/>
</g>
<!-- Node19 -->
<g id="node19" class="node">
<title>Node19</title>
<g id="a_node19"><a xlink:href="classce103__hw4__medical__store__lib_1_1_medicine.html#a0a6557a0382a15e7f3510f9007d5c3e3" target="_top" xlink:title=" ">
<polygon fill="white" stroke="#666666" points="368.5,-174 237.5,-174 237.5,-144 368.5,-144 368.5,-174"/>
<text text-anchor="start" x="245.5" y="-162" font-family="Helvetica,sans-Serif" font-size="10.00">ce103_hw4_medical_store</text>
<text text-anchor="middle" x="303" y="-151" font-family="Helvetica,sans-Serif" font-size="10.00">_lib.Medicine.getQuantity</text>
</a>
</g>
</g>
<!-- Node1&#45;&gt;Node19 -->
<g id="edge18" class="edge">
<title>Node1&#45;&gt;Node19</title>
<path fill="none" stroke="#63b8ff" d="M160.62,-191.55C181.5,-186.74 204.67,-181.41 226.11,-176.47"/>
<polygon fill="#63b8ff" stroke="#63b8ff" points="226.71,-179.93 235.67,-174.27 225.14,-173.1 226.71,-179.93"/>
</g>
<!-- Node20 -->
<g id="node20" class="node">
<title>Node20</title>
<g id="a_node20"><a xlink:href="classce103__hw4__medical__store__lib_1_1_medicine.html#a1dd5fe09b47634908bc261dbad75c328" target="_top" xlink:title=" ">
<polygon fill="white" stroke="#666666" points="377.5,-126 228.5,-126 228.5,-96 377.5,-96 377.5,-126"/>
<text text-anchor="start" x="236.5" y="-114" font-family="Helvetica,sans-Serif" font-size="10.00">ce103_hw4_medical_store</text>
<text text-anchor="middle" x="303" y="-103" font-family="Helvetica,sans-Serif" font-size="10.00">_lib.Medicine.getSuppliername</text>
</a>
</g>
</g>
<!-- Node1&#45;&gt;Node20 -->
<g id="edge19" class="edge">
<title>Node1&#45;&gt;Node20</title>
<path fill="none" stroke="#63b8ff" d="M117.11,-191.51C142.1,-175.64 183.09,-151.08 221,-135 224.99,-133.31 229.13,-131.69 233.35,-130.15"/>
<polygon fill="#63b8ff" stroke="#63b8ff" points="234.19,-133.56 242.48,-126.97 231.89,-126.95 234.19,-133.56"/>
</g>
<!-- Node21 -->
<g id="node21" class="node">
<title>Node21</title>
<g id="a_node21"><a xlink:href="classce103__hw4__medical__store__app_1_1_insider_of_the_menu.html#aa208466ba46c8f7d58d2f2e970d23545" target="_top" xlink:title=" ">
<polygon fill="white" stroke="#666666" points="385,-78 221,-78 221,-48 385,-48 385,-78"/>
<text text-anchor="start" x="229" y="-66" font-family="Helvetica,sans-Serif" font-size="10.00">ce103_hw4_medical_store</text>
<text text-anchor="middle" x="303" y="-55" font-family="Helvetica,sans-Serif" font-size="10.00">_app.InsiderOfTheMenu.main_box</text>
</a>
</g>
</g>
<!-- Node1&#45;&gt;Node21 -->
<g id="edge20" class="edge">
<title>Node1&#45;&gt;Node21</title>
<path fill="none" stroke="#63b8ff" d="M105.55,-191.72C126.4,-166.3 171.72,-115.32 221,-87 223.5,-85.56 226.1,-84.2 228.76,-82.92"/>
<polygon fill="#63b8ff" stroke="#63b8ff" points="230.13,-86.14 237.9,-78.94 227.34,-79.72 230.13,-86.14"/>
</g>
<!-- Node22 -->
<g id="node22" class="node">
<title>Node22</title>
<g id="a_node22"><a xlink:href="classce103__hw4__medical__store__lib_1_1_file_utility.html#aac1f545c958fe49778c588ce463e809d" target="_top" xlink:title=" ">
<polygon fill="white" stroke="#666666" points="368.5,-30 237.5,-30 237.5,0 368.5,0 368.5,-30"/>
<text text-anchor="start" x="245.5" y="-18" font-family="Helvetica,sans-Serif" font-size="10.00">ce103_hw4_medical_store</text>
<text text-anchor="middle" x="303" y="-7" font-family="Helvetica,sans-Serif" font-size="10.00">_lib.FileUtility.readBlock</text>
</a>
</g>
</g>
<!-- Node1&#45;&gt;Node22 -->
<g id="edge21" class="edge">
<title>Node1&#45;&gt;Node22</title>
<path fill="none" stroke="#63b8ff" d="M100.73,-191.88C117.27,-158.97 161.06,-80.43 221,-39 223.01,-37.61 225.1,-36.3 227.25,-35.07"/>
<polygon fill="#63b8ff" stroke="#63b8ff" points="228.34,-38.44 235.68,-30.8 225.18,-32.19 228.34,-38.44"/>
</g>
<!-- Node3 -->
<g id="node3" class="node">
<title>Node3</title>
<g id="a_node3"><a xlink:href="classce103__hw4__medical__store__lib_1_1_conversion_utility.html#a73bfc22165c4d39e288482818b96f6a1" target="_top" xlink:title=" ">
<polygon fill="white" stroke="#666666" points="574.5,-706.5 422.5,-706.5 422.5,-665.5 574.5,-665.5 574.5,-706.5"/>
<text text-anchor="start" x="430.5" y="-694.5" font-family="Helvetica,sans-Serif" font-size="10.00">ce103_hw4_medical_store</text>
<text text-anchor="start" x="430.5" y="-683.5" font-family="Helvetica,sans-Serif" font-size="10.00">_lib.ConversionUtility.byteArray</text>
<text text-anchor="middle" x="498.5" y="-672.5" font-family="Helvetica,sans-Serif" font-size="10.00">ToInteger</text>
</a>
</g>
</g>
<!-- Node2&#45;&gt;Node3 -->
<g id="edge2" class="edge">
<title>Node2&#45;&gt;Node3</title>
<path fill="none" stroke="#63b8ff" d="M308.05,-425.75C318.37,-473.28 350.01,-590.97 421,-657 421.5,-657.47 422.02,-657.93 422.54,-658.38"/>
<polygon fill="#63b8ff" stroke="#63b8ff" points="420.24,-661.04 430.35,-664.22 424.43,-655.43 420.24,-661.04"/>
</g>
<!-- Node4 -->
<g id="node4" class="node">
<title>Node4</title>
<g id="a_node4"><a xlink:href="classce103__hw4__medical__store__lib_1_1_conversion_utility.html#a202f8f242fa0c940170289cb2b08b1f7" target="_top" xlink:title=" ">
<polygon fill="white" stroke="#666666" points="574.5,-647.5 422.5,-647.5 422.5,-606.5 574.5,-606.5 574.5,-647.5"/>
<text text-anchor="start" x="430.5" y="-635.5" font-family="Helvetica,sans-Serif" font-size="10.00">ce103_hw4_medical_store</text>
<text text-anchor="start" x="430.5" y="-624.5" font-family="Helvetica,sans-Serif" font-size="10.00">_lib.ConversionUtility.byteArray</text>
<text text-anchor="middle" x="498.5" y="-613.5" font-family="Helvetica,sans-Serif" font-size="10.00">ToString</text>
</a>
</g>
</g>
<!-- Node2&#45;&gt;Node4 -->
<g id="edge3" class="edge">
<title>Node2&#45;&gt;Node4</title>
<path fill="none" stroke="#63b8ff" d="M311.52,-425.96C326.49,-464.9 363.61,-548.8 421,-597 422.26,-598.06 423.57,-599.09 424.91,-600.08"/>
<polygon fill="#63b8ff" stroke="#63b8ff" points="422.65,-602.79 432.94,-605.32 426.48,-596.93 422.65,-602.79"/>
</g>
<!-- Node5 -->
<g id="node5" class="node">
<title>Node5</title>
<g id="a_node5"><a xlink:href="classce103__hw4__medical__store__lib_1_1_medicine.html#a1790d6561a4c38c21f3e3367e869fef7" target="_top" xlink:title=" ">
<polygon fill="white" stroke="#666666" points="564,-588 433,-588 433,-558 564,-558 564,-588"/>
<text text-anchor="start" x="441" y="-576" font-family="Helvetica,sans-Serif" font-size="10.00">ce103_hw4_medical_store</text>
<text text-anchor="middle" x="498.5" y="-565" font-family="Helvetica,sans-Serif" font-size="10.00">_lib.Medicine.setCabnitno</text>
</a>
</g>
</g>
<!-- Node2&#45;&gt;Node5 -->
<g id="edge4" class="edge">
<title>Node2&#45;&gt;Node5</title>
<path fill="none" stroke="#63b8ff" d="M315.52,-425.89C333.82,-457.19 372.49,-516.08 421,-549 422.81,-550.23 424.69,-551.4 426.63,-552.51"/>
<polygon fill="#63b8ff" stroke="#63b8ff" points="424.79,-555.51 435.29,-556.92 427.97,-549.27 424.79,-555.51"/>
</g>
<!-- Node6 -->
<g id="node6" class="node">
<title>Node6</title>
<g id="a_node6"><a xlink:href="classce103__hw4__medical__store__lib_1_1_medicine.html#ab3afe862a422908e5a509744553ec858" target="_top" xlink:title=" ">
<polygon fill="white" stroke="#666666" points="576,-540 421,-540 421,-510 576,-510 576,-540"/>
<text text-anchor="start" x="429" y="-528" font-family="Helvetica,sans-Serif" font-size="10.00">ce103_hw4_medical_store</text>
<text text-anchor="middle" x="498.5" y="-517" font-family="Helvetica,sans-Serif" font-size="10.00">_lib.Medicine.setCompanyname</text>
</a>
</g>
</g>
<!-- Node2&#45;&gt;Node6 -->
<g id="edge5" class="edge">
<title>Node2&#45;&gt;Node6</title>
<path fill="none" stroke="#63b8ff" d="M324.19,-425.74C346.19,-447.28 383.32,-480.63 421,-501 423.66,-502.44 426.43,-503.81 429.25,-505.11"/>
<polygon fill="#63b8ff" stroke="#63b8ff" points="427.73,-508.26 438.31,-508.92 430.45,-501.81 427.73,-508.26"/>
</g>
<!-- Node7 -->
<g id="node7" class="node">
<title>Node7</title>
<g id="a_node7"><a xlink:href="classce103__hw4__medical__store__lib_1_1_medicine.html#a8cf2549ba5a4f75287214b32b6af9bed" target="_top" xlink:title=" ">
<polygon fill="white" stroke="#666666" points="564,-492 433,-492 433,-462 564,-462 564,-492"/>
<text text-anchor="start" x="441" y="-480" font-family="Helvetica,sans-Serif" font-size="10.00">ce103_hw4_medical_store</text>
<text text-anchor="middle" x="498.5" y="-469" font-family="Helvetica,sans-Serif" font-size="10.00">_lib.Medicine.setExpdate</text>
</a>
</g>
</g>
<!-- Node2&#45;&gt;Node7 -->
<g id="edge6" class="edge">
<title>Node2&#45;&gt;Node7</title>
<path fill="none" stroke="#63b8ff" d="M352.31,-425.9C373.26,-434.69 398.18,-444.76 421,-453 425.69,-454.7 430.57,-456.39 435.49,-458.04"/>
<polygon fill="#63b8ff" stroke="#63b8ff" points="434.24,-461.31 444.83,-461.12 436.43,-454.67 434.24,-461.31"/>
</g>
<!-- Node8 -->
<g id="node8" class="node">
<title>Node8</title>
<g id="a_node8"><a xlink:href="classce103__hw4__medical__store__lib_1_1_medicine.html#a5e1cfaca9d613e322ce0fefd317281a0" target="_top" xlink:title=" ">
<polygon fill="white" stroke="#666666" points="564,-444 433,-444 433,-414 564,-414 564,-444"/>
<text text-anchor="start" x="441" y="-432" font-family="Helvetica,sans-Serif" font-size="10.00">ce103_hw4_medical_store</text>
<text text-anchor="middle" x="498.5" y="-421" font-family="Helvetica,sans-Serif" font-size="10.00">_lib.Medicine.setId</text>
</a>
</g>
</g>
<!-- Node2&#45;&gt;Node8 -->
<g id="edge7" class="edge">
<title>Node2&#45;&gt;Node8</title>
<path fill="none" stroke="#63b8ff" d="M375.78,-413.9C390.6,-415.74 406.27,-417.68 421.25,-419.54"/>
<polygon fill="#63b8ff" stroke="#63b8ff" points="420.69,-423 431.05,-420.76 421.55,-416.05 420.69,-423"/>
</g>
<!-- Node9 -->
<g id="node9" class="node">
<title>Node9</title>
<g id="a_node9"><a xlink:href="classce103__hw4__medical__store__lib_1_1_medicine.html#a2d176e8be994b2cc41e7881cad4de254" target="_top" xlink:title=" ">
<polygon fill="white" stroke="#666666" points="575,-396 422,-396 422,-366 575,-366 575,-396"/>
<text text-anchor="start" x="430" y="-384" font-family="Helvetica,sans-Serif" font-size="10.00">ce103_hw4_medical_store</text>
<text text-anchor="middle" x="498.5" y="-373" font-family="Helvetica,sans-Serif" font-size="10.00">_lib.Medicine.setMedicinename</text>
</a>
</g>
</g>
<!-- Node2&#45;&gt;Node9 -->
<g id="edge8" class="edge">
<title>Node2&#45;&gt;Node9</title>
<path fill="none" stroke="#63b8ff" d="M375.78,-396.1C387.11,-394.69 398.93,-393.23 410.56,-391.78"/>
<polygon fill="#63b8ff" stroke="#63b8ff" points="410.63,-395.3 420.12,-390.6 409.77,-388.35 410.63,-395.3"/>
</g>
<!-- Node10 -->
<g id="node10" class="node">
<title>Node10</title>
<g id="a_node10"><a xlink:href="classce103__hw4__medical__store__lib_1_1_medicine.html#a294117889ca6ade2dd7c2894d9728b06" target="_top" xlink:title=" ">
<polygon fill="white" stroke="#666666" points="564,-348 433,-348 433,-318 564,-318 564,-348"/>
<text text-anchor="start" x="441" y="-336" font-family="Helvetica,sans-Serif" font-size="10.00">ce103_hw4_medical_store</text>
<text text-anchor="middle" x="498.5" y="-325" font-family="Helvetica,sans-Serif" font-size="10.00">_lib.Medicine.setQuantity</text>
</a>
</g>
</g>
<!-- Node2&#45;&gt;Node10 -->
<g id="edge9" class="edge">
<title>Node2&#45;&gt;Node10</title>
<path fill="none" stroke="#63b8ff" d="M362.7,-384.12C370.26,-381.18 377.85,-378.1 385,-375 401.41,-367.88 404.41,-363.7 421,-357 425.09,-355.35 429.35,-353.73 433.66,-352.18"/>
<polygon fill="#63b8ff" stroke="#63b8ff" points="434.71,-355.52 443.01,-348.93 432.41,-348.91 434.71,-355.52"/>
</g>
<!-- Node11 -->
<g id="node11" class="node">
<title>Node11</title>
<g id="a_node11"><a xlink:href="classce103__hw4__medical__store__lib_1_1_medicine.html#a4512c14bfa4feeb4292bf43941d26d50" target="_top" xlink:title=" ">
<polygon fill="white" stroke="#666666" points="564,-300 433,-300 433,-270 564,-270 564,-300"/>
<text text-anchor="start" x="441" y="-288" font-family="Helvetica,sans-Serif" font-size="10.00">ce103_hw4_medical_store</text>
<text text-anchor="middle" x="498.5" y="-277" font-family="Helvetica,sans-Serif" font-size="10.00">_lib.Medicine.setRackno</text>
</a>
</g>
</g>
<!-- Node2&#45;&gt;Node11 -->
<g id="edge10" class="edge">
<title>Node2&#45;&gt;Node11</title>
<path fill="none" stroke="#63b8ff" d="M372,-384.21C376.63,-381.49 381.03,-378.43 385,-375 410.27,-353.14 395.18,-330.21 421,-309 422.12,-308.08 423.27,-307.2 424.46,-306.35"/>
<polygon fill="#63b8ff" stroke="#63b8ff" points="426.08,-309.46 432.78,-301.25 422.42,-303.49 426.08,-309.46"/>
</g>
<!-- Node12 -->
<g id="node12" class="node">
<title>Node12</title>
<g id="a_node12"><a xlink:href="classce103__hw4__medical__store__lib_1_1_medicine.html#aadc0d18bf721bc167b63d79965ad41bd" target="_top" xlink:title=" ">
<polygon fill="white" stroke="#666666" points="564,-252 433,-252 433,-222 564,-222 564,-252"/>
<text text-anchor="start" x="441" y="-240" font-family="Helvetica,sans-Serif" font-size="10.00">ce103_hw4_medical_store</text>
<text text-anchor="middle" x="498.5" y="-229" font-family="Helvetica,sans-Serif" font-size="10.00">_lib.Medicine.setSalecost</text>
</a>
</g>
</g>
<!-- Node2&#45;&gt;Node12 -->
<g id="edge11" class="edge">
<title>Node2&#45;&gt;Node12</title>
<path fill="none" stroke="#63b8ff" d="M374.29,-384.01C378.18,-381.36 381.79,-378.37 385,-375 421.64,-336.52 383.39,-298.54 421,-261 421.75,-260.25 422.53,-259.52 423.33,-258.81"/>
<polygon fill="#63b8ff" stroke="#63b8ff" points="425.34,-261.68 431.38,-252.97 421.23,-256.01 425.34,-261.68"/>
</g>
<!-- Node13 -->
<g id="node13" class="node">
<title>Node13</title>
<g id="a_node13"><a xlink:href="classce103__hw4__medical__store__lib_1_1_medicine.html#a613496dacee191c7b4a9c7b9b771eb34" target="_top" xlink:title=" ">
<polygon fill="white" stroke="#666666" points="573,-204 424,-204 424,-174 573,-174 573,-204"/>
<text text-anchor="start" x="432" y="-192" font-family="Helvetica,sans-Serif" font-size="10.00">ce103_hw4_medical_store</text>
<text text-anchor="middle" x="498.5" y="-181" font-family="Helvetica,sans-Serif" font-size="10.00">_lib.Medicine.setSuppliername</text>
</a>
</g>
</g>
<!-- Node2&#45;&gt;Node13 -->
<g id="edge12" class="edge">
<title>Node2&#45;&gt;Node13</title>
<path fill="none" stroke="#63b8ff" d="M375.01,-384.07C378.67,-381.4 382.04,-378.39 385,-375 433.49,-319.42 371.12,-267.33 421,-213 421.47,-212.49 421.95,-211.99 422.44,-211.49"/>
<polygon fill="#63b8ff" stroke="#63b8ff" points="424.44,-214.38 430.03,-205.38 420.05,-208.93 424.44,-214.38"/>
</g>
<!-- Node14 -->
<g id="node14" class="node">
<title>Node14</title>
<g id="a_node14"><a xlink:href="classce103__hw4__medical__store__lib_1_1_medicine.html#a54ef3541b91d8c01c7ad24c7c2e8addc" target="_top" xlink:title=" ">
<polygon fill="white" stroke="#666666" points="564,-156 433,-156 433,-126 564,-126 564,-156"/>
<text text-anchor="start" x="441" y="-144" font-family="Helvetica,sans-Serif" font-size="10.00">ce103_hw4_medical_store</text>
<text text-anchor="middle" x="498.5" y="-133" font-family="Helvetica,sans-Serif" font-size="10.00">_lib.Medicine.setUnitcost</text>
</a>
</g>
</g>
<!-- Node2&#45;&gt;Node14 -->
<g id="edge13" class="edge">
<title>Node2&#45;&gt;Node14</title>
<path fill="none" stroke="#63b8ff" d="M375.2,-384.23C378.81,-381.52 382.13,-378.46 385,-375 445.49,-302.14 358.68,-236.3 421,-165 421.95,-163.91 422.96,-162.87 424,-161.87"/>
<polygon fill="#63b8ff" stroke="#63b8ff" points="425.78,-164.92 431.57,-156.05 421.51,-159.37 425.78,-164.92"/>
</g>
</g>
</svg>
        <g id="navigator" transform="translate(0 0)" fill="#404254">
                <rect fill="#f2f5e9" fill-opacity="0.5" stroke="#606060" stroke-width=".5" x="0" y="0" width="60" height="60"/>
                <use id="zoomplus" xlink:href="#zoomPlus" x="17" y="9" onmousedown="handleZoom(evt,'in')"/>
                <use id="zoomminus" xlink:href="#zoomMin" x="42" y="9" onmousedown="handleZoom(evt,'out')"/>
                <use id="reset" xlink:href="#resetDef" x="30" y="36" onmousedown="handleReset()"/>
                <g id="arrowUp" xlink:href="#dirArrow" transform="translate(30 24)" onmousedown="handlePan(0,-1)">
                  <use xlink:href="#rim" fill="#404040">
                        <set attributeName="fill" to="#808080" begin="arrowUp.mouseover" end="arrowUp.mouseout"/>
                  </use>
                  <path fill="none" stroke="white" stroke-width="1.5" d="M0,-3.0v7 M-2.5,-0.5L0,-3.0L2.5,-0.5"/>
                </g>
                <g id="arrowRight" xlink:href="#dirArrow" transform="rotate(90) translate(36 -43)" onmousedown="handlePan(1,0)">
                  <use xlink:href="#rim" fill="#404040">
                        <set attributeName="fill" to="#808080" begin="arrowRight.mouseover" end="arrowRight.mouseout"/>
                  </use>
                  <path fill="none" stroke="white" stroke-width="1.5" d="M0,-3.0v7 M-2.5,-0.5L0,-3.0L2.5,-0.5"/>
                </g>
                <g id="arrowDown" xlink:href="#dirArrow" transform="rotate(180) translate(-30 -48)" onmousedown="handlePan(0,1)">
                  <use xlink:href="#rim" fill="#404040">
                        <set attributeName="fill" to="#808080" begin="arrowDown.mouseover" end="arrowDown.mouseout"/>
                  </use>
                  <path fill="none" stroke="white" stroke-width="1.5" d="M0,-3.0v7 M-2.5,-0.5L0,-3.0L2.5,-0.5"/>
                </g>
                <g id="arrowLeft" xlink:href="#dirArrow" transform="rotate(270) translate(-36 17)" onmousedown="handlePan(-1,0)">
                  <use xlink:href="#rim" fill="#404040">
                        <set attributeName="fill" to="#808080" begin="arrowLeft.mouseover" end="arrowLeft.mouseout"/>
                  </use>
                  <path fill="none" stroke="white" stroke-width="1.5" d="M0,-3.0v7 M-2.5,-0.5L0,-3.0L2.5,-0.5"/>
                </g>
        </g>
        <svg viewBox="0 0 15 15" width="100%" height="30px" preserveAspectRatio="xMaxYMin meet">
         <g id="arrow_out" transform="scale(0.3 0.3)">
          <a xlink:href="classce103__hw4__medical__store__app_1_1_insider_of_the_menu_ac76ee95213f4e41b88d57c028f610c33_cgraph_org.svg" target="_base">
           <rect id="button" ry="5" rx="5" y="6" x="6" height="38" width="38"
                fill="#f2f5e9" fill-opacity="0.5" stroke="#606060" stroke-width="1.0"/>
           <path id="arrow"
             d="M 11.500037,31.436501 C 11.940474,20.09759 22.043105,11.32322 32.158766,21.979434 L 37.068811,17.246167 C 37.068811,17.246167 37.088388,32 37.088388,32 L 22.160133,31.978069 C 22.160133,31.978069 26.997745,27.140456 26.997745,27.140456 C 18.528582,18.264221 13.291696,25.230495 11.500037,31.436501 z"
             style="fill:#404040;"/>
          </a>
         </g>
        </svg>
</svg>
