<?xml version="1.0" encoding="UTF-8" standalone="no"?>
<!DOCTYPE svg PUBLIC "-//W3C//DTD SVG 1.1//EN"
 "http://www.w3.org/Graphics/SVG/1.1/DTD/svg11.dtd">
<!-- Generated by graphviz version 7.0.4 (20221203.1631)
 -->
<!-- Title: ce103_hw4_medical_store_app.InsiderOfTheMenu.searchcust Pages: 1 -->
<!--zoomable 633 -->
<svg id="main" version="1.1" xmlns="http://www.w3.org/2000/svg" xmlns:xlink="http://www.w3.org/1999/xlink" xml:space="preserve" onload="init(evt)">
<style type="text/css"><![CDATA[
.edge:hover path { stroke: red; }
.edge:hover polygon { stroke: red; fill: red; }
]]></style>
<script type="text/javascript"><![CDATA[
var edges = document.getElementsByTagName('g');
if (edges && edges.length) {
  for (var i=0;i<edges.length;i++) {
    if (edges[i].id.substr(0,4)=='edge') {
      edges[i].setAttribute('class','edge');
    }
  }
}
]]></script>
        <defs>
                <circle id="rim" cx="0" cy="0" r="7"/>
                <circle id="rim2" cx="0" cy="0" r="3.5"/>
                <g id="zoomPlus">
                        <use xlink:href="#rim" fill="#404040">
                                <set attributeName="fill" to="#808080" begin="zoomplus.mouseover" end="zoomplus.mouseout"/>
                        </use>
                        <path d="M-4,0h8M0,-4v8" fill="none" stroke="white" stroke-width="1.5" pointer-events="none"/>
                </g>
                <g id="zoomMin">
                        <use xlink:href="#rim" fill="#404040">
                                <set attributeName="fill" to="#808080" begin="zoomminus.mouseover" end="zoomminus.mouseout"/>
                        </use>
                        <path d="M-4,0h8" fill="none" stroke="white" stroke-width="1.5" pointer-events="none"/>
                </g>
                <g id="dirArrow">
                        <path fill="none" stroke="white" stroke-width="1.5" d="M0,-3.0v7 M-2.5,-0.5L0,-3.0L2.5,-0.5"/>
                </g>
               <g id="resetDef">
                       <use xlink:href="#rim2" fill="#404040">
                               <set attributeName="fill" to="#808080" begin="reset.mouseover" end="reset.mouseout"/>
                       </use>
               </g>
        </defs>

<script type="text/javascript">
var viewWidth = 569;
var viewHeight = 633;
var sectionId = 'dynsection-31';
</script>
<script xlink:href="svgpan.js"/>
<svg id="graph" class="graph">
<g id="viewport">
<title>ce103_hw4_medical_store_app.InsiderOfTheMenu.searchcust</title>
<!-- Node1 -->
<g id="node1" class="node">
<title>Node1</title>
<g id="a_node1"><a xlink:title=" ">
<polygon fill="#999999" stroke="#666666" points="170,-236 0,-236 0,-206 170,-206 170,-236"/>
<text text-anchor="start" x="8" y="-224" font-family="Helvetica,sans-Serif" font-size="10.00">ce103_hw4_medical_store</text>
<text text-anchor="middle" x="85" y="-213" font-family="Helvetica,sans-Serif" font-size="10.00">_app.InsiderOfTheMenu.searchcust</text>
</a>
</g>
</g>
<!-- Node2 -->
<g id="node2" class="node">
<title>Node2</title>
<g id="a_node2"><a xlink:href="classce103__hw4__medical__store__lib_1_1_customer.html#ae766307af9c3831757bb80b0c8adc4da" target="_top" xlink:title=" ">
<polygon fill="white" stroke="#666666" points="357.5,-463.5 209.5,-463.5 209.5,-422.5 357.5,-422.5 357.5,-463.5"/>
<text text-anchor="start" x="217.5" y="-451.5" font-family="Helvetica,sans-Serif" font-size="10.00">ce103_hw4_medical_store</text>
<text text-anchor="start" x="217.5" y="-440.5" font-family="Helvetica,sans-Serif" font-size="10.00">_lib.Customer.ByteArrayBlock</text>
<text text-anchor="middle" x="283.5" y="-429.5" font-family="Helvetica,sans-Serif" font-size="10.00">ToCustomer</text>
</a>
</g>
</g>
<!-- Node1&#45;&gt;Node2 -->
<g id="edge1" class="edge">
<title>Node1&#45;&gt;Node2</title>
<path fill="none" stroke="#63b8ff" d="M91.61,-236.25C105.51,-272.06 144.91,-362.28 206,-413 207.27,-414.05 208.58,-415.07 209.93,-416.06"/>
<polygon fill="#63b8ff" stroke="#63b8ff" points="207.68,-418.78 217.98,-421.28 211.49,-412.9 207.68,-418.78"/>
</g>
<!-- Node10 -->
<g id="node10" class="node">
<title>Node10</title>
<g id="a_node10"><a xlink:href="classce103__hw4__medical__store__app_1_1_insider_of_the_menu.html#a0409ee76fc4d80aea880c4c9702271df" target="_top" xlink:title=" ">
<polygon fill="white" stroke="#666666" points="355,-404 212,-404 212,-374 355,-374 355,-404"/>
<text text-anchor="start" x="220" y="-392" font-family="Helvetica,sans-Serif" font-size="10.00">ce103_hw4_medical_store</text>
<text text-anchor="middle" x="283.5" y="-381" font-family="Helvetica,sans-Serif" font-size="10.00">_app.InsiderOfTheMenu.clear</text>
</a>
</g>
</g>
<!-- Node1&#45;&gt;Node10 -->
<g id="edge9" class="edge">
<title>Node1&#45;&gt;Node10</title>
<path fill="none" stroke="#63b8ff" d="M94.48,-236.07C111.68,-265.29 153.54,-329.87 206,-365 207.82,-366.22 209.71,-367.38 211.65,-368.48"/>
<polygon fill="#63b8ff" stroke="#63b8ff" points="209.83,-371.49 220.33,-372.86 212.98,-365.24 209.83,-371.49"/>
</g>
<!-- Node11 -->
<g id="node11" class="node">
<title>Node11</title>
<g id="a_node11"><a xlink:href="classce103__hw4__medical__store__lib_1_1_customer.html#a36aba6fa51f7a02f602b7e1beeff0fba" target="_top" xlink:title=" ">
<polygon fill="white" stroke="#666666" points="349,-356 218,-356 218,-326 349,-326 349,-356"/>
<text text-anchor="start" x="226" y="-344" font-family="Helvetica,sans-Serif" font-size="10.00">ce103_hw4_medical_store</text>
<text text-anchor="middle" x="283.5" y="-333" font-family="Helvetica,sans-Serif" font-size="10.00">_lib.Customer.getCity</text>
</a>
</g>
</g>
<!-- Node1&#45;&gt;Node11 -->
<g id="edge10" class="edge">
<title>Node1&#45;&gt;Node11</title>
<path fill="none" stroke="#63b8ff" d="M101.32,-236.44C122.91,-257.41 164.32,-294.8 206,-317 208.82,-318.5 211.75,-319.93 214.75,-321.28"/>
<polygon fill="#63b8ff" stroke="#63b8ff" points="213.17,-324.41 223.75,-325.01 215.85,-317.95 213.17,-324.41"/>
</g>
<!-- Node12 -->
<g id="node12" class="node">
<title>Node12</title>
<g id="a_node12"><a xlink:href="classce103__hw4__medical__store__lib_1_1_customer.html#a0f49e94a5abb7d8aa007db0e02056473" target="_top" xlink:title=" ">
<polygon fill="white" stroke="#666666" points="349,-308 218,-308 218,-278 349,-278 349,-308"/>
<text text-anchor="start" x="226" y="-296" font-family="Helvetica,sans-Serif" font-size="10.00">ce103_hw4_medical_store</text>
<text text-anchor="middle" x="283.5" y="-285" font-family="Helvetica,sans-Serif" font-size="10.00">_lib.Customer.getEmail</text>
</a>
</g>
</g>
<!-- Node1&#45;&gt;Node12 -->
<g id="edge11" class="edge">
<title>Node1&#45;&gt;Node12</title>
<path fill="none" stroke="#63b8ff" d="M122.49,-236.44C146.13,-246.23 177.68,-258.91 206,-269 210.7,-270.67 215.58,-272.35 220.51,-273.99"/>
<polygon fill="#63b8ff" stroke="#63b8ff" points="219.26,-277.27 229.86,-277.06 221.44,-270.62 219.26,-277.27"/>
</g>
<!-- Node13 -->
<g id="node13" class="node">
<title>Node13</title>
<g id="a_node13"><a xlink:href="classce103__hw4__medical__store__lib_1_1_customer.html#a58680383b49831fdc9d6d5c77a6640df" target="_top" xlink:title=" ">
<polygon fill="white" stroke="#666666" points="349,-260 218,-260 218,-230 349,-230 349,-260"/>
<text text-anchor="start" x="226" y="-248" font-family="Helvetica,sans-Serif" font-size="10.00">ce103_hw4_medical_store</text>
<text text-anchor="middle" x="283.5" y="-237" font-family="Helvetica,sans-Serif" font-size="10.00">_lib.Customer.getId</text>
</a>
</g>
</g>
<!-- Node1&#45;&gt;Node13 -->
<g id="edge12" class="edge">
<title>Node1&#45;&gt;Node13</title>
<path fill="none" stroke="#63b8ff" d="M170.47,-231.32C182.46,-232.78 194.72,-234.28 206.52,-235.72"/>
<polygon fill="#63b8ff" stroke="#63b8ff" points="205.83,-239.16 216.18,-236.9 206.68,-232.21 205.83,-239.16"/>
</g>
<!-- Node14 -->
<g id="node14" class="node">
<title>Node14</title>
<g id="a_node14"><a xlink:href="classce103__hw4__medical__store__lib_1_1_customer.html#a13135918fb5adac15dcda407d1040fe5" target="_top" xlink:title=" ">
<polygon fill="white" stroke="#666666" points="349,-212 218,-212 218,-182 349,-182 349,-212"/>
<text text-anchor="start" x="226" y="-200" font-family="Helvetica,sans-Serif" font-size="10.00">ce103_hw4_medical_store</text>
<text text-anchor="middle" x="283.5" y="-189" font-family="Helvetica,sans-Serif" font-size="10.00">_lib.Customer.getName</text>
</a>
</g>
</g>
<!-- Node1&#45;&gt;Node14 -->
<g id="edge13" class="edge">
<title>Node1&#45;&gt;Node14</title>
<path fill="none" stroke="#63b8ff" d="M170.47,-210.68C182.46,-209.22 194.72,-207.72 206.52,-206.28"/>
<polygon fill="#63b8ff" stroke="#63b8ff" points="206.68,-209.79 216.18,-205.1 205.83,-202.84 206.68,-209.79"/>
</g>
<!-- Node15 -->
<g id="node15" class="node">
<title>Node15</title>
<g id="a_node15"><a xlink:href="classce103__hw4__medical__store__lib_1_1_customer.html#ad4ac11104ae983781724a6c2a9eb933e" target="_top" xlink:title=" ">
<polygon fill="white" stroke="#666666" points="349,-164 218,-164 218,-134 349,-134 349,-164"/>
<text text-anchor="start" x="226" y="-152" font-family="Helvetica,sans-Serif" font-size="10.00">ce103_hw4_medical_store</text>
<text text-anchor="middle" x="283.5" y="-141" font-family="Helvetica,sans-Serif" font-size="10.00">_lib.Customer.getNum</text>
</a>
</g>
</g>
<!-- Node1&#45;&gt;Node15 -->
<g id="edge14" class="edge">
<title>Node1&#45;&gt;Node15</title>
<path fill="none" stroke="#63b8ff" d="M122.49,-205.56C146.13,-195.77 177.68,-183.09 206,-173 210.7,-171.33 215.58,-169.65 220.51,-168.01"/>
<polygon fill="#63b8ff" stroke="#63b8ff" points="221.44,-171.38 229.86,-164.94 219.26,-164.73 221.44,-171.38"/>
</g>
<!-- Node16 -->
<g id="node16" class="node">
<title>Node16</title>
<g id="a_node16"><a xlink:href="classce103__hw4__medical__store__app_1_1_insider_of_the_menu.html#aa208466ba46c8f7d58d2f2e970d23545" target="_top" xlink:title=" ">
<polygon fill="white" stroke="#666666" points="561,-76 397,-76 397,-46 561,-46 561,-76"/>
<text text-anchor="start" x="405" y="-64" font-family="Helvetica,sans-Serif" font-size="10.00">ce103_hw4_medical_store</text>
<text text-anchor="middle" x="479" y="-53" font-family="Helvetica,sans-Serif" font-size="10.00">_app.InsiderOfTheMenu.main_box</text>
</a>
</g>
</g>
<!-- Node1&#45;&gt;Node16 -->
<g id="edge15" class="edge">
<title>Node1&#45;&gt;Node16</title>
<path fill="none" stroke="#63b8ff" d="M100.38,-205.84C121.5,-184.51 163.06,-145.9 206,-125 214.81,-120.71 320.82,-96.35 397.85,-78.95"/>
<polygon fill="#63b8ff" stroke="#63b8ff" points="398.53,-82.39 407.51,-76.78 396.99,-75.56 398.53,-82.39"/>
</g>
<!-- Node17 -->
<g id="node17" class="node">
<title>Node17</title>
<g id="a_node17"><a xlink:href="classce103__hw4__medical__store__lib_1_1_file_utility.html#aac1f545c958fe49778c588ce463e809d" target="_top" xlink:title=" ">
<polygon fill="white" stroke="#666666" points="349,-78 218,-78 218,-48 349,-48 349,-78"/>
<text text-anchor="start" x="226" y="-66" font-family="Helvetica,sans-Serif" font-size="10.00">ce103_hw4_medical_store</text>
<text text-anchor="middle" x="283.5" y="-55" font-family="Helvetica,sans-Serif" font-size="10.00">_lib.FileUtility.readBlock</text>
</a>
</g>
</g>
<!-- Node1&#45;&gt;Node17 -->
<g id="edge16" class="edge">
<title>Node1&#45;&gt;Node17</title>
<path fill="none" stroke="#63b8ff" d="M96.5,-205.75C115.48,-179.2 158.03,-124.26 206,-92 210.81,-88.76 216.04,-85.82 221.42,-83.16"/>
<polygon fill="#63b8ff" stroke="#63b8ff" points="222.86,-86.35 230.51,-79.02 219.96,-79.98 222.86,-86.35"/>
</g>
<!-- Node18 -->
<g id="node18" class="node">
<title>Node18</title>
<g id="a_node18"><a xlink:href="classce103__hw4__medical__store__app_1_1_insider_of_the_menu.html#ad8d1f1f6efe690acbc398b741befb617" target="_top" xlink:title=" ">
<polygon fill="white" stroke="#666666" points="361,-30 206,-30 206,0 361,0 361,-30"/>
<text text-anchor="start" x="214" y="-18" font-family="Helvetica,sans-Serif" font-size="10.00">ce103_hw4_medical_store</text>
<text text-anchor="middle" x="283.5" y="-7" font-family="Helvetica,sans-Serif" font-size="10.00">_app.InsiderOfTheMenu.supplier</text>
</a>
</g>
</g>
<!-- Node1&#45;&gt;Node18 -->
<g id="edge17" class="edge">
<title>Node1&#45;&gt;Node18</title>
<path fill="none" stroke="#63b8ff" d="M91.82,-205.75C105.92,-170.87 145.25,-84.79 206,-39 207.35,-37.98 208.75,-37 210.19,-36.06"/>
<polygon fill="#63b8ff" stroke="#63b8ff" points="211.82,-39.16 218.81,-31.2 208.38,-33.06 211.82,-39.16"/>
</g>
<!-- Node3 -->
<g id="node3" class="node">
<title>Node3</title>
<g id="a_node3"><a xlink:href="classce103__hw4__medical__store__lib_1_1_conversion_utility.html#a73bfc22165c4d39e288482818b96f6a1" target="_top" xlink:title=" ">
<polygon fill="white" stroke="#666666" points="555,-624.5 403,-624.5 403,-583.5 555,-583.5 555,-624.5"/>
<text text-anchor="start" x="411" y="-612.5" font-family="Helvetica,sans-Serif" font-size="10.00">ce103_hw4_medical_store</text>
<text text-anchor="start" x="411" y="-601.5" font-family="Helvetica,sans-Serif" font-size="10.00">_lib.ConversionUtility.byteArray</text>
<text text-anchor="middle" x="479" y="-590.5" font-family="Helvetica,sans-Serif" font-size="10.00">ToInteger</text>
</a>
</g>
</g>
<!-- Node2&#45;&gt;Node3 -->
<g id="edge2" class="edge">
<title>Node2&#45;&gt;Node3</title>
<path fill="none" stroke="#63b8ff" d="M297.18,-463.81C315.74,-492.62 352.9,-544.54 397,-575 398.34,-575.93 399.72,-576.83 401.13,-577.71"/>
<polygon fill="#63b8ff" stroke="#63b8ff" points="399,-580.52 409.43,-582.38 402.43,-574.42 399,-580.52"/>
</g>
<!-- Node4 -->
<g id="node4" class="node">
<title>Node4</title>
<g id="a_node4"><a xlink:href="classce103__hw4__medical__store__lib_1_1_conversion_utility.html#a202f8f242fa0c940170289cb2b08b1f7" target="_top" xlink:title=" ">
<polygon fill="white" stroke="#666666" points="555,-565.5 403,-565.5 403,-524.5 555,-524.5 555,-565.5"/>
<text text-anchor="start" x="411" y="-553.5" font-family="Helvetica,sans-Serif" font-size="10.00">ce103_hw4_medical_store</text>
<text text-anchor="start" x="411" y="-542.5" font-family="Helvetica,sans-Serif" font-size="10.00">_lib.ConversionUtility.byteArray</text>
<text text-anchor="middle" x="479" y="-531.5" font-family="Helvetica,sans-Serif" font-size="10.00">ToString</text>
</a>
</g>
</g>
<!-- Node2&#45;&gt;Node4 -->
<g id="edge3" class="edge">
<title>Node2&#45;&gt;Node4</title>
<path fill="none" stroke="#63b8ff" d="M313.09,-463.74C335.25,-479.19 367.11,-500.12 397,-515 400.22,-516.6 403.55,-518.17 406.94,-519.69"/>
<polygon fill="#63b8ff" stroke="#63b8ff" points="405.28,-522.79 415.85,-523.52 408.04,-516.36 405.28,-522.79"/>
</g>
<!-- Node5 -->
<g id="node5" class="node">
<title>Node5</title>
<g id="a_node5"><a xlink:href="classce103__hw4__medical__store__lib_1_1_customer.html#a8443925c23f0315b80f1f5f6f5f7267b" target="_top" xlink:title=" ">
<polygon fill="white" stroke="#666666" points="544.5,-506 413.5,-506 413.5,-476 544.5,-476 544.5,-506"/>
<text text-anchor="start" x="421.5" y="-494" font-family="Helvetica,sans-Serif" font-size="10.00">ce103_hw4_medical_store</text>
<text text-anchor="middle" x="479" y="-483" font-family="Helvetica,sans-Serif" font-size="10.00">_lib.Customer.setCity</text>
</a>
</g>
</g>
<!-- Node2&#45;&gt;Node5 -->
<g id="edge4" class="edge">
<title>Node2&#45;&gt;Node5</title>
<path fill="none" stroke="#63b8ff" d="M357.93,-461.22C373.24,-465.01 389.39,-469.02 404.7,-472.82"/>
<polygon fill="#63b8ff" stroke="#63b8ff" points="403.65,-476.16 414.2,-475.17 405.34,-469.37 403.65,-476.16"/>
</g>
<!-- Node6 -->
<g id="node6" class="node">
<title>Node6</title>
<g id="a_node6"><a xlink:href="classce103__hw4__medical__store__lib_1_1_customer.html#a7189e6165587d2ae32a164eb7497f24e" target="_top" xlink:title=" ">
<polygon fill="white" stroke="#666666" points="544.5,-458 413.5,-458 413.5,-428 544.5,-428 544.5,-458"/>
<text text-anchor="start" x="421.5" y="-446" font-family="Helvetica,sans-Serif" font-size="10.00">ce103_hw4_medical_store</text>
<text text-anchor="middle" x="479" y="-435" font-family="Helvetica,sans-Serif" font-size="10.00">_lib.Customer.setEmail</text>
</a>
</g>
</g>
<!-- Node2&#45;&gt;Node6 -->
<g id="edge5" class="edge">
<title>Node2&#45;&gt;Node6</title>
<path fill="none" stroke="#63b8ff" d="M357.93,-443C372.27,-443 387.34,-443 401.77,-443"/>
<polygon fill="#63b8ff" stroke="#63b8ff" points="401.67,-446.5 411.67,-443 401.67,-439.5 401.67,-446.5"/>
</g>
<!-- Node7 -->
<g id="node7" class="node">
<title>Node7</title>
<g id="a_node7"><a xlink:href="classce103__hw4__medical__store__lib_1_1_customer.html#abb0726c60d6cd6fe879ef443f4378562" target="_top" xlink:title=" ">
<polygon fill="white" stroke="#666666" points="544.5,-410 413.5,-410 413.5,-380 544.5,-380 544.5,-410"/>
<text text-anchor="start" x="421.5" y="-398" font-family="Helvetica,sans-Serif" font-size="10.00">ce103_hw4_medical_store</text>
<text text-anchor="middle" x="479" y="-387" font-family="Helvetica,sans-Serif" font-size="10.00">_lib.Customer.setId</text>
</a>
</g>
</g>
<!-- Node2&#45;&gt;Node7 -->
<g id="edge6" class="edge">
<title>Node2&#45;&gt;Node7</title>
<path fill="none" stroke="#63b8ff" d="M357.93,-424.78C373.24,-420.99 389.39,-416.98 404.7,-413.18"/>
<polygon fill="#63b8ff" stroke="#63b8ff" points="405.34,-416.63 414.2,-410.83 403.65,-409.84 405.34,-416.63"/>
</g>
<!-- Node8 -->
<g id="node8" class="node">
<title>Node8</title>
<g id="a_node8"><a xlink:href="classce103__hw4__medical__store__lib_1_1_customer.html#a43138a44bcc676b1f218b27c1b1e4c41" target="_top" xlink:title=" ">
<polygon fill="white" stroke="#666666" points="544.5,-362 413.5,-362 413.5,-332 544.5,-332 544.5,-362"/>
<text text-anchor="start" x="421.5" y="-350" font-family="Helvetica,sans-Serif" font-size="10.00">ce103_hw4_medical_store</text>
<text text-anchor="middle" x="479" y="-339" font-family="Helvetica,sans-Serif" font-size="10.00">_lib.Customer.setName</text>
</a>
</g>
</g>
<!-- Node2&#45;&gt;Node8 -->
<g id="edge7" class="edge">
<title>Node2&#45;&gt;Node8</title>
<path fill="none" stroke="#63b8ff" d="M346.05,-422.03C351.28,-419.31 356.35,-416.31 361,-413 381.04,-398.76 376.37,-384.37 397,-371 398.97,-369.72 401.01,-368.51 403.11,-367.36"/>
<polygon fill="#63b8ff" stroke="#63b8ff" points="404.42,-370.61 411.88,-363.09 401.36,-364.32 404.42,-370.61"/>
</g>
<!-- Node9 -->
<g id="node9" class="node">
<title>Node9</title>
<g id="a_node9"><a xlink:href="classce103__hw4__medical__store__lib_1_1_customer.html#a772a54475697df032e12e788b54e8dc6" target="_top" xlink:title=" ">
<polygon fill="white" stroke="#666666" points="544.5,-314 413.5,-314 413.5,-284 544.5,-284 544.5,-314"/>
<text text-anchor="start" x="421.5" y="-302" font-family="Helvetica,sans-Serif" font-size="10.00">ce103_hw4_medical_store</text>
<text text-anchor="middle" x="479" y="-291" font-family="Helvetica,sans-Serif" font-size="10.00">_lib.Customer.setNum</text>
</a>
</g>
</g>
<!-- Node2&#45;&gt;Node9 -->
<g id="edge8" class="edge">
<title>Node2&#45;&gt;Node9</title>
<path fill="none" stroke="#63b8ff" d="M349.55,-422.16C353.68,-419.46 357.56,-416.42 361,-413 391.57,-382.64 365.16,-352.02 397,-323 399.01,-321.17 401.16,-319.47 403.41,-317.91"/>
<polygon fill="#63b8ff" stroke="#63b8ff" points="405.01,-321.02 411.86,-312.94 401.47,-314.99 405.01,-321.02"/>
</g>
<!-- Node18&#45;&gt;Node16 -->
<g id="edge18" class="edge">
<title>Node18&#45;&gt;Node16</title>
<path fill="none" stroke="#63b8ff" d="M349.47,-30.45C366.22,-34.43 384.4,-38.75 401.68,-42.86"/>
<polygon fill="#63b8ff" stroke="#63b8ff" points="400.86,-46.26 411.4,-45.17 402.48,-39.45 400.86,-46.26"/>
</g>
</g>
</svg>
        <g id="navigator" transform="translate(0 0)" fill="#404254">
                <rect fill="#f2f5e9" fill-opacity="0.5" stroke="#606060" stroke-width=".5" x="0" y="0" width="60" height="60"/>
                <use id="zoomplus" xlink:href="#zoomPlus" x="17" y="9" onmousedown="handleZoom(evt,'in')"/>
                <use id="zoomminus" xlink:href="#zoomMin" x="42" y="9" onmousedown="handleZoom(evt,'out')"/>
                <use id="reset" xlink:href="#resetDef" x="30" y="36" onmousedown="handleReset()"/>
                <g id="arrowUp" xlink:href="#dirArrow" transform="translate(30 24)" onmousedown="handlePan(0,-1)">
                  <use xlink:href="#rim" fill="#404040">
                        <set attributeName="fill" to="#808080" begin="arrowUp.mouseover" end="arrowUp.mouseout"/>
                  </use>
                  <path fill="none" stroke="white" stroke-width="1.5" d="M0,-3.0v7 M-2.5,-0.5L0,-3.0L2.5,-0.5"/>
                </g>
                <g id="arrowRight" xlink:href="#dirArrow" transform="rotate(90) translate(36 -43)" onmousedown="handlePan(1,0)">
                  <use xlink:href="#rim" fill="#404040">
                        <set attributeName="fill" to="#808080" begin="arrowRight.mouseover" end="arrowRight.mouseout"/>
                  </use>
                  <path fill="none" stroke="white" stroke-width="1.5" d="M0,-3.0v7 M-2.5,-0.5L0,-3.0L2.5,-0.5"/>
                </g>
                <g id="arrowDown" xlink:href="#dirArrow" transform="rotate(180) translate(-30 -48)" onmousedown="handlePan(0,1)">
                  <use xlink:href="#rim" fill="#404040">
                        <set attributeName="fill" to="#808080" begin="arrowDown.mouseover" end="arrowDown.mouseout"/>
                  </use>
                  <path fill="none" stroke="white" stroke-width="1.5" d="M0,-3.0v7 M-2.5,-0.5L0,-3.0L2.5,-0.5"/>
                </g>
                <g id="arrowLeft" xlink:href="#dirArrow" transform="rotate(270) translate(-36 17)" onmousedown="handlePan(-1,0)">
                  <use xlink:href="#rim" fill="#404040">
                        <set attributeName="fill" to="#808080" begin="arrowLeft.mouseover" end="arrowLeft.mouseout"/>
                  </use>
                  <path fill="none" stroke="white" stroke-width="1.5" d="M0,-3.0v7 M-2.5,-0.5L0,-3.0L2.5,-0.5"/>
                </g>
        </g>
        <svg viewBox="0 0 15 15" width="100%" height="30px" preserveAspectRatio="xMaxYMin meet">
         <g id="arrow_out" transform="scale(0.3 0.3)">
          <a xlink:href="classce103__hw4__medical__store__app_1_1_insider_of_the_menu_afe96072316b08c7e64c0c00f4d912352_cgraph_org.svg" target="_base">
           <rect id="button" ry="5" rx="5" y="6" x="6" height="38" width="38"
                fill="#f2f5e9" fill-opacity="0.5" stroke="#606060" stroke-width="1.0"/>
           <path id="arrow"
             d="M 11.500037,31.436501 C 11.940474,20.09759 22.043105,11.32322 32.158766,21.979434 L 37.068811,17.246167 C 37.068811,17.246167 37.088388,32 37.088388,32 L 22.160133,31.978069 C 22.160133,31.978069 26.997745,27.140456 26.997745,27.140456 C 18.528582,18.264221 13.291696,25.230495 11.500037,31.436501 z"
             style="fill:#404040;"/>
          </a>
         </g>
        </svg>
</svg>
