<?xml version="1.0" encoding="UTF-8" standalone="no"?>
<!DOCTYPE svg PUBLIC "-//W3C//DTD SVG 1.1//EN"
 "http://www.w3.org/Graphics/SVG/1.1/DTD/svg11.dtd">
<!-- Generated by graphviz version 7.0.4 (20221203.1631)
 -->
<!-- Title: ce103_hw4_medical_store_lib.Supplier.setemailID Pages: 1 -->
<svg width="1058pt" height="159pt"
 viewBox="0.00 0.00 1058.00 159.00" xmlns="http://www.w3.org/2000/svg" xmlns:xlink="http://www.w3.org/1999/xlink">
<g id="graph0" class="graph" transform="scale(1 1) rotate(0) translate(4 155)">
<title>ce103_hw4_medical_store_lib.Supplier.setemailID</title>
<!-- Node1 -->
<g id="node1" class="node">
<title>Node1</title>
<g id="a_node1"><a xlink:title=" ">
<polygon fill="#999999" stroke="#666666" points="1050,-93 919,-93 919,-63 1050,-63 1050,-93"/>
<text text-anchor="start" x="927" y="-81" font-family="Helvetica,sans-Serif" font-size="10.00">ce103_hw4_medical_store</text>
<text text-anchor="middle" x="984.5" y="-70" font-family="Helvetica,sans-Serif" font-size="10.00">_lib.Supplier.setemailID</text>
</a>
</g>
</g>
<!-- Node2 -->
<g id="node2" class="node">
<title>Node2</title>
<g id="a_node2"><a xlink:href="classce103__hw4__medical__store__app_1_1_insider_of_the_menu.html#a5a985628df103b1884695c250f7638ea" target="_top" xlink:title=" ">
<polygon fill="white" stroke="#666666" points="674,-151 501,-151 501,-121 674,-121 674,-151"/>
<text text-anchor="start" x="509" y="-139" font-family="Helvetica,sans-Serif" font-size="10.00">ce103_hw4_medical_store</text>
<text text-anchor="middle" x="587.5" y="-128" font-family="Helvetica,sans-Serif" font-size="10.00">_app.InsiderOfTheMenu.addSupplier</text>
</a>
</g>
</g>
<!-- Node1&#45;&gt;Node2 -->
<g id="edge1" class="edge">
<title>Node1&#45;&gt;Node2</title>
<path fill="none" stroke="#63b8ff" d="M927.68,-96.77C913.26,-101.03 897.67,-105.14 883,-108 813.43,-121.56 733.29,-128.63 674.19,-132.28"/>
<polygon fill="#63b8ff" stroke="#63b8ff" points="928.45,-100.19 936.99,-93.94 926.41,-93.5 928.45,-100.19"/>
</g>
<!-- Node6 -->
<g id="node6" class="node">
<title>Node6</title>
<g id="a_node6"><a xlink:href="classce103__hw4__medical__store__lib_1_1_supplier.html#abad3a97eeb6c990ec1fb06b41739e576" target="_top" xlink:title=" ">
<polygon fill="white" stroke="#666666" points="866.5,-98.5 726.5,-98.5 726.5,-57.5 866.5,-57.5 866.5,-98.5"/>
<text text-anchor="start" x="734.5" y="-86.5" font-family="Helvetica,sans-Serif" font-size="10.00">ce103_hw4_medical_store</text>
<text text-anchor="start" x="734.5" y="-75.5" font-family="Helvetica,sans-Serif" font-size="10.00">_lib.Supplier.byteArrayBlock</text>
<text text-anchor="middle" x="796.5" y="-64.5" font-family="Helvetica,sans-Serif" font-size="10.00">ToSupplier</text>
</a>
</g>
</g>
<!-- Node1&#45;&gt;Node6 -->
<g id="edge5" class="edge">
<title>Node1&#45;&gt;Node6</title>
<path fill="none" stroke="#63b8ff" d="M907.53,-78C894.06,-78 880.09,-78 866.81,-78"/>
<polygon fill="#63b8ff" stroke="#63b8ff" points="907.19,-81.5 917.19,-78 907.19,-74.5 907.19,-81.5"/>
</g>
<!-- Node9 -->
<g id="node9" class="node">
<title>Node9</title>
<g id="a_node9"><a xlink:href="classce103__hw4__medical__store__app_1_1_insider_of_the_menu.html#aefa6b5dc1b968c81b8d10998a0981577" target="_top" xlink:title=" ">
<polygon fill="white" stroke="#666666" points="883,-30 710,-30 710,0 883,0 883,-30"/>
<text text-anchor="start" x="718" y="-18" font-family="Helvetica,sans-Serif" font-size="10.00">ce103_hw4_medical_store</text>
<text text-anchor="middle" x="796.5" y="-7" font-family="Helvetica,sans-Serif" font-size="10.00">_app.InsiderOfTheMenu.editSupplier</text>
</a>
</g>
</g>
<!-- Node1&#45;&gt;Node9 -->
<g id="edge10" class="edge">
<title>Node1&#45;&gt;Node9</title>
<path fill="none" stroke="#63b8ff" d="M927.19,-58.93C900.3,-49.82 868.54,-39.06 843.18,-30.47"/>
<polygon fill="#63b8ff" stroke="#63b8ff" points="925.97,-62.21 936.57,-62.1 928.22,-55.58 925.97,-62.21"/>
</g>
<!-- Node3 -->
<g id="node3" class="node">
<title>Node3</title>
<g id="a_node3"><a xlink:href="classce103__hw4__medical__store__app_1_1_menu.html#af40268756f4be60ece4bf674210a17bb" target="_top" xlink:title=" ">
<polygon fill="white" stroke="#666666" points="465,-79 334,-79 334,-49 465,-49 465,-79"/>
<text text-anchor="start" x="342" y="-67" font-family="Helvetica,sans-Serif" font-size="10.00">ce103_hw4_medical_store</text>
<text text-anchor="middle" x="399.5" y="-56" font-family="Helvetica,sans-Serif" font-size="10.00">_app.Menu.performAction</text>
</a>
</g>
</g>
<!-- Node2&#45;&gt;Node3 -->
<g id="edge2" class="edge">
<title>Node2&#45;&gt;Node3</title>
<path fill="none" stroke="#63b8ff" d="M515.45,-117.08C510.53,-115.45 505.67,-113.76 501,-112 476.2,-102.68 449.17,-89.59 429.39,-79.43"/>
<polygon fill="#63b8ff" stroke="#63b8ff" points="514.25,-120.37 524.84,-120.05 516.36,-113.69 514.25,-120.37"/>
</g>
<!-- Node4 -->
<g id="node4" class="node">
<title>Node4</title>
<g id="a_node4"><a xlink:href="classce103__hw4__medical__store__app_1_1_menu.html#a8890452f69a3d1c94a7951344bd7515b" target="_top" xlink:title=" ">
<polygon fill="white" stroke="#666666" points="298,-79 167,-79 167,-49 298,-49 298,-79"/>
<text text-anchor="start" x="175" y="-67" font-family="Helvetica,sans-Serif" font-size="10.00">ce103_hw4_medical_store</text>
<text text-anchor="middle" x="232.5" y="-56" font-family="Helvetica,sans-Serif" font-size="10.00">_app.Menu.runMenu</text>
</a>
</g>
</g>
<!-- Node3&#45;&gt;Node4 -->
<g id="edge3" class="edge">
<title>Node3&#45;&gt;Node4</title>
<path fill="none" stroke="#63b8ff" d="M322.45,-64C314.39,-64 306.24,-64 298.32,-64"/>
<polygon fill="#63b8ff" stroke="#63b8ff" points="322.25,-67.5 332.25,-64 322.25,-60.5 322.25,-67.5"/>
</g>
<!-- Node5 -->
<g id="node5" class="node">
<title>Node5</title>
<g id="a_node5"><a xlink:href="classce103__hw4__medical__store__app_1_1_menu.html#a906bd0b055bce495d306a21e81cbec1b" target="_top" xlink:title=" ">
<polygon fill="white" stroke="#666666" points="131,-79 0,-79 0,-49 131,-49 131,-79"/>
<text text-anchor="start" x="8" y="-67" font-family="Helvetica,sans-Serif" font-size="10.00">ce103_hw4_medical_store</text>
<text text-anchor="middle" x="65.5" y="-56" font-family="Helvetica,sans-Serif" font-size="10.00">_app.Menu.main</text>
</a>
</g>
</g>
<!-- Node4&#45;&gt;Node5 -->
<g id="edge4" class="edge">
<title>Node4&#45;&gt;Node5</title>
<path fill="none" stroke="#63b8ff" d="M155.45,-64C147.39,-64 139.24,-64 131.32,-64"/>
<polygon fill="#63b8ff" stroke="#63b8ff" points="155.25,-67.5 165.25,-64 155.25,-60.5 155.25,-67.5"/>
</g>
<!-- Node7 -->
<g id="node7" class="node">
<title>Node7</title>
<g id="a_node7"><a xlink:href="classce103__hw4__medical__store__app_1_1_insider_of_the_menu.html#a94e1694f1b1ad5550fc4cb63026d0088" target="_top" xlink:title=" ">
<polygon fill="white" stroke="#666666" points="665,-103 510,-103 510,-73 665,-73 665,-103"/>
<text text-anchor="start" x="518" y="-91" font-family="Helvetica,sans-Serif" font-size="10.00">ce103_hw4_medical_store</text>
<text text-anchor="middle" x="587.5" y="-80" font-family="Helvetica,sans-Serif" font-size="10.00">_app.InsiderOfTheMenu.listsupp</text>
</a>
</g>
</g>
<!-- Node6&#45;&gt;Node7 -->
<g id="edge6" class="edge">
<title>Node6&#45;&gt;Node7</title>
<path fill="none" stroke="#63b8ff" d="M715.14,-81.88C698.82,-82.67 681.69,-83.5 665.5,-84.28"/>
<polygon fill="#63b8ff" stroke="#63b8ff" points="714.95,-85.4 724.77,-81.42 714.62,-78.4 714.95,-85.4"/>
</g>
<!-- Node8 -->
<g id="node8" class="node">
<title>Node8</title>
<g id="a_node8"><a xlink:href="classce103__hw4__medical__store__app_1_1_insider_of_the_menu.html#a3220a571a81455e1bacc73eaff22a3a1" target="_top" xlink:title=" ">
<polygon fill="white" stroke="#666666" points="673.5,-55 501.5,-55 501.5,-25 673.5,-25 673.5,-55"/>
<text text-anchor="start" x="509.5" y="-43" font-family="Helvetica,sans-Serif" font-size="10.00">ce103_hw4_medical_store</text>
<text text-anchor="middle" x="587.5" y="-32" font-family="Helvetica,sans-Serif" font-size="10.00">_app.InsiderOfTheMenu.searchsupp</text>
</a>
</g>
</g>
<!-- Node6&#45;&gt;Node8 -->
<g id="edge8" class="edge">
<title>Node6&#45;&gt;Node8</title>
<path fill="none" stroke="#63b8ff" d="M715.26,-63.27C701.32,-60.71 686.79,-58.04 672.76,-55.47"/>
<polygon fill="#63b8ff" stroke="#63b8ff" points="714.33,-66.66 724.8,-65.02 715.59,-59.77 714.33,-66.66"/>
</g>
<!-- Node7&#45;&gt;Node3 -->
<g id="edge7" class="edge">
<title>Node7&#45;&gt;Node3</title>
<path fill="none" stroke="#63b8ff" d="M498.41,-76.63C487.25,-75.19 476.01,-73.74 465.31,-72.36"/>
<polygon fill="#63b8ff" stroke="#63b8ff" points="497.64,-80.06 508,-77.87 498.53,-73.12 497.64,-80.06"/>
</g>
<!-- Node8&#45;&gt;Node3 -->
<g id="edge9" class="edge">
<title>Node8&#45;&gt;Node3</title>
<path fill="none" stroke="#63b8ff" d="M489.81,-52.48C481.52,-53.55 473.27,-54.61 465.32,-55.64"/>
<polygon fill="#63b8ff" stroke="#63b8ff" points="490.15,-55.96 499.62,-51.21 489.25,-49.02 490.15,-55.96"/>
</g>
<!-- Node9&#45;&gt;Node3 -->
<g id="edge11" class="edge">
<title>Node9&#45;&gt;Node3</title>
<path fill="none" stroke="#63b8ff" d="M698.27,-4.7C640.28,-1.18 565.6,-1.25 501,-16 473.48,-22.28 444.66,-37.01 424.98,-48.51"/>
<polygon fill="#63b8ff" stroke="#63b8ff" points="697.92,-8.19 708.13,-5.35 698.38,-1.2 697.92,-8.19"/>
</g>
</g>
</svg>
