<?xml version="1.0" encoding="UTF-8" standalone="no"?>
<!DOCTYPE svg PUBLIC "-//W3C//DTD SVG 1.1//EN"
 "http://www.w3.org/Graphics/SVG/1.1/DTD/svg11.dtd">
<!-- Generated by graphviz version 7.0.4 (20221203.1631)
 -->
<!-- Title: ce103_hw4_medical_store_app.InsiderOfTheMenu.listcust Pages: 1 -->
<svg width="559pt" height="728pt"
 viewBox="0.00 0.00 559.00 727.50" xmlns="http://www.w3.org/2000/svg" xmlns:xlink="http://www.w3.org/1999/xlink">
<g id="graph0" class="graph" transform="scale(1 1) rotate(0) translate(4 723.5)">
<title>ce103_hw4_medical_store_app.InsiderOfTheMenu.listcust</title>
<!-- Node1 -->
<g id="node1" class="node">
<title>Node1</title>
<g id="a_node1"><a xlink:title=" ">
<polygon fill="#999999" stroke="#666666" points="153,-246 0,-246 0,-216 153,-216 153,-246"/>
<text text-anchor="start" x="8" y="-234" font-family="Helvetica,sans-Serif" font-size="10.00">ce103_hw4_medical_store</text>
<text text-anchor="middle" x="76.5" y="-223" font-family="Helvetica,sans-Serif" font-size="10.00">_app.InsiderOfTheMenu.listcust</text>
</a>
</g>
</g>
<!-- Node2 -->
<g id="node2" class="node">
<title>Node2</title>
<g id="a_node2"><a xlink:href="classce103__hw4__medical__store__lib_1_1_customer.html#ae766307af9c3831757bb80b0c8adc4da" target="_top" xlink:title=" ">
<polygon fill="white" stroke="#666666" points="344,-534.5 196,-534.5 196,-493.5 344,-493.5 344,-534.5"/>
<text text-anchor="start" x="204" y="-522.5" font-family="Helvetica,sans-Serif" font-size="10.00">ce103_hw4_medical_store</text>
<text text-anchor="start" x="204" y="-511.5" font-family="Helvetica,sans-Serif" font-size="10.00">_lib.Customer.ByteArrayBlock</text>
<text text-anchor="middle" x="270" y="-500.5" font-family="Helvetica,sans-Serif" font-size="10.00">ToCustomer</text>
</a>
</g>
</g>
<!-- Node1&#45;&gt;Node2 -->
<g id="edge1" class="edge">
<title>Node1&#45;&gt;Node2</title>
<path fill="none" stroke="#63b8ff" d="M87.57,-246.25C107.03,-275.68 151.22,-342.33 189,-398 208.83,-427.23 231.74,-460.38 247.95,-483.74"/>
<polygon fill="#63b8ff" stroke="#63b8ff" points="245.01,-485.65 253.59,-491.87 250.76,-481.66 245.01,-485.65"/>
</g>
<!-- Node10 -->
<g id="node10" class="node">
<title>Node10</title>
<g id="a_node10"><a xlink:href="classce103__hw4__medical__store__app_1_1_insider_of_the_menu.html#a0409ee76fc4d80aea880c4c9702271df" target="_top" xlink:title=" ">
<polygon fill="white" stroke="#666666" points="540.5,-361 397.5,-361 397.5,-331 540.5,-331 540.5,-361"/>
<text text-anchor="start" x="405.5" y="-349" font-family="Helvetica,sans-Serif" font-size="10.00">ce103_hw4_medical_store</text>
<text text-anchor="middle" x="469" y="-338" font-family="Helvetica,sans-Serif" font-size="10.00">_app.InsiderOfTheMenu.clear</text>
</a>
</g>
</g>
<!-- Node1&#45;&gt;Node10 -->
<g id="edge9" class="edge">
<title>Node1&#45;&gt;Node10</title>
<path fill="none" stroke="#63b8ff" d="M84.6,-246.39C99.22,-275.97 135.84,-340.08 189,-365 222.73,-380.81 316.27,-370.84 385.8,-360.31"/>
<polygon fill="#63b8ff" stroke="#63b8ff" points="386.33,-363.77 395.68,-358.79 385.26,-356.86 386.33,-363.77"/>
</g>
<!-- Node11 -->
<g id="node11" class="node">
<title>Node11</title>
<g id="a_node11"><a xlink:href="classce103__hw4__medical__store__app_1_1_insider_of_the_menu.html#a3a0461cf6ef97ea7761931d922129d14" target="_top" xlink:title=" ">
<polygon fill="white" stroke="#666666" points="351,-356 189,-356 189,-326 351,-326 351,-356"/>
<text text-anchor="start" x="197" y="-344" font-family="Helvetica,sans-Serif" font-size="10.00">ce103_hw4_medical_store</text>
<text text-anchor="middle" x="270" y="-333" font-family="Helvetica,sans-Serif" font-size="10.00">_app.InsiderOfTheMenu.customer</text>
</a>
</g>
</g>
<!-- Node1&#45;&gt;Node11 -->
<g id="edge10" class="edge">
<title>Node1&#45;&gt;Node11</title>
<path fill="none" stroke="#63b8ff" d="M95.38,-246.45C116.57,-264.16 153.5,-293.15 189,-312 195.49,-315.44 202.47,-318.64 209.52,-321.56"/>
<polygon fill="#63b8ff" stroke="#63b8ff" points="207.84,-324.66 218.42,-325.08 210.41,-318.15 207.84,-324.66"/>
</g>
<!-- Node12 -->
<g id="node12" class="node">
<title>Node12</title>
<g id="a_node12"><a xlink:href="classce103__hw4__medical__store__app_1_1_insider_of_the_menu.html#aa208466ba46c8f7d58d2f2e970d23545" target="_top" xlink:title=" ">
<polygon fill="white" stroke="#666666" points="551,-313 387,-313 387,-283 551,-283 551,-313"/>
<text text-anchor="start" x="395" y="-301" font-family="Helvetica,sans-Serif" font-size="10.00">ce103_hw4_medical_store</text>
<text text-anchor="middle" x="469" y="-290" font-family="Helvetica,sans-Serif" font-size="10.00">_app.InsiderOfTheMenu.main_box</text>
</a>
</g>
</g>
<!-- Node1&#45;&gt;Node12 -->
<g id="edge18" class="edge">
<title>Node1&#45;&gt;Node12</title>
<path fill="none" stroke="#63b8ff" d="M105.91,-246.43C127.91,-257.57 159.5,-271.87 189,-279 249.91,-293.73 320.32,-298.43 375.17,-299.48"/>
<polygon fill="#63b8ff" stroke="#63b8ff" points="375.06,-302.98 385.11,-299.63 375.17,-295.98 375.06,-302.98"/>
</g>
<!-- Node13 -->
<g id="node13" class="node">
<title>Node13</title>
<g id="a_node13"><a xlink:href="classce103__hw4__medical__store__lib_1_1_customer.html#a36aba6fa51f7a02f602b7e1beeff0fba" target="_top" xlink:title=" ">
<polygon fill="white" stroke="#666666" points="335.5,-270 204.5,-270 204.5,-240 335.5,-240 335.5,-270"/>
<text text-anchor="start" x="212.5" y="-258" font-family="Helvetica,sans-Serif" font-size="10.00">ce103_hw4_medical_store</text>
<text text-anchor="middle" x="270" y="-247" font-family="Helvetica,sans-Serif" font-size="10.00">_lib.Customer.getCity</text>
</a>
</g>
</g>
<!-- Node1&#45;&gt;Node13 -->
<g id="edge13" class="edge">
<title>Node1&#45;&gt;Node13</title>
<path fill="none" stroke="#63b8ff" d="M153.46,-240.52C166.46,-242.15 179.98,-243.84 192.98,-245.47"/>
<polygon fill="#63b8ff" stroke="#63b8ff" points="192.39,-248.93 202.75,-246.7 193.27,-241.98 192.39,-248.93"/>
</g>
<!-- Node14 -->
<g id="node14" class="node">
<title>Node14</title>
<g id="a_node14"><a xlink:href="classce103__hw4__medical__store__lib_1_1_customer.html#a0f49e94a5abb7d8aa007db0e02056473" target="_top" xlink:title=" ">
<polygon fill="white" stroke="#666666" points="335.5,-222 204.5,-222 204.5,-192 335.5,-192 335.5,-222"/>
<text text-anchor="start" x="212.5" y="-210" font-family="Helvetica,sans-Serif" font-size="10.00">ce103_hw4_medical_store</text>
<text text-anchor="middle" x="270" y="-199" font-family="Helvetica,sans-Serif" font-size="10.00">_lib.Customer.getEmail</text>
</a>
</g>
</g>
<!-- Node1&#45;&gt;Node14 -->
<g id="edge14" class="edge">
<title>Node1&#45;&gt;Node14</title>
<path fill="none" stroke="#63b8ff" d="M153.46,-221.48C166.46,-219.85 179.98,-218.16 192.98,-216.53"/>
<polygon fill="#63b8ff" stroke="#63b8ff" points="193.27,-220.02 202.75,-215.3 192.39,-213.07 193.27,-220.02"/>
</g>
<!-- Node15 -->
<g id="node15" class="node">
<title>Node15</title>
<g id="a_node15"><a xlink:href="classce103__hw4__medical__store__lib_1_1_customer.html#a58680383b49831fdc9d6d5c77a6640df" target="_top" xlink:title=" ">
<polygon fill="white" stroke="#666666" points="335.5,-174 204.5,-174 204.5,-144 335.5,-144 335.5,-174"/>
<text text-anchor="start" x="212.5" y="-162" font-family="Helvetica,sans-Serif" font-size="10.00">ce103_hw4_medical_store</text>
<text text-anchor="middle" x="270" y="-151" font-family="Helvetica,sans-Serif" font-size="10.00">_lib.Customer.getId</text>
</a>
</g>
</g>
<!-- Node1&#45;&gt;Node15 -->
<g id="edge15" class="edge">
<title>Node1&#45;&gt;Node15</title>
<path fill="none" stroke="#63b8ff" d="M110.28,-215.71C132.28,-205.74 162.07,-192.8 189,-183 193.73,-181.28 198.64,-179.59 203.61,-177.94"/>
<polygon fill="#63b8ff" stroke="#63b8ff" points="204.62,-181.29 213.06,-174.9 202.47,-174.63 204.62,-181.29"/>
</g>
<!-- Node16 -->
<g id="node16" class="node">
<title>Node16</title>
<g id="a_node16"><a xlink:href="classce103__hw4__medical__store__lib_1_1_customer.html#a13135918fb5adac15dcda407d1040fe5" target="_top" xlink:title=" ">
<polygon fill="white" stroke="#666666" points="335.5,-126 204.5,-126 204.5,-96 335.5,-96 335.5,-126"/>
<text text-anchor="start" x="212.5" y="-114" font-family="Helvetica,sans-Serif" font-size="10.00">ce103_hw4_medical_store</text>
<text text-anchor="middle" x="270" y="-103" font-family="Helvetica,sans-Serif" font-size="10.00">_lib.Customer.getName</text>
</a>
</g>
</g>
<!-- Node1&#45;&gt;Node16 -->
<g id="edge16" class="edge">
<title>Node1&#45;&gt;Node16</title>
<path fill="none" stroke="#63b8ff" d="M91.14,-215.78C110.79,-194.72 149.12,-156.84 189,-135 191.65,-133.55 194.4,-132.17 197.21,-130.87"/>
<polygon fill="#63b8ff" stroke="#63b8ff" points="198.38,-134.18 206.24,-127.07 195.66,-127.73 198.38,-134.18"/>
</g>
<!-- Node17 -->
<g id="node17" class="node">
<title>Node17</title>
<g id="a_node17"><a xlink:href="classce103__hw4__medical__store__lib_1_1_customer.html#ad4ac11104ae983781724a6c2a9eb933e" target="_top" xlink:title=" ">
<polygon fill="white" stroke="#666666" points="335.5,-78 204.5,-78 204.5,-48 335.5,-48 335.5,-78"/>
<text text-anchor="start" x="212.5" y="-66" font-family="Helvetica,sans-Serif" font-size="10.00">ce103_hw4_medical_store</text>
<text text-anchor="middle" x="270" y="-55" font-family="Helvetica,sans-Serif" font-size="10.00">_lib.Customer.getNum</text>
</a>
</g>
</g>
<!-- Node1&#45;&gt;Node17 -->
<g id="edge17" class="edge">
<title>Node1&#45;&gt;Node17</title>
<path fill="none" stroke="#63b8ff" d="M85.05,-215.86C100.47,-186.51 138.43,-121.72 189,-87 190.79,-85.77 192.65,-84.6 194.56,-83.49"/>
<polygon fill="#63b8ff" stroke="#63b8ff" points="195.81,-86.78 203.11,-79.1 192.62,-80.55 195.81,-86.78"/>
</g>
<!-- Node18 -->
<g id="node18" class="node">
<title>Node18</title>
<g id="a_node18"><a xlink:href="classce103__hw4__medical__store__lib_1_1_file_utility.html#aac1f545c958fe49778c588ce463e809d" target="_top" xlink:title=" ">
<polygon fill="white" stroke="#666666" points="335.5,-30 204.5,-30 204.5,0 335.5,0 335.5,-30"/>
<text text-anchor="start" x="212.5" y="-18" font-family="Helvetica,sans-Serif" font-size="10.00">ce103_hw4_medical_store</text>
<text text-anchor="middle" x="270" y="-7" font-family="Helvetica,sans-Serif" font-size="10.00">_lib.FileUtility.readBlock</text>
</a>
</g>
</g>
<!-- Node1&#45;&gt;Node18 -->
<g id="edge19" class="edge">
<title>Node1&#45;&gt;Node18</title>
<path fill="none" stroke="#63b8ff" d="M82.05,-215.68C93.62,-179.35 127.72,-87.35 189,-39 190.75,-37.62 192.58,-36.32 194.47,-35.09"/>
<polygon fill="#63b8ff" stroke="#63b8ff" points="196.03,-38.23 203.05,-30.3 192.62,-32.12 196.03,-38.23"/>
</g>
<!-- Node3 -->
<g id="node3" class="node">
<title>Node3</title>
<g id="a_node3"><a xlink:href="classce103__hw4__medical__store__lib_1_1_conversion_utility.html#a73bfc22165c4d39e288482818b96f6a1" target="_top" xlink:title=" ">
<polygon fill="white" stroke="#666666" points="545,-719.5 393,-719.5 393,-678.5 545,-678.5 545,-719.5"/>
<text text-anchor="start" x="401" y="-707.5" font-family="Helvetica,sans-Serif" font-size="10.00">ce103_hw4_medical_store</text>
<text text-anchor="start" x="401" y="-696.5" font-family="Helvetica,sans-Serif" font-size="10.00">_lib.ConversionUtility.byteArray</text>
<text text-anchor="middle" x="469" y="-685.5" font-family="Helvetica,sans-Serif" font-size="10.00">ToInteger</text>
</a>
</g>
</g>
<!-- Node2&#45;&gt;Node3 -->
<g id="edge2" class="edge">
<title>Node2&#45;&gt;Node3</title>
<path fill="none" stroke="#63b8ff" d="M281.24,-534.77C298.59,-567.92 336.83,-632.83 387,-670 387.99,-670.73 389,-671.45 390.03,-672.15"/>
<polygon fill="#63b8ff" stroke="#63b8ff" points="388.04,-675.04 398.41,-677.22 391.67,-669.05 388.04,-675.04"/>
</g>
<!-- Node4 -->
<g id="node4" class="node">
<title>Node4</title>
<g id="a_node4"><a xlink:href="classce103__hw4__medical__store__lib_1_1_conversion_utility.html#a202f8f242fa0c940170289cb2b08b1f7" target="_top" xlink:title=" ">
<polygon fill="white" stroke="#666666" points="545,-660.5 393,-660.5 393,-619.5 545,-619.5 545,-660.5"/>
<text text-anchor="start" x="401" y="-648.5" font-family="Helvetica,sans-Serif" font-size="10.00">ce103_hw4_medical_store</text>
<text text-anchor="start" x="401" y="-637.5" font-family="Helvetica,sans-Serif" font-size="10.00">_lib.ConversionUtility.byteArray</text>
<text text-anchor="middle" x="469" y="-626.5" font-family="Helvetica,sans-Serif" font-size="10.00">ToString</text>
</a>
</g>
</g>
<!-- Node2&#45;&gt;Node4 -->
<g id="edge3" class="edge">
<title>Node2&#45;&gt;Node4</title>
<path fill="none" stroke="#63b8ff" d="M291.59,-534.77C313.61,-556.02 350.31,-588.85 387,-610 389.59,-611.49 392.27,-612.94 395,-614.33"/>
<polygon fill="#63b8ff" stroke="#63b8ff" points="393.22,-617.35 403.75,-618.48 396.22,-611.03 393.22,-617.35"/>
</g>
<!-- Node5 -->
<g id="node5" class="node">
<title>Node5</title>
<g id="a_node5"><a xlink:href="classce103__hw4__medical__store__lib_1_1_customer.html#a8443925c23f0315b80f1f5f6f5f7267b" target="_top" xlink:title=" ">
<polygon fill="white" stroke="#666666" points="534.5,-601 403.5,-601 403.5,-571 534.5,-571 534.5,-601"/>
<text text-anchor="start" x="411.5" y="-589" font-family="Helvetica,sans-Serif" font-size="10.00">ce103_hw4_medical_store</text>
<text text-anchor="middle" x="469" y="-578" font-family="Helvetica,sans-Serif" font-size="10.00">_lib.Customer.setCity</text>
</a>
</g>
</g>
<!-- Node2&#45;&gt;Node5 -->
<g id="edge4" class="edge">
<title>Node2&#45;&gt;Node5</title>
<path fill="none" stroke="#63b8ff" d="M318.54,-534.98C339.36,-543.83 364.19,-553.93 387,-562 391.93,-563.74 397.05,-565.47 402.22,-567.14"/>
<polygon fill="#63b8ff" stroke="#63b8ff" points="400.82,-570.37 411.41,-570.04 402.93,-563.69 400.82,-570.37"/>
</g>
<!-- Node6 -->
<g id="node6" class="node">
<title>Node6</title>
<g id="a_node6"><a xlink:href="classce103__hw4__medical__store__lib_1_1_customer.html#a7189e6165587d2ae32a164eb7497f24e" target="_top" xlink:title=" ">
<polygon fill="white" stroke="#666666" points="534.5,-553 403.5,-553 403.5,-523 534.5,-523 534.5,-553"/>
<text text-anchor="start" x="411.5" y="-541" font-family="Helvetica,sans-Serif" font-size="10.00">ce103_hw4_medical_store</text>
<text text-anchor="middle" x="469" y="-530" font-family="Helvetica,sans-Serif" font-size="10.00">_lib.Customer.setEmail</text>
</a>
</g>
</g>
<!-- Node2&#45;&gt;Node6 -->
<g id="edge5" class="edge">
<title>Node2&#45;&gt;Node6</title>
<path fill="none" stroke="#63b8ff" d="M344.36,-522.94C359.85,-524.82 376.23,-526.82 391.83,-528.72"/>
<polygon fill="#63b8ff" stroke="#63b8ff" points="391.16,-532.17 401.51,-529.9 392.01,-525.22 391.16,-532.17"/>
</g>
<!-- Node7 -->
<g id="node7" class="node">
<title>Node7</title>
<g id="a_node7"><a xlink:href="classce103__hw4__medical__store__lib_1_1_customer.html#abb0726c60d6cd6fe879ef443f4378562" target="_top" xlink:title=" ">
<polygon fill="white" stroke="#666666" points="534.5,-505 403.5,-505 403.5,-475 534.5,-475 534.5,-505"/>
<text text-anchor="start" x="411.5" y="-493" font-family="Helvetica,sans-Serif" font-size="10.00">ce103_hw4_medical_store</text>
<text text-anchor="middle" x="469" y="-482" font-family="Helvetica,sans-Serif" font-size="10.00">_lib.Customer.setId</text>
</a>
</g>
</g>
<!-- Node2&#45;&gt;Node7 -->
<g id="edge6" class="edge">
<title>Node2&#45;&gt;Node7</title>
<path fill="none" stroke="#63b8ff" d="M344.36,-505.06C359.85,-503.18 376.23,-501.18 391.83,-499.28"/>
<polygon fill="#63b8ff" stroke="#63b8ff" points="392.01,-502.78 401.51,-498.1 391.16,-495.83 392.01,-502.78"/>
</g>
<!-- Node8 -->
<g id="node8" class="node">
<title>Node8</title>
<g id="a_node8"><a xlink:href="classce103__hw4__medical__store__lib_1_1_customer.html#a43138a44bcc676b1f218b27c1b1e4c41" target="_top" xlink:title=" ">
<polygon fill="white" stroke="#666666" points="534.5,-457 403.5,-457 403.5,-427 534.5,-427 534.5,-457"/>
<text text-anchor="start" x="411.5" y="-445" font-family="Helvetica,sans-Serif" font-size="10.00">ce103_hw4_medical_store</text>
<text text-anchor="middle" x="469" y="-434" font-family="Helvetica,sans-Serif" font-size="10.00">_lib.Customer.setName</text>
</a>
</g>
</g>
<!-- Node2&#45;&gt;Node8 -->
<g id="edge7" class="edge">
<title>Node2&#45;&gt;Node8</title>
<path fill="none" stroke="#63b8ff" d="M318.54,-493.02C339.36,-484.17 364.19,-474.07 387,-466 391.93,-464.26 397.05,-462.53 402.22,-460.86"/>
<polygon fill="#63b8ff" stroke="#63b8ff" points="402.93,-464.31 411.41,-457.96 400.82,-457.63 402.93,-464.31"/>
</g>
<!-- Node9 -->
<g id="node9" class="node">
<title>Node9</title>
<g id="a_node9"><a xlink:href="classce103__hw4__medical__store__lib_1_1_customer.html#a772a54475697df032e12e788b54e8dc6" target="_top" xlink:title=" ">
<polygon fill="white" stroke="#666666" points="534.5,-409 403.5,-409 403.5,-379 534.5,-379 534.5,-409"/>
<text text-anchor="start" x="411.5" y="-397" font-family="Helvetica,sans-Serif" font-size="10.00">ce103_hw4_medical_store</text>
<text text-anchor="middle" x="469" y="-386" font-family="Helvetica,sans-Serif" font-size="10.00">_lib.Customer.setNum</text>
</a>
</g>
</g>
<!-- Node2&#45;&gt;Node9 -->
<g id="edge8" class="edge">
<title>Node2&#45;&gt;Node9</title>
<path fill="none" stroke="#63b8ff" d="M290.92,-493.13C312.65,-471.48 349.4,-438.04 387,-418 389.85,-416.48 392.81,-415.04 395.84,-413.69"/>
<polygon fill="#63b8ff" stroke="#63b8ff" points="397.02,-416.99 404.95,-409.96 394.37,-410.51 397.02,-416.99"/>
</g>
<!-- Node11&#45;&gt;Node10 -->
<g id="edge11" class="edge">
<title>Node11&#45;&gt;Node10</title>
<path fill="none" stroke="#63b8ff" d="M351.41,-343.04C362.74,-343.33 374.4,-343.62 385.77,-343.91"/>
<polygon fill="#63b8ff" stroke="#63b8ff" points="385.41,-347.4 395.5,-344.16 385.59,-340.41 385.41,-347.4"/>
</g>
<!-- Node11&#45;&gt;Node12 -->
<g id="edge12" class="edge">
<title>Node11&#45;&gt;Node12</title>
<path fill="none" stroke="#63b8ff" d="M341.84,-325.54C356.17,-322.41 371.35,-319.1 386.02,-315.89"/>
<polygon fill="#63b8ff" stroke="#63b8ff" points="386.62,-319.35 395.64,-313.79 385.13,-312.51 386.62,-319.35"/>
</g>
</g>
</svg>
