<?xml version="1.0" encoding="UTF-8" standalone="no"?>
<!DOCTYPE svg PUBLIC "-//W3C//DTD SVG 1.1//EN"
 "http://www.w3.org/Graphics/SVG/1.1/DTD/svg11.dtd">
<!-- Generated by graphviz version 7.0.4 (20221203.1631)
 -->
<!-- Title: ce103_hw4_medical_store_lib.Customer.getNum Pages: 1 -->
<svg width="1061pt" height="177pt"
 viewBox="0.00 0.00 1061.00 177.00" xmlns="http://www.w3.org/2000/svg" xmlns:xlink="http://www.w3.org/1999/xlink">
<g id="graph0" class="graph" transform="scale(1 1) rotate(0) translate(4 173)">
<title>ce103_hw4_medical_store_lib.Customer.getNum</title>
<!-- Node1 -->
<g id="node1" class="node">
<title>Node1</title>
<g id="a_node1"><a xlink:title=" ">
<polygon fill="#999999" stroke="#666666" points="1053,-73 922,-73 922,-43 1053,-43 1053,-73"/>
<text text-anchor="start" x="930" y="-61" font-family="Helvetica,sans-Serif" font-size="10.00">ce103_hw4_medical_store</text>
<text text-anchor="middle" x="987.5" y="-50" font-family="Helvetica,sans-Serif" font-size="10.00">_lib.Customer.getNum</text>
</a>
</g>
</g>
<!-- Node2 -->
<g id="node2" class="node">
<title>Node2</title>
<g id="a_node2"><a xlink:href="classce103__hw4__medical__store__lib_1_1_customer.html#a292a7e3602e9d85c119d14af8ba29090" target="_top" xlink:title=" ">
<polygon fill="white" stroke="#666666" points="876.5,-127.5 725.5,-127.5 725.5,-86.5 876.5,-86.5 876.5,-127.5"/>
<text text-anchor="start" x="733.5" y="-115.5" font-family="Helvetica,sans-Serif" font-size="10.00">ce103_hw4_medical_store</text>
<text text-anchor="start" x="733.5" y="-104.5" font-family="Helvetica,sans-Serif" font-size="10.00">_lib.Customer.customerToByte</text>
<text text-anchor="middle" x="801" y="-93.5" font-family="Helvetica,sans-Serif" font-size="10.00">ArrayBlock</text>
</a>
</g>
</g>
<!-- Node1&#45;&gt;Node2 -->
<g id="edge1" class="edge">
<title>Node1&#45;&gt;Node2</title>
<path fill="none" stroke="#63b8ff" d="M917.42,-76.35C904.15,-79.87 890.2,-83.58 876.76,-87.14"/>
<polygon fill="#63b8ff" stroke="#63b8ff" points="918.15,-79.77 926.91,-73.83 916.35,-73.01 918.15,-79.77"/>
</g>
<!-- Node8 -->
<g id="node8" class="node">
<title>Node8</title>
<g id="a_node8"><a xlink:href="classce103__hw4__medical__store__app_1_1_insider_of_the_menu.html#ac0c61e30bf8522c24d43db9d7cfdccba" target="_top" xlink:title=" ">
<polygon fill="white" stroke="#666666" points="667,-73 514,-73 514,-43 667,-43 667,-73"/>
<text text-anchor="start" x="522" y="-61" font-family="Helvetica,sans-Serif" font-size="10.00">ce103_hw4_medical_store</text>
<text text-anchor="middle" x="590.5" y="-50" font-family="Helvetica,sans-Serif" font-size="10.00">_app.InsiderOfTheMenu.listcust</text>
</a>
</g>
</g>
<!-- Node1&#45;&gt;Node8 -->
<g id="edge8" class="edge">
<title>Node1&#45;&gt;Node8</title>
<path fill="none" stroke="#63b8ff" d="M910.36,-58C840.43,-58 737.35,-58 667.48,-58"/>
<polygon fill="#63b8ff" stroke="#63b8ff" points="910.2,-61.5 920.2,-58 910.2,-54.5 910.2,-61.5"/>
</g>
<!-- Node9 -->
<g id="node9" class="node">
<title>Node9</title>
<g id="a_node9"><a xlink:href="classce103__hw4__medical__store__app_1_1_insider_of_the_menu.html#afe96072316b08c7e64c0c00f4d912352" target="_top" xlink:title=" ">
<polygon fill="white" stroke="#666666" points="886,-30 716,-30 716,0 886,0 886,-30"/>
<text text-anchor="start" x="724" y="-18" font-family="Helvetica,sans-Serif" font-size="10.00">ce103_hw4_medical_store</text>
<text text-anchor="middle" x="801" y="-7" font-family="Helvetica,sans-Serif" font-size="10.00">_app.InsiderOfTheMenu.searchcust</text>
</a>
</g>
</g>
<!-- Node1&#45;&gt;Node9 -->
<g id="edge10" class="edge">
<title>Node1&#45;&gt;Node9</title>
<path fill="none" stroke="#63b8ff" d="M910.57,-40.3C896.52,-37.03 881.93,-33.63 868.19,-30.43"/>
<polygon fill="#63b8ff" stroke="#63b8ff" points="909.7,-43.7 920.24,-42.56 911.29,-36.88 909.7,-43.7"/>
</g>
<!-- Node3 -->
<g id="node3" class="node">
<title>Node3</title>
<g id="a_node3"><a xlink:href="classce103__hw4__medical__store__app_1_1_insider_of_the_menu.html#a4e19bce8c519e748af92a2347e490ace" target="_top" xlink:title=" ">
<polygon fill="white" stroke="#666666" points="680,-169 501,-169 501,-139 680,-139 680,-169"/>
<text text-anchor="start" x="509" y="-157" font-family="Helvetica,sans-Serif" font-size="10.00">ce103_hw4_medical_store</text>
<text text-anchor="middle" x="590.5" y="-146" font-family="Helvetica,sans-Serif" font-size="10.00">_app.InsiderOfTheMenu.addCustomer</text>
</a>
</g>
</g>
<!-- Node2&#45;&gt;Node3 -->
<g id="edge2" class="edge">
<title>Node2&#45;&gt;Node3</title>
<path fill="none" stroke="#63b8ff" d="M713.93,-126.4C695.93,-130.46 677.18,-134.69 659.92,-138.58"/>
<polygon fill="#63b8ff" stroke="#63b8ff" points="714.56,-129.85 723.54,-124.23 713.02,-123.02 714.56,-129.85"/>
</g>
<!-- Node7 -->
<g id="node7" class="node">
<title>Node7</title>
<g id="a_node7"><a xlink:href="classce103__hw4__medical__store__app_1_1_insider_of_the_menu.html#aa560a0597ff17489f751b94beddfaf9a" target="_top" xlink:title=" ">
<polygon fill="white" stroke="#666666" points="680,-121 501,-121 501,-91 680,-91 680,-121"/>
<text text-anchor="start" x="509" y="-109" font-family="Helvetica,sans-Serif" font-size="10.00">ce103_hw4_medical_store</text>
<text text-anchor="middle" x="590.5" y="-98" font-family="Helvetica,sans-Serif" font-size="10.00">_app.InsiderOfTheMenu.editCustomer</text>
</a>
</g>
</g>
<!-- Node2&#45;&gt;Node7 -->
<g id="edge6" class="edge">
<title>Node2&#45;&gt;Node7</title>
<path fill="none" stroke="#63b8ff" d="M713.68,-106.59C702.69,-106.53 691.41,-106.48 680.38,-106.43"/>
<polygon fill="#63b8ff" stroke="#63b8ff" points="713.49,-110.09 723.51,-106.63 713.52,-103.09 713.49,-110.09"/>
</g>
<!-- Node4 -->
<g id="node4" class="node">
<title>Node4</title>
<g id="a_node4"><a xlink:href="classce103__hw4__medical__store__app_1_1_menu.html#af40268756f4be60ece4bf674210a17bb" target="_top" xlink:title=" ">
<polygon fill="white" stroke="#666666" points="465,-97 334,-97 334,-67 465,-67 465,-97"/>
<text text-anchor="start" x="342" y="-85" font-family="Helvetica,sans-Serif" font-size="10.00">ce103_hw4_medical_store</text>
<text text-anchor="middle" x="399.5" y="-74" font-family="Helvetica,sans-Serif" font-size="10.00">_app.Menu.performAction</text>
</a>
</g>
</g>
<!-- Node3&#45;&gt;Node4 -->
<g id="edge3" class="edge">
<title>Node3&#45;&gt;Node4</title>
<path fill="none" stroke="#63b8ff" d="M516.36,-135.29C511.13,-133.61 505.96,-131.84 501,-130 475.98,-120.72 448.73,-107.5 428.93,-97.28"/>
<polygon fill="#63b8ff" stroke="#63b8ff" points="515.12,-138.57 525.71,-138.17 517.19,-131.88 515.12,-138.57"/>
</g>
<!-- Node5 -->
<g id="node5" class="node">
<title>Node5</title>
<g id="a_node5"><a xlink:href="classce103__hw4__medical__store__app_1_1_menu.html#a8890452f69a3d1c94a7951344bd7515b" target="_top" xlink:title=" ">
<polygon fill="white" stroke="#666666" points="298,-97 167,-97 167,-67 298,-67 298,-97"/>
<text text-anchor="start" x="175" y="-85" font-family="Helvetica,sans-Serif" font-size="10.00">ce103_hw4_medical_store</text>
<text text-anchor="middle" x="232.5" y="-74" font-family="Helvetica,sans-Serif" font-size="10.00">_app.Menu.runMenu</text>
</a>
</g>
</g>
<!-- Node4&#45;&gt;Node5 -->
<g id="edge4" class="edge">
<title>Node4&#45;&gt;Node5</title>
<path fill="none" stroke="#63b8ff" d="M322.45,-82C314.39,-82 306.24,-82 298.32,-82"/>
<polygon fill="#63b8ff" stroke="#63b8ff" points="322.25,-85.5 332.25,-82 322.25,-78.5 322.25,-85.5"/>
</g>
<!-- Node6 -->
<g id="node6" class="node">
<title>Node6</title>
<g id="a_node6"><a xlink:href="classce103__hw4__medical__store__app_1_1_menu.html#a906bd0b055bce495d306a21e81cbec1b" target="_top" xlink:title=" ">
<polygon fill="white" stroke="#666666" points="131,-97 0,-97 0,-67 131,-67 131,-97"/>
<text text-anchor="start" x="8" y="-85" font-family="Helvetica,sans-Serif" font-size="10.00">ce103_hw4_medical_store</text>
<text text-anchor="middle" x="65.5" y="-74" font-family="Helvetica,sans-Serif" font-size="10.00">_app.Menu.main</text>
</a>
</g>
</g>
<!-- Node5&#45;&gt;Node6 -->
<g id="edge5" class="edge">
<title>Node5&#45;&gt;Node6</title>
<path fill="none" stroke="#63b8ff" d="M155.45,-82C147.39,-82 139.24,-82 131.32,-82"/>
<polygon fill="#63b8ff" stroke="#63b8ff" points="155.25,-85.5 165.25,-82 155.25,-78.5 155.25,-85.5"/>
</g>
<!-- Node7&#45;&gt;Node4 -->
<g id="edge7" class="edge">
<title>Node7&#45;&gt;Node4</title>
<path fill="none" stroke="#63b8ff" d="M489.11,-93.25C481.05,-92.23 473.04,-91.21 465.32,-90.23"/>
<polygon fill="#63b8ff" stroke="#63b8ff" points="488.67,-96.72 499.03,-94.51 489.55,-89.78 488.67,-96.72"/>
</g>
<!-- Node8&#45;&gt;Node4 -->
<g id="edge9" class="edge">
<title>Node8&#45;&gt;Node4</title>
<path fill="none" stroke="#63b8ff" d="M502.35,-69.07C489.9,-70.65 477.28,-72.25 465.35,-73.76"/>
<polygon fill="#63b8ff" stroke="#63b8ff" points="502.73,-72.55 512.21,-67.81 501.85,-65.6 502.73,-72.55"/>
</g>
<!-- Node9&#45;&gt;Node4 -->
<g id="edge11" class="edge">
<title>Node9&#45;&gt;Node4</title>
<path fill="none" stroke="#63b8ff" d="M704.27,-11.89C644.86,-12.2 567.44,-16.71 501,-34 474.05,-41.01 445.62,-55.32 425.9,-66.5"/>
<polygon fill="#63b8ff" stroke="#63b8ff" points="704.01,-15.39 714.01,-11.88 704,-8.39 704.01,-15.39"/>
</g>
</g>
</svg>
