<?xml version="1.0" encoding="UTF-8" standalone="no"?>
<!DOCTYPE svg PUBLIC "-//W3C//DTD SVG 1.1//EN"
 "http://www.w3.org/Graphics/SVG/1.1/DTD/svg11.dtd">
<!-- Generated by graphviz version 7.0.4 (20221203.1631)
 -->
<!-- Title: ce103_hw4_medical_store_lib.Supplier.getsuppliername Pages: 1 -->
<svg width="1053pt" height="177pt"
 viewBox="0.00 0.00 1053.00 177.00" xmlns="http://www.w3.org/2000/svg" xmlns:xlink="http://www.w3.org/1999/xlink">
<g id="graph0" class="graph" transform="scale(1 1) rotate(0) translate(4 173)">
<title>ce103_hw4_medical_store_lib.Supplier.getsuppliername</title>
<!-- Node1 -->
<g id="node1" class="node">
<title>Node1</title>
<g id="a_node1"><a xlink:title=" ">
<polygon fill="#999999" stroke="#666666" points="1045,-126 901,-126 901,-96 1045,-96 1045,-126"/>
<text text-anchor="start" x="909" y="-114" font-family="Helvetica,sans-Serif" font-size="10.00">ce103_hw4_medical_store</text>
<text text-anchor="middle" x="973" y="-103" font-family="Helvetica,sans-Serif" font-size="10.00">_lib.Supplier.getsuppliername</text>
</a>
</g>
</g>
<!-- Node2 -->
<g id="node2" class="node">
<title>Node2</title>
<g id="a_node2"><a xlink:href="classce103__hw4__medical__store__app_1_1_insider_of_the_menu.html#a94e1694f1b1ad5550fc4cb63026d0088" target="_top" xlink:title=" ">
<polygon fill="white" stroke="#666666" points="865,-169 710,-169 710,-139 865,-139 865,-169"/>
<text text-anchor="start" x="718" y="-157" font-family="Helvetica,sans-Serif" font-size="10.00">ce103_hw4_medical_store</text>
<text text-anchor="middle" x="787.5" y="-146" font-family="Helvetica,sans-Serif" font-size="10.00">_app.InsiderOfTheMenu.listsupp</text>
</a>
</g>
</g>
<!-- Node1&#45;&gt;Node2 -->
<g id="edge1" class="edge">
<title>Node1&#45;&gt;Node2</title>
<path fill="none" stroke="#63b8ff" d="M894.87,-129.07C881.45,-132.22 867.61,-135.46 854.52,-138.53"/>
<polygon fill="#63b8ff" stroke="#63b8ff" points="895.6,-132.5 904.54,-126.81 894,-125.68 895.6,-132.5"/>
</g>
<!-- Node6 -->
<g id="node6" class="node">
<title>Node6</title>
<g id="a_node6"><a xlink:href="classce103__hw4__medical__store__app_1_1_insider_of_the_menu.html#a3220a571a81455e1bacc73eaff22a3a1" target="_top" xlink:title=" ">
<polygon fill="white" stroke="#666666" points="673.5,-126 501.5,-126 501.5,-96 673.5,-96 673.5,-126"/>
<text text-anchor="start" x="509.5" y="-114" font-family="Helvetica,sans-Serif" font-size="10.00">ce103_hw4_medical_store</text>
<text text-anchor="middle" x="587.5" y="-103" font-family="Helvetica,sans-Serif" font-size="10.00">_app.InsiderOfTheMenu.searchsupp</text>
</a>
</g>
</g>
<!-- Node1&#45;&gt;Node6 -->
<g id="edge5" class="edge">
<title>Node1&#45;&gt;Node6</title>
<path fill="none" stroke="#63b8ff" d="M889.57,-111C825.91,-111 738.12,-111 673.76,-111"/>
<polygon fill="#63b8ff" stroke="#63b8ff" points="889.25,-114.5 899.25,-111 889.25,-107.5 889.25,-114.5"/>
</g>
<!-- Node7 -->
<g id="node7" class="node">
<title>Node7</title>
<g id="a_node7"><a xlink:href="classce103__hw4__medical__store__lib_1_1_supplier.html#afba177fb9d808aa5157203709401032e" target="_top" xlink:title=" ">
<polygon fill="white" stroke="#666666" points="856,-82.5 719,-82.5 719,-41.5 856,-41.5 856,-82.5"/>
<text text-anchor="start" x="727" y="-70.5" font-family="Helvetica,sans-Serif" font-size="10.00">ce103_hw4_medical_store</text>
<text text-anchor="start" x="727" y="-59.5" font-family="Helvetica,sans-Serif" font-size="10.00">_lib.Supplier.supplierToByte</text>
<text text-anchor="middle" x="787.5" y="-48.5" font-family="Helvetica,sans-Serif" font-size="10.00">ArrayBlock</text>
</a>
</g>
</g>
<!-- Node1&#45;&gt;Node7 -->
<g id="edge7" class="edge">
<title>Node1&#45;&gt;Node7</title>
<path fill="none" stroke="#63b8ff" d="M903.2,-92.63C887.86,-88.53 871.59,-84.19 856.28,-80.1"/>
<polygon fill="#63b8ff" stroke="#63b8ff" points="902.16,-95.97 912.73,-95.17 903.97,-89.21 902.16,-95.97"/>
</g>
<!-- Node3 -->
<g id="node3" class="node">
<title>Node3</title>
<g id="a_node3"><a xlink:href="classce103__hw4__medical__store__app_1_1_menu.html#af40268756f4be60ece4bf674210a17bb" target="_top" xlink:title=" ">
<polygon fill="white" stroke="#666666" points="465,-102 334,-102 334,-72 465,-72 465,-102"/>
<text text-anchor="start" x="342" y="-90" font-family="Helvetica,sans-Serif" font-size="10.00">ce103_hw4_medical_store</text>
<text text-anchor="middle" x="399.5" y="-79" font-family="Helvetica,sans-Serif" font-size="10.00">_app.Menu.performAction</text>
</a>
</g>
</g>
<!-- Node2&#45;&gt;Node3 -->
<g id="edge2" class="edge">
<title>Node2&#45;&gt;Node3</title>
<path fill="none" stroke="#63b8ff" d="M698.33,-156.66C641.2,-156.31 565.65,-151.92 501,-135 474.06,-127.95 445.63,-113.64 425.91,-102.47"/>
<polygon fill="#63b8ff" stroke="#63b8ff" points="697.99,-160.16 707.99,-156.67 698,-153.16 697.99,-160.16"/>
</g>
<!-- Node4 -->
<g id="node4" class="node">
<title>Node4</title>
<g id="a_node4"><a xlink:href="classce103__hw4__medical__store__app_1_1_menu.html#a8890452f69a3d1c94a7951344bd7515b" target="_top" xlink:title=" ">
<polygon fill="white" stroke="#666666" points="298,-102 167,-102 167,-72 298,-72 298,-102"/>
<text text-anchor="start" x="175" y="-90" font-family="Helvetica,sans-Serif" font-size="10.00">ce103_hw4_medical_store</text>
<text text-anchor="middle" x="232.5" y="-79" font-family="Helvetica,sans-Serif" font-size="10.00">_app.Menu.runMenu</text>
</a>
</g>
</g>
<!-- Node3&#45;&gt;Node4 -->
<g id="edge3" class="edge">
<title>Node3&#45;&gt;Node4</title>
<path fill="none" stroke="#63b8ff" d="M322.45,-87C314.39,-87 306.24,-87 298.32,-87"/>
<polygon fill="#63b8ff" stroke="#63b8ff" points="322.25,-90.5 332.25,-87 322.25,-83.5 322.25,-90.5"/>
</g>
<!-- Node5 -->
<g id="node5" class="node">
<title>Node5</title>
<g id="a_node5"><a xlink:href="classce103__hw4__medical__store__app_1_1_menu.html#a906bd0b055bce495d306a21e81cbec1b" target="_top" xlink:title=" ">
<polygon fill="white" stroke="#666666" points="131,-102 0,-102 0,-72 131,-72 131,-102"/>
<text text-anchor="start" x="8" y="-90" font-family="Helvetica,sans-Serif" font-size="10.00">ce103_hw4_medical_store</text>
<text text-anchor="middle" x="65.5" y="-79" font-family="Helvetica,sans-Serif" font-size="10.00">_app.Menu.main</text>
</a>
</g>
</g>
<!-- Node4&#45;&gt;Node5 -->
<g id="edge4" class="edge">
<title>Node4&#45;&gt;Node5</title>
<path fill="none" stroke="#63b8ff" d="M155.45,-87C147.39,-87 139.24,-87 131.32,-87"/>
<polygon fill="#63b8ff" stroke="#63b8ff" points="155.25,-90.5 165.25,-87 155.25,-83.5 155.25,-90.5"/>
</g>
<!-- Node6&#45;&gt;Node3 -->
<g id="edge6" class="edge">
<title>Node6&#45;&gt;Node3</title>
<path fill="none" stroke="#63b8ff" d="M489.81,-98.52C481.52,-97.45 473.27,-96.39 465.32,-95.36"/>
<polygon fill="#63b8ff" stroke="#63b8ff" points="489.25,-101.98 499.62,-99.79 490.15,-95.04 489.25,-101.98"/>
</g>
<!-- Node8 -->
<g id="node8" class="node">
<title>Node8</title>
<g id="a_node8"><a xlink:href="classce103__hw4__medical__store__app_1_1_insider_of_the_menu.html#a5a985628df103b1884695c250f7638ea" target="_top" xlink:title=" ">
<polygon fill="white" stroke="#666666" points="674,-78 501,-78 501,-48 674,-48 674,-78"/>
<text text-anchor="start" x="509" y="-66" font-family="Helvetica,sans-Serif" font-size="10.00">ce103_hw4_medical_store</text>
<text text-anchor="middle" x="587.5" y="-55" font-family="Helvetica,sans-Serif" font-size="10.00">_app.InsiderOfTheMenu.addSupplier</text>
</a>
</g>
</g>
<!-- Node7&#45;&gt;Node8 -->
<g id="edge8" class="edge">
<title>Node7&#45;&gt;Node8</title>
<path fill="none" stroke="#63b8ff" d="M707.13,-62.4C696.39,-62.46 685.32,-62.51 674.47,-62.57"/>
<polygon fill="#63b8ff" stroke="#63b8ff" points="707.14,-65.9 717.12,-62.35 707.11,-58.9 707.14,-65.9"/>
</g>
<!-- Node9 -->
<g id="node9" class="node">
<title>Node9</title>
<g id="a_node9"><a xlink:href="classce103__hw4__medical__store__app_1_1_insider_of_the_menu.html#aefa6b5dc1b968c81b8d10998a0981577" target="_top" xlink:title=" ">
<polygon fill="white" stroke="#666666" points="674,-30 501,-30 501,0 674,0 674,-30"/>
<text text-anchor="start" x="509" y="-18" font-family="Helvetica,sans-Serif" font-size="10.00">ce103_hw4_medical_store</text>
<text text-anchor="middle" x="587.5" y="-7" font-family="Helvetica,sans-Serif" font-size="10.00">_app.InsiderOfTheMenu.editSupplier</text>
</a>
</g>
</g>
<!-- Node7&#45;&gt;Node9 -->
<g id="edge10" class="edge">
<title>Node7&#45;&gt;Node9</title>
<path fill="none" stroke="#63b8ff" d="M707.62,-43.28C689.7,-39.02 670.87,-34.55 653.6,-30.45"/>
<polygon fill="#63b8ff" stroke="#63b8ff" points="706.63,-46.64 717.16,-45.54 708.24,-39.83 706.63,-46.64"/>
</g>
<!-- Node8&#45;&gt;Node3 -->
<g id="edge9" class="edge">
<title>Node8&#45;&gt;Node3</title>
<path fill="none" stroke="#63b8ff" d="M489.21,-75.55C481.18,-76.59 473.19,-77.62 465.48,-78.62"/>
<polygon fill="#63b8ff" stroke="#63b8ff" points="489.61,-79.03 499.08,-74.28 488.71,-72.09 489.61,-79.03"/>
</g>
<!-- Node9&#45;&gt;Node3 -->
<g id="edge11" class="edge">
<title>Node9&#45;&gt;Node3</title>
<path fill="none" stroke="#63b8ff" d="M515.45,-33.92C510.53,-35.55 505.67,-37.24 501,-39 476.2,-48.32 449.17,-61.41 429.39,-71.57"/>
<polygon fill="#63b8ff" stroke="#63b8ff" points="516.36,-37.31 524.84,-30.95 514.25,-30.63 516.36,-37.31"/>
</g>
</g>
</svg>
