<?xml version="1.0" encoding="UTF-8" standalone="no"?>
<!DOCTYPE svg PUBLIC "-//W3C//DTD SVG 1.1//EN"
 "http://www.w3.org/Graphics/SVG/1.1/DTD/svg11.dtd">
<!-- Generated by graphviz version 7.0.4 (20221203.1631)
 -->
<!-- Title: ce103_hw4_medical_store_app.InsiderOfTheMenu.main_box Pages: 1 -->
<!--zoomable 784 -->
<svg id="main" version="1.1" xmlns="http://www.w3.org/2000/svg" xmlns:xlink="http://www.w3.org/1999/xlink" xml:space="preserve" onload="init(evt)">
<style type="text/css"><![CDATA[
.edge:hover path { stroke: red; }
.edge:hover polygon { stroke: red; fill: red; }
]]></style>
<script type="text/javascript"><![CDATA[
var edges = document.getElementsByTagName('g');
if (edges && edges.length) {
  for (var i=0;i<edges.length;i++) {
    if (edges[i].id.substr(0,4)=='edge') {
      edges[i].setAttribute('class','edge');
    }
  }
}
]]></script>
        <defs>
                <circle id="rim" cx="0" cy="0" r="7"/>
                <circle id="rim2" cx="0" cy="0" r="3.5"/>
                <g id="zoomPlus">
                        <use xlink:href="#rim" fill="#404040">
                                <set attributeName="fill" to="#808080" begin="zoomplus.mouseover" end="zoomplus.mouseout"/>
                        </use>
                        <path d="M-4,0h8M0,-4v8" fill="none" stroke="white" stroke-width="1.5" pointer-events="none"/>
                </g>
                <g id="zoomMin">
                        <use xlink:href="#rim" fill="#404040">
                                <set attributeName="fill" to="#808080" begin="zoomminus.mouseover" end="zoomminus.mouseout"/>
                        </use>
                        <path d="M-4,0h8" fill="none" stroke="white" stroke-width="1.5" pointer-events="none"/>
                </g>
                <g id="dirArrow">
                        <path fill="none" stroke="white" stroke-width="1.5" d="M0,-3.0v7 M-2.5,-0.5L0,-3.0L2.5,-0.5"/>
                </g>
               <g id="resetDef">
                       <use xlink:href="#rim2" fill="#404040">
                               <set attributeName="fill" to="#808080" begin="reset.mouseover" end="reset.mouseout"/>
                       </use>
               </g>
        </defs>

<script type="text/javascript">
var viewWidth = 1130;
var viewHeight = 784;
var sectionId = 'dynsection-19';
</script>
<script xlink:href="svgpan.js"/>
<svg id="graph" class="graph">
<g id="viewport">
<title>ce103_hw4_medical_store_app.InsiderOfTheMenu.main_box</title>
<!-- Node1 -->
<g id="node1" class="node">
<title>Node1</title>
<g id="a_node1"><a xlink:title=" ">
<polygon fill="#999999" stroke="#666666" points="1122,-384.18 958,-384.18 958,-354.18 1122,-354.18 1122,-384.18"/>
<text text-anchor="start" x="966" y="-372.18" font-family="Helvetica,sans-Serif" font-size="10.00">ce103_hw4_medical_store</text>
<text text-anchor="middle" x="1040" y="-361.18" font-family="Helvetica,sans-Serif" font-size="10.00">_app.InsiderOfTheMenu.main_box</text>
</a>
</g>
</g>
<!-- Node2 -->
<g id="node2" class="node">
<title>Node2</title>
<g id="a_node2"><a xlink:href="classce103__hw4__medical__store__app_1_1_insider_of_the_menu.html#a4e19bce8c519e748af92a2347e490ace" target="_top" xlink:title=" ">
<polygon fill="white" stroke="#666666" points="690.5,-432.18 511.5,-432.18 511.5,-402.18 690.5,-402.18 690.5,-432.18"/>
<text text-anchor="start" x="519.5" y="-420.18" font-family="Helvetica,sans-Serif" font-size="10.00">ce103_hw4_medical_store</text>
<text text-anchor="middle" x="601" y="-409.18" font-family="Helvetica,sans-Serif" font-size="10.00">_app.InsiderOfTheMenu.addCustomer</text>
</a>
</g>
</g>
<!-- Node1&#45;&gt;Node2 -->
<g id="edge1" class="edge">
<title>Node1&#45;&gt;Node2</title>
<path fill="none" stroke="#63b8ff" d="M946.31,-380.39C938.09,-381.35 929.9,-382.29 922,-383.18 843.86,-392.01 754.91,-401.41 690.66,-408.08"/>
<polygon fill="#63b8ff" stroke="#63b8ff" points="946.48,-383.89 956,-379.25 945.66,-376.94 946.48,-383.89"/>
</g>
<!-- Node6 -->
<g id="node6" class="node">
<title>Node6</title>
<g id="a_node6"><a xlink:href="classce103__hw4__medical__store__app_1_1_insider_of_the_menu.html#a5a985628df103b1884695c250f7638ea" target="_top" xlink:title=" ">
<polygon fill="white" stroke="#666666" points="687.5,-384.18 514.5,-384.18 514.5,-354.18 687.5,-354.18 687.5,-384.18"/>
<text text-anchor="start" x="522.5" y="-372.18" font-family="Helvetica,sans-Serif" font-size="10.00">ce103_hw4_medical_store</text>
<text text-anchor="middle" x="601" y="-361.18" font-family="Helvetica,sans-Serif" font-size="10.00">_app.InsiderOfTheMenu.addSupplier</text>
</a>
</g>
</g>
<!-- Node1&#45;&gt;Node6 -->
<g id="edge5" class="edge">
<title>Node1&#45;&gt;Node6</title>
<path fill="none" stroke="#63b8ff" d="M946.06,-369.18C869.66,-369.18 762.26,-369.18 687.87,-369.18"/>
<polygon fill="#63b8ff" stroke="#63b8ff" points="946.06,-372.68 956.06,-369.18 946.06,-365.68 946.06,-372.68"/>
</g>
<!-- Node7 -->
<g id="node7" class="node">
<title>Node7</title>
<g id="a_node7"><a xlink:href="classce103__hw4__medical__store__app_1_1_insider_of_the_menu.html#a3a0461cf6ef97ea7761931d922129d14" target="_top" xlink:title=" ">
<polygon fill="white" stroke="#666666" points="910.5,-589.18 748.5,-589.18 748.5,-559.18 910.5,-559.18 910.5,-589.18"/>
<text text-anchor="start" x="756.5" y="-577.18" font-family="Helvetica,sans-Serif" font-size="10.00">ce103_hw4_medical_store</text>
<text text-anchor="middle" x="829.5" y="-566.18" font-family="Helvetica,sans-Serif" font-size="10.00">_app.InsiderOfTheMenu.customer</text>
</a>
</g>
</g>
<!-- Node1&#45;&gt;Node7 -->
<g id="edge7" class="edge">
<title>Node1&#45;&gt;Node7</title>
<path fill="none" stroke="#63b8ff" d="M1028.58,-395C1011.8,-433.34 975.22,-505.1 922,-545.18 914.68,-550.7 906.28,-555.18 897.6,-558.82"/>
<polygon fill="#63b8ff" stroke="#63b8ff" points="1031.68,-396.65 1032.37,-386.08 1025.24,-393.91 1031.68,-396.65"/>
</g>
<!-- Node8 -->
<g id="node8" class="node">
<title>Node8</title>
<g id="a_node8"><a xlink:href="classce103__hw4__medical__store__app_1_1_insider_of_the_menu.html#aa560a0597ff17489f751b94beddfaf9a" target="_top" xlink:title=" ">
<polygon fill="white" stroke="#666666" points="690.5,-652.18 511.5,-652.18 511.5,-622.18 690.5,-622.18 690.5,-652.18"/>
<text text-anchor="start" x="519.5" y="-640.18" font-family="Helvetica,sans-Serif" font-size="10.00">ce103_hw4_medical_store</text>
<text text-anchor="middle" x="601" y="-629.18" font-family="Helvetica,sans-Serif" font-size="10.00">_app.InsiderOfTheMenu.editCustomer</text>
</a>
</g>
</g>
<!-- Node1&#45;&gt;Node8 -->
<g id="edge15" class="edge">
<title>Node1&#45;&gt;Node8</title>
<path fill="none" stroke="#63b8ff" d="M1033.93,-395.6C1023.01,-444.59 992.34,-549.03 922,-598.18 885.76,-623.51 772.36,-632.43 690.85,-635.55"/>
<polygon fill="#63b8ff" stroke="#63b8ff" points="1037.34,-396.39 1035.98,-385.88 1030.49,-394.95 1037.34,-396.39"/>
</g>
<!-- Node9 -->
<g id="node9" class="node">
<title>Node9</title>
<g id="a_node9"><a xlink:href="classce103__hw4__medical__store__app_1_1_insider_of_the_menu.html#ac0c61e30bf8522c24d43db9d7cfdccba" target="_top" xlink:title=" ">
<polygon fill="white" stroke="#666666" points="677.5,-566.18 524.5,-566.18 524.5,-536.18 677.5,-536.18 677.5,-566.18"/>
<text text-anchor="start" x="532.5" y="-554.18" font-family="Helvetica,sans-Serif" font-size="10.00">ce103_hw4_medical_store</text>
<text text-anchor="middle" x="601" y="-543.18" font-family="Helvetica,sans-Serif" font-size="10.00">_app.InsiderOfTheMenu.listcust</text>
</a>
</g>
</g>
<!-- Node1&#45;&gt;Node9 -->
<g id="edge18" class="edge">
<title>Node1&#45;&gt;Node9</title>
<path fill="none" stroke="#63b8ff" d="M1025.11,-394.41C1006.24,-426.03 969.35,-479.22 922,-505.18 881.15,-527.58 758.73,-540.27 677.7,-546.43"/>
<polygon fill="#63b8ff" stroke="#63b8ff" points="1028.06,-396.3 1030.05,-385.9 1022,-392.79 1028.06,-396.3"/>
</g>
<!-- Node10 -->
<g id="node10" class="node">
<title>Node10</title>
<g id="a_node10"><a xlink:href="classce103__hw4__medical__store__app_1_1_insider_of_the_menu.html#a3220a571a81455e1bacc73eaff22a3a1" target="_top" xlink:title=" ">
<polygon fill="white" stroke="#666666" points="687,-518.18 515,-518.18 515,-488.18 687,-488.18 687,-518.18"/>
<text text-anchor="start" x="523" y="-506.18" font-family="Helvetica,sans-Serif" font-size="10.00">ce103_hw4_medical_store</text>
<text text-anchor="middle" x="601" y="-495.18" font-family="Helvetica,sans-Serif" font-size="10.00">_app.InsiderOfTheMenu.searchsupp</text>
</a>
</g>
</g>
<!-- Node1&#45;&gt;Node10 -->
<g id="edge39" class="edge">
<title>Node1&#45;&gt;Node10</title>
<path fill="none" stroke="#63b8ff" d="M1020.1,-393.58C999.14,-418.63 962.82,-456.4 922,-474.18 847.46,-506.66 754.07,-511.56 687.46,-509.75"/>
<polygon fill="#63b8ff" stroke="#63b8ff" points="1022.81,-395.81 1026.41,-385.84 1017.38,-391.38 1022.81,-395.81"/>
</g>
<!-- Node11 -->
<g id="node11" class="node">
<title>Node11</title>
<g id="a_node11"><a xlink:href="classce103__hw4__medical__store__app_1_1_insider_of_the_menu.html#aefa6b5dc1b968c81b8d10998a0981577" target="_top" xlink:title=" ">
<polygon fill="white" stroke="#666666" points="916,-179.18 743,-179.18 743,-149.18 916,-149.18 916,-179.18"/>
<text text-anchor="start" x="751" y="-167.18" font-family="Helvetica,sans-Serif" font-size="10.00">ce103_hw4_medical_store</text>
<text text-anchor="middle" x="829.5" y="-156.18" font-family="Helvetica,sans-Serif" font-size="10.00">_app.InsiderOfTheMenu.editSupplier</text>
</a>
</g>
</g>
<!-- Node1&#45;&gt;Node11 -->
<g id="edge16" class="edge">
<title>Node1&#45;&gt;Node11</title>
<path fill="none" stroke="#63b8ff" d="M1028.58,-343.37C1011.8,-305.03 975.22,-233.26 922,-193.18 914.68,-187.67 906.28,-183.19 897.6,-179.55"/>
<polygon fill="#63b8ff" stroke="#63b8ff" points="1025.24,-344.46 1032.37,-352.29 1031.68,-341.72 1025.24,-344.46"/>
</g>
<!-- Node12 -->
<g id="node12" class="node">
<title>Node12</title>
<g id="a_node12"><a xlink:href="classce103__hw4__medical__store__app_1_1_insider_of_the_menu.html#ada4f93b1d40bbc169bf20e70efdda5c9" target="_top" xlink:title=" ">
<polygon fill="white" stroke="#666666" points="916,-131.18 743,-131.18 743,-101.18 916,-101.18 916,-131.18"/>
<text text-anchor="start" x="751" y="-119.18" font-family="Helvetica,sans-Serif" font-size="10.00">ce103_hw4_medical_store</text>
<text text-anchor="middle" x="829.5" y="-108.18" font-family="Helvetica,sans-Serif" font-size="10.00">_app.InsiderOfTheMenu.listmedicine</text>
</a>
</g>
</g>
<!-- Node1&#45;&gt;Node12 -->
<g id="edge19" class="edge">
<title>Node1&#45;&gt;Node12</title>
<path fill="none" stroke="#63b8ff" d="M1033.11,-342.95C1020.97,-295.11 988.54,-193.72 922,-140.18 917.91,-136.89 913.4,-134.04 908.66,-131.59"/>
<polygon fill="#63b8ff" stroke="#63b8ff" points="1029.65,-343.53 1035.41,-352.42 1036.45,-341.88 1029.65,-343.53"/>
</g>
<!-- Node13 -->
<g id="node13" class="node">
<title>Node13</title>
<g id="a_node13"><a xlink:href="classce103__hw4__medical__store__app_1_1_insider_of_the_menu.html#a94e1694f1b1ad5550fc4cb63026d0088" target="_top" xlink:title=" ">
<polygon fill="white" stroke="#666666" points="678.5,-298.18 523.5,-298.18 523.5,-268.18 678.5,-268.18 678.5,-298.18"/>
<text text-anchor="start" x="531.5" y="-286.18" font-family="Helvetica,sans-Serif" font-size="10.00">ce103_hw4_medical_store</text>
<text text-anchor="middle" x="601" y="-275.18" font-family="Helvetica,sans-Serif" font-size="10.00">_app.InsiderOfTheMenu.listsupp</text>
</a>
</g>
</g>
<!-- Node1&#45;&gt;Node13 -->
<g id="edge21" class="edge">
<title>Node1&#45;&gt;Node13</title>
<path fill="none" stroke="#63b8ff" d="M1009.42,-347.09C986.76,-331.49 954.05,-311.74 922,-302.18 841.46,-278.18 744.6,-275.88 678.69,-278.04"/>
<polygon fill="#63b8ff" stroke="#63b8ff" points="1007.36,-349.92 1017.55,-352.82 1011.39,-344.2 1007.36,-349.92"/>
</g>
<!-- Node14 -->
<g id="node14" class="node">
<title>Node14</title>
<g id="a_node14"><a xlink:href="classce103__hw4__medical__store__app_1_1_insider_of_the_menu.html#a0faaccd5f842125ae8f314368c644d3e" target="_top" xlink:title=" ">
<polygon fill="white" stroke="#666666" points="913,-733.18 746,-733.18 746,-703.18 913,-703.18 913,-733.18"/>
<text text-anchor="start" x="754" y="-721.18" font-family="Helvetica,sans-Serif" font-size="10.00">ce103_hw4_medical_store</text>
<text text-anchor="middle" x="829.5" y="-710.18" font-family="Helvetica,sans-Serif" font-size="10.00">_app.InsiderOfTheMenu.mainmenu</text>
</a>
</g>
</g>
<!-- Node1&#45;&gt;Node14 -->
<g id="edge23" class="edge">
<title>Node1&#45;&gt;Node14</title>
<path fill="none" stroke="#63b8ff" d="M1037.28,-396.06C1031.85,-457.73 1009.77,-610.41 922,-692.18 917.53,-696.35 912.44,-699.85 907,-702.8"/>
<polygon fill="#63b8ff" stroke="#63b8ff" points="1040.76,-396.41 1038.06,-386.17 1033.78,-395.86 1040.76,-396.41"/>
</g>
<!-- Node16 -->
<g id="node16" class="node">
<title>Node16</title>
<g id="a_node16"><a xlink:href="classce103__hw4__medical__store__app_1_1_insider_of_the_menu.html#ae370b672a0d6fc9ebb4600a7757f41f6" target="_top" xlink:title=" ">
<polygon fill="white" stroke="#666666" points="910,-83.18 749,-83.18 749,-53.18 910,-53.18 910,-83.18"/>
<text text-anchor="start" x="757" y="-71.18" font-family="Helvetica,sans-Serif" font-size="10.00">ce103_hw4_medical_store</text>
<text text-anchor="middle" x="829.5" y="-60.18" font-family="Helvetica,sans-Serif" font-size="10.00">_app.InsiderOfTheMenu.medicine</text>
</a>
</g>
</g>
<!-- Node1&#45;&gt;Node16 -->
<g id="edge28" class="edge">
<title>Node1&#45;&gt;Node16</title>
<path fill="none" stroke="#63b8ff" d="M1035.62,-342.63C1027.14,-287.38 999.77,-159.55 922,-92.18 918.15,-88.85 913.89,-85.97 909.38,-83.49"/>
<polygon fill="#63b8ff" stroke="#63b8ff" points="1032.13,-342.97 1037.02,-352.37 1039.06,-341.98 1032.13,-342.97"/>
</g>
<!-- Node17 -->
<g id="node17" class="node">
<title>Node17</title>
<g id="a_node17"><a xlink:href="classce103__hw4__medical__store__app_1_1_insider_of_the_menu.html#a06e911654aeebf8dcb003c0bec404f3d" target="_top" xlink:title=" ">
<polygon fill="white" stroke="#666666" points="690.5,-40.18 511.5,-40.18 511.5,-10.18 690.5,-10.18 690.5,-40.18"/>
<text text-anchor="start" x="519.5" y="-28.18" font-family="Helvetica,sans-Serif" font-size="10.00">ce103_hw4_medical_store</text>
<text text-anchor="middle" x="601" y="-17.18" font-family="Helvetica,sans-Serif" font-size="10.00">_app.InsiderOfTheMenu.salemedicine</text>
</a>
</g>
</g>
<!-- Node1&#45;&gt;Node17 -->
<g id="edge36" class="edge">
<title>Node1&#45;&gt;Node17</title>
<path fill="none" stroke="#63b8ff" d="M1038.57,-342.51C1035.93,-278.69 1019.46,-117.09 922,-44.18 848.69,10.66 737.47,2.86 667.32,-9.71"/>
<polygon fill="#63b8ff" stroke="#63b8ff" points="1035.06,-342.52 1038.88,-352.4 1042.06,-342.29 1035.06,-342.52"/>
</g>
<!-- Node18 -->
<g id="node18" class="node">
<title>Node18</title>
<g id="a_node18"><a xlink:href="classce103__hw4__medical__store__app_1_1_insider_of_the_menu.html#abbb3877121688713fb9c89334fd093b9" target="_top" xlink:title=" ">
<polygon fill="white" stroke="#666666" points="701,-250.18 501,-250.18 501,-220.18 701,-220.18 701,-250.18"/>
<text text-anchor="start" x="509" y="-238.18" font-family="Helvetica,sans-Serif" font-size="10.00">ce103_hw4_medical_store</text>
<text text-anchor="middle" x="601" y="-227.18" font-family="Helvetica,sans-Serif" font-size="10.00">_app.InsiderOfTheMenu.purchasemedicine</text>
</a>
</g>
</g>
<!-- Node1&#45;&gt;Node18 -->
<g id="edge32" class="edge">
<title>Node1&#45;&gt;Node18</title>
<path fill="none" stroke="#63b8ff" d="M1018.14,-345.59C996.54,-322.88 960.58,-289.62 922,-273.18 852.13,-243.42 766.38,-234.54 701.24,-232.76"/>
<polygon fill="#63b8ff" stroke="#63b8ff" points="1015.29,-347.67 1024.66,-352.62 1020.42,-342.91 1015.29,-347.67"/>
</g>
<!-- Node19 -->
<g id="node19" class="node">
<title>Node19</title>
<g id="a_node19"><a xlink:href="classce103__hw4__medical__store__app_1_1_insider_of_the_menu.html#abd21a46dfd07acc85ee34589fe9b20c9" target="_top" xlink:title=" ">
<polygon fill="white" stroke="#666666" points="902.5,-465.18 756.5,-465.18 756.5,-435.18 902.5,-435.18 902.5,-465.18"/>
<text text-anchor="start" x="764.5" y="-453.18" font-family="Helvetica,sans-Serif" font-size="10.00">ce103_hw4_medical_store</text>
<text text-anchor="middle" x="829.5" y="-442.18" font-family="Helvetica,sans-Serif" font-size="10.00">_app.InsiderOfTheMenu.report</text>
</a>
</g>
</g>
<!-- Node1&#45;&gt;Node19 -->
<g id="edge34" class="edge">
<title>Node1&#45;&gt;Node19</title>
<path fill="none" stroke="#63b8ff" d="M996.78,-389.31C974.74,-399.47 947.18,-411.63 922,-421.18 909.38,-425.97 895.59,-430.63 882.62,-434.77"/>
<polygon fill="#63b8ff" stroke="#63b8ff" points="998.16,-392.53 1005.75,-385.14 995.21,-386.18 998.16,-392.53"/>
</g>
<!-- Node20 -->
<g id="node20" class="node">
<title>Node20</title>
<g id="a_node20"><a xlink:href="classce103__hw4__medical__store__app_1_1_insider_of_the_menu.html#afe96072316b08c7e64c0c00f4d912352" target="_top" xlink:title=" ">
<polygon fill="white" stroke="#666666" points="686,-202.18 516,-202.18 516,-172.18 686,-172.18 686,-202.18"/>
<text text-anchor="start" x="524" y="-190.18" font-family="Helvetica,sans-Serif" font-size="10.00">ce103_hw4_medical_store</text>
<text text-anchor="middle" x="601" y="-179.18" font-family="Helvetica,sans-Serif" font-size="10.00">_app.InsiderOfTheMenu.searchcust</text>
</a>
</g>
</g>
<!-- Node1&#45;&gt;Node20 -->
<g id="edge37" class="edge">
<title>Node1&#45;&gt;Node20</title>
<path fill="none" stroke="#63b8ff" d="M1025.58,-343.84C1006.99,-311.51 970.19,-256.66 922,-230.18 882.63,-208.56 767.16,-197.16 686.29,-191.65"/>
<polygon fill="#63b8ff" stroke="#63b8ff" points="1022.51,-345.51 1030.44,-352.54 1028.62,-342.1 1022.51,-345.51"/>
</g>
<!-- Node21 -->
<g id="node21" class="node">
<title>Node21</title>
<g id="a_node21"><a xlink:href="classce103__hw4__medical__store__app_1_1_insider_of_the_menu.html#ac76ee95213f4e41b88d57c028f610c33" target="_top" xlink:title=" ">
<polygon fill="white" stroke="#666666" points="922,-683.18 737,-683.18 737,-653.18 922,-653.18 922,-683.18"/>
<text text-anchor="start" x="745" y="-671.18" font-family="Helvetica,sans-Serif" font-size="10.00">ce103_hw4_medical_store</text>
<text text-anchor="middle" x="829.5" y="-660.18" font-family="Helvetica,sans-Serif" font-size="10.00">_app.InsiderOfTheMenu.stockmedicine</text>
</a>
</g>
</g>
<!-- Node1&#45;&gt;Node21 -->
<g id="edge40" class="edge">
<title>Node1&#45;&gt;Node21</title>
<path fill="none" stroke="#63b8ff" d="M1034.61,-395.78C1024.48,-448.95 994.51,-569.02 922,-636.18 914.59,-643.05 905.63,-648.45 896.25,-652.7"/>
<polygon fill="#63b8ff" stroke="#63b8ff" points="1038.03,-396.58 1036.36,-386.12 1031.14,-395.33 1038.03,-396.58"/>
</g>
<!-- Node22 -->
<g id="node22" class="node">
<title>Node22</title>
<g id="a_node22"><a xlink:href="classce103__hw4__medical__store__app_1_1_insider_of_the_menu.html#ad8d1f1f6efe690acbc398b741befb617" target="_top" xlink:title=" ">
<polygon fill="white" stroke="#666666" points="907,-341.18 752,-341.18 752,-311.18 907,-311.18 907,-341.18"/>
<text text-anchor="start" x="760" y="-329.18" font-family="Helvetica,sans-Serif" font-size="10.00">ce103_hw4_medical_store</text>
<text text-anchor="middle" x="829.5" y="-318.18" font-family="Helvetica,sans-Serif" font-size="10.00">_app.InsiderOfTheMenu.supplier</text>
</a>
</g>
</g>
<!-- Node1&#45;&gt;Node22 -->
<g id="edge42" class="edge">
<title>Node1&#45;&gt;Node22</title>
<path fill="none" stroke="#63b8ff" d="M953.19,-351.49C937.37,-348.23 920.98,-344.84 905.51,-341.65"/>
<polygon fill="#63b8ff" stroke="#63b8ff" points="952.04,-354.82 962.54,-353.41 953.45,-347.97 952.04,-354.82"/>
</g>
<!-- Node3 -->
<g id="node3" class="node">
<title>Node3</title>
<g id="a_node3"><a xlink:href="classce103__hw4__medical__store__app_1_1_menu.html#af40268756f4be60ece4bf674210a17bb" target="_top" xlink:title=" ">
<polygon fill="white" stroke="#666666" points="465,-432.18 334,-432.18 334,-402.18 465,-402.18 465,-432.18"/>
<text text-anchor="start" x="342" y="-420.18" font-family="Helvetica,sans-Serif" font-size="10.00">ce103_hw4_medical_store</text>
<text text-anchor="middle" x="399.5" y="-409.18" font-family="Helvetica,sans-Serif" font-size="10.00">_app.Menu.performAction</text>
</a>
</g>
</g>
<!-- Node2&#45;&gt;Node3 -->
<g id="edge2" class="edge">
<title>Node2&#45;&gt;Node3</title>
<path fill="none" stroke="#63b8ff" d="M499.83,-417.18C488.12,-417.18 476.41,-417.18 465.36,-417.18"/>
<polygon fill="#63b8ff" stroke="#63b8ff" points="499.53,-420.68 509.53,-417.18 499.53,-413.68 499.53,-420.68"/>
</g>
<!-- Node4 -->
<g id="node4" class="node">
<title>Node4</title>
<g id="a_node4"><a xlink:href="classce103__hw4__medical__store__app_1_1_menu.html#a8890452f69a3d1c94a7951344bd7515b" target="_top" xlink:title=" ">
<polygon fill="white" stroke="#666666" points="298,-453.18 167,-453.18 167,-423.18 298,-423.18 298,-453.18"/>
<text text-anchor="start" x="175" y="-441.18" font-family="Helvetica,sans-Serif" font-size="10.00">ce103_hw4_medical_store</text>
<text text-anchor="middle" x="232.5" y="-430.18" font-family="Helvetica,sans-Serif" font-size="10.00">_app.Menu.runMenu</text>
</a>
</g>
</g>
<!-- Node3&#45;&gt;Node4 -->
<g id="edge3" class="edge">
<title>Node3&#45;&gt;Node4</title>
<path fill="none" stroke="#63b8ff" d="M322.45,-426.86C314.39,-427.89 306.24,-428.93 298.32,-429.93"/>
<polygon fill="#63b8ff" stroke="#63b8ff" points="322.78,-430.35 332.26,-425.61 321.9,-423.41 322.78,-430.35"/>
</g>
<!-- Node5 -->
<g id="node5" class="node">
<title>Node5</title>
<g id="a_node5"><a xlink:href="classce103__hw4__medical__store__app_1_1_menu.html#a906bd0b055bce495d306a21e81cbec1b" target="_top" xlink:title=" ">
<polygon fill="white" stroke="#666666" points="131,-453.18 0,-453.18 0,-423.18 131,-423.18 131,-453.18"/>
<text text-anchor="start" x="8" y="-441.18" font-family="Helvetica,sans-Serif" font-size="10.00">ce103_hw4_medical_store</text>
<text text-anchor="middle" x="65.5" y="-430.18" font-family="Helvetica,sans-Serif" font-size="10.00">_app.Menu.main</text>
</a>
</g>
</g>
<!-- Node4&#45;&gt;Node5 -->
<g id="edge4" class="edge">
<title>Node4&#45;&gt;Node5</title>
<path fill="none" stroke="#63b8ff" d="M155.45,-438.18C147.39,-438.18 139.24,-438.18 131.32,-438.18"/>
<polygon fill="#63b8ff" stroke="#63b8ff" points="155.25,-441.68 165.25,-438.18 155.25,-434.68 155.25,-441.68"/>
</g>
<!-- Node6&#45;&gt;Node3 -->
<g id="edge6" class="edge">
<title>Node6&#45;&gt;Node3</title>
<path fill="none" stroke="#63b8ff" d="M524.64,-387.32C504.86,-392.07 483.73,-397.16 464.6,-401.76"/>
<polygon fill="#63b8ff" stroke="#63b8ff" points="525.4,-390.73 534.31,-384.99 523.77,-383.93 525.4,-390.73"/>
</g>
<!-- Node7&#45;&gt;Node3 -->
<g id="edge12" class="edge">
<title>Node7&#45;&gt;Node3</title>
<path fill="none" stroke="#63b8ff" d="M762.74,-592.07C693.16,-607.15 582.37,-619.86 501,-575.18 444.29,-544.05 415.02,-465.84 404.79,-432.56"/>
<polygon fill="#63b8ff" stroke="#63b8ff" points="763.08,-595.58 772.07,-589.97 761.55,-588.75 763.08,-595.58"/>
</g>
<!-- Node7&#45;&gt;Node8 -->
<g id="edge8" class="edge">
<title>Node7&#45;&gt;Node8</title>
<path fill="none" stroke="#63b8ff" d="M761.82,-592.73C728.63,-601.96 688.98,-612.99 657.48,-621.75"/>
<polygon fill="#63b8ff" stroke="#63b8ff" points="762.65,-596.13 771.34,-590.08 760.77,-589.39 762.65,-596.13"/>
</g>
<!-- Node7&#45;&gt;Node9 -->
<g id="edge10" class="edge">
<title>Node7&#45;&gt;Node9</title>
<path fill="none" stroke="#63b8ff" d="M736.6,-564.85C717.03,-562.86 696.57,-560.79 677.69,-558.87"/>
<polygon fill="#63b8ff" stroke="#63b8ff" points="736.2,-568.33 746.5,-565.86 736.91,-561.36 736.2,-568.33"/>
</g>
<!-- Node7&#45;&gt;Node10 -->
<g id="edge13" class="edge">
<title>Node7&#45;&gt;Node10</title>
<path fill="none" stroke="#63b8ff" d="M779.69,-554.69C756.13,-545.67 727.32,-535.2 701,-527.18 691.1,-524.17 680.56,-521.28 670.18,-518.62"/>
<polygon fill="#63b8ff" stroke="#63b8ff" points="778.11,-557.83 788.7,-558.17 780.64,-551.3 778.11,-557.83"/>
</g>
<!-- Node8&#45;&gt;Node3 -->
<g id="edge9" class="edge">
<title>Node8&#45;&gt;Node3</title>
<path fill="none" stroke="#63b8ff" d="M513.55,-616.72C509.11,-614.19 504.89,-611.36 501,-608.18 442.27,-560.14 413.57,-468.59 404.14,-432.43"/>
<polygon fill="#63b8ff" stroke="#63b8ff" points="511.71,-619.71 522.21,-621.07 514.85,-613.45 511.71,-619.71"/>
</g>
<!-- Node9&#45;&gt;Node3 -->
<g id="edge11" class="edge">
<title>Node9&#45;&gt;Node3</title>
<path fill="none" stroke="#63b8ff" d="M513.66,-533.64C509.27,-531.71 505.02,-529.56 501,-527.18 460.03,-502.95 426.04,-456.73 410.16,-432.64"/>
<polygon fill="#63b8ff" stroke="#63b8ff" points="512.1,-536.79 522.68,-537.22 514.68,-530.28 512.1,-536.79"/>
</g>
<!-- Node10&#45;&gt;Node3 -->
<g id="edge14" class="edge">
<title>Node10&#45;&gt;Node3</title>
<path fill="none" stroke="#63b8ff" d="M528.18,-484.29C518.92,-481.23 509.65,-477.85 501,-474.18 473.48,-462.53 443.95,-445.14 424.07,-432.63"/>
<polygon fill="#63b8ff" stroke="#63b8ff" points="526.98,-487.58 537.57,-487.27 529.1,-480.91 526.98,-487.58"/>
</g>
<!-- Node11&#45;&gt;Node3 -->
<g id="edge17" class="edge">
<title>Node11&#45;&gt;Node3</title>
<path fill="none" stroke="#63b8ff" d="M731.46,-152.14C648.6,-143.94 537.25,-138.55 501,-163.18 418.05,-219.57 403.56,-356.16 401.04,-401.94"/>
<polygon fill="#63b8ff" stroke="#63b8ff" points="730.89,-155.6 741.19,-153.13 731.6,-148.63 730.89,-155.6"/>
</g>
<!-- Node12&#45;&gt;Node3 -->
<g id="edge20" class="edge">
<title>Node12&#45;&gt;Node3</title>
<path fill="none" stroke="#63b8ff" d="M743.61,-99.16C671.76,-89.81 569.79,-89.01 501,-141.18 414.46,-206.82 402.35,-354.3 400.73,-401.99"/>
<polygon fill="#63b8ff" stroke="#63b8ff" points="742.98,-102.61 753.37,-100.52 743.95,-95.68 742.98,-102.61"/>
</g>
<!-- Node13&#45;&gt;Node3 -->
<g id="edge22" class="edge">
<title>Node13&#45;&gt;Node3</title>
<path fill="none" stroke="#63b8ff" d="M519.75,-302.68C513.22,-305.46 506.88,-308.61 501,-312.18 461.76,-336.04 427.52,-379.04 411,-401.91"/>
<polygon fill="#63b8ff" stroke="#63b8ff" points="520.69,-306.07 528.72,-299.17 518.14,-299.55 520.69,-306.07"/>
</g>
<!-- Node14&#45;&gt;Node3 -->
<g id="edge24" class="edge">
<title>Node14&#45;&gt;Node3</title>
<path fill="none" stroke="#63b8ff" d="M734.36,-722.33C650.77,-724.08 536.53,-721.08 501,-694.18 500.3,-693.65 426.92,-490.39 406,-432.44"/>
<polygon fill="#63b8ff" stroke="#63b8ff" points="734.25,-725.84 744.17,-722.1 734.09,-718.84 734.25,-725.84"/>
</g>
<!-- Node15 -->
<g id="node15" class="node">
<title>Node15</title>
<g id="a_node15"><a xlink:href="classce103__hw4__medical__store__app_1_1_menu.html#a8686eac8bd55447713e5620b8b0c7c2a" target="_top" xlink:title=" ">
<polygon fill="white" stroke="#666666" points="666.5,-776.18 535.5,-776.18 535.5,-746.18 666.5,-746.18 666.5,-776.18"/>
<text text-anchor="start" x="543.5" y="-764.18" font-family="Helvetica,sans-Serif" font-size="10.00">ce103_hw4_medical_store</text>
<text text-anchor="middle" x="601" y="-753.18" font-family="Helvetica,sans-Serif" font-size="10.00">_app.Menu.printMenu</text>
</a>
</g>
</g>
<!-- Node14&#45;&gt;Node15 -->
<g id="edge25" class="edge">
<title>Node14&#45;&gt;Node15</title>
<path fill="none" stroke="#63b8ff" d="M735.79,-735.78C712.62,-740.18 688.27,-744.81 666.78,-748.89"/>
<polygon fill="#63b8ff" stroke="#63b8ff" points="736.39,-739.23 745.56,-733.93 735.08,-732.36 736.39,-739.23"/>
</g>
<!-- Node15&#45;&gt;Node3 -->
<g id="edge26" class="edge">
<title>Node15&#45;&gt;Node3</title>
<path fill="none" stroke="#63b8ff" d="M524.56,-748.27C515.81,-744.25 507.65,-739.01 501,-732.18 457.37,-687.4 483.62,-655.87 465,-596.18 445.82,-534.69 418.44,-463.02 406.47,-432.36"/>
<polygon fill="#63b8ff" stroke="#63b8ff" points="523.07,-751.44 533.65,-751.89 525.66,-744.94 523.07,-751.44"/>
</g>
<!-- Node15&#45;&gt;Node4 -->
<g id="edge27" class="edge">
<title>Node15&#45;&gt;Node4</title>
<path fill="none" stroke="#63b8ff" d="M537.7,-741.49C525.03,-736.17 512.17,-729.75 501,-722.18 382.39,-641.85 277.18,-500.41 244.19,-453.66"/>
<polygon fill="#63b8ff" stroke="#63b8ff" points="536.27,-744.69 546.85,-745.14 538.86,-738.19 536.27,-744.69"/>
</g>
<!-- Node16&#45;&gt;Node3 -->
<g id="edge29" class="edge">
<title>Node16&#45;&gt;Node3</title>
<path fill="none" stroke="#63b8ff" d="M737.14,-63.11C653.11,-60.4 536.34,-62.19 501,-90.18 449.79,-130.75 412.37,-343.09 402.86,-402.01"/>
<polygon fill="#63b8ff" stroke="#63b8ff" points="736.88,-66.6 747,-63.46 737.13,-59.61 736.88,-66.6"/>
</g>
<!-- Node16&#45;&gt;Node17 -->
<g id="edge30" class="edge">
<title>Node16&#45;&gt;Node17</title>
<path fill="none" stroke="#63b8ff" d="M737.36,-50.88C719.52,-47.49 700.92,-43.96 683.43,-40.64"/>
<polygon fill="#63b8ff" stroke="#63b8ff" points="736.68,-54.31 747.16,-52.74 737.99,-47.44 736.68,-54.31"/>
</g>
<!-- Node17&#45;&gt;Node3 -->
<g id="edge31" class="edge">
<title>Node17&#45;&gt;Node3</title>
<path fill="none" stroke="#63b8ff" d="M510.07,-46.49C506.83,-48.8 503.79,-51.36 501,-54.18 401.18,-155.5 398.43,-346.68 399.86,-401.9"/>
<polygon fill="#63b8ff" stroke="#63b8ff" points="511.68,-49.61 518.38,-41.4 508.02,-43.64 511.68,-49.61"/>
</g>
<!-- Node18&#45;&gt;Node3 -->
<g id="edge33" class="edge">
<title>Node18&#45;&gt;Node3</title>
<path fill="none" stroke="#63b8ff" d="M505.88,-255.94C504.21,-256.97 502.58,-258.05 501,-259.18 448.92,-296.45 417.48,-369.93 405.75,-401.81"/>
<polygon fill="#63b8ff" stroke="#63b8ff" points="507.35,-259.13 514.49,-251.31 504.03,-252.97 507.35,-259.13"/>
</g>
<!-- Node19&#45;&gt;Node3 -->
<g id="edge35" class="edge">
<title>Node19&#45;&gt;Node3</title>
<path fill="none" stroke="#63b8ff" d="M745.06,-452.63C678.65,-453.43 583.49,-452.05 501,-441.18 486.33,-439.25 470.67,-436.07 456.2,-432.65"/>
<polygon fill="#63b8ff" stroke="#63b8ff" points="744.82,-456.13 754.77,-452.49 744.72,-449.13 744.82,-456.13"/>
</g>
<!-- Node20&#45;&gt;Node3 -->
<g id="edge38" class="edge">
<title>Node20&#45;&gt;Node3</title>
<path fill="none" stroke="#63b8ff" d="M506.31,-207.29C504.48,-208.52 502.71,-209.81 501,-211.18 437.59,-262.19 411.36,-363.16 403.37,-401.72"/>
<polygon fill="#63b8ff" stroke="#63b8ff" points="507.65,-210.56 514.55,-202.52 504.15,-204.5 507.65,-210.56"/>
</g>
<!-- Node21&#45;&gt;Node3 -->
<g id="edge41" class="edge">
<title>Node21&#45;&gt;Node3</title>
<path fill="none" stroke="#63b8ff" d="M763.63,-686.15C692.64,-701.74 578.6,-714.35 501,-661.18 480.64,-647.23 423.34,-483.87 405.72,-432.52"/>
<polygon fill="#63b8ff" stroke="#63b8ff" points="764.2,-689.61 773.17,-683.97 762.64,-682.79 764.2,-689.61"/>
</g>
<!-- Node22&#45;&gt;Node2 -->
<g id="edge43" class="edge">
<title>Node22&#45;&gt;Node2</title>
<path fill="none" stroke="#63b8ff" d="M794.2,-347.18C769.13,-361.78 733.9,-380.77 701,-393.18 692.64,-396.34 683.73,-399.18 674.81,-401.71"/>
<polygon fill="#63b8ff" stroke="#63b8ff" points="795.81,-350.29 802.65,-342.19 792.26,-344.26 795.81,-350.29"/>
</g>
<!-- Node22&#45;&gt;Node3 -->
<g id="edge46" class="edge">
<title>Node22&#45;&gt;Node3</title>
<path fill="none" stroke="#63b8ff" d="M740.25,-318.24C672.8,-315.24 578.54,-317.77 501,-345.18 467,-357.2 434.35,-384.45 415.91,-401.77"/>
<polygon fill="#63b8ff" stroke="#63b8ff" points="740,-321.73 750.17,-318.74 740.35,-314.74 740,-321.73"/>
</g>
<!-- Node22&#45;&gt;Node6 -->
<g id="edge44" class="edge">
<title>Node22&#45;&gt;Node6</title>
<path fill="none" stroke="#63b8ff" d="M740.3,-342.93C721.57,-346.48 701.89,-350.22 683.43,-353.73"/>
<polygon fill="#63b8ff" stroke="#63b8ff" points="740.84,-346.39 750.01,-341.08 739.54,-339.51 740.84,-346.39"/>
</g>
<!-- Node22&#45;&gt;Node13 -->
<g id="edge45" class="edge">
<title>Node22&#45;&gt;Node13</title>
<path fill="none" stroke="#63b8ff" d="M740.35,-309.45C720.03,-305.59 698.58,-301.52 678.79,-297.76"/>
<polygon fill="#63b8ff" stroke="#63b8ff" points="739.54,-312.86 750.01,-311.28 740.84,-305.98 739.54,-312.86"/>
</g>
<!-- Node22&#45;&gt;Node18 -->
<g id="edge47" class="edge">
<title>Node22&#45;&gt;Node18</title>
<path fill="none" stroke="#63b8ff" d="M794.2,-305.19C769.13,-290.59 733.9,-271.6 701,-259.18 692.64,-256.03 683.73,-253.19 674.81,-250.66"/>
<polygon fill="#63b8ff" stroke="#63b8ff" points="792.26,-308.11 802.65,-310.17 795.81,-302.08 792.26,-308.11"/>
</g>
<!-- Node22&#45;&gt;Node20 -->
<g id="edge48" class="edge">
<title>Node22&#45;&gt;Node20</title>
<path fill="none" stroke="#63b8ff" d="M808.69,-302.29C785.56,-275.98 744.86,-234.34 701,-211.18 694.82,-207.92 688.19,-205.09 681.4,-202.65"/>
<polygon fill="#63b8ff" stroke="#63b8ff" points="805.94,-304.46 815.12,-309.75 811.25,-299.89 805.94,-304.46"/>
</g>
</g>
</svg>
        <g id="navigator" transform="translate(0 0)" fill="#404254">
                <rect fill="#f2f5e9" fill-opacity="0.5" stroke="#606060" stroke-width=".5" x="0" y="0" width="60" height="60"/>
                <use id="zoomplus" xlink:href="#zoomPlus" x="17" y="9" onmousedown="handleZoom(evt,'in')"/>
                <use id="zoomminus" xlink:href="#zoomMin" x="42" y="9" onmousedown="handleZoom(evt,'out')"/>
                <use id="reset" xlink:href="#resetDef" x="30" y="36" onmousedown="handleReset()"/>
                <g id="arrowUp" xlink:href="#dirArrow" transform="translate(30 24)" onmousedown="handlePan(0,-1)">
                  <use xlink:href="#rim" fill="#404040">
                        <set attributeName="fill" to="#808080" begin="arrowUp.mouseover" end="arrowUp.mouseout"/>
                  </use>
                  <path fill="none" stroke="white" stroke-width="1.5" d="M0,-3.0v7 M-2.5,-0.5L0,-3.0L2.5,-0.5"/>
                </g>
                <g id="arrowRight" xlink:href="#dirArrow" transform="rotate(90) translate(36 -43)" onmousedown="handlePan(1,0)">
                  <use xlink:href="#rim" fill="#404040">
                        <set attributeName="fill" to="#808080" begin="arrowRight.mouseover" end="arrowRight.mouseout"/>
                  </use>
                  <path fill="none" stroke="white" stroke-width="1.5" d="M0,-3.0v7 M-2.5,-0.5L0,-3.0L2.5,-0.5"/>
                </g>
                <g id="arrowDown" xlink:href="#dirArrow" transform="rotate(180) translate(-30 -48)" onmousedown="handlePan(0,1)">
                  <use xlink:href="#rim" fill="#404040">
                        <set attributeName="fill" to="#808080" begin="arrowDown.mouseover" end="arrowDown.mouseout"/>
                  </use>
                  <path fill="none" stroke="white" stroke-width="1.5" d="M0,-3.0v7 M-2.5,-0.5L0,-3.0L2.5,-0.5"/>
                </g>
                <g id="arrowLeft" xlink:href="#dirArrow" transform="rotate(270) translate(-36 17)" onmousedown="handlePan(-1,0)">
                  <use xlink:href="#rim" fill="#404040">
                        <set attributeName="fill" to="#808080" begin="arrowLeft.mouseover" end="arrowLeft.mouseout"/>
                  </use>
                  <path fill="none" stroke="white" stroke-width="1.5" d="M0,-3.0v7 M-2.5,-0.5L0,-3.0L2.5,-0.5"/>
                </g>
        </g>
        <svg viewBox="0 0 15 15" width="100%" height="30px" preserveAspectRatio="xMaxYMin meet">
         <g id="arrow_out" transform="scale(0.3 0.3)">
          <a xlink:href="classce103__hw4__medical__store__app_1_1_insider_of_the_menu_aa208466ba46c8f7d58d2f2e970d23545_icgraph_org.svg" target="_base">
           <rect id="button" ry="5" rx="5" y="6" x="6" height="38" width="38"
                fill="#f2f5e9" fill-opacity="0.5" stroke="#606060" stroke-width="1.0"/>
           <path id="arrow"
             d="M 11.500037,31.436501 C 11.940474,20.09759 22.043105,11.32322 32.158766,21.979434 L 37.068811,17.246167 C 37.068811,17.246167 37.088388,32 37.088388,32 L 22.160133,31.978069 C 22.160133,31.978069 26.997745,27.140456 26.997745,27.140456 C 18.528582,18.264221 13.291696,25.230495 11.500037,31.436501 z"
             style="fill:#404040;"/>
          </a>
         </g>
        </svg>
</svg>
