<?xml version="1.0" encoding="UTF-8" standalone="no"?>
<!DOCTYPE svg PUBLIC "-//W3C//DTD SVG 1.1//EN"
 "http://www.w3.org/Graphics/SVG/1.1/DTD/svg11.dtd">
<!-- Generated by graphviz version 7.0.4 (20221203.1631)
 -->
<!-- Title: ce103_hw4_medical_store_lib.Customer.setCity Pages: 1 -->
<!--zoomable 159 -->
<svg id="main" version="1.1" xmlns="http://www.w3.org/2000/svg" xmlns:xlink="http://www.w3.org/1999/xlink" xml:space="preserve" onload="init(evt)">
<style type="text/css"><![CDATA[
.edge:hover path { stroke: red; }
.edge:hover polygon { stroke: red; fill: red; }
]]></style>
<script type="text/javascript"><![CDATA[
var edges = document.getElementsByTagName('g');
if (edges && edges.length) {
  for (var i=0;i<edges.length;i++) {
    if (edges[i].id.substr(0,4)=='edge') {
      edges[i].setAttribute('class','edge');
    }
  }
}
]]></script>
        <defs>
                <circle id="rim" cx="0" cy="0" r="7"/>
                <circle id="rim2" cx="0" cy="0" r="3.5"/>
                <g id="zoomPlus">
                        <use xlink:href="#rim" fill="#404040">
                                <set attributeName="fill" to="#808080" begin="zoomplus.mouseover" end="zoomplus.mouseout"/>
                        </use>
                        <path d="M-4,0h8M0,-4v8" fill="none" stroke="white" stroke-width="1.5" pointer-events="none"/>
                </g>
                <g id="zoomMin">
                        <use xlink:href="#rim" fill="#404040">
                                <set attributeName="fill" to="#808080" begin="zoomminus.mouseover" end="zoomminus.mouseout"/>
                        </use>
                        <path d="M-4,0h8" fill="none" stroke="white" stroke-width="1.5" pointer-events="none"/>
                </g>
                <g id="dirArrow">
                        <path fill="none" stroke="white" stroke-width="1.5" d="M0,-3.0v7 M-2.5,-0.5L0,-3.0L2.5,-0.5"/>
                </g>
               <g id="resetDef">
                       <use xlink:href="#rim2" fill="#404040">
                               <set attributeName="fill" to="#808080" begin="reset.mouseover" end="reset.mouseout"/>
                       </use>
               </g>
        </defs>

<script type="text/javascript">
var viewWidth = 1070;
var viewHeight = 159;
var sectionId = 'dynsection-9';
</script>
<script xlink:href="svgpan.js"/>
<svg id="graph" class="graph">
<g id="viewport">
<title>ce103_hw4_medical_store_lib.Customer.setCity</title>
<!-- Node1 -->
<g id="node1" class="node">
<title>Node1</title>
<g id="a_node1"><a xlink:title=" ">
<polygon fill="#999999" stroke="#666666" points="1062,-93 931,-93 931,-63 1062,-63 1062,-93"/>
<text text-anchor="start" x="939" y="-81" font-family="Helvetica,sans-Serif" font-size="10.00">ce103_hw4_medical_store</text>
<text text-anchor="middle" x="996.5" y="-70" font-family="Helvetica,sans-Serif" font-size="10.00">_lib.Customer.setCity</text>
</a>
</g>
</g>
<!-- Node2 -->
<g id="node2" class="node">
<title>Node2</title>
<g id="a_node2"><a xlink:href="classce103__hw4__medical__store__app_1_1_insider_of_the_menu.html#a4e19bce8c519e748af92a2347e490ace" target="_top" xlink:title=" ">
<polygon fill="white" stroke="#666666" points="680,-151 501,-151 501,-121 680,-121 680,-151"/>
<text text-anchor="start" x="509" y="-139" font-family="Helvetica,sans-Serif" font-size="10.00">ce103_hw4_medical_store</text>
<text text-anchor="middle" x="590.5" y="-128" font-family="Helvetica,sans-Serif" font-size="10.00">_app.InsiderOfTheMenu.addCustomer</text>
</a>
</g>
</g>
<!-- Node1&#45;&gt;Node2 -->
<g id="edge1" class="edge">
<title>Node1&#45;&gt;Node2</title>
<path fill="none" stroke="#63b8ff" d="M939.9,-96.73C925.42,-101.02 909.74,-105.15 895,-108 823.57,-121.82 741.31,-128.87 680.47,-132.44"/>
<polygon fill="#63b8ff" stroke="#63b8ff" points="940.7,-100.15 949.25,-93.89 938.66,-93.45 940.7,-100.15"/>
</g>
<!-- Node6 -->
<g id="node6" class="node">
<title>Node6</title>
<g id="a_node6"><a xlink:href="classce103__hw4__medical__store__lib_1_1_customer.html#ae766307af9c3831757bb80b0c8adc4da" target="_top" xlink:title=" ">
<polygon fill="white" stroke="#666666" points="879.5,-98.5 731.5,-98.5 731.5,-57.5 879.5,-57.5 879.5,-98.5"/>
<text text-anchor="start" x="739.5" y="-86.5" font-family="Helvetica,sans-Serif" font-size="10.00">ce103_hw4_medical_store</text>
<text text-anchor="start" x="739.5" y="-75.5" font-family="Helvetica,sans-Serif" font-size="10.00">_lib.Customer.ByteArrayBlock</text>
<text text-anchor="middle" x="805.5" y="-64.5" font-family="Helvetica,sans-Serif" font-size="10.00">ToCustomer</text>
</a>
</g>
</g>
<!-- Node1&#45;&gt;Node6 -->
<g id="edge5" class="edge">
<title>Node1&#45;&gt;Node6</title>
<path fill="none" stroke="#63b8ff" d="M919.43,-78C906.41,-78 892.91,-78 879.96,-78"/>
<polygon fill="#63b8ff" stroke="#63b8ff" points="919.21,-81.5 929.21,-78 919.21,-74.5 919.21,-81.5"/>
</g>
<!-- Node9 -->
<g id="node9" class="node">
<title>Node9</title>
<g id="a_node9"><a xlink:href="classce103__hw4__medical__store__app_1_1_insider_of_the_menu.html#aa560a0597ff17489f751b94beddfaf9a" target="_top" xlink:title=" ">
<polygon fill="white" stroke="#666666" points="895,-30 716,-30 716,0 895,0 895,-30"/>
<text text-anchor="start" x="724" y="-18" font-family="Helvetica,sans-Serif" font-size="10.00">ce103_hw4_medical_store</text>
<text text-anchor="middle" x="805.5" y="-7" font-family="Helvetica,sans-Serif" font-size="10.00">_app.InsiderOfTheMenu.editCustomer</text>
</a>
</g>
</g>
<!-- Node1&#45;&gt;Node9 -->
<g id="edge10" class="edge">
<title>Node1&#45;&gt;Node9</title>
<path fill="none" stroke="#63b8ff" d="M938.65,-59.05C911.25,-49.92 878.8,-39.1 852.91,-30.47"/>
<polygon fill="#63b8ff" stroke="#63b8ff" points="937.24,-62.27 947.83,-62.11 939.45,-55.63 937.24,-62.27"/>
</g>
<!-- Node3 -->
<g id="node3" class="node">
<title>Node3</title>
<g id="a_node3"><a xlink:href="classce103__hw4__medical__store__app_1_1_menu.html#af40268756f4be60ece4bf674210a17bb" target="_top" xlink:title=" ">
<polygon fill="white" stroke="#666666" points="465,-79 334,-79 334,-49 465,-49 465,-79"/>
<text text-anchor="start" x="342" y="-67" font-family="Helvetica,sans-Serif" font-size="10.00">ce103_hw4_medical_store</text>
<text text-anchor="middle" x="399.5" y="-56" font-family="Helvetica,sans-Serif" font-size="10.00">_app.Menu.performAction</text>
</a>
</g>
</g>
<!-- Node2&#45;&gt;Node3 -->
<g id="edge2" class="edge">
<title>Node2&#45;&gt;Node3</title>
<path fill="none" stroke="#63b8ff" d="M516.36,-117.29C511.13,-115.61 505.96,-113.84 501,-112 475.98,-102.72 448.73,-89.5 428.93,-79.28"/>
<polygon fill="#63b8ff" stroke="#63b8ff" points="515.12,-120.57 525.71,-120.17 517.19,-113.88 515.12,-120.57"/>
</g>
<!-- Node4 -->
<g id="node4" class="node">
<title>Node4</title>
<g id="a_node4"><a xlink:href="classce103__hw4__medical__store__app_1_1_menu.html#a8890452f69a3d1c94a7951344bd7515b" target="_top" xlink:title=" ">
<polygon fill="white" stroke="#666666" points="298,-79 167,-79 167,-49 298,-49 298,-79"/>
<text text-anchor="start" x="175" y="-67" font-family="Helvetica,sans-Serif" font-size="10.00">ce103_hw4_medical_store</text>
<text text-anchor="middle" x="232.5" y="-56" font-family="Helvetica,sans-Serif" font-size="10.00">_app.Menu.runMenu</text>
</a>
</g>
</g>
<!-- Node3&#45;&gt;Node4 -->
<g id="edge3" class="edge">
<title>Node3&#45;&gt;Node4</title>
<path fill="none" stroke="#63b8ff" d="M322.45,-64C314.39,-64 306.24,-64 298.32,-64"/>
<polygon fill="#63b8ff" stroke="#63b8ff" points="322.25,-67.5 332.25,-64 322.25,-60.5 322.25,-67.5"/>
</g>
<!-- Node5 -->
<g id="node5" class="node">
<title>Node5</title>
<g id="a_node5"><a xlink:href="classce103__hw4__medical__store__app_1_1_menu.html#a906bd0b055bce495d306a21e81cbec1b" target="_top" xlink:title=" ">
<polygon fill="white" stroke="#666666" points="131,-79 0,-79 0,-49 131,-49 131,-79"/>
<text text-anchor="start" x="8" y="-67" font-family="Helvetica,sans-Serif" font-size="10.00">ce103_hw4_medical_store</text>
<text text-anchor="middle" x="65.5" y="-56" font-family="Helvetica,sans-Serif" font-size="10.00">_app.Menu.main</text>
</a>
</g>
</g>
<!-- Node4&#45;&gt;Node5 -->
<g id="edge4" class="edge">
<title>Node4&#45;&gt;Node5</title>
<path fill="none" stroke="#63b8ff" d="M155.45,-64C147.39,-64 139.24,-64 131.32,-64"/>
<polygon fill="#63b8ff" stroke="#63b8ff" points="155.25,-67.5 165.25,-64 155.25,-60.5 155.25,-67.5"/>
</g>
<!-- Node7 -->
<g id="node7" class="node">
<title>Node7</title>
<g id="a_node7"><a xlink:href="classce103__hw4__medical__store__app_1_1_insider_of_the_menu.html#ac0c61e30bf8522c24d43db9d7cfdccba" target="_top" xlink:title=" ">
<polygon fill="white" stroke="#666666" points="667,-103 514,-103 514,-73 667,-73 667,-103"/>
<text text-anchor="start" x="522" y="-91" font-family="Helvetica,sans-Serif" font-size="10.00">ce103_hw4_medical_store</text>
<text text-anchor="middle" x="590.5" y="-80" font-family="Helvetica,sans-Serif" font-size="10.00">_app.InsiderOfTheMenu.listcust</text>
</a>
</g>
</g>
<!-- Node6&#45;&gt;Node7 -->
<g id="edge6" class="edge">
<title>Node6&#45;&gt;Node7</title>
<path fill="none" stroke="#63b8ff" d="M719.95,-81.97C702.62,-82.78 684.48,-83.63 667.47,-84.43"/>
<polygon fill="#63b8ff" stroke="#63b8ff" points="719.86,-85.48 729.69,-81.51 719.53,-78.49 719.86,-85.48"/>
</g>
<!-- Node8 -->
<g id="node8" class="node">
<title>Node8</title>
<g id="a_node8"><a xlink:href="classce103__hw4__medical__store__app_1_1_insider_of_the_menu.html#afe96072316b08c7e64c0c00f4d912352" target="_top" xlink:title=" ">
<polygon fill="white" stroke="#666666" points="675.5,-55 505.5,-55 505.5,-25 675.5,-25 675.5,-55"/>
<text text-anchor="start" x="513.5" y="-43" font-family="Helvetica,sans-Serif" font-size="10.00">ce103_hw4_medical_store</text>
<text text-anchor="middle" x="590.5" y="-32" font-family="Helvetica,sans-Serif" font-size="10.00">_app.InsiderOfTheMenu.searchcust</text>
</a>
</g>
</g>
<!-- Node6&#45;&gt;Node8 -->
<g id="edge8" class="edge">
<title>Node6&#45;&gt;Node8</title>
<path fill="none" stroke="#63b8ff" d="M720.19,-62.96C705.63,-60.36 690.49,-57.66 675.92,-55.06"/>
<polygon fill="#63b8ff" stroke="#63b8ff" points="719.25,-66.35 729.71,-64.66 720.48,-59.45 719.25,-66.35"/>
</g>
<!-- Node7&#45;&gt;Node3 -->
<g id="edge7" class="edge">
<title>Node7&#45;&gt;Node3</title>
<path fill="none" stroke="#63b8ff" d="M502.35,-76.93C489.9,-75.35 477.28,-73.75 465.35,-72.24"/>
<polygon fill="#63b8ff" stroke="#63b8ff" points="501.85,-80.4 512.21,-78.19 502.73,-73.45 501.85,-80.4"/>
</g>
<!-- Node8&#45;&gt;Node3 -->
<g id="edge9" class="edge">
<title>Node8&#45;&gt;Node3</title>
<path fill="none" stroke="#63b8ff" d="M493.89,-52.14C484.22,-53.37 474.56,-54.6 465.32,-55.77"/>
<polygon fill="#63b8ff" stroke="#63b8ff" points="494.24,-55.62 503.72,-50.89 493.36,-48.68 494.24,-55.62"/>
</g>
<!-- Node9&#45;&gt;Node3 -->
<g id="edge11" class="edge">
<title>Node9&#45;&gt;Node3</title>
<path fill="none" stroke="#63b8ff" d="M704.35,-4.38C644.58,-0.74 567.6,-0.8 501,-16 473.48,-22.28 444.66,-37.01 424.98,-48.51"/>
<polygon fill="#63b8ff" stroke="#63b8ff" points="703.96,-7.86 714.17,-5.03 704.42,-0.88 703.96,-7.86"/>
</g>
</g>
</svg>
        <g id="navigator" transform="translate(0 0)" fill="#404254">
                <rect fill="#f2f5e9" fill-opacity="0.5" stroke="#606060" stroke-width=".5" x="0" y="0" width="60" height="60"/>
                <use id="zoomplus" xlink:href="#zoomPlus" x="17" y="9" onmousedown="handleZoom(evt,'in')"/>
                <use id="zoomminus" xlink:href="#zoomMin" x="42" y="9" onmousedown="handleZoom(evt,'out')"/>
                <use id="reset" xlink:href="#resetDef" x="30" y="36" onmousedown="handleReset()"/>
                <g id="arrowUp" xlink:href="#dirArrow" transform="translate(30 24)" onmousedown="handlePan(0,-1)">
                  <use xlink:href="#rim" fill="#404040">
                        <set attributeName="fill" to="#808080" begin="arrowUp.mouseover" end="arrowUp.mouseout"/>
                  </use>
                  <path fill="none" stroke="white" stroke-width="1.5" d="M0,-3.0v7 M-2.5,-0.5L0,-3.0L2.5,-0.5"/>
                </g>
                <g id="arrowRight" xlink:href="#dirArrow" transform="rotate(90) translate(36 -43)" onmousedown="handlePan(1,0)">
                  <use xlink:href="#rim" fill="#404040">
                        <set attributeName="fill" to="#808080" begin="arrowRight.mouseover" end="arrowRight.mouseout"/>
                  </use>
                  <path fill="none" stroke="white" stroke-width="1.5" d="M0,-3.0v7 M-2.5,-0.5L0,-3.0L2.5,-0.5"/>
                </g>
                <g id="arrowDown" xlink:href="#dirArrow" transform="rotate(180) translate(-30 -48)" onmousedown="handlePan(0,1)">
                  <use xlink:href="#rim" fill="#404040">
                        <set attributeName="fill" to="#808080" begin="arrowDown.mouseover" end="arrowDown.mouseout"/>
                  </use>
                  <path fill="none" stroke="white" stroke-width="1.5" d="M0,-3.0v7 M-2.5,-0.5L0,-3.0L2.5,-0.5"/>
                </g>
                <g id="arrowLeft" xlink:href="#dirArrow" transform="rotate(270) translate(-36 17)" onmousedown="handlePan(-1,0)">
                  <use xlink:href="#rim" fill="#404040">
                        <set attributeName="fill" to="#808080" begin="arrowLeft.mouseover" end="arrowLeft.mouseout"/>
                  </use>
                  <path fill="none" stroke="white" stroke-width="1.5" d="M0,-3.0v7 M-2.5,-0.5L0,-3.0L2.5,-0.5"/>
                </g>
        </g>
        <svg viewBox="0 0 15 15" width="100%" height="30px" preserveAspectRatio="xMaxYMin meet">
         <g id="arrow_out" transform="scale(0.3 0.3)">
          <a xlink:href="classce103__hw4__medical__store__lib_1_1_customer_a8443925c23f0315b80f1f5f6f5f7267b_icgraph_org.svg" target="_base">
           <rect id="button" ry="5" rx="5" y="6" x="6" height="38" width="38"
                fill="#f2f5e9" fill-opacity="0.5" stroke="#606060" stroke-width="1.0"/>
           <path id="arrow"
             d="M 11.500037,31.436501 C 11.940474,20.09759 22.043105,11.32322 32.158766,21.979434 L 37.068811,17.246167 C 37.068811,17.246167 37.088388,32 37.088388,32 L 22.160133,31.978069 C 22.160133,31.978069 26.997745,27.140456 26.997745,27.140456 C 18.528582,18.264221 13.291696,25.230495 11.500037,31.436501 z"
             style="fill:#404040;"/>
          </a>
         </g>
        </svg>
</svg>
