<?xml version="1.0" encoding="UTF-8" standalone="no"?>
<!DOCTYPE svg PUBLIC "-//W3C//DTD SVG 1.1//EN"
 "http://www.w3.org/Graphics/SVG/1.1/DTD/svg11.dtd">
<!-- Generated by graphviz version 7.0.4 (20221203.1631)
 -->
<!-- Title: ce103_hw4_medical_store_lib.Supplier.byteArrayBlockToSupplier Pages: 1 -->
<svg width="336pt" height="349pt"
 viewBox="0.00 0.00 336.00 348.50" xmlns="http://www.w3.org/2000/svg" xmlns:xlink="http://www.w3.org/1999/xlink">
<g id="graph0" class="graph" transform="scale(1 1) rotate(0) translate(4 344.5)">
<title>ce103_hw4_medical_store_lib.Supplier.byteArrayBlockToSupplier</title>
<!-- Node1 -->
<g id="node1" class="node">
<title>Node1</title>
<g id="a_node1"><a xlink:title=" ">
<polygon fill="#999999" stroke="#666666" points="140,-179.5 0,-179.5 0,-138.5 140,-138.5 140,-179.5"/>
<text text-anchor="start" x="8" y="-167.5" font-family="Helvetica,sans-Serif" font-size="10.00">ce103_hw4_medical_store</text>
<text text-anchor="start" x="8" y="-156.5" font-family="Helvetica,sans-Serif" font-size="10.00">_lib.Supplier.byteArrayBlock</text>
<text text-anchor="middle" x="70" y="-145.5" font-family="Helvetica,sans-Serif" font-size="10.00">ToSupplier</text>
</a>
</g>
</g>
<!-- Node2 -->
<g id="node2" class="node">
<title>Node2</title>
<g id="a_node2"><a xlink:href="$classce103__hw4__medical__store__lib_1_1_conversion_utility.html#a73bfc22165c4d39e288482818b96f6a1" xlink:title=" ">
<polygon fill="white" stroke="#666666" points="328,-340.5 176,-340.5 176,-299.5 328,-299.5 328,-340.5"/>
<text text-anchor="start" x="184" y="-328.5" font-family="Helvetica,sans-Serif" font-size="10.00">ce103_hw4_medical_store</text>
<text text-anchor="start" x="184" y="-317.5" font-family="Helvetica,sans-Serif" font-size="10.00">_lib.ConversionUtility.byteArray</text>
<text text-anchor="middle" x="252" y="-306.5" font-family="Helvetica,sans-Serif" font-size="10.00">ToInteger</text>
</a>
</g>
</g>
<!-- Node1&#45;&gt;Node2 -->
<g id="edge1" class="edge">
<title>Node1&#45;&gt;Node2</title>
<path fill="none" stroke="#63b8ff" d="M82.61,-179.7C99.64,-208.37 134,-260.13 176,-291 177.14,-291.84 178.3,-292.65 179.49,-293.45"/>
<polygon fill="#63b8ff" stroke="#63b8ff" points="177.33,-296.23 187.71,-298.38 180.93,-290.23 177.33,-296.23"/>
</g>
<!-- Node3 -->
<g id="node3" class="node">
<title>Node3</title>
<g id="a_node3"><a xlink:href="$classce103__hw4__medical__store__lib_1_1_conversion_utility.html#a202f8f242fa0c940170289cb2b08b1f7" xlink:title=" ">
<polygon fill="white" stroke="#666666" points="328,-281.5 176,-281.5 176,-240.5 328,-240.5 328,-281.5"/>
<text text-anchor="start" x="184" y="-269.5" font-family="Helvetica,sans-Serif" font-size="10.00">ce103_hw4_medical_store</text>
<text text-anchor="start" x="184" y="-258.5" font-family="Helvetica,sans-Serif" font-size="10.00">_lib.ConversionUtility.byteArray</text>
<text text-anchor="middle" x="252" y="-247.5" font-family="Helvetica,sans-Serif" font-size="10.00">ToString</text>
</a>
</g>
</g>
<!-- Node1&#45;&gt;Node3 -->
<g id="edge2" class="edge">
<title>Node1&#45;&gt;Node3</title>
<path fill="none" stroke="#63b8ff" d="M98.02,-179.99C118.63,-195.38 148.12,-216.1 176,-231 178.69,-232.44 181.46,-233.85 184.29,-235.22"/>
<polygon fill="#63b8ff" stroke="#63b8ff" points="182.76,-238.37 193.31,-239.41 185.71,-232.03 182.76,-238.37"/>
</g>
<!-- Node4 -->
<g id="node4" class="node">
<title>Node4</title>
<g id="a_node4"><a xlink:href="$classce103__hw4__medical__store__lib_1_1_supplier.html#a63e69b6765041b2217c0411560f543d4" xlink:title=" ">
<polygon fill="white" stroke="#666666" points="317.5,-222 186.5,-222 186.5,-192 317.5,-192 317.5,-222"/>
<text text-anchor="start" x="194.5" y="-210" font-family="Helvetica,sans-Serif" font-size="10.00">ce103_hw4_medical_store</text>
<text text-anchor="middle" x="252" y="-199" font-family="Helvetica,sans-Serif" font-size="10.00">_lib.Supplier.setCity</text>
</a>
</g>
</g>
<!-- Node1&#45;&gt;Node4 -->
<g id="edge3" class="edge">
<title>Node1&#45;&gt;Node4</title>
<path fill="none" stroke="#63b8ff" d="M140.34,-177.49C154.09,-181.16 168.52,-185.01 182.26,-188.67"/>
<polygon fill="#63b8ff" stroke="#63b8ff" points="181.07,-191.97 191.63,-191.17 182.87,-185.21 181.07,-191.97"/>
</g>
<!-- Node5 -->
<g id="node5" class="node">
<title>Node5</title>
<g id="a_node5"><a xlink:href="$classce103__hw4__medical__store__lib_1_1_supplier.html#aa287ef6ae91ce808df837776ddb76c19" xlink:title=" ">
<polygon fill="white" stroke="#666666" points="318,-174 186,-174 186,-144 318,-144 318,-174"/>
<text text-anchor="start" x="194" y="-162" font-family="Helvetica,sans-Serif" font-size="10.00">ce103_hw4_medical_store</text>
<text text-anchor="middle" x="252" y="-151" font-family="Helvetica,sans-Serif" font-size="10.00">_lib.Supplier.setContactNo</text>
</a>
</g>
</g>
<!-- Node1&#45;&gt;Node5 -->
<g id="edge4" class="edge">
<title>Node1&#45;&gt;Node5</title>
<path fill="none" stroke="#63b8ff" d="M140.34,-159C151.48,-159 163.07,-159 174.37,-159"/>
<polygon fill="#63b8ff" stroke="#63b8ff" points="174.03,-162.5 184.03,-159 174.03,-155.5 174.03,-162.5"/>
</g>
<!-- Node6 -->
<g id="node6" class="node">
<title>Node6</title>
<g id="a_node6"><a xlink:href="$classce103__hw4__medical__store__lib_1_1_supplier.html#ad1b1647cc905e9c92aad10a6a2bf244a" xlink:title=" ">
<polygon fill="white" stroke="#666666" points="317.5,-126 186.5,-126 186.5,-96 317.5,-96 317.5,-126"/>
<text text-anchor="start" x="194.5" y="-114" font-family="Helvetica,sans-Serif" font-size="10.00">ce103_hw4_medical_store</text>
<text text-anchor="middle" x="252" y="-103" font-family="Helvetica,sans-Serif" font-size="10.00">_lib.Supplier.setemailID</text>
</a>
</g>
</g>
<!-- Node1&#45;&gt;Node6 -->
<g id="edge5" class="edge">
<title>Node1&#45;&gt;Node6</title>
<path fill="none" stroke="#63b8ff" d="M140.34,-140.51C154.09,-136.84 168.52,-132.99 182.26,-129.33"/>
<polygon fill="#63b8ff" stroke="#63b8ff" points="182.87,-132.79 191.63,-126.83 181.07,-126.03 182.87,-132.79"/>
</g>
<!-- Node7 -->
<g id="node7" class="node">
<title>Node7</title>
<g id="a_node7"><a xlink:href="$classce103__hw4__medical__store__lib_1_1_supplier.html#a447efde29cb96c324429232d65f41e52" xlink:title=" ">
<polygon fill="white" stroke="#666666" points="317.5,-78 186.5,-78 186.5,-48 317.5,-48 317.5,-78"/>
<text text-anchor="start" x="194.5" y="-66" font-family="Helvetica,sans-Serif" font-size="10.00">ce103_hw4_medical_store</text>
<text text-anchor="middle" x="252" y="-55" font-family="Helvetica,sans-Serif" font-size="10.00">_lib.Supplier.setsupplierId</text>
</a>
</g>
</g>
<!-- Node1&#45;&gt;Node7 -->
<g id="edge6" class="edge">
<title>Node1&#45;&gt;Node7</title>
<path fill="none" stroke="#63b8ff" d="M96.87,-138.08C117.35,-122.32 147.22,-101.1 176,-87 179.09,-85.49 182.3,-84.04 185.58,-82.66"/>
<polygon fill="#63b8ff" stroke="#63b8ff" points="186.76,-85.95 194.78,-79.03 184.19,-79.44 186.76,-85.95"/>
</g>
<!-- Node8 -->
<g id="node8" class="node">
<title>Node8</title>
<g id="a_node8"><a xlink:href="$classce103__hw4__medical__store__lib_1_1_supplier.html#a673179f4d8714ef18b4053fe3b75a0a4" xlink:title=" ">
<polygon fill="white" stroke="#666666" points="324,-30 180,-30 180,0 324,0 324,-30"/>
<text text-anchor="start" x="188" y="-18" font-family="Helvetica,sans-Serif" font-size="10.00">ce103_hw4_medical_store</text>
<text text-anchor="middle" x="252" y="-7" font-family="Helvetica,sans-Serif" font-size="10.00">_lib.Supplier.setsuppliername</text>
</a>
</g>
</g>
<!-- Node1&#45;&gt;Node8 -->
<g id="edge7" class="edge">
<title>Node1&#45;&gt;Node8</title>
<path fill="none" stroke="#63b8ff" d="M84.02,-138.09C101.7,-111.37 135.73,-65.43 176,-39 177.84,-37.79 179.75,-36.64 181.71,-35.54"/>
<polygon fill="#63b8ff" stroke="#63b8ff" points="183.1,-38.76 190.49,-31.17 179.98,-32.49 183.1,-38.76"/>
</g>
</g>
</svg>
