<?xml version="1.0" encoding="UTF-8" standalone="no"?>
<!DOCTYPE svg PUBLIC "-//W3C//DTD SVG 1.1//EN"
 "http://www.w3.org/Graphics/SVG/1.1/DTD/svg11.dtd">
<!-- Generated by graphviz version 7.0.4 (20221203.1631)
 -->
<!-- Title: ce103_hw4_medical_store_lib.Customer.customerToByteArrayBlock Pages: 1 -->
<svg width="875pt" height="86pt"
 viewBox="0.00 0.00 875.00 86.00" xmlns="http://www.w3.org/2000/svg" xmlns:xlink="http://www.w3.org/1999/xlink">
<g id="graph0" class="graph" transform="scale(1 1) rotate(0) translate(4 82)">
<title>ce103_hw4_medical_store_lib.Customer.customerToByteArrayBlock</title>
<!-- Node1 -->
<g id="node1" class="node">
<title>Node1</title>
<g id="a_node1"><a xlink:title=" ">
<polygon fill="#999999" stroke="#666666" points="867,-59.5 716,-59.5 716,-18.5 867,-18.5 867,-59.5"/>
<text text-anchor="start" x="724" y="-47.5" font-family="Helvetica,sans-Serif" font-size="10.00">ce103_hw4_medical_store</text>
<text text-anchor="start" x="724" y="-36.5" font-family="Helvetica,sans-Serif" font-size="10.00">_lib.Customer.customerToByte</text>
<text text-anchor="middle" x="791.5" y="-25.5" font-family="Helvetica,sans-Serif" font-size="10.00">ArrayBlock</text>
</a>
</g>
</g>
<!-- Node2 -->
<g id="node2" class="node">
<title>Node2</title>
<g id="a_node2"><a xlink:href="$classce103__hw4__medical__store__app_1_1_insider_of_the_menu.html#a4e19bce8c519e748af92a2347e490ace" xlink:title=" ">
<polygon fill="white" stroke="#666666" points="680,-78 501,-78 501,-48 680,-48 680,-78"/>
<text text-anchor="start" x="509" y="-66" font-family="Helvetica,sans-Serif" font-size="10.00">ce103_hw4_medical_store</text>
<text text-anchor="middle" x="590.5" y="-55" font-family="Helvetica,sans-Serif" font-size="10.00">_app.InsiderOfTheMenu.addCustomer</text>
</a>
</g>
</g>
<!-- Node1&#45;&gt;Node2 -->
<g id="edge1" class="edge">
<title>Node1&#45;&gt;Node2</title>
<path fill="none" stroke="#63b8ff" d="M704.14,-49.41C696.29,-50.36 688.32,-51.32 680.45,-52.27"/>
<polygon fill="#63b8ff" stroke="#63b8ff" points="704.54,-52.89 714.05,-48.22 703.7,-45.94 704.54,-52.89"/>
</g>
<!-- Node6 -->
<g id="node6" class="node">
<title>Node6</title>
<g id="a_node6"><a xlink:href="$classce103__hw4__medical__store__app_1_1_insider_of_the_menu.html#aa560a0597ff17489f751b94beddfaf9a" xlink:title=" ">
<polygon fill="white" stroke="#666666" points="680,-30 501,-30 501,0 680,0 680,-30"/>
<text text-anchor="start" x="509" y="-18" font-family="Helvetica,sans-Serif" font-size="10.00">ce103_hw4_medical_store</text>
<text text-anchor="middle" x="590.5" y="-7" font-family="Helvetica,sans-Serif" font-size="10.00">_app.InsiderOfTheMenu.editCustomer</text>
</a>
</g>
</g>
<!-- Node1&#45;&gt;Node6 -->
<g id="edge5" class="edge">
<title>Node1&#45;&gt;Node6</title>
<path fill="none" stroke="#63b8ff" d="M704.14,-28.59C696.29,-27.64 688.32,-26.68 680.45,-25.73"/>
<polygon fill="#63b8ff" stroke="#63b8ff" points="703.7,-32.06 714.05,-29.78 704.54,-25.11 703.7,-32.06"/>
</g>
<!-- Node3 -->
<g id="node3" class="node">
<title>Node3</title>
<g id="a_node3"><a xlink:href="$classce103__hw4__medical__store__app_1_1_menu.html#af40268756f4be60ece4bf674210a17bb" xlink:title=" ">
<polygon fill="white" stroke="#666666" points="465,-54 334,-54 334,-24 465,-24 465,-54"/>
<text text-anchor="start" x="342" y="-42" font-family="Helvetica,sans-Serif" font-size="10.00">ce103_hw4_medical_store</text>
<text text-anchor="middle" x="399.5" y="-31" font-family="Helvetica,sans-Serif" font-size="10.00">_app.Menu.performAction</text>
</a>
</g>
</g>
<!-- Node2&#45;&gt;Node3 -->
<g id="edge2" class="edge">
<title>Node2&#45;&gt;Node3</title>
<path fill="none" stroke="#63b8ff" d="M489.11,-50.25C481.05,-49.23 473.04,-48.21 465.32,-47.23"/>
<polygon fill="#63b8ff" stroke="#63b8ff" points="488.67,-53.72 499.03,-51.51 489.55,-46.78 488.67,-53.72"/>
</g>
<!-- Node4 -->
<g id="node4" class="node">
<title>Node4</title>
<g id="a_node4"><a xlink:href="$classce103__hw4__medical__store__app_1_1_menu.html#a8890452f69a3d1c94a7951344bd7515b" xlink:title=" ">
<polygon fill="white" stroke="#666666" points="298,-54 167,-54 167,-24 298,-24 298,-54"/>
<text text-anchor="start" x="175" y="-42" font-family="Helvetica,sans-Serif" font-size="10.00">ce103_hw4_medical_store</text>
<text text-anchor="middle" x="232.5" y="-31" font-family="Helvetica,sans-Serif" font-size="10.00">_app.Menu.runMenu</text>
</a>
</g>
</g>
<!-- Node3&#45;&gt;Node4 -->
<g id="edge3" class="edge">
<title>Node3&#45;&gt;Node4</title>
<path fill="none" stroke="#63b8ff" d="M322.45,-39C314.39,-39 306.24,-39 298.32,-39"/>
<polygon fill="#63b8ff" stroke="#63b8ff" points="322.25,-42.5 332.25,-39 322.25,-35.5 322.25,-42.5"/>
</g>
<!-- Node5 -->
<g id="node5" class="node">
<title>Node5</title>
<g id="a_node5"><a xlink:href="$classce103__hw4__medical__store__app_1_1_menu.html#a906bd0b055bce495d306a21e81cbec1b" xlink:title=" ">
<polygon fill="white" stroke="#666666" points="131,-54 0,-54 0,-24 131,-24 131,-54"/>
<text text-anchor="start" x="8" y="-42" font-family="Helvetica,sans-Serif" font-size="10.00">ce103_hw4_medical_store</text>
<text text-anchor="middle" x="65.5" y="-31" font-family="Helvetica,sans-Serif" font-size="10.00">_app.Menu.main</text>
</a>
</g>
</g>
<!-- Node4&#45;&gt;Node5 -->
<g id="edge4" class="edge">
<title>Node4&#45;&gt;Node5</title>
<path fill="none" stroke="#63b8ff" d="M155.45,-39C147.39,-39 139.24,-39 131.32,-39"/>
<polygon fill="#63b8ff" stroke="#63b8ff" points="155.25,-42.5 165.25,-39 155.25,-35.5 155.25,-42.5"/>
</g>
<!-- Node6&#45;&gt;Node3 -->
<g id="edge6" class="edge">
<title>Node6&#45;&gt;Node3</title>
<path fill="none" stroke="#63b8ff" d="M489.11,-27.75C481.05,-28.77 473.04,-29.79 465.32,-30.77"/>
<polygon fill="#63b8ff" stroke="#63b8ff" points="489.55,-31.22 499.03,-26.49 488.67,-24.28 489.55,-31.22"/>
</g>
</g>
</svg>
