<?xml version="1.0" encoding="UTF-8" standalone="no"?>
<!DOCTYPE svg PUBLIC "-//W3C//DTD SVG 1.1//EN"
 "http://www.w3.org/Graphics/SVG/1.1/DTD/svg11.dtd">
<!-- Generated by graphviz version 7.0.4 (20221203.1631)
 -->
<!-- Title: ce103_hw4_medical_store_lib.Medicine.ByteArrayBlockToMedicine Pages: 1 -->
<svg width="875pt" height="134pt"
 viewBox="0.00 0.00 875.00 134.00" xmlns="http://www.w3.org/2000/svg" xmlns:xlink="http://www.w3.org/1999/xlink">
<g id="graph0" class="graph" transform="scale(1 1) rotate(0) translate(4 130)">
<title>ce103_hw4_medical_store_lib.Medicine.ByteArrayBlockToMedicine</title>
<!-- Node1 -->
<g id="node1" class="node">
<title>Node1</title>
<g id="a_node1"><a xlink:title=" ">
<polygon fill="#999999" stroke="#666666" points="867,-83.5 722,-83.5 722,-42.5 867,-42.5 867,-83.5"/>
<text text-anchor="start" x="730" y="-71.5" font-family="Helvetica,sans-Serif" font-size="10.00">ce103_hw4_medical_store</text>
<text text-anchor="start" x="730" y="-60.5" font-family="Helvetica,sans-Serif" font-size="10.00">_lib.Medicine.ByteArrayBlock</text>
<text text-anchor="middle" x="794.5" y="-49.5" font-family="Helvetica,sans-Serif" font-size="10.00">ToMedicine</text>
</a>
</g>
</g>
<!-- Node2 -->
<g id="node2" class="node">
<title>Node2</title>
<g id="a_node2"><a xlink:href="$classce103__hw4__medical__store__app_1_1_insider_of_the_menu.html#ada4f93b1d40bbc169bf20e70efdda5c9" xlink:title=" ">
<polygon fill="white" stroke="#666666" points="680,-126 507,-126 507,-96 680,-96 680,-126"/>
<text text-anchor="start" x="515" y="-114" font-family="Helvetica,sans-Serif" font-size="10.00">ce103_hw4_medical_store</text>
<text text-anchor="middle" x="593.5" y="-103" font-family="Helvetica,sans-Serif" font-size="10.00">_app.InsiderOfTheMenu.listmedicine</text>
</a>
</g>
</g>
<!-- Node1&#45;&gt;Node2 -->
<g id="edge1" class="edge">
<title>Node1&#45;&gt;Node2</title>
<path fill="none" stroke="#63b8ff" d="M710.9,-82.92C693.46,-87.13 675.29,-91.51 658.65,-95.53"/>
<polygon fill="#63b8ff" stroke="#63b8ff" points="711.28,-86.43 720.19,-80.68 709.64,-79.63 711.28,-86.43"/>
</g>
<!-- Node6 -->
<g id="node6" class="node">
<title>Node6</title>
<g id="a_node6"><a xlink:href="$classce103__hw4__medical__store__app_1_1_insider_of_the_menu.html#a06e911654aeebf8dcb003c0bec404f3d" xlink:title=" ">
<polygon fill="white" stroke="#666666" points="683,-78 504,-78 504,-48 683,-48 683,-78"/>
<text text-anchor="start" x="512" y="-66" font-family="Helvetica,sans-Serif" font-size="10.00">ce103_hw4_medical_store</text>
<text text-anchor="middle" x="593.5" y="-55" font-family="Helvetica,sans-Serif" font-size="10.00">_app.InsiderOfTheMenu.salemedicine</text>
</a>
</g>
</g>
<!-- Node1&#45;&gt;Node6 -->
<g id="edge5" class="edge">
<title>Node1&#45;&gt;Node6</title>
<path fill="none" stroke="#63b8ff" d="M710.41,-63C701.43,-63 692.27,-63 683.23,-63"/>
<polygon fill="#63b8ff" stroke="#63b8ff" points="710.14,-66.5 720.14,-63 710.14,-59.5 710.14,-66.5"/>
</g>
<!-- Node7 -->
<g id="node7" class="node">
<title>Node7</title>
<g id="a_node7"><a xlink:href="$classce103__hw4__medical__store__app_1_1_insider_of_the_menu.html#ac76ee95213f4e41b88d57c028f610c33" xlink:title=" ">
<polygon fill="white" stroke="#666666" points="686,-30 501,-30 501,0 686,0 686,-30"/>
<text text-anchor="start" x="509" y="-18" font-family="Helvetica,sans-Serif" font-size="10.00">ce103_hw4_medical_store</text>
<text text-anchor="middle" x="593.5" y="-7" font-family="Helvetica,sans-Serif" font-size="10.00">_app.InsiderOfTheMenu.stockmedicine</text>
</a>
</g>
</g>
<!-- Node1&#45;&gt;Node7 -->
<g id="edge7" class="edge">
<title>Node1&#45;&gt;Node7</title>
<path fill="none" stroke="#63b8ff" d="M710.9,-43.08C693.46,-38.87 675.29,-34.49 658.65,-30.47"/>
<polygon fill="#63b8ff" stroke="#63b8ff" points="709.64,-46.37 720.19,-45.32 711.28,-39.57 709.64,-46.37"/>
</g>
<!-- Node3 -->
<g id="node3" class="node">
<title>Node3</title>
<g id="a_node3"><a xlink:href="$classce103__hw4__medical__store__app_1_1_menu.html#af40268756f4be60ece4bf674210a17bb" xlink:title=" ">
<polygon fill="white" stroke="#666666" points="465,-78 334,-78 334,-48 465,-48 465,-78"/>
<text text-anchor="start" x="342" y="-66" font-family="Helvetica,sans-Serif" font-size="10.00">ce103_hw4_medical_store</text>
<text text-anchor="middle" x="399.5" y="-55" font-family="Helvetica,sans-Serif" font-size="10.00">_app.Menu.performAction</text>
</a>
</g>
</g>
<!-- Node2&#45;&gt;Node3 -->
<g id="edge2" class="edge">
<title>Node2&#45;&gt;Node3</title>
<path fill="none" stroke="#63b8ff" d="M519.71,-92.8C500.75,-88.06 480.51,-83 462.19,-78.42"/>
<polygon fill="#63b8ff" stroke="#63b8ff" points="518.67,-96.15 529.22,-95.18 520.37,-89.36 518.67,-96.15"/>
</g>
<!-- Node4 -->
<g id="node4" class="node">
<title>Node4</title>
<g id="a_node4"><a xlink:href="$classce103__hw4__medical__store__app_1_1_menu.html#a8890452f69a3d1c94a7951344bd7515b" xlink:title=" ">
<polygon fill="white" stroke="#666666" points="298,-78 167,-78 167,-48 298,-48 298,-78"/>
<text text-anchor="start" x="175" y="-66" font-family="Helvetica,sans-Serif" font-size="10.00">ce103_hw4_medical_store</text>
<text text-anchor="middle" x="232.5" y="-55" font-family="Helvetica,sans-Serif" font-size="10.00">_app.Menu.runMenu</text>
</a>
</g>
</g>
<!-- Node3&#45;&gt;Node4 -->
<g id="edge3" class="edge">
<title>Node3&#45;&gt;Node4</title>
<path fill="none" stroke="#63b8ff" d="M322.45,-63C314.39,-63 306.24,-63 298.32,-63"/>
<polygon fill="#63b8ff" stroke="#63b8ff" points="322.25,-66.5 332.25,-63 322.25,-59.5 322.25,-66.5"/>
</g>
<!-- Node5 -->
<g id="node5" class="node">
<title>Node5</title>
<g id="a_node5"><a xlink:href="$classce103__hw4__medical__store__app_1_1_menu.html#a906bd0b055bce495d306a21e81cbec1b" xlink:title=" ">
<polygon fill="white" stroke="#666666" points="131,-78 0,-78 0,-48 131,-48 131,-78"/>
<text text-anchor="start" x="8" y="-66" font-family="Helvetica,sans-Serif" font-size="10.00">ce103_hw4_medical_store</text>
<text text-anchor="middle" x="65.5" y="-55" font-family="Helvetica,sans-Serif" font-size="10.00">_app.Menu.main</text>
</a>
</g>
</g>
<!-- Node4&#45;&gt;Node5 -->
<g id="edge4" class="edge">
<title>Node4&#45;&gt;Node5</title>
<path fill="none" stroke="#63b8ff" d="M155.45,-63C147.39,-63 139.24,-63 131.32,-63"/>
<polygon fill="#63b8ff" stroke="#63b8ff" points="155.25,-66.5 165.25,-63 155.25,-59.5 155.25,-66.5"/>
</g>
<!-- Node6&#45;&gt;Node3 -->
<g id="edge6" class="edge">
<title>Node6&#45;&gt;Node3</title>
<path fill="none" stroke="#63b8ff" d="M492.06,-63C483.01,-63 474.02,-63 465.4,-63"/>
<polygon fill="#63b8ff" stroke="#63b8ff" points="492.01,-66.5 502.01,-63 492.01,-59.5 492.01,-66.5"/>
</g>
<!-- Node7&#45;&gt;Node3 -->
<g id="edge8" class="edge">
<title>Node7&#45;&gt;Node3</title>
<path fill="none" stroke="#63b8ff" d="M519.71,-33.2C500.75,-37.94 480.51,-43 462.19,-47.58"/>
<polygon fill="#63b8ff" stroke="#63b8ff" points="520.37,-36.64 529.22,-30.82 518.67,-29.85 520.37,-36.64"/>
</g>
</g>
</svg>
