<?xml version="1.0" encoding="UTF-8" standalone="no"?>
<!DOCTYPE svg PUBLIC "-//W3C//DTD SVG 1.1//EN"
 "http://www.w3.org/Graphics/SVG/1.1/DTD/svg11.dtd">
<!-- Generated by graphviz version 7.0.4 (20221203.1631)
 -->
<!-- Title: ce103_hw4_medical_store_app.InsiderOfTheMenu.customer Pages: 1 -->
<svg width="886pt" height="172pt"
 viewBox="0.00 0.00 886.00 172.00" xmlns="http://www.w3.org/2000/svg" xmlns:xlink="http://www.w3.org/1999/xlink">
<g id="graph0" class="graph" transform="scale(1 1) rotate(0) translate(4 168)">
<title>ce103_hw4_medical_store_app.InsiderOfTheMenu.customer</title>
<!-- Node1 -->
<g id="node1" class="node">
<title>Node1</title>
<g id="a_node1"><a xlink:title=" ">
<polygon fill="#999999" stroke="#666666" points="878,-99 716,-99 716,-69 878,-69 878,-99"/>
<text text-anchor="start" x="724" y="-87" font-family="Helvetica,sans-Serif" font-size="10.00">ce103_hw4_medical_store</text>
<text text-anchor="middle" x="797" y="-76" font-family="Helvetica,sans-Serif" font-size="10.00">_app.InsiderOfTheMenu.customer</text>
</a>
</g>
</g>
<!-- Node2 -->
<g id="node2" class="node">
<title>Node2</title>
<g id="a_node2"><a xlink:href="$classce103__hw4__medical__store__app_1_1_insider_of_the_menu.html#aa560a0597ff17489f751b94beddfaf9a" xlink:title=" ">
<polygon fill="white" stroke="#666666" points="680,-164 501,-164 501,-134 680,-134 680,-164"/>
<text text-anchor="start" x="509" y="-152" font-family="Helvetica,sans-Serif" font-size="10.00">ce103_hw4_medical_store</text>
<text text-anchor="middle" x="590.5" y="-141" font-family="Helvetica,sans-Serif" font-size="10.00">_app.InsiderOfTheMenu.editCustomer</text>
</a>
</g>
</g>
<!-- Node1&#45;&gt;Node2 -->
<g id="edge1" class="edge">
<title>Node1&#45;&gt;Node2</title>
<path fill="none" stroke="#63b8ff" d="M736.32,-102.97C705.77,-112.68 669.03,-124.36 640.2,-133.52"/>
<polygon fill="#63b8ff" stroke="#63b8ff" points="737.36,-106.31 745.83,-99.95 735.24,-99.64 737.36,-106.31"/>
</g>
<!-- Node3 -->
<g id="node3" class="node">
<title>Node3</title>
<g id="a_node3"><a xlink:href="$classce103__hw4__medical__store__app_1_1_menu.html#af40268756f4be60ece4bf674210a17bb" xlink:title=" ">
<polygon fill="white" stroke="#666666" points="465,-99 334,-99 334,-69 465,-69 465,-99"/>
<text text-anchor="start" x="342" y="-87" font-family="Helvetica,sans-Serif" font-size="10.00">ce103_hw4_medical_store</text>
<text text-anchor="middle" x="399.5" y="-76" font-family="Helvetica,sans-Serif" font-size="10.00">_app.Menu.performAction</text>
</a>
</g>
</g>
<!-- Node1&#45;&gt;Node3 -->
<g id="edge7" class="edge">
<title>Node1&#45;&gt;Node3</title>
<path fill="none" stroke="#63b8ff" d="M704.03,-86.6C695.9,-86.76 687.8,-86.9 680,-87 600.45,-88.03 580.55,-88.19 501,-87 489.48,-86.83 477.22,-86.55 465.37,-86.22"/>
<polygon fill="#63b8ff" stroke="#63b8ff" points="704.07,-90.1 713.99,-86.38 703.92,-83.1 704.07,-90.1"/>
</g>
<!-- Node6 -->
<g id="node6" class="node">
<title>Node6</title>
<g id="a_node6"><a xlink:href="$classce103__hw4__medical__store__app_1_1_insider_of_the_menu.html#ac0c61e30bf8522c24d43db9d7cfdccba" xlink:title=" ">
<polygon fill="white" stroke="#666666" points="667,-78 514,-78 514,-48 667,-48 667,-78"/>
<text text-anchor="start" x="522" y="-66" font-family="Helvetica,sans-Serif" font-size="10.00">ce103_hw4_medical_store</text>
<text text-anchor="middle" x="590.5" y="-55" font-family="Helvetica,sans-Serif" font-size="10.00">_app.InsiderOfTheMenu.listcust</text>
</a>
</g>
</g>
<!-- Node1&#45;&gt;Node6 -->
<g id="edge5" class="edge">
<title>Node1&#45;&gt;Node6</title>
<path fill="none" stroke="#63b8ff" d="M704.49,-74.6C692.13,-73.33 679.55,-72.04 667.5,-70.8"/>
<polygon fill="#63b8ff" stroke="#63b8ff" points="703.95,-78.07 714.26,-75.61 704.67,-71.1 703.95,-78.07"/>
</g>
<!-- Node7 -->
<g id="node7" class="node">
<title>Node7</title>
<g id="a_node7"><a xlink:href="$classce103__hw4__medical__store__app_1_1_insider_of_the_menu.html#a3220a571a81455e1bacc73eaff22a3a1" xlink:title=" ">
<polygon fill="white" stroke="#666666" points="676.5,-30 504.5,-30 504.5,0 676.5,0 676.5,-30"/>
<text text-anchor="start" x="512.5" y="-18" font-family="Helvetica,sans-Serif" font-size="10.00">ce103_hw4_medical_store</text>
<text text-anchor="middle" x="590.5" y="-7" font-family="Helvetica,sans-Serif" font-size="10.00">_app.InsiderOfTheMenu.searchsupp</text>
</a>
</g>
</g>
<!-- Node1&#45;&gt;Node7 -->
<g id="edge8" class="edge">
<title>Node1&#45;&gt;Node7</title>
<path fill="none" stroke="#63b8ff" d="M748.51,-64.28C727.67,-55.96 702.81,-46.49 680,-39 670.93,-36.02 661.24,-33.12 651.74,-30.42"/>
<polygon fill="#63b8ff" stroke="#63b8ff" points="747.02,-67.45 757.6,-67.94 749.63,-60.96 747.02,-67.45"/>
</g>
<!-- Node2&#45;&gt;Node3 -->
<g id="edge2" class="edge">
<title>Node2&#45;&gt;Node3</title>
<path fill="none" stroke="#63b8ff" d="M530.95,-130.06C520.94,-126.75 510.66,-123.31 501,-120 481.89,-113.45 460.83,-105.95 442.95,-99.5"/>
<polygon fill="#63b8ff" stroke="#63b8ff" points="529.62,-133.31 540.22,-133.11 531.81,-126.66 529.62,-133.31"/>
</g>
<!-- Node4 -->
<g id="node4" class="node">
<title>Node4</title>
<g id="a_node4"><a xlink:href="$classce103__hw4__medical__store__app_1_1_menu.html#a8890452f69a3d1c94a7951344bd7515b" xlink:title=" ">
<polygon fill="white" stroke="#666666" points="298,-99 167,-99 167,-69 298,-69 298,-99"/>
<text text-anchor="start" x="175" y="-87" font-family="Helvetica,sans-Serif" font-size="10.00">ce103_hw4_medical_store</text>
<text text-anchor="middle" x="232.5" y="-76" font-family="Helvetica,sans-Serif" font-size="10.00">_app.Menu.runMenu</text>
</a>
</g>
</g>
<!-- Node3&#45;&gt;Node4 -->
<g id="edge3" class="edge">
<title>Node3&#45;&gt;Node4</title>
<path fill="none" stroke="#63b8ff" d="M322.45,-84C314.39,-84 306.24,-84 298.32,-84"/>
<polygon fill="#63b8ff" stroke="#63b8ff" points="322.25,-87.5 332.25,-84 322.25,-80.5 322.25,-87.5"/>
</g>
<!-- Node5 -->
<g id="node5" class="node">
<title>Node5</title>
<g id="a_node5"><a xlink:href="$classce103__hw4__medical__store__app_1_1_menu.html#a906bd0b055bce495d306a21e81cbec1b" xlink:title=" ">
<polygon fill="white" stroke="#666666" points="131,-99 0,-99 0,-69 131,-69 131,-99"/>
<text text-anchor="start" x="8" y="-87" font-family="Helvetica,sans-Serif" font-size="10.00">ce103_hw4_medical_store</text>
<text text-anchor="middle" x="65.5" y="-76" font-family="Helvetica,sans-Serif" font-size="10.00">_app.Menu.main</text>
</a>
</g>
</g>
<!-- Node4&#45;&gt;Node5 -->
<g id="edge4" class="edge">
<title>Node4&#45;&gt;Node5</title>
<path fill="none" stroke="#63b8ff" d="M155.45,-84C147.39,-84 139.24,-84 131.32,-84"/>
<polygon fill="#63b8ff" stroke="#63b8ff" points="155.25,-87.5 165.25,-84 155.25,-80.5 155.25,-87.5"/>
</g>
<!-- Node6&#45;&gt;Node3 -->
<g id="edge6" class="edge">
<title>Node6&#45;&gt;Node3</title>
<path fill="none" stroke="#63b8ff" d="M502.35,-72.68C489.9,-74.07 477.28,-75.47 465.35,-76.79"/>
<polygon fill="#63b8ff" stroke="#63b8ff" points="502.66,-76.17 512.21,-71.59 501.89,-69.21 502.66,-76.17"/>
</g>
<!-- Node7&#45;&gt;Node3 -->
<g id="edge9" class="edge">
<title>Node7&#45;&gt;Node3</title>
<path fill="none" stroke="#63b8ff" d="M516.69,-33.76C511.35,-35.44 506.07,-37.19 501,-39 477.23,-47.48 451.26,-59.18 431.67,-68.53"/>
<polygon fill="#63b8ff" stroke="#63b8ff" points="517.69,-37.11 526.25,-30.87 515.67,-30.41 517.69,-37.11"/>
</g>
</g>
</svg>
