<?xml version="1.0" encoding="UTF-8" standalone="no"?>
<!DOCTYPE svg PUBLIC "-//W3C//DTD SVG 1.1//EN"
 "http://www.w3.org/Graphics/SVG/1.1/DTD/svg11.dtd">
<!-- Generated by graphviz version 7.0.4 (20221203.1631)
 -->
<!-- Title: ce103_hw4_medical_store_lib.FileUtility.appendBlock Pages: 1 -->
<svg width="879pt" height="182pt"
 viewBox="0.00 0.00 879.00 182.00" xmlns="http://www.w3.org/2000/svg" xmlns:xlink="http://www.w3.org/1999/xlink">
<g id="graph0" class="graph" transform="scale(1 1) rotate(0) translate(4 178)">
<title>ce103_hw4_medical_store_lib.FileUtility.appendBlock</title>
<!-- Node1 -->
<g id="node1" class="node">
<title>Node1</title>
<g id="a_node1"><a xlink:title=" ">
<polygon fill="#999999" stroke="#666666" points="871,-102 737,-102 737,-72 871,-72 871,-102"/>
<text text-anchor="start" x="745" y="-90" font-family="Helvetica,sans-Serif" font-size="10.00">ce103_hw4_medical_store</text>
<text text-anchor="middle" x="804" y="-79" font-family="Helvetica,sans-Serif" font-size="10.00">_lib.FileUtility.appendBlock</text>
</a>
</g>
</g>
<!-- Node2 -->
<g id="node2" class="node">
<title>Node2</title>
<g id="a_node2"><a xlink:href="$classce103__hw4__medical__store__app_1_1_insider_of_the_menu.html#a4e19bce8c519e748af92a2347e490ace" xlink:title=" ">
<polygon fill="white" stroke="#666666" points="690.5,-174 511.5,-174 511.5,-144 690.5,-144 690.5,-174"/>
<text text-anchor="start" x="519.5" y="-162" font-family="Helvetica,sans-Serif" font-size="10.00">ce103_hw4_medical_store</text>
<text text-anchor="middle" x="601" y="-151" font-family="Helvetica,sans-Serif" font-size="10.00">_app.InsiderOfTheMenu.addCustomer</text>
</a>
</g>
</g>
<!-- Node1&#45;&gt;Node2 -->
<g id="edge1" class="edge">
<title>Node1&#45;&gt;Node2</title>
<path fill="none" stroke="#63b8ff" d="M764.01,-107.62C745.32,-116.91 722.39,-127.46 701,-135 692.16,-138.12 682.74,-140.97 673.35,-143.54"/>
<polygon fill="#63b8ff" stroke="#63b8ff" points="765.5,-110.79 772.85,-103.15 762.35,-104.54 765.5,-110.79"/>
</g>
<!-- Node6 -->
<g id="node6" class="node">
<title>Node6</title>
<g id="a_node6"><a xlink:href="$classce103__hw4__medical__store__app_1_1_insider_of_the_menu.html#a5a985628df103b1884695c250f7638ea" xlink:title=" ">
<polygon fill="white" stroke="#666666" points="687.5,-126 514.5,-126 514.5,-96 687.5,-96 687.5,-126"/>
<text text-anchor="start" x="522.5" y="-114" font-family="Helvetica,sans-Serif" font-size="10.00">ce103_hw4_medical_store</text>
<text text-anchor="middle" x="601" y="-103" font-family="Helvetica,sans-Serif" font-size="10.00">_app.InsiderOfTheMenu.addSupplier</text>
</a>
</g>
</g>
<!-- Node1&#45;&gt;Node6 -->
<g id="edge5" class="edge">
<title>Node1&#45;&gt;Node6</title>
<path fill="none" stroke="#63b8ff" d="M725.43,-96.26C713.06,-97.74 700.2,-99.27 687.66,-100.77"/>
<polygon fill="#63b8ff" stroke="#63b8ff" points="725.61,-99.77 735.13,-95.1 724.78,-92.81 725.61,-99.77"/>
</g>
<!-- Node7 -->
<g id="node7" class="node">
<title>Node7</title>
<g id="a_node7"><a xlink:href="$classce103__hw4__medical__store__app_1_1_insider_of_the_menu.html#abbb3877121688713fb9c89334fd093b9" xlink:title=" ">
<polygon fill="white" stroke="#666666" points="701,-78 501,-78 501,-48 701,-48 701,-78"/>
<text text-anchor="start" x="509" y="-66" font-family="Helvetica,sans-Serif" font-size="10.00">ce103_hw4_medical_store</text>
<text text-anchor="middle" x="601" y="-55" font-family="Helvetica,sans-Serif" font-size="10.00">_app.InsiderOfTheMenu.purchasemedicine</text>
</a>
</g>
</g>
<!-- Node1&#45;&gt;Node7 -->
<g id="edge7" class="edge">
<title>Node1&#45;&gt;Node7</title>
<path fill="none" stroke="#63b8ff" d="M725.3,-77.72C717.45,-76.79 709.41,-75.82 701.38,-74.87"/>
<polygon fill="#63b8ff" stroke="#63b8ff" points="724.78,-81.19 735.13,-78.9 725.61,-74.23 724.78,-81.19"/>
</g>
<!-- Node8 -->
<g id="node8" class="node">
<title>Node8</title>
<g id="a_node8"><a xlink:href="$classce103__hw4__medical__store__app_1_1_insider_of_the_menu.html#a06e911654aeebf8dcb003c0bec404f3d" xlink:title=" ">
<polygon fill="white" stroke="#666666" points="690.5,-30 511.5,-30 511.5,0 690.5,0 690.5,-30"/>
<text text-anchor="start" x="519.5" y="-18" font-family="Helvetica,sans-Serif" font-size="10.00">ce103_hw4_medical_store</text>
<text text-anchor="middle" x="601" y="-7" font-family="Helvetica,sans-Serif" font-size="10.00">_app.InsiderOfTheMenu.salemedicine</text>
</a>
</g>
</g>
<!-- Node1&#45;&gt;Node8 -->
<g id="edge9" class="edge">
<title>Node1&#45;&gt;Node8</title>
<path fill="none" stroke="#63b8ff" d="M764.01,-66.38C745.32,-57.09 722.39,-46.54 701,-39 692.16,-35.88 682.74,-33.03 673.35,-30.46"/>
<polygon fill="#63b8ff" stroke="#63b8ff" points="762.35,-69.46 772.85,-70.85 765.5,-63.21 762.35,-69.46"/>
</g>
<!-- Node3 -->
<g id="node3" class="node">
<title>Node3</title>
<g id="a_node3"><a xlink:href="$classce103__hw4__medical__store__app_1_1_menu.html#af40268756f4be60ece4bf674210a17bb" xlink:title=" ">
<polygon fill="white" stroke="#666666" points="465,-102 334,-102 334,-72 465,-72 465,-102"/>
<text text-anchor="start" x="342" y="-90" font-family="Helvetica,sans-Serif" font-size="10.00">ce103_hw4_medical_store</text>
<text text-anchor="middle" x="399.5" y="-79" font-family="Helvetica,sans-Serif" font-size="10.00">_app.Menu.performAction</text>
</a>
</g>
</g>
<!-- Node2&#45;&gt;Node3 -->
<g id="edge2" class="edge">
<title>Node2&#45;&gt;Node3</title>
<path fill="none" stroke="#63b8ff" d="M517.5,-140.39C511.88,-138.69 506.33,-136.9 501,-135 475.86,-126.06 448.62,-112.81 428.85,-102.49"/>
<polygon fill="#63b8ff" stroke="#63b8ff" points="516.33,-143.69 526.91,-143.09 518.27,-136.97 516.33,-143.69"/>
</g>
<!-- Node4 -->
<g id="node4" class="node">
<title>Node4</title>
<g id="a_node4"><a xlink:href="$classce103__hw4__medical__store__app_1_1_menu.html#a8890452f69a3d1c94a7951344bd7515b" xlink:title=" ">
<polygon fill="white" stroke="#666666" points="298,-102 167,-102 167,-72 298,-72 298,-102"/>
<text text-anchor="start" x="175" y="-90" font-family="Helvetica,sans-Serif" font-size="10.00">ce103_hw4_medical_store</text>
<text text-anchor="middle" x="232.5" y="-79" font-family="Helvetica,sans-Serif" font-size="10.00">_app.Menu.runMenu</text>
</a>
</g>
</g>
<!-- Node3&#45;&gt;Node4 -->
<g id="edge3" class="edge">
<title>Node3&#45;&gt;Node4</title>
<path fill="none" stroke="#63b8ff" d="M322.45,-87C314.39,-87 306.24,-87 298.32,-87"/>
<polygon fill="#63b8ff" stroke="#63b8ff" points="322.25,-90.5 332.25,-87 322.25,-83.5 322.25,-90.5"/>
</g>
<!-- Node5 -->
<g id="node5" class="node">
<title>Node5</title>
<g id="a_node5"><a xlink:href="$classce103__hw4__medical__store__app_1_1_menu.html#a906bd0b055bce495d306a21e81cbec1b" xlink:title=" ">
<polygon fill="white" stroke="#666666" points="131,-102 0,-102 0,-72 131,-72 131,-102"/>
<text text-anchor="start" x="8" y="-90" font-family="Helvetica,sans-Serif" font-size="10.00">ce103_hw4_medical_store</text>
<text text-anchor="middle" x="65.5" y="-79" font-family="Helvetica,sans-Serif" font-size="10.00">_app.Menu.main</text>
</a>
</g>
</g>
<!-- Node4&#45;&gt;Node5 -->
<g id="edge4" class="edge">
<title>Node4&#45;&gt;Node5</title>
<path fill="none" stroke="#63b8ff" d="M155.45,-87C147.39,-87 139.24,-87 131.32,-87"/>
<polygon fill="#63b8ff" stroke="#63b8ff" points="155.25,-90.5 165.25,-87 155.25,-83.5 155.25,-90.5"/>
</g>
<!-- Node6&#45;&gt;Node3 -->
<g id="edge6" class="edge">
<title>Node6&#45;&gt;Node3</title>
<path fill="none" stroke="#63b8ff" d="M503.05,-99.34C490.28,-97.8 477.45,-96.26 465.4,-94.81"/>
<polygon fill="#63b8ff" stroke="#63b8ff" points="502.39,-102.78 512.73,-100.5 503.22,-95.83 502.39,-102.78"/>
</g>
<!-- Node7&#45;&gt;Node3 -->
<g id="edge8" class="edge">
<title>Node7&#45;&gt;Node3</title>
<path fill="none" stroke="#63b8ff" d="M489.12,-76.34C481.07,-77.31 473.12,-78.26 465.48,-79.18"/>
<polygon fill="#63b8ff" stroke="#63b8ff" points="489.53,-79.82 499.04,-75.15 488.69,-72.87 489.53,-79.82"/>
</g>
<!-- Node8&#45;&gt;Node3 -->
<g id="edge10" class="edge">
<title>Node8&#45;&gt;Node3</title>
<path fill="none" stroke="#63b8ff" d="M517.5,-33.61C511.88,-35.31 506.33,-37.1 501,-39 475.86,-47.94 448.62,-61.19 428.85,-71.51"/>
<polygon fill="#63b8ff" stroke="#63b8ff" points="518.27,-37.03 526.91,-30.91 516.33,-30.31 518.27,-37.03"/>
</g>
</g>
</svg>
