<?xml version="1.0" encoding="UTF-8" standalone="no"?>
<!DOCTYPE svg PUBLIC "-//W3C//DTD SVG 1.1//EN"
 "http://www.w3.org/Graphics/SVG/1.1/DTD/svg11.dtd">
<!-- Generated by graphviz version 7.0.4 (20221203.1631)
 -->
<!-- Title: ce103_hw4_medical_store_lib.Supplier.supplierToByteArrayBlock Pages: 1 -->
<svg width="855pt" height="86pt"
 viewBox="0.00 0.00 855.00 86.00" xmlns="http://www.w3.org/2000/svg" xmlns:xlink="http://www.w3.org/1999/xlink">
<g id="graph0" class="graph" transform="scale(1 1) rotate(0) translate(4 82)">
<title>ce103_hw4_medical_store_lib.Supplier.supplierToByteArrayBlock</title>
<!-- Node1 -->
<g id="node1" class="node">
<title>Node1</title>
<g id="a_node1"><a xlink:title=" ">
<polygon fill="#999999" stroke="#666666" points="847,-59.5 710,-59.5 710,-18.5 847,-18.5 847,-59.5"/>
<text text-anchor="start" x="718" y="-47.5" font-family="Helvetica,sans-Serif" font-size="10.00">ce103_hw4_medical_store</text>
<text text-anchor="start" x="718" y="-36.5" font-family="Helvetica,sans-Serif" font-size="10.00">_lib.Supplier.supplierToByte</text>
<text text-anchor="middle" x="778.5" y="-25.5" font-family="Helvetica,sans-Serif" font-size="10.00">ArrayBlock</text>
</a>
</g>
</g>
<!-- Node2 -->
<g id="node2" class="node">
<title>Node2</title>
<g id="a_node2"><a xlink:href="$classce103__hw4__medical__store__app_1_1_insider_of_the_menu.html#a5a985628df103b1884695c250f7638ea" xlink:title=" ">
<polygon fill="white" stroke="#666666" points="674,-78 501,-78 501,-48 674,-48 674,-78"/>
<text text-anchor="start" x="509" y="-66" font-family="Helvetica,sans-Serif" font-size="10.00">ce103_hw4_medical_store</text>
<text text-anchor="middle" x="587.5" y="-55" font-family="Helvetica,sans-Serif" font-size="10.00">_app.InsiderOfTheMenu.addSupplier</text>
</a>
</g>
</g>
<!-- Node1&#45;&gt;Node2 -->
<g id="edge1" class="edge">
<title>Node1&#45;&gt;Node2</title>
<path fill="none" stroke="#63b8ff" d="M698.13,-49.08C690.25,-50.08 682.24,-51.1 674.3,-52.1"/>
<polygon fill="#63b8ff" stroke="#63b8ff" points="698.55,-52.55 708.03,-47.82 697.67,-45.61 698.55,-52.55"/>
</g>
<!-- Node6 -->
<g id="node6" class="node">
<title>Node6</title>
<g id="a_node6"><a xlink:href="$classce103__hw4__medical__store__app_1_1_insider_of_the_menu.html#aefa6b5dc1b968c81b8d10998a0981577" xlink:title=" ">
<polygon fill="white" stroke="#666666" points="674,-30 501,-30 501,0 674,0 674,-30"/>
<text text-anchor="start" x="509" y="-18" font-family="Helvetica,sans-Serif" font-size="10.00">ce103_hw4_medical_store</text>
<text text-anchor="middle" x="587.5" y="-7" font-family="Helvetica,sans-Serif" font-size="10.00">_app.InsiderOfTheMenu.editSupplier</text>
</a>
</g>
</g>
<!-- Node1&#45;&gt;Node6 -->
<g id="edge5" class="edge">
<title>Node1&#45;&gt;Node6</title>
<path fill="none" stroke="#63b8ff" d="M698.13,-28.92C690.25,-27.92 682.24,-26.9 674.3,-25.9"/>
<polygon fill="#63b8ff" stroke="#63b8ff" points="697.67,-32.39 708.03,-30.18 698.55,-25.45 697.67,-32.39"/>
</g>
<!-- Node3 -->
<g id="node3" class="node">
<title>Node3</title>
<g id="a_node3"><a xlink:href="$classce103__hw4__medical__store__app_1_1_menu.html#af40268756f4be60ece4bf674210a17bb" xlink:title=" ">
<polygon fill="white" stroke="#666666" points="465,-54 334,-54 334,-24 465,-24 465,-54"/>
<text text-anchor="start" x="342" y="-42" font-family="Helvetica,sans-Serif" font-size="10.00">ce103_hw4_medical_store</text>
<text text-anchor="middle" x="399.5" y="-31" font-family="Helvetica,sans-Serif" font-size="10.00">_app.Menu.performAction</text>
</a>
</g>
</g>
<!-- Node2&#45;&gt;Node3 -->
<g id="edge2" class="edge">
<title>Node2&#45;&gt;Node3</title>
<path fill="none" stroke="#63b8ff" d="M489.21,-50.45C481.18,-49.41 473.19,-48.38 465.48,-47.38"/>
<polygon fill="#63b8ff" stroke="#63b8ff" points="488.71,-53.91 499.08,-51.72 489.61,-46.97 488.71,-53.91"/>
</g>
<!-- Node4 -->
<g id="node4" class="node">
<title>Node4</title>
<g id="a_node4"><a xlink:href="$classce103__hw4__medical__store__app_1_1_menu.html#a8890452f69a3d1c94a7951344bd7515b" xlink:title=" ">
<polygon fill="white" stroke="#666666" points="298,-54 167,-54 167,-24 298,-24 298,-54"/>
<text text-anchor="start" x="175" y="-42" font-family="Helvetica,sans-Serif" font-size="10.00">ce103_hw4_medical_store</text>
<text text-anchor="middle" x="232.5" y="-31" font-family="Helvetica,sans-Serif" font-size="10.00">_app.Menu.runMenu</text>
</a>
</g>
</g>
<!-- Node3&#45;&gt;Node4 -->
<g id="edge3" class="edge">
<title>Node3&#45;&gt;Node4</title>
<path fill="none" stroke="#63b8ff" d="M322.45,-39C314.39,-39 306.24,-39 298.32,-39"/>
<polygon fill="#63b8ff" stroke="#63b8ff" points="322.25,-42.5 332.25,-39 322.25,-35.5 322.25,-42.5"/>
</g>
<!-- Node5 -->
<g id="node5" class="node">
<title>Node5</title>
<g id="a_node5"><a xlink:href="$classce103__hw4__medical__store__app_1_1_menu.html#a906bd0b055bce495d306a21e81cbec1b" xlink:title=" ">
<polygon fill="white" stroke="#666666" points="131,-54 0,-54 0,-24 131,-24 131,-54"/>
<text text-anchor="start" x="8" y="-42" font-family="Helvetica,sans-Serif" font-size="10.00">ce103_hw4_medical_store</text>
<text text-anchor="middle" x="65.5" y="-31" font-family="Helvetica,sans-Serif" font-size="10.00">_app.Menu.main</text>
</a>
</g>
</g>
<!-- Node4&#45;&gt;Node5 -->
<g id="edge4" class="edge">
<title>Node4&#45;&gt;Node5</title>
<path fill="none" stroke="#63b8ff" d="M155.45,-39C147.39,-39 139.24,-39 131.32,-39"/>
<polygon fill="#63b8ff" stroke="#63b8ff" points="155.25,-42.5 165.25,-39 155.25,-35.5 155.25,-42.5"/>
</g>
<!-- Node6&#45;&gt;Node3 -->
<g id="edge6" class="edge">
<title>Node6&#45;&gt;Node3</title>
<path fill="none" stroke="#63b8ff" d="M489.21,-27.55C481.18,-28.59 473.19,-29.62 465.48,-30.62"/>
<polygon fill="#63b8ff" stroke="#63b8ff" points="489.61,-31.03 499.08,-26.28 488.71,-24.09 489.61,-31.03"/>
</g>
</g>
</svg>
