<?xml version="1.0" encoding="UTF-8" standalone="no"?>
<!DOCTYPE svg PUBLIC "-//W3C//DTD SVG 1.1//EN"
 "http://www.w3.org/Graphics/SVG/1.1/DTD/svg11.dtd">
<!-- Generated by graphviz version 7.0.4 (20221203.1631)
 -->
<!-- Title: ce103_hw4_medical_store_app.InsiderOfTheMenu.customer Pages: 1 -->
<svg width="370pt" height="86pt"
 viewBox="0.00 0.00 370.00 86.00" xmlns="http://www.w3.org/2000/svg" xmlns:xlink="http://www.w3.org/1999/xlink">
<g id="graph0" class="graph" transform="scale(1 1) rotate(0) translate(4 82)">
<title>ce103_hw4_medical_store_app.InsiderOfTheMenu.customer</title>
<!-- Node1 -->
<g id="node1" class="node">
<title>Node1</title>
<g id="a_node1"><a xlink:title=" ">
<polygon fill="#999999" stroke="#666666" points="162,-54 0,-54 0,-24 162,-24 162,-54"/>
<text text-anchor="start" x="8" y="-42" font-family="Helvetica,sans-Serif" font-size="10.00">ce103_hw4_medical_store</text>
<text text-anchor="middle" x="81" y="-31" font-family="Helvetica,sans-Serif" font-size="10.00">_app.InsiderOfTheMenu.customer</text>
</a>
</g>
</g>
<!-- Node2 -->
<g id="node2" class="node">
<title>Node2</title>
<g id="a_node2"><a xlink:href="$classce103__hw4__medical__store__app_1_1_insider_of_the_menu.html#a0409ee76fc4d80aea880c4c9702271df" xlink:title=" ">
<polygon fill="white" stroke="#666666" points="351.5,-78 208.5,-78 208.5,-48 351.5,-48 351.5,-78"/>
<text text-anchor="start" x="216.5" y="-66" font-family="Helvetica,sans-Serif" font-size="10.00">ce103_hw4_medical_store</text>
<text text-anchor="middle" x="280" y="-55" font-family="Helvetica,sans-Serif" font-size="10.00">_app.InsiderOfTheMenu.clear</text>
</a>
</g>
</g>
<!-- Node1&#45;&gt;Node2 -->
<g id="edge1" class="edge">
<title>Node1&#45;&gt;Node2</title>
<path fill="none" stroke="#63b8ff" d="M162.41,-48.8C173.74,-50.18 185.4,-51.6 196.77,-52.98"/>
<polygon fill="#63b8ff" stroke="#63b8ff" points="196.16,-56.43 206.51,-54.17 197,-49.48 196.16,-56.43"/>
</g>
<!-- Node3 -->
<g id="node3" class="node">
<title>Node3</title>
<g id="a_node3"><a xlink:href="$classce103__hw4__medical__store__app_1_1_insider_of_the_menu.html#aa208466ba46c8f7d58d2f2e970d23545" xlink:title=" ">
<polygon fill="white" stroke="#666666" points="362,-30 198,-30 198,0 362,0 362,-30"/>
<text text-anchor="start" x="206" y="-18" font-family="Helvetica,sans-Serif" font-size="10.00">ce103_hw4_medical_store</text>
<text text-anchor="middle" x="280" y="-7" font-family="Helvetica,sans-Serif" font-size="10.00">_app.InsiderOfTheMenu.main_box</text>
</a>
</g>
</g>
<!-- Node1&#45;&gt;Node3 -->
<g id="edge2" class="edge">
<title>Node1&#45;&gt;Node3</title>
<path fill="none" stroke="#63b8ff" d="M162.41,-29.2C170.29,-28.24 178.34,-27.26 186.33,-26.29"/>
<polygon fill="#63b8ff" stroke="#63b8ff" points="186.56,-29.79 196.07,-25.1 185.72,-22.84 186.56,-29.79"/>
</g>
</g>
</svg>
