<?xml version="1.0" encoding="UTF-8" standalone="no"?>
<!DOCTYPE svg PUBLIC "-//W3C//DTD SVG 1.1//EN"
 "http://www.w3.org/Graphics/SVG/1.1/DTD/svg11.dtd">
<!-- Generated by graphviz version 7.0.4 (20221203.1631)
 -->
<!-- Title: ce103_hw4_medical_store_app.InsiderOfTheMenu.listmedicine Pages: 1 -->
<svg width="572pt" height="1003pt"
 viewBox="0.00 0.00 572.00 1002.50" xmlns="http://www.w3.org/2000/svg" xmlns:xlink="http://www.w3.org/1999/xlink">
<g id="graph0" class="graph" transform="scale(1 1) rotate(0) translate(4 998.5)">
<title>ce103_hw4_medical_store_app.InsiderOfTheMenu.listmedicine</title>
<!-- Node1 -->
<g id="node1" class="node">
<title>Node1</title>
<g id="a_node1"><a xlink:title=" ">
<polygon fill="#999999" stroke="#666666" points="173,-366 0,-366 0,-336 173,-336 173,-366"/>
<text text-anchor="start" x="8" y="-354" font-family="Helvetica,sans-Serif" font-size="10.00">ce103_hw4_medical_store</text>
<text text-anchor="middle" x="86.5" y="-343" font-family="Helvetica,sans-Serif" font-size="10.00">_app.InsiderOfTheMenu.listmedicine</text>
</a>
</g>
</g>
<!-- Node2 -->
<g id="node2" class="node">
<title>Node2</title>
<g id="a_node2"><a xlink:href="$classce103__hw4__medical__store__lib_1_1_medicine.html#a139a6e9d94edbac2790895a083f11813" xlink:title=" ">
<polygon fill="white" stroke="#666666" points="363.5,-713.5 218.5,-713.5 218.5,-672.5 363.5,-672.5 363.5,-713.5"/>
<text text-anchor="start" x="226.5" y="-701.5" font-family="Helvetica,sans-Serif" font-size="10.00">ce103_hw4_medical_store</text>
<text text-anchor="start" x="226.5" y="-690.5" font-family="Helvetica,sans-Serif" font-size="10.00">_lib.Medicine.ByteArrayBlock</text>
<text text-anchor="middle" x="291" y="-679.5" font-family="Helvetica,sans-Serif" font-size="10.00">ToMedicine</text>
</a>
</g>
</g>
<!-- Node1&#45;&gt;Node2 -->
<g id="edge1" class="edge">
<title>Node1&#45;&gt;Node2</title>
<path fill="none" stroke="#63b8ff" d="M89.08,-366.39C95,-416.36 120.31,-575.77 209,-663 209.75,-663.74 210.52,-664.45 211.3,-665.16"/>
<polygon fill="#63b8ff" stroke="#63b8ff" points="209.05,-667.84 219.13,-671.1 213.29,-662.27 209.05,-667.84"/>
</g>
<!-- Node15 -->
<g id="node15" class="node">
<title>Node15</title>
<g id="a_node15"><a xlink:href="$classce103__hw4__medical__store__app_1_1_insider_of_the_menu.html#a0409ee76fc4d80aea880c4c9702271df" xlink:title=" ">
<polygon fill="white" stroke="#666666" points="362.5,-654 219.5,-654 219.5,-624 362.5,-624 362.5,-654"/>
<text text-anchor="start" x="227.5" y="-642" font-family="Helvetica,sans-Serif" font-size="10.00">ce103_hw4_medical_store</text>
<text text-anchor="middle" x="291" y="-631" font-family="Helvetica,sans-Serif" font-size="10.00">_app.InsiderOfTheMenu.clear</text>
</a>
</g>
</g>
<!-- Node1&#45;&gt;Node15 -->
<g id="edge14" class="edge">
<title>Node1&#45;&gt;Node15</title>
<path fill="none" stroke="#63b8ff" d="M90.04,-366.47C98.31,-411.79 128.72,-545.47 209,-615 209.94,-615.82 210.91,-616.6 211.9,-617.37"/>
<polygon fill="#63b8ff" stroke="#63b8ff" points="209.84,-620.2 220.14,-622.7 213.65,-614.33 209.84,-620.2"/>
</g>
<!-- Node16 -->
<g id="node16" class="node">
<title>Node16</title>
<g id="a_node16"><a xlink:href="$classce103__hw4__medical__store__lib_1_1_medicine.html#a7f1a70d47380ba5ae74fbeb571ea0ff0" xlink:title=" ">
<polygon fill="white" stroke="#666666" points="356.5,-606 225.5,-606 225.5,-576 356.5,-576 356.5,-606"/>
<text text-anchor="start" x="233.5" y="-594" font-family="Helvetica,sans-Serif" font-size="10.00">ce103_hw4_medical_store</text>
<text text-anchor="middle" x="291" y="-583" font-family="Helvetica,sans-Serif" font-size="10.00">_lib.Medicine.getCabnitno</text>
</a>
</g>
</g>
<!-- Node1&#45;&gt;Node16 -->
<g id="edge15" class="edge">
<title>Node1&#45;&gt;Node16</title>
<path fill="none" stroke="#63b8ff" d="M91.75,-366.46C103.44,-406.06 139.87,-511.87 209,-567 211,-568.6 213.11,-570.09 215.3,-571.48"/>
<polygon fill="#63b8ff" stroke="#63b8ff" points="213.55,-574.51 224,-576.24 216.91,-568.37 213.55,-574.51"/>
</g>
<!-- Node17 -->
<g id="node17" class="node">
<title>Node17</title>
<g id="a_node17"><a xlink:href="$classce103__hw4__medical__store__lib_1_1_medicine.html#a74ce7ec34dace6f6852660e099323ee0" xlink:title=" ">
<polygon fill="white" stroke="#666666" points="368.5,-558 213.5,-558 213.5,-528 368.5,-528 368.5,-558"/>
<text text-anchor="start" x="221.5" y="-546" font-family="Helvetica,sans-Serif" font-size="10.00">ce103_hw4_medical_store</text>
<text text-anchor="middle" x="291" y="-535" font-family="Helvetica,sans-Serif" font-size="10.00">_lib.Medicine.getCompanyname</text>
</a>
</g>
</g>
<!-- Node1&#45;&gt;Node17 -->
<g id="edge16" class="edge">
<title>Node1&#45;&gt;Node17</title>
<path fill="none" stroke="#63b8ff" d="M94.2,-366.12C109.55,-399.04 150.55,-477.59 209,-519 210.6,-520.14 212.26,-521.22 213.97,-522.25"/>
<polygon fill="#63b8ff" stroke="#63b8ff" points="212.31,-525.34 222.79,-526.92 215.59,-519.15 212.31,-525.34"/>
</g>
<!-- Node18 -->
<g id="node18" class="node">
<title>Node18</title>
<g id="a_node18"><a xlink:href="$classce103__hw4__medical__store__lib_1_1_medicine.html#a22bdefff626a496f3781aa2e566f93b0" xlink:title=" ">
<polygon fill="white" stroke="#666666" points="356.5,-510 225.5,-510 225.5,-480 356.5,-480 356.5,-510"/>
<text text-anchor="start" x="233.5" y="-498" font-family="Helvetica,sans-Serif" font-size="10.00">ce103_hw4_medical_store</text>
<text text-anchor="middle" x="291" y="-487" font-family="Helvetica,sans-Serif" font-size="10.00">_lib.Medicine.getExpdate</text>
</a>
</g>
</g>
<!-- Node1&#45;&gt;Node18 -->
<g id="edge17" class="edge">
<title>Node1&#45;&gt;Node18</title>
<path fill="none" stroke="#63b8ff" d="M98.82,-366.31C118.44,-391.77 161.27,-442.8 209,-471 211.43,-472.44 213.95,-473.79 216.54,-475.07"/>
<polygon fill="#63b8ff" stroke="#63b8ff" points="214.85,-478.15 225.4,-479.02 217.69,-471.75 214.85,-478.15"/>
</g>
<!-- Node19 -->
<g id="node19" class="node">
<title>Node19</title>
<g id="a_node19"><a xlink:href="$classce103__hw4__medical__store__lib_1_1_medicine.html#ae0a058f869ac524cb5e9ed0a17e46c00" xlink:title=" ">
<polygon fill="white" stroke="#666666" points="356.5,-462 225.5,-462 225.5,-432 356.5,-432 356.5,-462"/>
<text text-anchor="start" x="233.5" y="-450" font-family="Helvetica,sans-Serif" font-size="10.00">ce103_hw4_medical_store</text>
<text text-anchor="middle" x="291" y="-439" font-family="Helvetica,sans-Serif" font-size="10.00">_lib.Medicine.getId</text>
</a>
</g>
</g>
<!-- Node1&#45;&gt;Node19 -->
<g id="edge18" class="edge">
<title>Node1&#45;&gt;Node19</title>
<path fill="none" stroke="#63b8ff" d="M109.45,-366.27C133.13,-382.2 172.37,-407.01 209,-423 212.78,-424.65 216.72,-426.23 220.72,-427.73"/>
<polygon fill="#63b8ff" stroke="#63b8ff" points="219.4,-430.98 229.99,-431.02 221.74,-424.38 219.4,-430.98"/>
</g>
<!-- Node20 -->
<g id="node20" class="node">
<title>Node20</title>
<g id="a_node20"><a xlink:href="$classce103__hw4__medical__store__lib_1_1_medicine.html#a904d9c11fd249b1bd91c085296ce8379" xlink:title=" ">
<polygon fill="white" stroke="#666666" points="367.5,-414 214.5,-414 214.5,-384 367.5,-384 367.5,-414"/>
<text text-anchor="start" x="222.5" y="-402" font-family="Helvetica,sans-Serif" font-size="10.00">ce103_hw4_medical_store</text>
<text text-anchor="middle" x="291" y="-391" font-family="Helvetica,sans-Serif" font-size="10.00">_lib.Medicine.getMedicinename</text>
</a>
</g>
</g>
<!-- Node1&#45;&gt;Node20 -->
<g id="edge19" class="edge">
<title>Node1&#45;&gt;Node20</title>
<path fill="none" stroke="#63b8ff" d="M152.69,-366.45C172.2,-371.08 193.76,-376.19 213.91,-380.96"/>
<polygon fill="#63b8ff" stroke="#63b8ff" points="212.92,-384.33 223.46,-383.23 214.54,-377.52 212.92,-384.33"/>
</g>
<!-- Node21 -->
<g id="node21" class="node">
<title>Node21</title>
<g id="a_node21"><a xlink:href="$classce103__hw4__medical__store__lib_1_1_medicine.html#a9335d85263321d2a98c73ba13c6b4143" xlink:title=" ">
<polygon fill="white" stroke="#666666" points="356.5,-366 225.5,-366 225.5,-336 356.5,-336 356.5,-366"/>
<text text-anchor="start" x="233.5" y="-354" font-family="Helvetica,sans-Serif" font-size="10.00">ce103_hw4_medical_store</text>
<text text-anchor="middle" x="291" y="-343" font-family="Helvetica,sans-Serif" font-size="10.00">_lib.Medicine.getMfgdate</text>
</a>
</g>
</g>
<!-- Node1&#45;&gt;Node21 -->
<g id="edge20" class="edge">
<title>Node1&#45;&gt;Node21</title>
<path fill="none" stroke="#63b8ff" d="M173.38,-351C186.8,-351 200.59,-351 213.78,-351"/>
<polygon fill="#63b8ff" stroke="#63b8ff" points="213.68,-354.5 223.68,-351 213.68,-347.5 213.68,-354.5"/>
</g>
<!-- Node22 -->
<g id="node22" class="node">
<title>Node22</title>
<g id="a_node22"><a xlink:href="$classce103__hw4__medical__store__lib_1_1_medicine.html#a0a6557a0382a15e7f3510f9007d5c3e3" xlink:title=" ">
<polygon fill="white" stroke="#666666" points="356.5,-318 225.5,-318 225.5,-288 356.5,-288 356.5,-318"/>
<text text-anchor="start" x="233.5" y="-306" font-family="Helvetica,sans-Serif" font-size="10.00">ce103_hw4_medical_store</text>
<text text-anchor="middle" x="291" y="-295" font-family="Helvetica,sans-Serif" font-size="10.00">_lib.Medicine.getQuantity</text>
</a>
</g>
</g>
<!-- Node1&#45;&gt;Node22 -->
<g id="edge21" class="edge">
<title>Node1&#45;&gt;Node22</title>
<path fill="none" stroke="#63b8ff" d="M152.69,-335.55C172.3,-330.9 193.98,-325.76 214.21,-320.96"/>
<polygon fill="#63b8ff" stroke="#63b8ff" points="214.89,-324.4 223.81,-318.69 213.27,-317.59 214.89,-324.4"/>
</g>
<!-- Node23 -->
<g id="node23" class="node">
<title>Node23</title>
<g id="a_node23"><a xlink:href="$classce103__hw4__medical__store__lib_1_1_medicine.html#aa8bbbfb594c665f8c36c8b49b8ebc391" xlink:title=" ">
<polygon fill="white" stroke="#666666" points="356.5,-270 225.5,-270 225.5,-240 356.5,-240 356.5,-270"/>
<text text-anchor="start" x="233.5" y="-258" font-family="Helvetica,sans-Serif" font-size="10.00">ce103_hw4_medical_store</text>
<text text-anchor="middle" x="291" y="-247" font-family="Helvetica,sans-Serif" font-size="10.00">_lib.Medicine.getRackno</text>
</a>
</g>
</g>
<!-- Node1&#45;&gt;Node23 -->
<g id="edge22" class="edge">
<title>Node1&#45;&gt;Node23</title>
<path fill="none" stroke="#63b8ff" d="M109.45,-335.73C133.13,-319.8 172.37,-294.99 209,-279 212.78,-277.35 216.72,-275.77 220.72,-274.27"/>
<polygon fill="#63b8ff" stroke="#63b8ff" points="221.74,-277.62 229.99,-270.98 219.4,-271.02 221.74,-277.62"/>
</g>
<!-- Node24 -->
<g id="node24" class="node">
<title>Node24</title>
<g id="a_node24"><a xlink:href="$classce103__hw4__medical__store__lib_1_1_medicine.html#ae1dec56590f85ec5a3249783ba8329d4" xlink:title=" ">
<polygon fill="white" stroke="#666666" points="356.5,-222 225.5,-222 225.5,-192 356.5,-192 356.5,-222"/>
<text text-anchor="start" x="233.5" y="-210" font-family="Helvetica,sans-Serif" font-size="10.00">ce103_hw4_medical_store</text>
<text text-anchor="middle" x="291" y="-199" font-family="Helvetica,sans-Serif" font-size="10.00">_lib.Medicine.getSalecost</text>
</a>
</g>
</g>
<!-- Node1&#45;&gt;Node24 -->
<g id="edge23" class="edge">
<title>Node1&#45;&gt;Node24</title>
<path fill="none" stroke="#63b8ff" d="M98.82,-335.69C118.44,-310.23 161.27,-259.2 209,-231 211.43,-229.56 213.95,-228.21 216.54,-226.93"/>
<polygon fill="#63b8ff" stroke="#63b8ff" points="217.69,-230.25 225.4,-222.98 214.85,-223.85 217.69,-230.25"/>
</g>
<!-- Node25 -->
<g id="node25" class="node">
<title>Node25</title>
<g id="a_node25"><a xlink:href="$classce103__hw4__medical__store__lib_1_1_medicine.html#a1dd5fe09b47634908bc261dbad75c328" xlink:title=" ">
<polygon fill="white" stroke="#666666" points="365.5,-174 216.5,-174 216.5,-144 365.5,-144 365.5,-174"/>
<text text-anchor="start" x="224.5" y="-162" font-family="Helvetica,sans-Serif" font-size="10.00">ce103_hw4_medical_store</text>
<text text-anchor="middle" x="291" y="-151" font-family="Helvetica,sans-Serif" font-size="10.00">_lib.Medicine.getSuppliername</text>
</a>
</g>
</g>
<!-- Node1&#45;&gt;Node25 -->
<g id="edge24" class="edge">
<title>Node1&#45;&gt;Node25</title>
<path fill="none" stroke="#63b8ff" d="M94.2,-335.88C109.55,-302.96 150.55,-224.41 209,-183 210.6,-181.86 212.26,-180.78 213.97,-179.75"/>
<polygon fill="#63b8ff" stroke="#63b8ff" points="215.59,-182.85 222.79,-175.08 212.31,-176.66 215.59,-182.85"/>
</g>
<!-- Node26 -->
<g id="node26" class="node">
<title>Node26</title>
<g id="a_node26"><a xlink:href="$classce103__hw4__medical__store__lib_1_1_medicine.html#ae1a28d11b94f9042013c4a5c56f704f4" xlink:title=" ">
<polygon fill="white" stroke="#666666" points="356.5,-126 225.5,-126 225.5,-96 356.5,-96 356.5,-126"/>
<text text-anchor="start" x="233.5" y="-114" font-family="Helvetica,sans-Serif" font-size="10.00">ce103_hw4_medical_store</text>
<text text-anchor="middle" x="291" y="-103" font-family="Helvetica,sans-Serif" font-size="10.00">_lib.Medicine.getUnitcost</text>
</a>
</g>
</g>
<!-- Node1&#45;&gt;Node26 -->
<g id="edge25" class="edge">
<title>Node1&#45;&gt;Node26</title>
<path fill="none" stroke="#63b8ff" d="M91.75,-335.54C103.44,-295.94 139.87,-190.13 209,-135 211,-133.4 213.11,-131.91 215.3,-130.52"/>
<polygon fill="#63b8ff" stroke="#63b8ff" points="216.91,-133.63 224,-125.76 213.55,-127.49 216.91,-133.63"/>
</g>
<!-- Node27 -->
<g id="node27" class="node">
<title>Node27</title>
<g id="a_node27"><a xlink:href="$classce103__hw4__medical__store__app_1_1_insider_of_the_menu.html#aa208466ba46c8f7d58d2f2e970d23545" xlink:title=" ">
<polygon fill="white" stroke="#666666" points="373,-78 209,-78 209,-48 373,-48 373,-78"/>
<text text-anchor="start" x="217" y="-66" font-family="Helvetica,sans-Serif" font-size="10.00">ce103_hw4_medical_store</text>
<text text-anchor="middle" x="291" y="-55" font-family="Helvetica,sans-Serif" font-size="10.00">_app.InsiderOfTheMenu.main_box</text>
</a>
</g>
</g>
<!-- Node1&#45;&gt;Node27 -->
<g id="edge26" class="edge">
<title>Node1&#45;&gt;Node27</title>
<path fill="none" stroke="#63b8ff" d="M90.04,-335.53C98.31,-290.21 128.72,-156.53 209,-87 209.94,-86.18 210.91,-85.4 211.9,-84.63"/>
<polygon fill="#63b8ff" stroke="#63b8ff" points="213.65,-87.67 220.14,-79.3 209.84,-81.8 213.65,-87.67"/>
</g>
<!-- Node28 -->
<g id="node28" class="node">
<title>Node28</title>
<g id="a_node28"><a xlink:href="$classce103__hw4__medical__store__lib_1_1_file_utility.html#aac1f545c958fe49778c588ce463e809d" xlink:title=" ">
<polygon fill="white" stroke="#666666" points="356.5,-30 225.5,-30 225.5,0 356.5,0 356.5,-30"/>
<text text-anchor="start" x="233.5" y="-18" font-family="Helvetica,sans-Serif" font-size="10.00">ce103_hw4_medical_store</text>
<text text-anchor="middle" x="291" y="-7" font-family="Helvetica,sans-Serif" font-size="10.00">_lib.FileUtility.readBlock</text>
</a>
</g>
</g>
<!-- Node1&#45;&gt;Node28 -->
<g id="edge27" class="edge">
<title>Node1&#45;&gt;Node28</title>
<path fill="none" stroke="#63b8ff" d="M88.81,-335.72C93.95,-285.41 117.24,-123.42 209,-39 211.08,-37.09 213.3,-35.33 215.64,-33.71"/>
<polygon fill="#63b8ff" stroke="#63b8ff" points="216.98,-36.98 223.82,-28.89 213.43,-30.95 216.98,-36.98"/>
</g>
<!-- Node3 -->
<g id="node3" class="node">
<title>Node3</title>
<g id="a_node3"><a xlink:href="$classce103__hw4__medical__store__lib_1_1_conversion_utility.html#a73bfc22165c4d39e288482818b96f6a1" xlink:title=" ">
<polygon fill="white" stroke="#666666" points="562.5,-994.5 410.5,-994.5 410.5,-953.5 562.5,-953.5 562.5,-994.5"/>
<text text-anchor="start" x="418.5" y="-982.5" font-family="Helvetica,sans-Serif" font-size="10.00">ce103_hw4_medical_store</text>
<text text-anchor="start" x="418.5" y="-971.5" font-family="Helvetica,sans-Serif" font-size="10.00">_lib.ConversionUtility.byteArray</text>
<text text-anchor="middle" x="486.5" y="-960.5" font-family="Helvetica,sans-Serif" font-size="10.00">ToInteger</text>
</a>
</g>
</g>
<!-- Node2&#45;&gt;Node3 -->
<g id="edge2" class="edge">
<title>Node2&#45;&gt;Node3</title>
<path fill="none" stroke="#63b8ff" d="M296.05,-713.75C306.37,-761.28 338.01,-878.97 409,-945 409.5,-945.47 410.02,-945.93 410.54,-946.38"/>
<polygon fill="#63b8ff" stroke="#63b8ff" points="408.24,-949.04 418.35,-952.22 412.43,-943.43 408.24,-949.04"/>
</g>
<!-- Node4 -->
<g id="node4" class="node">
<title>Node4</title>
<g id="a_node4"><a xlink:href="$classce103__hw4__medical__store__lib_1_1_conversion_utility.html#a202f8f242fa0c940170289cb2b08b1f7" xlink:title=" ">
<polygon fill="white" stroke="#666666" points="562.5,-935.5 410.5,-935.5 410.5,-894.5 562.5,-894.5 562.5,-935.5"/>
<text text-anchor="start" x="418.5" y="-923.5" font-family="Helvetica,sans-Serif" font-size="10.00">ce103_hw4_medical_store</text>
<text text-anchor="start" x="418.5" y="-912.5" font-family="Helvetica,sans-Serif" font-size="10.00">_lib.ConversionUtility.byteArray</text>
<text text-anchor="middle" x="486.5" y="-901.5" font-family="Helvetica,sans-Serif" font-size="10.00">ToString</text>
</a>
</g>
</g>
<!-- Node2&#45;&gt;Node4 -->
<g id="edge3" class="edge">
<title>Node2&#45;&gt;Node4</title>
<path fill="none" stroke="#63b8ff" d="M299.52,-713.96C314.49,-752.9 351.61,-836.8 409,-885 410.26,-886.06 411.57,-887.09 412.91,-888.08"/>
<polygon fill="#63b8ff" stroke="#63b8ff" points="410.65,-890.79 420.94,-893.32 414.48,-884.93 410.65,-890.79"/>
</g>
<!-- Node5 -->
<g id="node5" class="node">
<title>Node5</title>
<g id="a_node5"><a xlink:href="$classce103__hw4__medical__store__lib_1_1_medicine.html#a1790d6561a4c38c21f3e3367e869fef7" xlink:title=" ">
<polygon fill="white" stroke="#666666" points="552,-876 421,-876 421,-846 552,-846 552,-876"/>
<text text-anchor="start" x="429" y="-864" font-family="Helvetica,sans-Serif" font-size="10.00">ce103_hw4_medical_store</text>
<text text-anchor="middle" x="486.5" y="-853" font-family="Helvetica,sans-Serif" font-size="10.00">_lib.Medicine.setCabnitno</text>
</a>
</g>
</g>
<!-- Node2&#45;&gt;Node5 -->
<g id="edge4" class="edge">
<title>Node2&#45;&gt;Node5</title>
<path fill="none" stroke="#63b8ff" d="M303.52,-713.89C321.82,-745.19 360.49,-804.08 409,-837 410.81,-838.23 412.69,-839.4 414.63,-840.51"/>
<polygon fill="#63b8ff" stroke="#63b8ff" points="412.79,-843.51 423.29,-844.92 415.97,-837.27 412.79,-843.51"/>
</g>
<!-- Node6 -->
<g id="node6" class="node">
<title>Node6</title>
<g id="a_node6"><a xlink:href="$classce103__hw4__medical__store__lib_1_1_medicine.html#ab3afe862a422908e5a509744553ec858" xlink:title=" ">
<polygon fill="white" stroke="#666666" points="564,-828 409,-828 409,-798 564,-798 564,-828"/>
<text text-anchor="start" x="417" y="-816" font-family="Helvetica,sans-Serif" font-size="10.00">ce103_hw4_medical_store</text>
<text text-anchor="middle" x="486.5" y="-805" font-family="Helvetica,sans-Serif" font-size="10.00">_lib.Medicine.setCompanyname</text>
</a>
</g>
</g>
<!-- Node2&#45;&gt;Node6 -->
<g id="edge5" class="edge">
<title>Node2&#45;&gt;Node6</title>
<path fill="none" stroke="#63b8ff" d="M312.19,-713.74C334.19,-735.28 371.32,-768.63 409,-789 411.66,-790.44 414.43,-791.81 417.25,-793.11"/>
<polygon fill="#63b8ff" stroke="#63b8ff" points="415.73,-796.26 426.31,-796.92 418.45,-789.81 415.73,-796.26"/>
</g>
<!-- Node7 -->
<g id="node7" class="node">
<title>Node7</title>
<g id="a_node7"><a xlink:href="$classce103__hw4__medical__store__lib_1_1_medicine.html#a8cf2549ba5a4f75287214b32b6af9bed" xlink:title=" ">
<polygon fill="white" stroke="#666666" points="552,-780 421,-780 421,-750 552,-750 552,-780"/>
<text text-anchor="start" x="429" y="-768" font-family="Helvetica,sans-Serif" font-size="10.00">ce103_hw4_medical_store</text>
<text text-anchor="middle" x="486.5" y="-757" font-family="Helvetica,sans-Serif" font-size="10.00">_lib.Medicine.setExpdate</text>
</a>
</g>
</g>
<!-- Node2&#45;&gt;Node7 -->
<g id="edge6" class="edge">
<title>Node2&#45;&gt;Node7</title>
<path fill="none" stroke="#63b8ff" d="M340.31,-713.9C361.26,-722.69 386.18,-732.76 409,-741 413.69,-742.7 418.57,-744.39 423.49,-746.04"/>
<polygon fill="#63b8ff" stroke="#63b8ff" points="422.24,-749.31 432.83,-749.12 424.43,-742.67 422.24,-749.31"/>
</g>
<!-- Node8 -->
<g id="node8" class="node">
<title>Node8</title>
<g id="a_node8"><a xlink:href="$classce103__hw4__medical__store__lib_1_1_medicine.html#a5e1cfaca9d613e322ce0fefd317281a0" xlink:title=" ">
<polygon fill="white" stroke="#666666" points="552,-732 421,-732 421,-702 552,-702 552,-732"/>
<text text-anchor="start" x="429" y="-720" font-family="Helvetica,sans-Serif" font-size="10.00">ce103_hw4_medical_store</text>
<text text-anchor="middle" x="486.5" y="-709" font-family="Helvetica,sans-Serif" font-size="10.00">_lib.Medicine.setId</text>
</a>
</g>
</g>
<!-- Node2&#45;&gt;Node8 -->
<g id="edge7" class="edge">
<title>Node2&#45;&gt;Node8</title>
<path fill="none" stroke="#63b8ff" d="M363.78,-701.9C378.6,-703.74 394.27,-705.68 409.25,-707.54"/>
<polygon fill="#63b8ff" stroke="#63b8ff" points="408.69,-711 419.05,-708.76 409.55,-704.05 408.69,-711"/>
</g>
<!-- Node9 -->
<g id="node9" class="node">
<title>Node9</title>
<g id="a_node9"><a xlink:href="$classce103__hw4__medical__store__lib_1_1_medicine.html#a2d176e8be994b2cc41e7881cad4de254" xlink:title=" ">
<polygon fill="white" stroke="#666666" points="563,-684 410,-684 410,-654 563,-654 563,-684"/>
<text text-anchor="start" x="418" y="-672" font-family="Helvetica,sans-Serif" font-size="10.00">ce103_hw4_medical_store</text>
<text text-anchor="middle" x="486.5" y="-661" font-family="Helvetica,sans-Serif" font-size="10.00">_lib.Medicine.setMedicinename</text>
</a>
</g>
</g>
<!-- Node2&#45;&gt;Node9 -->
<g id="edge8" class="edge">
<title>Node2&#45;&gt;Node9</title>
<path fill="none" stroke="#63b8ff" d="M363.78,-684.1C375.11,-682.69 386.93,-681.23 398.56,-679.78"/>
<polygon fill="#63b8ff" stroke="#63b8ff" points="398.63,-683.3 408.12,-678.6 397.77,-676.35 398.63,-683.3"/>
</g>
<!-- Node10 -->
<g id="node10" class="node">
<title>Node10</title>
<g id="a_node10"><a xlink:href="$classce103__hw4__medical__store__lib_1_1_medicine.html#a294117889ca6ade2dd7c2894d9728b06" xlink:title=" ">
<polygon fill="white" stroke="#666666" points="552,-636 421,-636 421,-606 552,-606 552,-636"/>
<text text-anchor="start" x="429" y="-624" font-family="Helvetica,sans-Serif" font-size="10.00">ce103_hw4_medical_store</text>
<text text-anchor="middle" x="486.5" y="-613" font-family="Helvetica,sans-Serif" font-size="10.00">_lib.Medicine.setQuantity</text>
</a>
</g>
</g>
<!-- Node2&#45;&gt;Node10 -->
<g id="edge9" class="edge">
<title>Node2&#45;&gt;Node10</title>
<path fill="none" stroke="#63b8ff" d="M350.7,-672.12C358.26,-669.18 365.85,-666.1 373,-663 389.41,-655.88 392.41,-651.7 409,-645 413.09,-643.35 417.35,-641.73 421.66,-640.18"/>
<polygon fill="#63b8ff" stroke="#63b8ff" points="422.71,-643.52 431.01,-636.93 420.41,-636.91 422.71,-643.52"/>
</g>
<!-- Node11 -->
<g id="node11" class="node">
<title>Node11</title>
<g id="a_node11"><a xlink:href="$classce103__hw4__medical__store__lib_1_1_medicine.html#a4512c14bfa4feeb4292bf43941d26d50" xlink:title=" ">
<polygon fill="white" stroke="#666666" points="552,-588 421,-588 421,-558 552,-558 552,-588"/>
<text text-anchor="start" x="429" y="-576" font-family="Helvetica,sans-Serif" font-size="10.00">ce103_hw4_medical_store</text>
<text text-anchor="middle" x="486.5" y="-565" font-family="Helvetica,sans-Serif" font-size="10.00">_lib.Medicine.setRackno</text>
</a>
</g>
</g>
<!-- Node2&#45;&gt;Node11 -->
<g id="edge10" class="edge">
<title>Node2&#45;&gt;Node11</title>
<path fill="none" stroke="#63b8ff" d="M360,-672.21C364.63,-669.49 369.03,-666.43 373,-663 398.27,-641.14 383.18,-618.21 409,-597 410.12,-596.08 411.27,-595.2 412.46,-594.35"/>
<polygon fill="#63b8ff" stroke="#63b8ff" points="414.08,-597.46 420.78,-589.25 410.42,-591.49 414.08,-597.46"/>
</g>
<!-- Node12 -->
<g id="node12" class="node">
<title>Node12</title>
<g id="a_node12"><a xlink:href="$classce103__hw4__medical__store__lib_1_1_medicine.html#aadc0d18bf721bc167b63d79965ad41bd" xlink:title=" ">
<polygon fill="white" stroke="#666666" points="552,-540 421,-540 421,-510 552,-510 552,-540"/>
<text text-anchor="start" x="429" y="-528" font-family="Helvetica,sans-Serif" font-size="10.00">ce103_hw4_medical_store</text>
<text text-anchor="middle" x="486.5" y="-517" font-family="Helvetica,sans-Serif" font-size="10.00">_lib.Medicine.setSalecost</text>
</a>
</g>
</g>
<!-- Node2&#45;&gt;Node12 -->
<g id="edge11" class="edge">
<title>Node2&#45;&gt;Node12</title>
<path fill="none" stroke="#63b8ff" d="M362.29,-672.01C366.18,-669.36 369.79,-666.37 373,-663 409.64,-624.52 371.39,-586.54 409,-549 409.75,-548.25 410.53,-547.52 411.33,-546.81"/>
<polygon fill="#63b8ff" stroke="#63b8ff" points="413.34,-549.68 419.38,-540.97 409.23,-544.01 413.34,-549.68"/>
</g>
<!-- Node13 -->
<g id="node13" class="node">
<title>Node13</title>
<g id="a_node13"><a xlink:href="$classce103__hw4__medical__store__lib_1_1_medicine.html#a613496dacee191c7b4a9c7b9b771eb34" xlink:title=" ">
<polygon fill="white" stroke="#666666" points="561,-492 412,-492 412,-462 561,-462 561,-492"/>
<text text-anchor="start" x="420" y="-480" font-family="Helvetica,sans-Serif" font-size="10.00">ce103_hw4_medical_store</text>
<text text-anchor="middle" x="486.5" y="-469" font-family="Helvetica,sans-Serif" font-size="10.00">_lib.Medicine.setSuppliername</text>
</a>
</g>
</g>
<!-- Node2&#45;&gt;Node13 -->
<g id="edge12" class="edge">
<title>Node2&#45;&gt;Node13</title>
<path fill="none" stroke="#63b8ff" d="M363.01,-672.07C366.67,-669.4 370.04,-666.39 373,-663 421.49,-607.42 359.12,-555.33 409,-501 409.47,-500.49 409.95,-499.99 410.44,-499.49"/>
<polygon fill="#63b8ff" stroke="#63b8ff" points="412.44,-502.38 418.03,-493.38 408.05,-496.93 412.44,-502.38"/>
</g>
<!-- Node14 -->
<g id="node14" class="node">
<title>Node14</title>
<g id="a_node14"><a xlink:href="$classce103__hw4__medical__store__lib_1_1_medicine.html#a54ef3541b91d8c01c7ad24c7c2e8addc" xlink:title=" ">
<polygon fill="white" stroke="#666666" points="552,-444 421,-444 421,-414 552,-414 552,-444"/>
<text text-anchor="start" x="429" y="-432" font-family="Helvetica,sans-Serif" font-size="10.00">ce103_hw4_medical_store</text>
<text text-anchor="middle" x="486.5" y="-421" font-family="Helvetica,sans-Serif" font-size="10.00">_lib.Medicine.setUnitcost</text>
</a>
</g>
</g>
<!-- Node2&#45;&gt;Node14 -->
<g id="edge13" class="edge">
<title>Node2&#45;&gt;Node14</title>
<path fill="none" stroke="#63b8ff" d="M363.2,-672.23C366.81,-669.52 370.13,-666.46 373,-663 433.49,-590.14 346.68,-524.3 409,-453 409.95,-451.91 410.96,-450.87 412,-449.87"/>
<polygon fill="#63b8ff" stroke="#63b8ff" points="413.78,-452.92 419.57,-444.05 409.51,-447.37 413.78,-452.92"/>
</g>
</g>
</svg>
