<?xml version="1.0" encoding="UTF-8" standalone="no"?>
<!DOCTYPE svg PUBLIC "-//W3C//DTD SVG 1.1//EN"
 "http://www.w3.org/Graphics/SVG/1.1/DTD/svg11.dtd">
<!-- Generated by graphviz version 7.0.4 (20221203.1631)
 -->
<!-- Title: ce103_hw4_medical_store_lib.Customer.customerToByteArrayBlock Pages: 1 -->
<svg width="334pt" height="349pt"
 viewBox="0.00 0.00 334.00 348.50" xmlns="http://www.w3.org/2000/svg" xmlns:xlink="http://www.w3.org/1999/xlink">
<g id="graph0" class="graph" transform="scale(1 1) rotate(0) translate(4 344.5)">
<title>ce103_hw4_medical_store_lib.Customer.customerToByteArrayBlock</title>
<!-- Node1 -->
<g id="node1" class="node">
<title>Node1</title>
<g id="a_node1"><a xlink:title=" ">
<polygon fill="#999999" stroke="#666666" points="151,-202 0,-202 0,-161 151,-161 151,-202"/>
<text text-anchor="start" x="8" y="-190" font-family="Helvetica,sans-Serif" font-size="10.00">ce103_hw4_medical_store</text>
<text text-anchor="start" x="8" y="-179" font-family="Helvetica,sans-Serif" font-size="10.00">_lib.Customer.customerToByte</text>
<text text-anchor="middle" x="75.5" y="-168" font-family="Helvetica,sans-Serif" font-size="10.00">ArrayBlock</text>
</a>
</g>
</g>
<!-- Node2 -->
<g id="node2" class="node">
<title>Node2</title>
<g id="a_node2"><a xlink:href="$classce103__hw4__medical__store__lib_1_1_customer.html#a36aba6fa51f7a02f602b7e1beeff0fba" xlink:title=" ">
<polygon fill="white" stroke="#666666" points="322,-340.5 191,-340.5 191,-310.5 322,-310.5 322,-340.5"/>
<text text-anchor="start" x="199" y="-328.5" font-family="Helvetica,sans-Serif" font-size="10.00">ce103_hw4_medical_store</text>
<text text-anchor="middle" x="256.5" y="-317.5" font-family="Helvetica,sans-Serif" font-size="10.00">_lib.Customer.getCity</text>
</a>
</g>
</g>
<!-- Node1&#45;&gt;Node2 -->
<g id="edge1" class="edge">
<title>Node1&#45;&gt;Node2</title>
<path fill="none" stroke="#63b8ff" d="M90.58,-202.21C109.58,-228.72 145.83,-274.42 187,-301.5 188.86,-302.72 190.78,-303.89 192.76,-305"/>
<polygon fill="#63b8ff" stroke="#63b8ff" points="191.11,-308.09 201.62,-309.46 194.26,-301.84 191.11,-308.09"/>
</g>
<!-- Node3 -->
<g id="node3" class="node">
<title>Node3</title>
<g id="a_node3"><a xlink:href="$classce103__hw4__medical__store__lib_1_1_customer.html#a0f49e94a5abb7d8aa007db0e02056473" xlink:title=" ">
<polygon fill="white" stroke="#666666" points="322,-292.5 191,-292.5 191,-262.5 322,-262.5 322,-292.5"/>
<text text-anchor="start" x="199" y="-280.5" font-family="Helvetica,sans-Serif" font-size="10.00">ce103_hw4_medical_store</text>
<text text-anchor="middle" x="256.5" y="-269.5" font-family="Helvetica,sans-Serif" font-size="10.00">_lib.Customer.getEmail</text>
</a>
</g>
</g>
<!-- Node1&#45;&gt;Node3 -->
<g id="edge2" class="edge">
<title>Node1&#45;&gt;Node3</title>
<path fill="none" stroke="#63b8ff" d="M104.46,-202.43C126.15,-217.98 157.42,-238.94 187,-253.5 189.92,-254.93 192.94,-256.32 196.02,-257.66"/>
<polygon fill="#63b8ff" stroke="#63b8ff" points="194.65,-260.88 205.23,-261.43 197.3,-254.4 194.65,-260.88"/>
</g>
<!-- Node4 -->
<g id="node4" class="node">
<title>Node4</title>
<g id="a_node4"><a xlink:href="$classce103__hw4__medical__store__lib_1_1_customer.html#a58680383b49831fdc9d6d5c77a6640df" xlink:title=" ">
<polygon fill="white" stroke="#666666" points="322,-244.5 191,-244.5 191,-214.5 322,-214.5 322,-244.5"/>
<text text-anchor="start" x="199" y="-232.5" font-family="Helvetica,sans-Serif" font-size="10.00">ce103_hw4_medical_store</text>
<text text-anchor="middle" x="256.5" y="-221.5" font-family="Helvetica,sans-Serif" font-size="10.00">_lib.Customer.getId</text>
</a>
</g>
</g>
<!-- Node1&#45;&gt;Node4 -->
<g id="edge3" class="edge">
<title>Node1&#45;&gt;Node4</title>
<path fill="none" stroke="#63b8ff" d="M151.37,-201.58C163.14,-204.73 175.24,-207.98 186.86,-211.09"/>
<polygon fill="#63b8ff" stroke="#63b8ff" points="185.78,-214.43 196.35,-213.64 187.59,-207.67 185.78,-214.43"/>
</g>
<!-- Node5 -->
<g id="node5" class="node">
<title>Node5</title>
<g id="a_node5"><a xlink:href="$classce103__hw4__medical__store__lib_1_1_customer.html#a13135918fb5adac15dcda407d1040fe5" xlink:title=" ">
<polygon fill="white" stroke="#666666" points="322,-196.5 191,-196.5 191,-166.5 322,-166.5 322,-196.5"/>
<text text-anchor="start" x="199" y="-184.5" font-family="Helvetica,sans-Serif" font-size="10.00">ce103_hw4_medical_store</text>
<text text-anchor="middle" x="256.5" y="-173.5" font-family="Helvetica,sans-Serif" font-size="10.00">_lib.Customer.getName</text>
</a>
</g>
</g>
<!-- Node1&#45;&gt;Node5 -->
<g id="edge4" class="edge">
<title>Node1&#45;&gt;Node5</title>
<path fill="none" stroke="#63b8ff" d="M151.37,-181.5C160.54,-181.5 169.91,-181.5 179.09,-181.5"/>
<polygon fill="#63b8ff" stroke="#63b8ff" points="179.08,-185 189.08,-181.5 179.08,-178 179.08,-185"/>
</g>
<!-- Node6 -->
<g id="node6" class="node">
<title>Node6</title>
<g id="a_node6"><a xlink:href="$classce103__hw4__medical__store__lib_1_1_customer.html#ad4ac11104ae983781724a6c2a9eb933e" xlink:title=" ">
<polygon fill="white" stroke="#666666" points="322,-148.5 191,-148.5 191,-118.5 322,-118.5 322,-148.5"/>
<text text-anchor="start" x="199" y="-136.5" font-family="Helvetica,sans-Serif" font-size="10.00">ce103_hw4_medical_store</text>
<text text-anchor="middle" x="256.5" y="-125.5" font-family="Helvetica,sans-Serif" font-size="10.00">_lib.Customer.getNum</text>
</a>
</g>
</g>
<!-- Node1&#45;&gt;Node6 -->
<g id="edge5" class="edge">
<title>Node1&#45;&gt;Node6</title>
<path fill="none" stroke="#63b8ff" d="M151.37,-161.42C163.14,-158.27 175.24,-155.02 186.86,-151.91"/>
<polygon fill="#63b8ff" stroke="#63b8ff" points="187.59,-155.33 196.35,-149.36 185.78,-148.57 187.59,-155.33"/>
</g>
<!-- Node7 -->
<g id="node7" class="node">
<title>Node7</title>
<g id="a_node7"><a xlink:href="$classce103__hw4__medical__store__lib_1_1_conversion_utility.html#a8e0f93579075d0a1b0800e05bbcd66af" xlink:title=" ">
<polygon fill="white" stroke="#666666" points="326,-100 187,-100 187,-59 326,-59 326,-100"/>
<text text-anchor="start" x="195" y="-88" font-family="Helvetica,sans-Serif" font-size="10.00">ce103_hw4_medical_store</text>
<text text-anchor="start" x="195" y="-77" font-family="Helvetica,sans-Serif" font-size="10.00">_lib.ConversionUtility.integer</text>
<text text-anchor="middle" x="256.5" y="-66" font-family="Helvetica,sans-Serif" font-size="10.00">ToByteArray</text>
</a>
</g>
</g>
<!-- Node1&#45;&gt;Node7 -->
<g id="edge6" class="edge">
<title>Node1&#45;&gt;Node7</title>
<path fill="none" stroke="#63b8ff" d="M105.7,-160.57C127.52,-145.41 158.39,-124.95 187,-109.5 189.64,-108.07 192.36,-106.66 195.13,-105.27"/>
<polygon fill="#63b8ff" stroke="#63b8ff" points="196.45,-108.52 203.92,-101.01 193.39,-102.22 196.45,-108.52"/>
</g>
<!-- Node8 -->
<g id="node8" class="node">
<title>Node8</title>
<g id="a_node8"><a xlink:href="$classce103__hw4__medical__store__lib_1_1_conversion_utility.html#ab0ff4b89697d8bd6cc3b3a1141a86e3d" xlink:title=" ">
<polygon fill="white" stroke="#666666" points="323.5,-41 189.5,-41 189.5,0 323.5,0 323.5,-41"/>
<text text-anchor="start" x="197.5" y="-29" font-family="Helvetica,sans-Serif" font-size="10.00">ce103_hw4_medical_store</text>
<text text-anchor="start" x="197.5" y="-18" font-family="Helvetica,sans-Serif" font-size="10.00">_lib.ConversionUtility.string</text>
<text text-anchor="middle" x="256.5" y="-7" font-family="Helvetica,sans-Serif" font-size="10.00">ToByteArray</text>
</a>
</g>
</g>
<!-- Node1&#45;&gt;Node8 -->
<g id="edge7" class="edge">
<title>Node1&#45;&gt;Node8</title>
<path fill="none" stroke="#63b8ff" d="M89.52,-160.78C108.13,-132.57 144.8,-82.01 187,-50.5 188.54,-49.35 190.13,-48.24 191.75,-47.15"/>
<polygon fill="#63b8ff" stroke="#63b8ff" points="193.39,-50.25 200.14,-42.09 189.77,-44.26 193.39,-50.25"/>
</g>
</g>
</svg>
