<?xml version="1.0" encoding="UTF-8" standalone="no"?>
<!DOCTYPE svg PUBLIC "-//W3C//DTD SVG 1.1//EN"
 "http://www.w3.org/Graphics/SVG/1.1/DTD/svg11.dtd">
<!-- Generated by graphviz version 7.0.4 (20221203.1631)
 -->
<!-- Title: ce103_hw4_medical_store_lib.Medicine.setMedicinename Pages: 1 -->
<svg width="1064pt" height="134pt"
 viewBox="0.00 0.00 1064.00 134.00" xmlns="http://www.w3.org/2000/svg" xmlns:xlink="http://www.w3.org/1999/xlink">
<g id="graph0" class="graph" transform="scale(1 1) rotate(0) translate(4 130)">
<title>ce103_hw4_medical_store_lib.Medicine.setMedicinename</title>
<!-- Node1 -->
<g id="node1" class="node">
<title>Node1</title>
<g id="a_node1"><a xlink:title=" ">
<polygon fill="#999999" stroke="#666666" points="1056,-54 903,-54 903,-24 1056,-24 1056,-54"/>
<text text-anchor="start" x="911" y="-42" font-family="Helvetica,sans-Serif" font-size="10.00">ce103_hw4_medical_store</text>
<text text-anchor="middle" x="979.5" y="-31" font-family="Helvetica,sans-Serif" font-size="10.00">_lib.Medicine.setMedicinename</text>
</a>
</g>
</g>
<!-- Node2 -->
<g id="node2" class="node">
<title>Node2</title>
<g id="a_node2"><a xlink:href="$classce103__hw4__medical__store__lib_1_1_medicine.html#a139a6e9d94edbac2790895a083f11813" xlink:title=" ">
<polygon fill="white" stroke="#666666" points="867,-84.5 722,-84.5 722,-43.5 867,-43.5 867,-84.5"/>
<text text-anchor="start" x="730" y="-72.5" font-family="Helvetica,sans-Serif" font-size="10.00">ce103_hw4_medical_store</text>
<text text-anchor="start" x="730" y="-61.5" font-family="Helvetica,sans-Serif" font-size="10.00">_lib.Medicine.ByteArrayBlock</text>
<text text-anchor="middle" x="794.5" y="-50.5" font-family="Helvetica,sans-Serif" font-size="10.00">ToMedicine</text>
</a>
</g>
</g>
<!-- Node1&#45;&gt;Node2 -->
<g id="edge1" class="edge">
<title>Node1&#45;&gt;Node2</title>
<path fill="none" stroke="#63b8ff" d="M891.42,-50.9C883.37,-52 875.27,-53.1 867.38,-54.18"/>
<polygon fill="#63b8ff" stroke="#63b8ff" points="891.81,-54.38 901.25,-49.55 890.86,-47.44 891.81,-54.38"/>
</g>
<!-- Node7 -->
<g id="node7" class="node">
<title>Node7</title>
<g id="a_node7"><a xlink:href="$classce103__hw4__medical__store__app_1_1_insider_of_the_menu.html#a06e911654aeebf8dcb003c0bec404f3d" xlink:title=" ">
<polygon fill="white" stroke="#666666" points="683,-30 504,-30 504,0 683,0 683,-30"/>
<text text-anchor="start" x="512" y="-18" font-family="Helvetica,sans-Serif" font-size="10.00">ce103_hw4_medical_store</text>
<text text-anchor="middle" x="593.5" y="-7" font-family="Helvetica,sans-Serif" font-size="10.00">_app.InsiderOfTheMenu.salemedicine</text>
</a>
</g>
</g>
<!-- Node1&#45;&gt;Node7 -->
<g id="edge10" class="edge">
<title>Node1&#45;&gt;Node7</title>
<path fill="none" stroke="#63b8ff" d="M891.28,-33.55C829.13,-29.66 745.86,-24.46 683.34,-20.55"/>
<polygon fill="#63b8ff" stroke="#63b8ff" points="890.92,-37.03 901.12,-34.16 891.36,-30.05 890.92,-37.03"/>
</g>
<!-- Node3 -->
<g id="node3" class="node">
<title>Node3</title>
<g id="a_node3"><a xlink:href="$classce103__hw4__medical__store__app_1_1_insider_of_the_menu.html#ada4f93b1d40bbc169bf20e70efdda5c9" xlink:title=" ">
<polygon fill="white" stroke="#666666" points="680,-126 507,-126 507,-96 680,-96 680,-126"/>
<text text-anchor="start" x="515" y="-114" font-family="Helvetica,sans-Serif" font-size="10.00">ce103_hw4_medical_store</text>
<text text-anchor="middle" x="593.5" y="-103" font-family="Helvetica,sans-Serif" font-size="10.00">_app.InsiderOfTheMenu.listmedicine</text>
</a>
</g>
</g>
<!-- Node2&#45;&gt;Node3 -->
<g id="edge2" class="edge">
<title>Node2&#45;&gt;Node3</title>
<path fill="none" stroke="#63b8ff" d="M710.66,-83.57C693.74,-87.56 676.16,-91.71 659.95,-95.54"/>
<polygon fill="#63b8ff" stroke="#63b8ff" points="711.26,-87.02 720.18,-81.32 709.65,-80.21 711.26,-87.02"/>
</g>
<!-- Node2&#45;&gt;Node7 -->
<g id="edge6" class="edge">
<title>Node2&#45;&gt;Node7</title>
<path fill="none" stroke="#63b8ff" d="M710.67,-43.6C692.84,-39.21 674.27,-34.64 657.35,-30.47"/>
<polygon fill="#63b8ff" stroke="#63b8ff" points="709.64,-46.96 720.19,-45.95 711.31,-40.16 709.64,-46.96"/>
</g>
<!-- Node8 -->
<g id="node8" class="node">
<title>Node8</title>
<g id="a_node8"><a xlink:href="$classce103__hw4__medical__store__app_1_1_insider_of_the_menu.html#ac76ee95213f4e41b88d57c028f610c33" xlink:title=" ">
<polygon fill="white" stroke="#666666" points="686,-78 501,-78 501,-48 686,-48 686,-78"/>
<text text-anchor="start" x="509" y="-66" font-family="Helvetica,sans-Serif" font-size="10.00">ce103_hw4_medical_store</text>
<text text-anchor="middle" x="593.5" y="-55" font-family="Helvetica,sans-Serif" font-size="10.00">_app.InsiderOfTheMenu.stockmedicine</text>
</a>
</g>
</g>
<!-- Node2&#45;&gt;Node8 -->
<g id="edge8" class="edge">
<title>Node2&#45;&gt;Node8</title>
<path fill="none" stroke="#63b8ff" d="M710.22,-63.58C702.33,-63.54 694.3,-63.5 686.34,-63.46"/>
<polygon fill="#63b8ff" stroke="#63b8ff" points="710.13,-67.08 720.14,-63.63 710.16,-60.08 710.13,-67.08"/>
</g>
<!-- Node4 -->
<g id="node4" class="node">
<title>Node4</title>
<g id="a_node4"><a xlink:href="$classce103__hw4__medical__store__app_1_1_menu.html#af40268756f4be60ece4bf674210a17bb" xlink:title=" ">
<polygon fill="white" stroke="#666666" points="465,-78 334,-78 334,-48 465,-48 465,-78"/>
<text text-anchor="start" x="342" y="-66" font-family="Helvetica,sans-Serif" font-size="10.00">ce103_hw4_medical_store</text>
<text text-anchor="middle" x="399.5" y="-55" font-family="Helvetica,sans-Serif" font-size="10.00">_app.Menu.performAction</text>
</a>
</g>
</g>
<!-- Node3&#45;&gt;Node4 -->
<g id="edge3" class="edge">
<title>Node3&#45;&gt;Node4</title>
<path fill="none" stroke="#63b8ff" d="M519.71,-92.8C500.75,-88.06 480.51,-83 462.19,-78.42"/>
<polygon fill="#63b8ff" stroke="#63b8ff" points="518.67,-96.15 529.22,-95.18 520.37,-89.36 518.67,-96.15"/>
</g>
<!-- Node5 -->
<g id="node5" class="node">
<title>Node5</title>
<g id="a_node5"><a xlink:href="$classce103__hw4__medical__store__app_1_1_menu.html#a8890452f69a3d1c94a7951344bd7515b" xlink:title=" ">
<polygon fill="white" stroke="#666666" points="298,-78 167,-78 167,-48 298,-48 298,-78"/>
<text text-anchor="start" x="175" y="-66" font-family="Helvetica,sans-Serif" font-size="10.00">ce103_hw4_medical_store</text>
<text text-anchor="middle" x="232.5" y="-55" font-family="Helvetica,sans-Serif" font-size="10.00">_app.Menu.runMenu</text>
</a>
</g>
</g>
<!-- Node4&#45;&gt;Node5 -->
<g id="edge4" class="edge">
<title>Node4&#45;&gt;Node5</title>
<path fill="none" stroke="#63b8ff" d="M322.45,-63C314.39,-63 306.24,-63 298.32,-63"/>
<polygon fill="#63b8ff" stroke="#63b8ff" points="322.25,-66.5 332.25,-63 322.25,-59.5 322.25,-66.5"/>
</g>
<!-- Node6 -->
<g id="node6" class="node">
<title>Node6</title>
<g id="a_node6"><a xlink:href="$classce103__hw4__medical__store__app_1_1_menu.html#a906bd0b055bce495d306a21e81cbec1b" xlink:title=" ">
<polygon fill="white" stroke="#666666" points="131,-78 0,-78 0,-48 131,-48 131,-78"/>
<text text-anchor="start" x="8" y="-66" font-family="Helvetica,sans-Serif" font-size="10.00">ce103_hw4_medical_store</text>
<text text-anchor="middle" x="65.5" y="-55" font-family="Helvetica,sans-Serif" font-size="10.00">_app.Menu.main</text>
</a>
</g>
</g>
<!-- Node5&#45;&gt;Node6 -->
<g id="edge5" class="edge">
<title>Node5&#45;&gt;Node6</title>
<path fill="none" stroke="#63b8ff" d="M155.45,-63C147.39,-63 139.24,-63 131.32,-63"/>
<polygon fill="#63b8ff" stroke="#63b8ff" points="155.25,-66.5 165.25,-63 155.25,-59.5 155.25,-66.5"/>
</g>
<!-- Node7&#45;&gt;Node4 -->
<g id="edge7" class="edge">
<title>Node7&#45;&gt;Node4</title>
<path fill="none" stroke="#63b8ff" d="M519.71,-33.2C500.75,-37.94 480.51,-43 462.19,-47.58"/>
<polygon fill="#63b8ff" stroke="#63b8ff" points="520.37,-36.64 529.22,-30.82 518.67,-29.85 520.37,-36.64"/>
</g>
<!-- Node8&#45;&gt;Node4 -->
<g id="edge9" class="edge">
<title>Node8&#45;&gt;Node4</title>
<path fill="none" stroke="#63b8ff" d="M489.23,-63C481.11,-63 473.07,-63 465.33,-63"/>
<polygon fill="#63b8ff" stroke="#63b8ff" points="489.2,-66.5 499.2,-63 489.2,-59.5 489.2,-66.5"/>
</g>
</g>
</svg>
