<?xml version="1.0" encoding="UTF-8" standalone="no"?>
<!DOCTYPE svg PUBLIC "-//W3C//DTD SVG 1.1//EN"
 "http://www.w3.org/Graphics/SVG/1.1/DTD/svg11.dtd">
<!-- Generated by graphviz version 7.0.4 (20221203.1631)
 -->
<!-- Title: ce103_hw4_medical_store_lib.Medicine.getId Pages: 1 -->
<svg width="1097pt" height="178pt"
 viewBox="0.00 0.00 1097.00 178.00" xmlns="http://www.w3.org/2000/svg" xmlns:xlink="http://www.w3.org/1999/xlink">
<g id="graph0" class="graph" transform="scale(1 1) rotate(0) translate(4 174)">
<title>ce103_hw4_medical_store_lib.Medicine.getId</title>
<!-- Node1 -->
<g id="node1" class="node">
<title>Node1</title>
<g id="a_node1"><a xlink:title=" ">
<polygon fill="#999999" stroke="#666666" points="1089,-97 958,-97 958,-67 1089,-67 1089,-97"/>
<text text-anchor="start" x="966" y="-85" font-family="Helvetica,sans-Serif" font-size="10.00">ce103_hw4_medical_store</text>
<text text-anchor="middle" x="1023.5" y="-74" font-family="Helvetica,sans-Serif" font-size="10.00">_lib.Medicine.getId</text>
</a>
</g>
</g>
<!-- Node2 -->
<g id="node2" class="node">
<title>Node2</title>
<g id="a_node2"><a xlink:href="$classce103__hw4__medical__store__app_1_1_insider_of_the_menu.html#ada4f93b1d40bbc169bf20e70efdda5c9" xlink:title=" ">
<polygon fill="white" stroke="#666666" points="687.5,-170 514.5,-170 514.5,-140 687.5,-140 687.5,-170"/>
<text text-anchor="start" x="522.5" y="-158" font-family="Helvetica,sans-Serif" font-size="10.00">ce103_hw4_medical_store</text>
<text text-anchor="middle" x="601" y="-147" font-family="Helvetica,sans-Serif" font-size="10.00">_app.InsiderOfTheMenu.listmedicine</text>
</a>
</g>
</g>
<!-- Node1&#45;&gt;Node2 -->
<g id="edge1" class="edge">
<title>Node1&#45;&gt;Node2</title>
<path fill="none" stroke="#63b8ff" d="M991.36,-103.78C972.27,-115.89 946.8,-129.91 922,-137 844.96,-159.03 753.34,-161.97 687.92,-160.33"/>
<polygon fill="#63b8ff" stroke="#63b8ff" points="993.27,-106.71 999.73,-98.31 989.44,-100.85 993.27,-106.71"/>
</g>
<!-- Node6 -->
<g id="node6" class="node">
<title>Node6</title>
<g id="a_node6"><a xlink:href="$classce103__hw4__medical__store__lib_1_1_medicine.html#a6046b568ddbacc606799c55c34c93584" xlink:title=" ">
<polygon fill="white" stroke="#666666" points="902.5,-127.5 756.5,-127.5 756.5,-86.5 902.5,-86.5 902.5,-127.5"/>
<text text-anchor="start" x="764.5" y="-115.5" font-family="Helvetica,sans-Serif" font-size="10.00">ce103_hw4_medical_store</text>
<text text-anchor="start" x="764.5" y="-104.5" font-family="Helvetica,sans-Serif" font-size="10.00">_lib.Medicine.medicineToByte</text>
<text text-anchor="middle" x="829.5" y="-93.5" font-family="Helvetica,sans-Serif" font-size="10.00">ArrayBlock</text>
</a>
</g>
</g>
<!-- Node1&#45;&gt;Node6 -->
<g id="edge5" class="edge">
<title>Node1&#45;&gt;Node6</title>
<path fill="none" stroke="#63b8ff" d="M946.42,-91.91C932.07,-93.77 917.11,-95.72 902.88,-97.58"/>
<polygon fill="#63b8ff" stroke="#63b8ff" points="946.8,-95.39 956.26,-90.62 945.9,-88.45 946.8,-95.39"/>
</g>
<!-- Node8 -->
<g id="node8" class="node">
<title>Node8</title>
<g id="a_node8"><a xlink:href="$classce103__hw4__medical__store__app_1_1_insider_of_the_menu.html#a06e911654aeebf8dcb003c0bec404f3d" xlink:title=" ">
<polygon fill="white" stroke="#666666" points="690.5,-74 511.5,-74 511.5,-44 690.5,-44 690.5,-74"/>
<text text-anchor="start" x="519.5" y="-62" font-family="Helvetica,sans-Serif" font-size="10.00">ce103_hw4_medical_store</text>
<text text-anchor="middle" x="601" y="-51" font-family="Helvetica,sans-Serif" font-size="10.00">_app.InsiderOfTheMenu.salemedicine</text>
</a>
</g>
</g>
<!-- Node1&#45;&gt;Node8 -->
<g id="edge10" class="edge">
<title>Node1&#45;&gt;Node8</title>
<path fill="none" stroke="#63b8ff" d="M946.49,-77.84C874.54,-73.91 766.53,-68 690.68,-63.85"/>
<polygon fill="#63b8ff" stroke="#63b8ff" points="946.03,-81.32 956.21,-78.37 946.41,-74.33 946.03,-81.32"/>
</g>
<!-- Node9 -->
<g id="node9" class="node">
<title>Node9</title>
<g id="a_node9"><a xlink:href="$classce103__hw4__medical__store__app_1_1_insider_of_the_menu.html#ac76ee95213f4e41b88d57c028f610c33" xlink:title=" ">
<polygon fill="white" stroke="#666666" points="922,-30 737,-30 737,0 922,0 922,-30"/>
<text text-anchor="start" x="745" y="-18" font-family="Helvetica,sans-Serif" font-size="10.00">ce103_hw4_medical_store</text>
<text text-anchor="middle" x="829.5" y="-7" font-family="Helvetica,sans-Serif" font-size="10.00">_app.InsiderOfTheMenu.stockmedicine</text>
</a>
</g>
</g>
<!-- Node1&#45;&gt;Node9 -->
<g id="edge11" class="edge">
<title>Node1&#45;&gt;Node9</title>
<path fill="none" stroke="#63b8ff" d="M972.31,-62.41C956.3,-56.32 938.46,-49.72 922,-44 908.78,-39.41 894.38,-34.71 881,-30.46"/>
<polygon fill="#63b8ff" stroke="#63b8ff" points="971.06,-65.68 981.65,-65.98 973.56,-59.14 971.06,-65.68"/>
</g>
<!-- Node3 -->
<g id="node3" class="node">
<title>Node3</title>
<g id="a_node3"><a xlink:href="$classce103__hw4__medical__store__app_1_1_menu.html#af40268756f4be60ece4bf674210a17bb" xlink:title=" ">
<polygon fill="white" stroke="#666666" points="465,-98 334,-98 334,-68 465,-68 465,-98"/>
<text text-anchor="start" x="342" y="-86" font-family="Helvetica,sans-Serif" font-size="10.00">ce103_hw4_medical_store</text>
<text text-anchor="middle" x="399.5" y="-75" font-family="Helvetica,sans-Serif" font-size="10.00">_app.Menu.performAction</text>
</a>
</g>
</g>
<!-- Node2&#45;&gt;Node3 -->
<g id="edge2" class="edge">
<title>Node2&#45;&gt;Node3</title>
<path fill="none" stroke="#63b8ff" d="M517.5,-136.39C511.88,-134.69 506.33,-132.9 501,-131 475.86,-122.06 448.62,-108.81 428.85,-98.49"/>
<polygon fill="#63b8ff" stroke="#63b8ff" points="516.33,-139.69 526.91,-139.09 518.27,-132.97 516.33,-139.69"/>
</g>
<!-- Node4 -->
<g id="node4" class="node">
<title>Node4</title>
<g id="a_node4"><a xlink:href="$classce103__hw4__medical__store__app_1_1_menu.html#a8890452f69a3d1c94a7951344bd7515b" xlink:title=" ">
<polygon fill="white" stroke="#666666" points="298,-98 167,-98 167,-68 298,-68 298,-98"/>
<text text-anchor="start" x="175" y="-86" font-family="Helvetica,sans-Serif" font-size="10.00">ce103_hw4_medical_store</text>
<text text-anchor="middle" x="232.5" y="-75" font-family="Helvetica,sans-Serif" font-size="10.00">_app.Menu.runMenu</text>
</a>
</g>
</g>
<!-- Node3&#45;&gt;Node4 -->
<g id="edge3" class="edge">
<title>Node3&#45;&gt;Node4</title>
<path fill="none" stroke="#63b8ff" d="M322.45,-83C314.39,-83 306.24,-83 298.32,-83"/>
<polygon fill="#63b8ff" stroke="#63b8ff" points="322.25,-86.5 332.25,-83 322.25,-79.5 322.25,-86.5"/>
</g>
<!-- Node5 -->
<g id="node5" class="node">
<title>Node5</title>
<g id="a_node5"><a xlink:href="$classce103__hw4__medical__store__app_1_1_menu.html#a906bd0b055bce495d306a21e81cbec1b" xlink:title=" ">
<polygon fill="white" stroke="#666666" points="131,-98 0,-98 0,-68 131,-68 131,-98"/>
<text text-anchor="start" x="8" y="-86" font-family="Helvetica,sans-Serif" font-size="10.00">ce103_hw4_medical_store</text>
<text text-anchor="middle" x="65.5" y="-75" font-family="Helvetica,sans-Serif" font-size="10.00">_app.Menu.main</text>
</a>
</g>
</g>
<!-- Node4&#45;&gt;Node5 -->
<g id="edge4" class="edge">
<title>Node4&#45;&gt;Node5</title>
<path fill="none" stroke="#63b8ff" d="M155.45,-83C147.39,-83 139.24,-83 131.32,-83"/>
<polygon fill="#63b8ff" stroke="#63b8ff" points="155.25,-86.5 165.25,-83 155.25,-79.5 155.25,-86.5"/>
</g>
<!-- Node7 -->
<g id="node7" class="node">
<title>Node7</title>
<g id="a_node7"><a xlink:href="$classce103__hw4__medical__store__app_1_1_insider_of_the_menu.html#abbb3877121688713fb9c89334fd093b9" xlink:title=" ">
<polygon fill="white" stroke="#666666" points="701,-122 501,-122 501,-92 701,-92 701,-122"/>
<text text-anchor="start" x="509" y="-110" font-family="Helvetica,sans-Serif" font-size="10.00">ce103_hw4_medical_store</text>
<text text-anchor="middle" x="601" y="-99" font-family="Helvetica,sans-Serif" font-size="10.00">_app.InsiderOfTheMenu.purchasemedicine</text>
</a>
</g>
</g>
<!-- Node6&#45;&gt;Node7 -->
<g id="edge6" class="edge">
<title>Node6&#45;&gt;Node7</title>
<path fill="none" stroke="#63b8ff" d="M744.97,-107C730.75,-107 715.85,-107 701.27,-107"/>
<polygon fill="#63b8ff" stroke="#63b8ff" points="744.7,-110.5 754.7,-107 744.7,-103.5 744.7,-110.5"/>
</g>
<!-- Node6&#45;&gt;Node8 -->
<g id="edge8" class="edge">
<title>Node6&#45;&gt;Node8</title>
<path fill="none" stroke="#63b8ff" d="M745.05,-89.32C722,-84.43 697.17,-79.17 674.77,-74.42"/>
<polygon fill="#63b8ff" stroke="#63b8ff" points="744.22,-92.72 754.73,-91.37 745.67,-85.87 744.22,-92.72"/>
</g>
<!-- Node7&#45;&gt;Node3 -->
<g id="edge7" class="edge">
<title>Node7&#45;&gt;Node3</title>
<path fill="none" stroke="#63b8ff" d="M489.12,-93.66C481.07,-92.69 473.12,-91.74 465.48,-90.82"/>
<polygon fill="#63b8ff" stroke="#63b8ff" points="488.69,-97.13 499.04,-94.85 489.53,-90.18 488.69,-97.13"/>
</g>
<!-- Node8&#45;&gt;Node3 -->
<g id="edge9" class="edge">
<title>Node8&#45;&gt;Node3</title>
<path fill="none" stroke="#63b8ff" d="M499.83,-71.05C488.12,-72.46 476.41,-73.87 465.36,-75.2"/>
<polygon fill="#63b8ff" stroke="#63b8ff" points="500.03,-74.55 509.54,-69.88 499.19,-67.6 500.03,-74.55"/>
</g>
<!-- Node9&#45;&gt;Node3 -->
<g id="edge12" class="edge">
<title>Node9&#45;&gt;Node3</title>
<path fill="none" stroke="#63b8ff" d="M725.56,-11.27C660.25,-11.34 574.5,-15.97 501,-35 473.86,-42.03 445.22,-56.49 425.49,-67.72"/>
<polygon fill="#63b8ff" stroke="#63b8ff" points="725.16,-14.76 735.17,-11.29 725.18,-7.76 725.16,-14.76"/>
</g>
</g>
</svg>
