<?xml version="1.0" encoding="UTF-8" standalone="no"?>
<!DOCTYPE svg PUBLIC "-//W3C//DTD SVG 1.1//EN"
 "http://www.w3.org/Graphics/SVG/1.1/DTD/svg11.dtd">
<!-- Generated by graphviz version 7.0.4 (20221203.1631)
 -->
<!-- Title: ce103_hw4_medical_store_app.InsiderOfTheMenu.searchsupp Pages: 1 -->
<svg width="578pt" height="728pt"
 viewBox="0.00 0.00 578.00 727.50" xmlns="http://www.w3.org/2000/svg" xmlns:xlink="http://www.w3.org/1999/xlink">
<g id="graph0" class="graph" transform="scale(1 1) rotate(0) translate(4 723.5)">
<title>ce103_hw4_medical_store_app.InsiderOfTheMenu.searchsupp</title>
<!-- Node1 -->
<g id="node1" class="node">
<title>Node1</title>
<g id="a_node1"><a xlink:title=" ">
<polygon fill="#999999" stroke="#666666" points="172,-246 0,-246 0,-216 172,-216 172,-246"/>
<text text-anchor="start" x="8" y="-234" font-family="Helvetica,sans-Serif" font-size="10.00">ce103_hw4_medical_store</text>
<text text-anchor="middle" x="86" y="-223" font-family="Helvetica,sans-Serif" font-size="10.00">_app.InsiderOfTheMenu.searchsupp</text>
</a>
</g>
</g>
<!-- Node2 -->
<g id="node2" class="node">
<title>Node2</title>
<g id="a_node2"><a xlink:href="$classce103__hw4__medical__store__lib_1_1_supplier.html#abad3a97eeb6c990ec1fb06b41739e576" xlink:title=" ">
<polygon fill="white" stroke="#666666" points="359,-534.5 219,-534.5 219,-493.5 359,-493.5 359,-534.5"/>
<text text-anchor="start" x="227" y="-522.5" font-family="Helvetica,sans-Serif" font-size="10.00">ce103_hw4_medical_store</text>
<text text-anchor="start" x="227" y="-511.5" font-family="Helvetica,sans-Serif" font-size="10.00">_lib.Supplier.byteArrayBlock</text>
<text text-anchor="middle" x="289" y="-500.5" font-family="Helvetica,sans-Serif" font-size="10.00">ToSupplier</text>
</a>
</g>
</g>
<!-- Node1&#45;&gt;Node2 -->
<g id="edge1" class="edge">
<title>Node1&#45;&gt;Node2</title>
<path fill="none" stroke="#63b8ff" d="M97.81,-246.22C129.71,-291.13 223.9,-423.75 266.57,-483.82"/>
<polygon fill="#63b8ff" stroke="#63b8ff" points="263.67,-485.79 272.32,-491.92 269.38,-481.74 263.67,-485.79"/>
</g>
<!-- Node10 -->
<g id="node10" class="node">
<title>Node10</title>
<g id="a_node10"><a xlink:href="$classce103__hw4__medical__store__app_1_1_insider_of_the_menu.html#a0409ee76fc4d80aea880c4c9702271df" xlink:title=" ">
<polygon fill="white" stroke="#666666" points="559.5,-361 416.5,-361 416.5,-331 559.5,-331 559.5,-361"/>
<text text-anchor="start" x="424.5" y="-349" font-family="Helvetica,sans-Serif" font-size="10.00">ce103_hw4_medical_store</text>
<text text-anchor="middle" x="488" y="-338" font-family="Helvetica,sans-Serif" font-size="10.00">_app.InsiderOfTheMenu.clear</text>
</a>
</g>
</g>
<!-- Node1&#45;&gt;Node10 -->
<g id="edge9" class="edge">
<title>Node1&#45;&gt;Node10</title>
<path fill="none" stroke="#63b8ff" d="M95.08,-246.43C111.6,-276.09 152.43,-340.31 208,-365 273.8,-394.24 298.23,-370.79 370,-365 381.35,-364.08 393.25,-362.68 404.95,-361.03"/>
<polygon fill="#63b8ff" stroke="#63b8ff" points="405.19,-364.54 414.57,-359.62 404.17,-357.61 405.19,-364.54"/>
</g>
<!-- Node11 -->
<g id="node11" class="node">
<title>Node11</title>
<g id="a_node11"><a xlink:href="$classce103__hw4__medical__store__app_1_1_insider_of_the_menu.html#a3a0461cf6ef97ea7761931d922129d14" xlink:title=" ">
<polygon fill="white" stroke="#666666" points="370,-356 208,-356 208,-326 370,-326 370,-356"/>
<text text-anchor="start" x="216" y="-344" font-family="Helvetica,sans-Serif" font-size="10.00">ce103_hw4_medical_store</text>
<text text-anchor="middle" x="289" y="-333" font-family="Helvetica,sans-Serif" font-size="10.00">_app.InsiderOfTheMenu.customer</text>
</a>
</g>
</g>
<!-- Node1&#45;&gt;Node11 -->
<g id="edge10" class="edge">
<title>Node1&#45;&gt;Node11</title>
<path fill="none" stroke="#63b8ff" d="M106.63,-246.33C129.84,-263.92 170.11,-292.81 208,-312 214.64,-315.36 221.77,-318.53 228.93,-321.44"/>
<polygon fill="#63b8ff" stroke="#63b8ff" points="227.4,-324.6 237.99,-324.97 229.94,-318.08 227.4,-324.6"/>
</g>
<!-- Node12 -->
<g id="node12" class="node">
<title>Node12</title>
<g id="a_node12"><a xlink:href="$classce103__hw4__medical__store__app_1_1_insider_of_the_menu.html#aa208466ba46c8f7d58d2f2e970d23545" xlink:title=" ">
<polygon fill="white" stroke="#666666" points="570,-313 406,-313 406,-283 570,-283 570,-313"/>
<text text-anchor="start" x="414" y="-301" font-family="Helvetica,sans-Serif" font-size="10.00">ce103_hw4_medical_store</text>
<text text-anchor="middle" x="488" y="-290" font-family="Helvetica,sans-Serif" font-size="10.00">_app.InsiderOfTheMenu.main_box</text>
</a>
</g>
</g>
<!-- Node1&#45;&gt;Node12 -->
<g id="edge18" class="edge">
<title>Node1&#45;&gt;Node12</title>
<path fill="none" stroke="#63b8ff" d="M117.99,-246.39C141.94,-257.52 176.26,-271.81 208,-279 269.11,-292.85 339.52,-297.56 394.32,-298.83"/>
<polygon fill="#63b8ff" stroke="#63b8ff" points="394.19,-302.33 404.25,-299.02 394.32,-295.33 394.19,-302.33"/>
</g>
<!-- Node13 -->
<g id="node13" class="node">
<title>Node13</title>
<g id="a_node13"><a xlink:href="$classce103__hw4__medical__store__lib_1_1_supplier.html#a735a56c6c0308a2f0ee870075f7bc320" xlink:title=" ">
<polygon fill="white" stroke="#666666" points="354.5,-270 223.5,-270 223.5,-240 354.5,-240 354.5,-270"/>
<text text-anchor="start" x="231.5" y="-258" font-family="Helvetica,sans-Serif" font-size="10.00">ce103_hw4_medical_store</text>
<text text-anchor="middle" x="289" y="-247" font-family="Helvetica,sans-Serif" font-size="10.00">_lib.Supplier.getCity</text>
</a>
</g>
</g>
<!-- Node1&#45;&gt;Node13 -->
<g id="edge13" class="edge">
<title>Node1&#45;&gt;Node13</title>
<path fill="none" stroke="#63b8ff" d="M172.24,-241.18C185.4,-242.75 198.92,-244.36 211.86,-245.91"/>
<polygon fill="#63b8ff" stroke="#63b8ff" points="211.21,-249.36 221.56,-247.07 212.04,-242.41 211.21,-249.36"/>
</g>
<!-- Node14 -->
<g id="node14" class="node">
<title>Node14</title>
<g id="a_node14"><a xlink:href="$classce103__hw4__medical__store__lib_1_1_supplier.html#af1622d0e0af60af6763a2283e987b4a2" xlink:title=" ">
<polygon fill="white" stroke="#666666" points="355,-222 223,-222 223,-192 355,-192 355,-222"/>
<text text-anchor="start" x="231" y="-210" font-family="Helvetica,sans-Serif" font-size="10.00">ce103_hw4_medical_store</text>
<text text-anchor="middle" x="289" y="-199" font-family="Helvetica,sans-Serif" font-size="10.00">_lib.Supplier.getContactNo</text>
</a>
</g>
</g>
<!-- Node1&#45;&gt;Node14 -->
<g id="edge14" class="edge">
<title>Node1&#45;&gt;Node14</title>
<path fill="none" stroke="#63b8ff" d="M172.24,-220.82C185.32,-219.26 198.75,-217.66 211.61,-216.12"/>
<polygon fill="#63b8ff" stroke="#63b8ff" points="211.74,-219.63 221.25,-214.97 210.91,-212.68 211.74,-219.63"/>
</g>
<!-- Node15 -->
<g id="node15" class="node">
<title>Node15</title>
<g id="a_node15"><a xlink:href="$classce103__hw4__medical__store__lib_1_1_supplier.html#a99a20bfe60b8ce74d349418a92f0c660" xlink:title=" ">
<polygon fill="white" stroke="#666666" points="354.5,-174 223.5,-174 223.5,-144 354.5,-144 354.5,-174"/>
<text text-anchor="start" x="231.5" y="-162" font-family="Helvetica,sans-Serif" font-size="10.00">ce103_hw4_medical_store</text>
<text text-anchor="middle" x="289" y="-151" font-family="Helvetica,sans-Serif" font-size="10.00">_lib.Supplier.getemailID</text>
</a>
</g>
</g>
<!-- Node1&#45;&gt;Node15 -->
<g id="edge15" class="edge">
<title>Node1&#45;&gt;Node15</title>
<path fill="none" stroke="#63b8ff" d="M123.49,-215.57C147.35,-205.72 179.29,-192.98 208,-183 213.04,-181.25 218.29,-179.5 223.58,-177.8"/>
<polygon fill="#63b8ff" stroke="#63b8ff" points="224.51,-181.18 232.99,-174.83 222.4,-174.5 224.51,-181.18"/>
</g>
<!-- Node16 -->
<g id="node16" class="node">
<title>Node16</title>
<g id="a_node16"><a xlink:href="$classce103__hw4__medical__store__lib_1_1_supplier.html#a37b7283600f4fa52dec2d2e686e99899" xlink:title=" ">
<polygon fill="white" stroke="#666666" points="354.5,-126 223.5,-126 223.5,-96 354.5,-96 354.5,-126"/>
<text text-anchor="start" x="231.5" y="-114" font-family="Helvetica,sans-Serif" font-size="10.00">ce103_hw4_medical_store</text>
<text text-anchor="middle" x="289" y="-103" font-family="Helvetica,sans-Serif" font-size="10.00">_lib.Supplier.getsupplierId</text>
</a>
</g>
</g>
<!-- Node1&#45;&gt;Node16 -->
<g id="edge16" class="edge">
<title>Node1&#45;&gt;Node16</title>
<path fill="none" stroke="#63b8ff" d="M102.07,-215.85C123.72,-194.87 165.69,-157.09 208,-135 210.89,-133.49 213.89,-132.06 216.96,-130.71"/>
<polygon fill="#63b8ff" stroke="#63b8ff" points="218.24,-133.97 226.2,-126.97 215.62,-127.48 218.24,-133.97"/>
</g>
<!-- Node17 -->
<g id="node17" class="node">
<title>Node17</title>
<g id="a_node17"><a xlink:href="$classce103__hw4__medical__store__lib_1_1_supplier.html#adb3937b10b3159b30c99ebbfc69889cc" xlink:title=" ">
<polygon fill="white" stroke="#666666" points="361,-78 217,-78 217,-48 361,-48 361,-78"/>
<text text-anchor="start" x="225" y="-66" font-family="Helvetica,sans-Serif" font-size="10.00">ce103_hw4_medical_store</text>
<text text-anchor="middle" x="289" y="-55" font-family="Helvetica,sans-Serif" font-size="10.00">_lib.Supplier.getsuppliername</text>
</a>
</g>
</g>
<!-- Node1&#45;&gt;Node17 -->
<g id="edge17" class="edge">
<title>Node1&#45;&gt;Node17</title>
<path fill="none" stroke="#63b8ff" d="M95.54,-215.88C112.87,-186.56 155.07,-121.81 208,-87 209.86,-85.78 211.79,-84.61 213.77,-83.5"/>
<polygon fill="#63b8ff" stroke="#63b8ff" points="215.24,-86.68 222.65,-79.11 212.14,-80.41 215.24,-86.68"/>
</g>
<!-- Node18 -->
<g id="node18" class="node">
<title>Node18</title>
<g id="a_node18"><a xlink:href="$classce103__hw4__medical__store__lib_1_1_file_utility.html#aac1f545c958fe49778c588ce463e809d" xlink:title=" ">
<polygon fill="white" stroke="#666666" points="354.5,-30 223.5,-30 223.5,0 354.5,0 354.5,-30"/>
<text text-anchor="start" x="231.5" y="-18" font-family="Helvetica,sans-Serif" font-size="10.00">ce103_hw4_medical_store</text>
<text text-anchor="middle" x="289" y="-7" font-family="Helvetica,sans-Serif" font-size="10.00">_lib.FileUtility.readBlock</text>
</a>
</g>
</g>
<!-- Node1&#45;&gt;Node18 -->
<g id="edge19" class="edge">
<title>Node1&#45;&gt;Node18</title>
<path fill="none" stroke="#63b8ff" d="M92.32,-215.67C105.74,-179.32 144.48,-87.28 208,-39 209.73,-37.68 211.53,-36.44 213.4,-35.26"/>
<polygon fill="#63b8ff" stroke="#63b8ff" points="214.7,-38.54 221.78,-30.66 211.33,-32.4 214.7,-38.54"/>
</g>
<!-- Node3 -->
<g id="node3" class="node">
<title>Node3</title>
<g id="a_node3"><a xlink:href="$classce103__hw4__medical__store__lib_1_1_conversion_utility.html#a73bfc22165c4d39e288482818b96f6a1" xlink:title=" ">
<polygon fill="white" stroke="#666666" points="564,-719.5 412,-719.5 412,-678.5 564,-678.5 564,-719.5"/>
<text text-anchor="start" x="420" y="-707.5" font-family="Helvetica,sans-Serif" font-size="10.00">ce103_hw4_medical_store</text>
<text text-anchor="start" x="420" y="-696.5" font-family="Helvetica,sans-Serif" font-size="10.00">_lib.ConversionUtility.byteArray</text>
<text text-anchor="middle" x="488" y="-685.5" font-family="Helvetica,sans-Serif" font-size="10.00">ToInteger</text>
</a>
</g>
</g>
<!-- Node2&#45;&gt;Node3 -->
<g id="edge2" class="edge">
<title>Node2&#45;&gt;Node3</title>
<path fill="none" stroke="#63b8ff" d="M300.24,-534.77C317.59,-567.92 355.83,-632.83 406,-670 406.99,-670.73 408,-671.45 409.03,-672.15"/>
<polygon fill="#63b8ff" stroke="#63b8ff" points="407.04,-675.04 417.41,-677.22 410.67,-669.05 407.04,-675.04"/>
</g>
<!-- Node4 -->
<g id="node4" class="node">
<title>Node4</title>
<g id="a_node4"><a xlink:href="$classce103__hw4__medical__store__lib_1_1_conversion_utility.html#a202f8f242fa0c940170289cb2b08b1f7" xlink:title=" ">
<polygon fill="white" stroke="#666666" points="564,-660.5 412,-660.5 412,-619.5 564,-619.5 564,-660.5"/>
<text text-anchor="start" x="420" y="-648.5" font-family="Helvetica,sans-Serif" font-size="10.00">ce103_hw4_medical_store</text>
<text text-anchor="start" x="420" y="-637.5" font-family="Helvetica,sans-Serif" font-size="10.00">_lib.ConversionUtility.byteArray</text>
<text text-anchor="middle" x="488" y="-626.5" font-family="Helvetica,sans-Serif" font-size="10.00">ToString</text>
</a>
</g>
</g>
<!-- Node2&#45;&gt;Node4 -->
<g id="edge3" class="edge">
<title>Node2&#45;&gt;Node4</title>
<path fill="none" stroke="#63b8ff" d="M310.59,-534.77C332.61,-556.02 369.31,-588.85 406,-610 408.59,-611.49 411.27,-612.94 414,-614.33"/>
<polygon fill="#63b8ff" stroke="#63b8ff" points="412.22,-617.35 422.75,-618.48 415.22,-611.03 412.22,-617.35"/>
</g>
<!-- Node5 -->
<g id="node5" class="node">
<title>Node5</title>
<g id="a_node5"><a xlink:href="$classce103__hw4__medical__store__lib_1_1_supplier.html#a63e69b6765041b2217c0411560f543d4" xlink:title=" ">
<polygon fill="white" stroke="#666666" points="553.5,-601 422.5,-601 422.5,-571 553.5,-571 553.5,-601"/>
<text text-anchor="start" x="430.5" y="-589" font-family="Helvetica,sans-Serif" font-size="10.00">ce103_hw4_medical_store</text>
<text text-anchor="middle" x="488" y="-578" font-family="Helvetica,sans-Serif" font-size="10.00">_lib.Supplier.setCity</text>
</a>
</g>
</g>
<!-- Node2&#45;&gt;Node5 -->
<g id="edge4" class="edge">
<title>Node2&#45;&gt;Node5</title>
<path fill="none" stroke="#63b8ff" d="M337.54,-534.98C358.36,-543.83 383.19,-553.93 406,-562 410.93,-563.74 416.05,-565.47 421.22,-567.14"/>
<polygon fill="#63b8ff" stroke="#63b8ff" points="419.82,-570.37 430.41,-570.04 421.93,-563.69 419.82,-570.37"/>
</g>
<!-- Node6 -->
<g id="node6" class="node">
<title>Node6</title>
<g id="a_node6"><a xlink:href="$classce103__hw4__medical__store__lib_1_1_supplier.html#aa287ef6ae91ce808df837776ddb76c19" xlink:title=" ">
<polygon fill="white" stroke="#666666" points="554,-553 422,-553 422,-523 554,-523 554,-553"/>
<text text-anchor="start" x="430" y="-541" font-family="Helvetica,sans-Serif" font-size="10.00">ce103_hw4_medical_store</text>
<text text-anchor="middle" x="488" y="-530" font-family="Helvetica,sans-Serif" font-size="10.00">_lib.Supplier.setContactNo</text>
</a>
</g>
</g>
<!-- Node2&#45;&gt;Node6 -->
<g id="edge5" class="edge">
<title>Node2&#45;&gt;Node6</title>
<path fill="none" stroke="#63b8ff" d="M359.45,-522.46C376.08,-524.49 393.93,-526.66 410.84,-528.72"/>
<polygon fill="#63b8ff" stroke="#63b8ff" points="409.95,-532.14 420.3,-529.87 410.79,-525.19 409.95,-532.14"/>
</g>
<!-- Node7 -->
<g id="node7" class="node">
<title>Node7</title>
<g id="a_node7"><a xlink:href="$classce103__hw4__medical__store__lib_1_1_supplier.html#ad1b1647cc905e9c92aad10a6a2bf244a" xlink:title=" ">
<polygon fill="white" stroke="#666666" points="553.5,-505 422.5,-505 422.5,-475 553.5,-475 553.5,-505"/>
<text text-anchor="start" x="430.5" y="-493" font-family="Helvetica,sans-Serif" font-size="10.00">ce103_hw4_medical_store</text>
<text text-anchor="middle" x="488" y="-482" font-family="Helvetica,sans-Serif" font-size="10.00">_lib.Supplier.setemailID</text>
</a>
</g>
</g>
<!-- Node2&#45;&gt;Node7 -->
<g id="edge6" class="edge">
<title>Node2&#45;&gt;Node7</title>
<path fill="none" stroke="#63b8ff" d="M359.45,-505.54C376.18,-503.5 394.12,-501.32 411.12,-499.24"/>
<polygon fill="#63b8ff" stroke="#63b8ff" points="411.12,-502.77 420.63,-498.09 410.28,-495.82 411.12,-502.77"/>
</g>
<!-- Node8 -->
<g id="node8" class="node">
<title>Node8</title>
<g id="a_node8"><a xlink:href="$classce103__hw4__medical__store__lib_1_1_supplier.html#a447efde29cb96c324429232d65f41e52" xlink:title=" ">
<polygon fill="white" stroke="#666666" points="553.5,-457 422.5,-457 422.5,-427 553.5,-427 553.5,-457"/>
<text text-anchor="start" x="430.5" y="-445" font-family="Helvetica,sans-Serif" font-size="10.00">ce103_hw4_medical_store</text>
<text text-anchor="middle" x="488" y="-434" font-family="Helvetica,sans-Serif" font-size="10.00">_lib.Supplier.setsupplierId</text>
</a>
</g>
</g>
<!-- Node2&#45;&gt;Node8 -->
<g id="edge7" class="edge">
<title>Node2&#45;&gt;Node8</title>
<path fill="none" stroke="#63b8ff" d="M337.54,-493.02C358.36,-484.17 383.19,-474.07 406,-466 410.93,-464.26 416.05,-462.53 421.22,-460.86"/>
<polygon fill="#63b8ff" stroke="#63b8ff" points="421.93,-464.31 430.41,-457.96 419.82,-457.63 421.93,-464.31"/>
</g>
<!-- Node9 -->
<g id="node9" class="node">
<title>Node9</title>
<g id="a_node9"><a xlink:href="$classce103__hw4__medical__store__lib_1_1_supplier.html#a673179f4d8714ef18b4053fe3b75a0a4" xlink:title=" ">
<polygon fill="white" stroke="#666666" points="560,-409 416,-409 416,-379 560,-379 560,-409"/>
<text text-anchor="start" x="424" y="-397" font-family="Helvetica,sans-Serif" font-size="10.00">ce103_hw4_medical_store</text>
<text text-anchor="middle" x="488" y="-386" font-family="Helvetica,sans-Serif" font-size="10.00">_lib.Supplier.setsuppliername</text>
</a>
</g>
</g>
<!-- Node2&#45;&gt;Node9 -->
<g id="edge8" class="edge">
<title>Node2&#45;&gt;Node9</title>
<path fill="none" stroke="#63b8ff" d="M309.92,-493.13C331.65,-471.48 368.4,-438.04 406,-418 408.85,-416.48 411.81,-415.04 414.84,-413.69"/>
<polygon fill="#63b8ff" stroke="#63b8ff" points="416.02,-416.99 423.95,-409.96 413.37,-410.51 416.02,-416.99"/>
</g>
<!-- Node11&#45;&gt;Node10 -->
<g id="edge11" class="edge">
<title>Node11&#45;&gt;Node10</title>
<path fill="none" stroke="#63b8ff" d="M370.41,-343.04C381.74,-343.33 393.4,-343.62 404.77,-343.91"/>
<polygon fill="#63b8ff" stroke="#63b8ff" points="404.41,-347.4 414.5,-344.16 404.59,-340.41 404.41,-347.4"/>
</g>
<!-- Node11&#45;&gt;Node12 -->
<g id="edge12" class="edge">
<title>Node11&#45;&gt;Node12</title>
<path fill="none" stroke="#63b8ff" d="M360.84,-325.54C375.17,-322.41 390.35,-319.1 405.02,-315.89"/>
<polygon fill="#63b8ff" stroke="#63b8ff" points="405.62,-319.35 414.64,-313.79 404.13,-312.51 405.62,-319.35"/>
</g>
</g>
</svg>
