<?xml version="1.0" encoding="UTF-8" standalone="no"?>
<!DOCTYPE svg PUBLIC "-//W3C//DTD SVG 1.1//EN"
 "http://www.w3.org/Graphics/SVG/1.1/DTD/svg11.dtd">
<!-- Generated by graphviz version 7.0.4 (20221203.1631)
 -->
<!-- Title: ce103_hw4_medical_store_lib.Customer.ByteArrayBlockToCustomer Pages: 1 -->
<svg width="344pt" height="349pt"
 viewBox="0.00 0.00 344.00 348.50" xmlns="http://www.w3.org/2000/svg" xmlns:xlink="http://www.w3.org/1999/xlink">
<g id="graph0" class="graph" transform="scale(1 1) rotate(0) translate(4 344.5)">
<title>ce103_hw4_medical_store_lib.Customer.ByteArrayBlockToCustomer</title>
<!-- Node1 -->
<g id="node1" class="node">
<title>Node1</title>
<g id="a_node1"><a xlink:title=" ">
<polygon fill="#999999" stroke="#666666" points="148,-179.5 0,-179.5 0,-138.5 148,-138.5 148,-179.5"/>
<text text-anchor="start" x="8" y="-167.5" font-family="Helvetica,sans-Serif" font-size="10.00">ce103_hw4_medical_store</text>
<text text-anchor="start" x="8" y="-156.5" font-family="Helvetica,sans-Serif" font-size="10.00">_lib.Customer.ByteArrayBlock</text>
<text text-anchor="middle" x="74" y="-145.5" font-family="Helvetica,sans-Serif" font-size="10.00">ToCustomer</text>
</a>
</g>
</g>
<!-- Node2 -->
<g id="node2" class="node">
<title>Node2</title>
<g id="a_node2"><a xlink:href="$classce103__hw4__medical__store__lib_1_1_conversion_utility.html#a73bfc22165c4d39e288482818b96f6a1" xlink:title=" ">
<polygon fill="white" stroke="#666666" points="336,-340.5 184,-340.5 184,-299.5 336,-299.5 336,-340.5"/>
<text text-anchor="start" x="192" y="-328.5" font-family="Helvetica,sans-Serif" font-size="10.00">ce103_hw4_medical_store</text>
<text text-anchor="start" x="192" y="-317.5" font-family="Helvetica,sans-Serif" font-size="10.00">_lib.ConversionUtility.byteArray</text>
<text text-anchor="middle" x="260" y="-306.5" font-family="Helvetica,sans-Serif" font-size="10.00">ToInteger</text>
</a>
</g>
</g>
<!-- Node1&#45;&gt;Node2 -->
<g id="edge1" class="edge">
<title>Node1&#45;&gt;Node2</title>
<path fill="none" stroke="#63b8ff" d="M87.24,-179.68C105.16,-208.33 141.09,-260.06 184,-291 185.15,-291.83 186.32,-292.63 187.52,-293.42"/>
<polygon fill="#63b8ff" stroke="#63b8ff" points="185.37,-296.22 195.76,-298.3 188.94,-290.2 185.37,-296.22"/>
</g>
<!-- Node3 -->
<g id="node3" class="node">
<title>Node3</title>
<g id="a_node3"><a xlink:href="$classce103__hw4__medical__store__lib_1_1_conversion_utility.html#a202f8f242fa0c940170289cb2b08b1f7" xlink:title=" ">
<polygon fill="white" stroke="#666666" points="336,-281.5 184,-281.5 184,-240.5 336,-240.5 336,-281.5"/>
<text text-anchor="start" x="192" y="-269.5" font-family="Helvetica,sans-Serif" font-size="10.00">ce103_hw4_medical_store</text>
<text text-anchor="start" x="192" y="-258.5" font-family="Helvetica,sans-Serif" font-size="10.00">_lib.ConversionUtility.byteArray</text>
<text text-anchor="middle" x="260" y="-247.5" font-family="Helvetica,sans-Serif" font-size="10.00">ToString</text>
</a>
</g>
</g>
<!-- Node1&#45;&gt;Node3 -->
<g id="edge2" class="edge">
<title>Node1&#45;&gt;Node3</title>
<path fill="none" stroke="#63b8ff" d="M103.17,-179.91C124.62,-195.26 155.27,-215.96 184,-231 186.85,-232.49 189.8,-233.96 192.8,-235.39"/>
<polygon fill="#63b8ff" stroke="#63b8ff" points="191.21,-238.52 201.76,-239.5 194.12,-232.15 191.21,-238.52"/>
</g>
<!-- Node4 -->
<g id="node4" class="node">
<title>Node4</title>
<g id="a_node4"><a xlink:href="$classce103__hw4__medical__store__lib_1_1_customer.html#a8443925c23f0315b80f1f5f6f5f7267b" xlink:title=" ">
<polygon fill="white" stroke="#666666" points="325.5,-222 194.5,-222 194.5,-192 325.5,-192 325.5,-222"/>
<text text-anchor="start" x="202.5" y="-210" font-family="Helvetica,sans-Serif" font-size="10.00">ce103_hw4_medical_store</text>
<text text-anchor="middle" x="260" y="-199" font-family="Helvetica,sans-Serif" font-size="10.00">_lib.Customer.setCity</text>
</a>
</g>
</g>
<!-- Node1&#45;&gt;Node4 -->
<g id="edge3" class="edge">
<title>Node1&#45;&gt;Node4</title>
<path fill="none" stroke="#63b8ff" d="M148.25,-178.11C161.64,-181.6 175.58,-185.24 188.88,-188.71"/>
<polygon fill="#63b8ff" stroke="#63b8ff" points="187.84,-192.05 198.4,-191.19 189.61,-185.28 187.84,-192.05"/>
</g>
<!-- Node5 -->
<g id="node5" class="node">
<title>Node5</title>
<g id="a_node5"><a xlink:href="$classce103__hw4__medical__store__lib_1_1_customer.html#a7189e6165587d2ae32a164eb7497f24e" xlink:title=" ">
<polygon fill="white" stroke="#666666" points="325.5,-174 194.5,-174 194.5,-144 325.5,-144 325.5,-174"/>
<text text-anchor="start" x="202.5" y="-162" font-family="Helvetica,sans-Serif" font-size="10.00">ce103_hw4_medical_store</text>
<text text-anchor="middle" x="260" y="-151" font-family="Helvetica,sans-Serif" font-size="10.00">_lib.Customer.setEmail</text>
</a>
</g>
</g>
<!-- Node1&#45;&gt;Node5 -->
<g id="edge4" class="edge">
<title>Node1&#45;&gt;Node5</title>
<path fill="none" stroke="#63b8ff" d="M148.25,-159C159.6,-159 171.35,-159 182.76,-159"/>
<polygon fill="#63b8ff" stroke="#63b8ff" points="182.52,-162.5 192.52,-159 182.52,-155.5 182.52,-162.5"/>
</g>
<!-- Node6 -->
<g id="node6" class="node">
<title>Node6</title>
<g id="a_node6"><a xlink:href="$classce103__hw4__medical__store__lib_1_1_customer.html#abb0726c60d6cd6fe879ef443f4378562" xlink:title=" ">
<polygon fill="white" stroke="#666666" points="325.5,-126 194.5,-126 194.5,-96 325.5,-96 325.5,-126"/>
<text text-anchor="start" x="202.5" y="-114" font-family="Helvetica,sans-Serif" font-size="10.00">ce103_hw4_medical_store</text>
<text text-anchor="middle" x="260" y="-103" font-family="Helvetica,sans-Serif" font-size="10.00">_lib.Customer.setId</text>
</a>
</g>
</g>
<!-- Node1&#45;&gt;Node6 -->
<g id="edge5" class="edge">
<title>Node1&#45;&gt;Node6</title>
<path fill="none" stroke="#63b8ff" d="M148.25,-139.89C161.64,-136.4 175.58,-132.76 188.88,-129.29"/>
<polygon fill="#63b8ff" stroke="#63b8ff" points="189.61,-132.72 198.4,-126.81 187.84,-125.95 189.61,-132.72"/>
</g>
<!-- Node7 -->
<g id="node7" class="node">
<title>Node7</title>
<g id="a_node7"><a xlink:href="$classce103__hw4__medical__store__lib_1_1_customer.html#a43138a44bcc676b1f218b27c1b1e4c41" xlink:title=" ">
<polygon fill="white" stroke="#666666" points="325.5,-78 194.5,-78 194.5,-48 325.5,-48 325.5,-78"/>
<text text-anchor="start" x="202.5" y="-66" font-family="Helvetica,sans-Serif" font-size="10.00">ce103_hw4_medical_store</text>
<text text-anchor="middle" x="260" y="-55" font-family="Helvetica,sans-Serif" font-size="10.00">_lib.Customer.setName</text>
</a>
</g>
</g>
<!-- Node1&#45;&gt;Node7 -->
<g id="edge6" class="edge">
<title>Node1&#45;&gt;Node7</title>
<path fill="none" stroke="#63b8ff" d="M101.98,-138.14C123.31,-122.42 154.34,-101.21 184,-87 187.27,-85.43 190.66,-83.94 194.12,-82.51"/>
<polygon fill="#63b8ff" stroke="#63b8ff" points="195.17,-85.86 203.23,-78.98 192.64,-79.33 195.17,-85.86"/>
</g>
<!-- Node8 -->
<g id="node8" class="node">
<title>Node8</title>
<g id="a_node8"><a xlink:href="$classce103__hw4__medical__store__lib_1_1_customer.html#a772a54475697df032e12e788b54e8dc6" xlink:title=" ">
<polygon fill="white" stroke="#666666" points="325.5,-30 194.5,-30 194.5,0 325.5,0 325.5,-30"/>
<text text-anchor="start" x="202.5" y="-18" font-family="Helvetica,sans-Serif" font-size="10.00">ce103_hw4_medical_store</text>
<text text-anchor="middle" x="260" y="-7" font-family="Helvetica,sans-Serif" font-size="10.00">_lib.Customer.setNum</text>
</a>
</g>
</g>
<!-- Node1&#45;&gt;Node8 -->
<g id="edge7" class="edge">
<title>Node1&#45;&gt;Node8</title>
<path fill="none" stroke="#63b8ff" d="M88.71,-138.11C107.26,-111.41 142.81,-65.49 184,-39 185.98,-37.73 188.03,-36.52 190.13,-35.37"/>
<polygon fill="#63b8ff" stroke="#63b8ff" points="191.47,-38.61 198.93,-31.08 188.41,-32.32 191.47,-38.61"/>
</g>
</g>
</svg>
