<?xml version="1.0" encoding="UTF-8" standalone="no"?>
<!DOCTYPE svg PUBLIC "-//W3C//DTD SVG 1.1//EN"
 "http://www.w3.org/Graphics/SVG/1.1/DTD/svg11.dtd">
<!-- Generated by graphviz version 7.0.4 (20221203.1631)
 -->
<!-- Title: ce103_hw4_medical_store_lib.Supplier.supplierToByteArrayBlock Pages: 1 -->
<svg width="325pt" height="349pt"
 viewBox="0.00 0.00 325.00 348.50" xmlns="http://www.w3.org/2000/svg" xmlns:xlink="http://www.w3.org/1999/xlink">
<g id="graph0" class="graph" transform="scale(1 1) rotate(0) translate(4 344.5)">
<title>ce103_hw4_medical_store_lib.Supplier.supplierToByteArrayBlock</title>
<!-- Node1 -->
<g id="node1" class="node">
<title>Node1</title>
<g id="a_node1"><a xlink:title=" ">
<polygon fill="#999999" stroke="#666666" points="137,-202 0,-202 0,-161 137,-161 137,-202"/>
<text text-anchor="start" x="8" y="-190" font-family="Helvetica,sans-Serif" font-size="10.00">ce103_hw4_medical_store</text>
<text text-anchor="start" x="8" y="-179" font-family="Helvetica,sans-Serif" font-size="10.00">_lib.Supplier.supplierToByte</text>
<text text-anchor="middle" x="68.5" y="-168" font-family="Helvetica,sans-Serif" font-size="10.00">ArrayBlock</text>
</a>
</g>
</g>
<!-- Node2 -->
<g id="node2" class="node">
<title>Node2</title>
<g id="a_node2"><a xlink:href="$classce103__hw4__medical__store__lib_1_1_supplier.html#a735a56c6c0308a2f0ee870075f7bc320" xlink:title=" ">
<polygon fill="white" stroke="#666666" points="310.5,-340.5 179.5,-340.5 179.5,-310.5 310.5,-310.5 310.5,-340.5"/>
<text text-anchor="start" x="187.5" y="-328.5" font-family="Helvetica,sans-Serif" font-size="10.00">ce103_hw4_medical_store</text>
<text text-anchor="middle" x="245" y="-317.5" font-family="Helvetica,sans-Serif" font-size="10.00">_lib.Supplier.getCity</text>
</a>
</g>
</g>
<!-- Node1&#45;&gt;Node2 -->
<g id="edge1" class="edge">
<title>Node1&#45;&gt;Node2</title>
<path fill="none" stroke="#63b8ff" d="M82.33,-202.32C99.75,-228.94 133.29,-274.77 173,-301.5 174.82,-302.73 176.71,-303.9 178.65,-305.01"/>
<polygon fill="#63b8ff" stroke="#63b8ff" points="176.86,-308.02 187.36,-309.44 180.04,-301.79 176.86,-308.02"/>
</g>
<!-- Node3 -->
<g id="node3" class="node">
<title>Node3</title>
<g id="a_node3"><a xlink:href="$classce103__hw4__medical__store__lib_1_1_supplier.html#af1622d0e0af60af6763a2283e987b4a2" xlink:title=" ">
<polygon fill="white" stroke="#666666" points="311,-292.5 179,-292.5 179,-262.5 311,-262.5 311,-292.5"/>
<text text-anchor="start" x="187" y="-280.5" font-family="Helvetica,sans-Serif" font-size="10.00">ce103_hw4_medical_store</text>
<text text-anchor="middle" x="245" y="-269.5" font-family="Helvetica,sans-Serif" font-size="10.00">_lib.Supplier.getContactNo</text>
</a>
</g>
</g>
<!-- Node1&#45;&gt;Node3 -->
<g id="edge2" class="edge">
<title>Node1&#45;&gt;Node3</title>
<path fill="none" stroke="#63b8ff" d="M95.02,-202.31C115.22,-218.01 144.66,-239.21 173,-253.5 175.89,-254.96 178.88,-256.35 181.94,-257.69"/>
<polygon fill="#63b8ff" stroke="#63b8ff" points="180.51,-260.89 191.09,-261.44 183.16,-254.41 180.51,-260.89"/>
</g>
<!-- Node4 -->
<g id="node4" class="node">
<title>Node4</title>
<g id="a_node4"><a xlink:href="$classce103__hw4__medical__store__lib_1_1_supplier.html#a99a20bfe60b8ce74d349418a92f0c660" xlink:title=" ">
<polygon fill="white" stroke="#666666" points="310.5,-244.5 179.5,-244.5 179.5,-214.5 310.5,-214.5 310.5,-244.5"/>
<text text-anchor="start" x="187.5" y="-232.5" font-family="Helvetica,sans-Serif" font-size="10.00">ce103_hw4_medical_store</text>
<text text-anchor="middle" x="245" y="-221.5" font-family="Helvetica,sans-Serif" font-size="10.00">_lib.Supplier.getemailID</text>
</a>
</g>
</g>
<!-- Node1&#45;&gt;Node4 -->
<g id="edge3" class="edge">
<title>Node1&#45;&gt;Node4</title>
<path fill="none" stroke="#63b8ff" d="M137.47,-200.2C150.47,-203.77 164.09,-207.52 177.06,-211.09"/>
<polygon fill="#63b8ff" stroke="#63b8ff" points="175.76,-214.36 186.33,-213.64 177.61,-207.61 175.76,-214.36"/>
</g>
<!-- Node5 -->
<g id="node5" class="node">
<title>Node5</title>
<g id="a_node5"><a xlink:href="$classce103__hw4__medical__store__lib_1_1_supplier.html#a37b7283600f4fa52dec2d2e686e99899" xlink:title=" ">
<polygon fill="white" stroke="#666666" points="310.5,-196.5 179.5,-196.5 179.5,-166.5 310.5,-166.5 310.5,-196.5"/>
<text text-anchor="start" x="187.5" y="-184.5" font-family="Helvetica,sans-Serif" font-size="10.00">ce103_hw4_medical_store</text>
<text text-anchor="middle" x="245" y="-173.5" font-family="Helvetica,sans-Serif" font-size="10.00">_lib.Supplier.getsupplierId</text>
</a>
</g>
</g>
<!-- Node1&#45;&gt;Node5 -->
<g id="edge4" class="edge">
<title>Node1&#45;&gt;Node5</title>
<path fill="none" stroke="#63b8ff" d="M137.47,-181.5C147.41,-181.5 157.7,-181.5 167.8,-181.5"/>
<polygon fill="#63b8ff" stroke="#63b8ff" points="167.57,-185 177.57,-181.5 167.57,-178 167.57,-185"/>
</g>
<!-- Node6 -->
<g id="node6" class="node">
<title>Node6</title>
<g id="a_node6"><a xlink:href="$classce103__hw4__medical__store__lib_1_1_supplier.html#adb3937b10b3159b30c99ebbfc69889cc" xlink:title=" ">
<polygon fill="white" stroke="#666666" points="317,-148.5 173,-148.5 173,-118.5 317,-118.5 317,-148.5"/>
<text text-anchor="start" x="181" y="-136.5" font-family="Helvetica,sans-Serif" font-size="10.00">ce103_hw4_medical_store</text>
<text text-anchor="middle" x="245" y="-125.5" font-family="Helvetica,sans-Serif" font-size="10.00">_lib.Supplier.getsuppliername</text>
</a>
</g>
</g>
<!-- Node1&#45;&gt;Node6 -->
<g id="edge5" class="edge">
<title>Node1&#45;&gt;Node6</title>
<path fill="none" stroke="#63b8ff" d="M137.47,-162.8C150.47,-159.23 164.09,-155.48 177.06,-151.91"/>
<polygon fill="#63b8ff" stroke="#63b8ff" points="177.61,-155.39 186.33,-149.36 175.76,-148.64 177.61,-155.39"/>
</g>
<!-- Node7 -->
<g id="node7" class="node">
<title>Node7</title>
<g id="a_node7"><a xlink:href="$classce103__hw4__medical__store__lib_1_1_conversion_utility.html#a8e0f93579075d0a1b0800e05bbcd66af" xlink:title=" ">
<polygon fill="white" stroke="#666666" points="314.5,-100 175.5,-100 175.5,-59 314.5,-59 314.5,-100"/>
<text text-anchor="start" x="183.5" y="-88" font-family="Helvetica,sans-Serif" font-size="10.00">ce103_hw4_medical_store</text>
<text text-anchor="start" x="183.5" y="-77" font-family="Helvetica,sans-Serif" font-size="10.00">_lib.ConversionUtility.integer</text>
<text text-anchor="middle" x="245" y="-66" font-family="Helvetica,sans-Serif" font-size="10.00">ToByteArray</text>
</a>
</g>
</g>
<!-- Node1&#45;&gt;Node7 -->
<g id="edge6" class="edge">
<title>Node1&#45;&gt;Node7</title>
<path fill="none" stroke="#63b8ff" d="M96.17,-160.63C116.51,-145.31 145.59,-124.61 173,-109.5 175.51,-108.12 178.1,-106.75 180.74,-105.42"/>
<polygon fill="#63b8ff" stroke="#63b8ff" points="182.23,-108.58 189.71,-101.07 179.18,-102.28 182.23,-108.58"/>
</g>
<!-- Node8 -->
<g id="node8" class="node">
<title>Node8</title>
<g id="a_node8"><a xlink:href="$classce103__hw4__medical__store__lib_1_1_conversion_utility.html#ab0ff4b89697d8bd6cc3b3a1141a86e3d" xlink:title=" ">
<polygon fill="white" stroke="#666666" points="312,-41 178,-41 178,0 312,0 312,-41"/>
<text text-anchor="start" x="186" y="-29" font-family="Helvetica,sans-Serif" font-size="10.00">ce103_hw4_medical_store</text>
<text text-anchor="start" x="186" y="-18" font-family="Helvetica,sans-Serif" font-size="10.00">_lib.ConversionUtility.string</text>
<text text-anchor="middle" x="245" y="-7" font-family="Helvetica,sans-Serif" font-size="10.00">ToByteArray</text>
</a>
</g>
</g>
<!-- Node1&#45;&gt;Node8 -->
<g id="edge7" class="edge">
<title>Node1&#45;&gt;Node8</title>
<path fill="none" stroke="#63b8ff" d="M81.33,-160.66C98.33,-132.31 132.19,-81.59 173,-50.5 174.5,-49.36 176.05,-48.25 177.64,-47.18"/>
<polygon fill="#63b8ff" stroke="#63b8ff" points="179.1,-50.38 185.82,-42.19 175.46,-44.4 179.1,-50.38"/>
</g>
</g>
</svg>
