<?xml version="1.0" encoding="UTF-8" standalone="no"?>
<!DOCTYPE svg PUBLIC "-//W3C//DTD SVG 1.1//EN"
 "http://www.w3.org/Graphics/SVG/1.1/DTD/svg11.dtd">
<!-- Generated by graphviz version 7.0.4 (20221203.1631)
 -->
<!-- Title: ce103_hw4_medical_store_lib.Medicine.medicineToByteArrayBlock Pages: 1 -->
<svg width="345pt" height="637pt"
 viewBox="0.00 0.00 345.00 636.50" xmlns="http://www.w3.org/2000/svg" xmlns:xlink="http://www.w3.org/1999/xlink">
<g id="graph0" class="graph" transform="scale(1 1) rotate(0) translate(4 632.5)">
<title>ce103_hw4_medical_store_lib.Medicine.medicineToByteArrayBlock</title>
<!-- Node1 -->
<g id="node1" class="node">
<title>Node1</title>
<g id="a_node1"><a xlink:title=" ">
<polygon fill="#999999" stroke="#666666" points="146,-346 0,-346 0,-305 146,-305 146,-346"/>
<text text-anchor="start" x="8" y="-334" font-family="Helvetica,sans-Serif" font-size="10.00">ce103_hw4_medical_store</text>
<text text-anchor="start" x="8" y="-323" font-family="Helvetica,sans-Serif" font-size="10.00">_lib.Medicine.medicineToByte</text>
<text text-anchor="middle" x="73" y="-312" font-family="Helvetica,sans-Serif" font-size="10.00">ArrayBlock</text>
</a>
</g>
</g>
<!-- Node2 -->
<g id="node2" class="node">
<title>Node2</title>
<g id="a_node2"><a xlink:href="$classce103__hw4__medical__store__lib_1_1_medicine.html#a7f1a70d47380ba5ae74fbeb571ea0ff0" xlink:title=" ">
<polygon fill="white" stroke="#666666" points="325,-628.5 194,-628.5 194,-598.5 325,-598.5 325,-628.5"/>
<text text-anchor="start" x="202" y="-616.5" font-family="Helvetica,sans-Serif" font-size="10.00">ce103_hw4_medical_store</text>
<text text-anchor="middle" x="259.5" y="-605.5" font-family="Helvetica,sans-Serif" font-size="10.00">_lib.Medicine.getCabnitno</text>
</a>
</g>
</g>
<!-- Node1&#45;&gt;Node2 -->
<g id="edge1" class="edge">
<title>Node1&#45;&gt;Node2</title>
<path fill="none" stroke="#63b8ff" d="M76.51,-346.38C83.56,-395.95 108.17,-521.64 182,-589.5 182.78,-590.22 183.59,-590.92 184.42,-591.6"/>
<polygon fill="#63b8ff" stroke="#63b8ff" points="182.44,-594.49 192.67,-597.24 186.39,-588.71 182.44,-594.49"/>
</g>
<!-- Node3 -->
<g id="node3" class="node">
<title>Node3</title>
<g id="a_node3"><a xlink:href="$classce103__hw4__medical__store__lib_1_1_medicine.html#a74ce7ec34dace6f6852660e099323ee0" xlink:title=" ">
<polygon fill="white" stroke="#666666" points="337,-580.5 182,-580.5 182,-550.5 337,-550.5 337,-580.5"/>
<text text-anchor="start" x="190" y="-568.5" font-family="Helvetica,sans-Serif" font-size="10.00">ce103_hw4_medical_store</text>
<text text-anchor="middle" x="259.5" y="-557.5" font-family="Helvetica,sans-Serif" font-size="10.00">_lib.Medicine.getCompanyname</text>
</a>
</g>
</g>
<!-- Node1&#45;&gt;Node3 -->
<g id="edge2" class="edge">
<title>Node1&#45;&gt;Node3</title>
<path fill="none" stroke="#63b8ff" d="M78.63,-346.42C89.22,-389.4 119.29,-488.08 182,-541.5 183.1,-542.44 184.24,-543.34 185.41,-544.21"/>
<polygon fill="#63b8ff" stroke="#63b8ff" points="183.33,-547.03 193.66,-549.39 187.05,-541.1 183.33,-547.03"/>
</g>
<!-- Node4 -->
<g id="node4" class="node">
<title>Node4</title>
<g id="a_node4"><a xlink:href="$classce103__hw4__medical__store__lib_1_1_medicine.html#a22bdefff626a496f3781aa2e566f93b0" xlink:title=" ">
<polygon fill="white" stroke="#666666" points="325,-532.5 194,-532.5 194,-502.5 325,-502.5 325,-532.5"/>
<text text-anchor="start" x="202" y="-520.5" font-family="Helvetica,sans-Serif" font-size="10.00">ce103_hw4_medical_store</text>
<text text-anchor="middle" x="259.5" y="-509.5" font-family="Helvetica,sans-Serif" font-size="10.00">_lib.Medicine.getExpdate</text>
</a>
</g>
</g>
<!-- Node1&#45;&gt;Node4 -->
<g id="edge3" class="edge">
<title>Node1&#45;&gt;Node4</title>
<path fill="none" stroke="#63b8ff" d="M81.84,-346.39C96.22,-381.89 130.17,-453.96 182,-493.5 183.35,-494.53 184.74,-495.51 186.17,-496.46"/>
<polygon fill="#63b8ff" stroke="#63b8ff" points="184.35,-499.45 194.77,-501.35 187.81,-493.36 184.35,-499.45"/>
</g>
<!-- Node5 -->
<g id="node5" class="node">
<title>Node5</title>
<g id="a_node5"><a xlink:href="$classce103__hw4__medical__store__lib_1_1_medicine.html#ae0a058f869ac524cb5e9ed0a17e46c00" xlink:title=" ">
<polygon fill="white" stroke="#666666" points="325,-484.5 194,-484.5 194,-454.5 325,-454.5 325,-484.5"/>
<text text-anchor="start" x="202" y="-472.5" font-family="Helvetica,sans-Serif" font-size="10.00">ce103_hw4_medical_store</text>
<text text-anchor="middle" x="259.5" y="-461.5" font-family="Helvetica,sans-Serif" font-size="10.00">_lib.Medicine.getId</text>
</a>
</g>
</g>
<!-- Node1&#45;&gt;Node5 -->
<g id="edge4" class="edge">
<title>Node1&#45;&gt;Node5</title>
<path fill="none" stroke="#63b8ff" d="M87.51,-346.44C105.82,-373.18 140.97,-419.14 182,-445.5 183.97,-446.76 186.01,-447.96 188.1,-449.11"/>
<polygon fill="#63b8ff" stroke="#63b8ff" points="186.32,-452.14 196.85,-453.36 189.38,-445.84 186.32,-452.14"/>
</g>
<!-- Node6 -->
<g id="node6" class="node">
<title>Node6</title>
<g id="a_node6"><a xlink:href="$classce103__hw4__medical__store__lib_1_1_medicine.html#a904d9c11fd249b1bd91c085296ce8379" xlink:title=" ">
<polygon fill="white" stroke="#666666" points="336,-436.5 183,-436.5 183,-406.5 336,-406.5 336,-436.5"/>
<text text-anchor="start" x="191" y="-424.5" font-family="Helvetica,sans-Serif" font-size="10.00">ce103_hw4_medical_store</text>
<text text-anchor="middle" x="259.5" y="-413.5" font-family="Helvetica,sans-Serif" font-size="10.00">_lib.Medicine.getMedicinename</text>
</a>
</g>
</g>
<!-- Node1&#45;&gt;Node6 -->
<g id="edge5" class="edge">
<title>Node1&#45;&gt;Node6</title>
<path fill="none" stroke="#63b8ff" d="M100.68,-346.42C121.79,-362.18 152.52,-383.41 182,-397.5 185.27,-399.06 188.66,-400.55 192.11,-401.97"/>
<polygon fill="#63b8ff" stroke="#63b8ff" points="190.62,-405.15 201.21,-405.47 193.14,-398.62 190.62,-405.15"/>
</g>
<!-- Node7 -->
<g id="node7" class="node">
<title>Node7</title>
<g id="a_node7"><a xlink:href="$classce103__hw4__medical__store__lib_1_1_medicine.html#a9335d85263321d2a98c73ba13c6b4143" xlink:title=" ">
<polygon fill="white" stroke="#666666" points="325,-388.5 194,-388.5 194,-358.5 325,-358.5 325,-388.5"/>
<text text-anchor="start" x="202" y="-376.5" font-family="Helvetica,sans-Serif" font-size="10.00">ce103_hw4_medical_store</text>
<text text-anchor="middle" x="259.5" y="-365.5" font-family="Helvetica,sans-Serif" font-size="10.00">_lib.Medicine.getMfgdate</text>
</a>
</g>
</g>
<!-- Node1&#45;&gt;Node7 -->
<g id="edge6" class="edge">
<title>Node1&#45;&gt;Node7</title>
<path fill="none" stroke="#63b8ff" d="M146.39,-344.33C160.17,-347.92 174.57,-351.67 188.28,-355.23"/>
<polygon fill="#63b8ff" stroke="#63b8ff" points="187.08,-358.54 197.64,-357.67 188.85,-351.76 187.08,-358.54"/>
</g>
<!-- Node8 -->
<g id="node8" class="node">
<title>Node8</title>
<g id="a_node8"><a xlink:href="$classce103__hw4__medical__store__lib_1_1_medicine.html#a0a6557a0382a15e7f3510f9007d5c3e3" xlink:title=" ">
<polygon fill="white" stroke="#666666" points="325,-340.5 194,-340.5 194,-310.5 325,-310.5 325,-340.5"/>
<text text-anchor="start" x="202" y="-328.5" font-family="Helvetica,sans-Serif" font-size="10.00">ce103_hw4_medical_store</text>
<text text-anchor="middle" x="259.5" y="-317.5" font-family="Helvetica,sans-Serif" font-size="10.00">_lib.Medicine.getQuantity</text>
</a>
</g>
</g>
<!-- Node1&#45;&gt;Node8 -->
<g id="edge7" class="edge">
<title>Node1&#45;&gt;Node8</title>
<path fill="none" stroke="#63b8ff" d="M146.39,-325.5C158.17,-325.5 170.41,-325.5 182.28,-325.5"/>
<polygon fill="#63b8ff" stroke="#63b8ff" points="182.01,-329 192.01,-325.5 182.01,-322 182.01,-329"/>
</g>
<!-- Node9 -->
<g id="node9" class="node">
<title>Node9</title>
<g id="a_node9"><a xlink:href="$classce103__hw4__medical__store__lib_1_1_medicine.html#aa8bbbfb594c665f8c36c8b49b8ebc391" xlink:title=" ">
<polygon fill="white" stroke="#666666" points="325,-292.5 194,-292.5 194,-262.5 325,-262.5 325,-292.5"/>
<text text-anchor="start" x="202" y="-280.5" font-family="Helvetica,sans-Serif" font-size="10.00">ce103_hw4_medical_store</text>
<text text-anchor="middle" x="259.5" y="-269.5" font-family="Helvetica,sans-Serif" font-size="10.00">_lib.Medicine.getRackno</text>
</a>
</g>
</g>
<!-- Node1&#45;&gt;Node9 -->
<g id="edge8" class="edge">
<title>Node1&#45;&gt;Node9</title>
<path fill="none" stroke="#63b8ff" d="M146.39,-306.67C160.17,-303.08 174.57,-299.33 188.28,-295.77"/>
<polygon fill="#63b8ff" stroke="#63b8ff" points="188.85,-299.24 197.64,-293.33 187.08,-292.46 188.85,-299.24"/>
</g>
<!-- Node10 -->
<g id="node10" class="node">
<title>Node10</title>
<g id="a_node10"><a xlink:href="$classce103__hw4__medical__store__lib_1_1_medicine.html#ae1dec56590f85ec5a3249783ba8329d4" xlink:title=" ">
<polygon fill="white" stroke="#666666" points="325,-244.5 194,-244.5 194,-214.5 325,-214.5 325,-244.5"/>
<text text-anchor="start" x="202" y="-232.5" font-family="Helvetica,sans-Serif" font-size="10.00">ce103_hw4_medical_store</text>
<text text-anchor="middle" x="259.5" y="-221.5" font-family="Helvetica,sans-Serif" font-size="10.00">_lib.Medicine.getSalecost</text>
</a>
</g>
</g>
<!-- Node1&#45;&gt;Node10 -->
<g id="edge9" class="edge">
<title>Node1&#45;&gt;Node10</title>
<path fill="none" stroke="#63b8ff" d="M100.68,-304.58C121.79,-288.82 152.52,-267.59 182,-253.5 185.27,-251.94 188.66,-250.45 192.11,-249.03"/>
<polygon fill="#63b8ff" stroke="#63b8ff" points="193.14,-252.38 201.21,-245.53 190.62,-245.85 193.14,-252.38"/>
</g>
<!-- Node11 -->
<g id="node11" class="node">
<title>Node11</title>
<g id="a_node11"><a xlink:href="$classce103__hw4__medical__store__lib_1_1_medicine.html#a1dd5fe09b47634908bc261dbad75c328" xlink:title=" ">
<polygon fill="white" stroke="#666666" points="334,-196.5 185,-196.5 185,-166.5 334,-166.5 334,-196.5"/>
<text text-anchor="start" x="193" y="-184.5" font-family="Helvetica,sans-Serif" font-size="10.00">ce103_hw4_medical_store</text>
<text text-anchor="middle" x="259.5" y="-173.5" font-family="Helvetica,sans-Serif" font-size="10.00">_lib.Medicine.getSuppliername</text>
</a>
</g>
</g>
<!-- Node1&#45;&gt;Node11 -->
<g id="edge10" class="edge">
<title>Node1&#45;&gt;Node11</title>
<path fill="none" stroke="#63b8ff" d="M87.51,-304.56C105.82,-277.82 140.97,-231.86 182,-205.5 183.97,-204.24 186.01,-203.04 188.1,-201.89"/>
<polygon fill="#63b8ff" stroke="#63b8ff" points="189.38,-205.16 196.85,-197.64 186.32,-198.86 189.38,-205.16"/>
</g>
<!-- Node12 -->
<g id="node12" class="node">
<title>Node12</title>
<g id="a_node12"><a xlink:href="$classce103__hw4__medical__store__lib_1_1_medicine.html#ae1a28d11b94f9042013c4a5c56f704f4" xlink:title=" ">
<polygon fill="white" stroke="#666666" points="325,-148.5 194,-148.5 194,-118.5 325,-118.5 325,-148.5"/>
<text text-anchor="start" x="202" y="-136.5" font-family="Helvetica,sans-Serif" font-size="10.00">ce103_hw4_medical_store</text>
<text text-anchor="middle" x="259.5" y="-125.5" font-family="Helvetica,sans-Serif" font-size="10.00">_lib.Medicine.getUnitcost</text>
</a>
</g>
</g>
<!-- Node1&#45;&gt;Node12 -->
<g id="edge11" class="edge">
<title>Node1&#45;&gt;Node12</title>
<path fill="none" stroke="#63b8ff" d="M81.84,-304.61C96.22,-269.11 130.17,-197.04 182,-157.5 183.35,-156.47 184.74,-155.49 186.17,-154.54"/>
<polygon fill="#63b8ff" stroke="#63b8ff" points="187.81,-157.64 194.77,-149.65 184.35,-151.55 187.81,-157.64"/>
</g>
<!-- Node13 -->
<g id="node13" class="node">
<title>Node13</title>
<g id="a_node13"><a xlink:href="$classce103__hw4__medical__store__lib_1_1_conversion_utility.html#a8e0f93579075d0a1b0800e05bbcd66af" xlink:title=" ">
<polygon fill="white" stroke="#666666" points="329,-100 190,-100 190,-59 329,-59 329,-100"/>
<text text-anchor="start" x="198" y="-88" font-family="Helvetica,sans-Serif" font-size="10.00">ce103_hw4_medical_store</text>
<text text-anchor="start" x="198" y="-77" font-family="Helvetica,sans-Serif" font-size="10.00">_lib.ConversionUtility.integer</text>
<text text-anchor="middle" x="259.5" y="-66" font-family="Helvetica,sans-Serif" font-size="10.00">ToByteArray</text>
</a>
</g>
</g>
<!-- Node1&#45;&gt;Node13 -->
<g id="edge12" class="edge">
<title>Node1&#45;&gt;Node13</title>
<path fill="none" stroke="#63b8ff" d="M79.02,-304.6C90.26,-262.1 121.34,-164.94 182,-109.5 182.92,-108.66 183.87,-107.84 184.84,-107.04"/>
<polygon fill="#63b8ff" stroke="#63b8ff" points="186.78,-109.96 192.91,-101.32 182.72,-104.25 186.78,-109.96"/>
</g>
<!-- Node14 -->
<g id="node14" class="node">
<title>Node14</title>
<g id="a_node14"><a xlink:href="$classce103__hw4__medical__store__lib_1_1_conversion_utility.html#ab0ff4b89697d8bd6cc3b3a1141a86e3d" xlink:title=" ">
<polygon fill="white" stroke="#666666" points="326.5,-41 192.5,-41 192.5,0 326.5,0 326.5,-41"/>
<text text-anchor="start" x="200.5" y="-29" font-family="Helvetica,sans-Serif" font-size="10.00">ce103_hw4_medical_store</text>
<text text-anchor="start" x="200.5" y="-18" font-family="Helvetica,sans-Serif" font-size="10.00">_lib.ConversionUtility.string</text>
<text text-anchor="middle" x="259.5" y="-7" font-family="Helvetica,sans-Serif" font-size="10.00">ToByteArray</text>
</a>
</g>
</g>
<!-- Node1&#45;&gt;Node14 -->
<g id="edge13" class="edge">
<title>Node1&#45;&gt;Node14</title>
<path fill="none" stroke="#63b8ff" d="M76.45,-304.86C83.47,-254.54 108.17,-124.29 182,-50.5 182.75,-49.75 183.52,-49.02 184.31,-48.3"/>
<polygon fill="#63b8ff" stroke="#63b8ff" points="186.42,-51.1 192.23,-42.24 182.16,-45.54 186.42,-51.1"/>
</g>
</g>
</svg>
