<?xml version="1.0" encoding="UTF-8" standalone="no"?>
<!DOCTYPE svg PUBLIC "-//W3C//DTD SVG 1.1//EN"
 "http://www.w3.org/Graphics/SVG/1.1/DTD/svg11.dtd">
<!-- Generated by graphviz version 7.0.4 (20221203.1631)
 -->
<!-- Title: ce103_hw4_medical_store_lib.ConversionUtility.integerToByteArray Pages: 1 -->
<svg width="1071pt" height="281pt"
 viewBox="0.00 0.00 1071.00 281.00" xmlns="http://www.w3.org/2000/svg" xmlns:xlink="http://www.w3.org/1999/xlink">
<g id="graph0" class="graph" transform="scale(1 1) rotate(0) translate(4 277)">
<title>ce103_hw4_medical_store_lib.ConversionUtility.integerToByteArray</title>
<!-- Node1 -->
<g id="node1" class="node">
<title>Node1</title>
<g id="a_node1"><a xlink:title=" ">
<polygon fill="#999999" stroke="#666666" points="1063,-194.5 924,-194.5 924,-153.5 1063,-153.5 1063,-194.5"/>
<text text-anchor="start" x="932" y="-182.5" font-family="Helvetica,sans-Serif" font-size="10.00">ce103_hw4_medical_store</text>
<text text-anchor="start" x="932" y="-171.5" font-family="Helvetica,sans-Serif" font-size="10.00">_lib.ConversionUtility.integer</text>
<text text-anchor="middle" x="993.5" y="-160.5" font-family="Helvetica,sans-Serif" font-size="10.00">ToByteArray</text>
</a>
</g>
</g>
<!-- Node2 -->
<g id="node2" class="node">
<title>Node2</title>
<g id="a_node2"><a xlink:href="$classce103__hw4__medical__store__lib_1_1_bill.html#a753d011f72f8ece18f9b7adb0789f4e6" xlink:title=" ">
<polygon fill="white" stroke="#666666" points="888,-273 737,-273 737,-243 888,-243 888,-273"/>
<text text-anchor="start" x="745" y="-261" font-family="Helvetica,sans-Serif" font-size="10.00">ce103_hw4_medical_store</text>
<text text-anchor="middle" x="812.5" y="-250" font-family="Helvetica,sans-Serif" font-size="10.00">_lib.Bill.bookToByteArrayBlock</text>
</a>
</g>
</g>
<!-- Node1&#45;&gt;Node2 -->
<g id="edge1" class="edge">
<title>Node1&#45;&gt;Node2</title>
<path fill="none" stroke="#63b8ff" d="M950.79,-200.63C932.06,-211.88 909.41,-224.53 888,-234 881.04,-237.08 873.56,-239.96 866.12,-242.58"/>
<polygon fill="#63b8ff" stroke="#63b8ff" points="952.46,-203.71 959.18,-195.52 948.82,-197.73 952.46,-203.71"/>
</g>
<!-- Node7 -->
<g id="node7" class="node">
<title>Node7</title>
<g id="a_node7"><a xlink:href="$classce103__hw4__medical__store__lib_1_1_customer.html#a292a7e3602e9d85c119d14af8ba29090" xlink:title=" ">
<polygon fill="white" stroke="#666666" points="888,-165.5 737,-165.5 737,-124.5 888,-124.5 888,-165.5"/>
<text text-anchor="start" x="745" y="-153.5" font-family="Helvetica,sans-Serif" font-size="10.00">ce103_hw4_medical_store</text>
<text text-anchor="start" x="745" y="-142.5" font-family="Helvetica,sans-Serif" font-size="10.00">_lib.Customer.customerToByte</text>
<text text-anchor="middle" x="812.5" y="-131.5" font-family="Helvetica,sans-Serif" font-size="10.00">ArrayBlock</text>
</a>
</g>
</g>
<!-- Node1&#45;&gt;Node7 -->
<g id="edge6" class="edge">
<title>Node1&#45;&gt;Node7</title>
<path fill="none" stroke="#63b8ff" d="M912.36,-161.02C904.37,-159.72 896.29,-158.41 888.36,-157.13"/>
<polygon fill="#63b8ff" stroke="#63b8ff" points="911.62,-164.44 922.06,-162.59 912.74,-157.53 911.62,-164.44"/>
</g>
<!-- Node10 -->
<g id="node10" class="node">
<title>Node10</title>
<g id="a_node10"><a xlink:href="$classce103__hw4__medical__store__lib_1_1_medicine.html#a6046b568ddbacc606799c55c34c93584" xlink:title=" ">
<polygon fill="white" stroke="#666666" points="885.5,-224.5 739.5,-224.5 739.5,-183.5 885.5,-183.5 885.5,-224.5"/>
<text text-anchor="start" x="747.5" y="-212.5" font-family="Helvetica,sans-Serif" font-size="10.00">ce103_hw4_medical_store</text>
<text text-anchor="start" x="747.5" y="-201.5" font-family="Helvetica,sans-Serif" font-size="10.00">_lib.Medicine.medicineToByte</text>
<text text-anchor="middle" x="812.5" y="-190.5" font-family="Helvetica,sans-Serif" font-size="10.00">ArrayBlock</text>
</a>
</g>
</g>
<!-- Node1&#45;&gt;Node10 -->
<g id="edge11" class="edge">
<title>Node1&#45;&gt;Node10</title>
<path fill="none" stroke="#63b8ff" d="M912.47,-187.41C903.64,-188.89 894.7,-190.39 885.97,-191.85"/>
<polygon fill="#63b8ff" stroke="#63b8ff" points="912.77,-190.91 922.06,-185.81 911.62,-184.01 912.77,-190.91"/>
</g>
<!-- Node12 -->
<g id="node12" class="node">
<title>Node12</title>
<g id="a_node12"><a xlink:href="$classce103__hw4__medical__store__lib_1_1_supplier.html#afba177fb9d808aa5157203709401032e" xlink:title=" ">
<polygon fill="white" stroke="#666666" points="881,-83.5 744,-83.5 744,-42.5 881,-42.5 881,-83.5"/>
<text text-anchor="start" x="752" y="-71.5" font-family="Helvetica,sans-Serif" font-size="10.00">ce103_hw4_medical_store</text>
<text text-anchor="start" x="752" y="-60.5" font-family="Helvetica,sans-Serif" font-size="10.00">_lib.Supplier.supplierToByte</text>
<text text-anchor="middle" x="812.5" y="-49.5" font-family="Helvetica,sans-Serif" font-size="10.00">ArrayBlock</text>
</a>
</g>
</g>
<!-- Node1&#45;&gt;Node12 -->
<g id="edge15" class="edge">
<title>Node1&#45;&gt;Node12</title>
<path fill="none" stroke="#63b8ff" d="M949.06,-147.06C917.77,-127.66 876.15,-101.85 847.32,-83.97"/>
<polygon fill="#63b8ff" stroke="#63b8ff" points="947.2,-150.03 957.55,-152.32 950.89,-144.08 947.2,-150.03"/>
</g>
<!-- Node3 -->
<g id="node3" class="node">
<title>Node3</title>
<g id="a_node3"><a xlink:href="$classce103__hw4__medical__store__app_1_1_insider_of_the_menu.html#a06e911654aeebf8dcb003c0bec404f3d" xlink:title=" ">
<polygon fill="white" stroke="#666666" points="690.5,-270 511.5,-270 511.5,-240 690.5,-240 690.5,-270"/>
<text text-anchor="start" x="519.5" y="-258" font-family="Helvetica,sans-Serif" font-size="10.00">ce103_hw4_medical_store</text>
<text text-anchor="middle" x="601" y="-247" font-family="Helvetica,sans-Serif" font-size="10.00">_app.InsiderOfTheMenu.salemedicine</text>
</a>
</g>
</g>
<!-- Node2&#45;&gt;Node3 -->
<g id="edge2" class="edge">
<title>Node2&#45;&gt;Node3</title>
<path fill="none" stroke="#63b8ff" d="M725.41,-256.77C713.95,-256.6 702.18,-256.43 690.68,-256.27"/>
<polygon fill="#63b8ff" stroke="#63b8ff" points="725.19,-260.26 735.24,-256.91 725.29,-253.27 725.19,-260.26"/>
</g>
<!-- Node4 -->
<g id="node4" class="node">
<title>Node4</title>
<g id="a_node4"><a xlink:href="$classce103__hw4__medical__store__app_1_1_menu.html#af40268756f4be60ece4bf674210a17bb" xlink:title=" ">
<polygon fill="white" stroke="#666666" points="465,-150 334,-150 334,-120 465,-120 465,-150"/>
<text text-anchor="start" x="342" y="-138" font-family="Helvetica,sans-Serif" font-size="10.00">ce103_hw4_medical_store</text>
<text text-anchor="middle" x="399.5" y="-127" font-family="Helvetica,sans-Serif" font-size="10.00">_app.Menu.performAction</text>
</a>
</g>
</g>
<!-- Node3&#45;&gt;Node4 -->
<g id="edge3" class="edge">
<title>Node3&#45;&gt;Node4</title>
<path fill="none" stroke="#63b8ff" d="M509.37,-235.17C506.51,-233.87 503.71,-232.48 501,-231 463.1,-210.29 429.07,-171.6 412.02,-150.21"/>
<polygon fill="#63b8ff" stroke="#63b8ff" points="508,-238.4 518.58,-238.96 510.66,-231.92 508,-238.4"/>
</g>
<!-- Node5 -->
<g id="node5" class="node">
<title>Node5</title>
<g id="a_node5"><a xlink:href="$classce103__hw4__medical__store__app_1_1_menu.html#a8890452f69a3d1c94a7951344bd7515b" xlink:title=" ">
<polygon fill="white" stroke="#666666" points="298,-150 167,-150 167,-120 298,-120 298,-150"/>
<text text-anchor="start" x="175" y="-138" font-family="Helvetica,sans-Serif" font-size="10.00">ce103_hw4_medical_store</text>
<text text-anchor="middle" x="232.5" y="-127" font-family="Helvetica,sans-Serif" font-size="10.00">_app.Menu.runMenu</text>
</a>
</g>
</g>
<!-- Node4&#45;&gt;Node5 -->
<g id="edge4" class="edge">
<title>Node4&#45;&gt;Node5</title>
<path fill="none" stroke="#63b8ff" d="M322.45,-135C314.39,-135 306.24,-135 298.32,-135"/>
<polygon fill="#63b8ff" stroke="#63b8ff" points="322.25,-138.5 332.25,-135 322.25,-131.5 322.25,-138.5"/>
</g>
<!-- Node6 -->
<g id="node6" class="node">
<title>Node6</title>
<g id="a_node6"><a xlink:href="$classce103__hw4__medical__store__app_1_1_menu.html#a906bd0b055bce495d306a21e81cbec1b" xlink:title=" ">
<polygon fill="white" stroke="#666666" points="131,-150 0,-150 0,-120 131,-120 131,-150"/>
<text text-anchor="start" x="8" y="-138" font-family="Helvetica,sans-Serif" font-size="10.00">ce103_hw4_medical_store</text>
<text text-anchor="middle" x="65.5" y="-127" font-family="Helvetica,sans-Serif" font-size="10.00">_app.Menu.main</text>
</a>
</g>
</g>
<!-- Node5&#45;&gt;Node6 -->
<g id="edge5" class="edge">
<title>Node5&#45;&gt;Node6</title>
<path fill="none" stroke="#63b8ff" d="M155.45,-135C147.39,-135 139.24,-135 131.32,-135"/>
<polygon fill="#63b8ff" stroke="#63b8ff" points="155.25,-138.5 165.25,-135 155.25,-131.5 155.25,-138.5"/>
</g>
<!-- Node8 -->
<g id="node8" class="node">
<title>Node8</title>
<g id="a_node8"><a xlink:href="$classce103__hw4__medical__store__app_1_1_insider_of_the_menu.html#a4e19bce8c519e748af92a2347e490ace" xlink:title=" ">
<polygon fill="white" stroke="#666666" points="690.5,-174 511.5,-174 511.5,-144 690.5,-144 690.5,-174"/>
<text text-anchor="start" x="519.5" y="-162" font-family="Helvetica,sans-Serif" font-size="10.00">ce103_hw4_medical_store</text>
<text text-anchor="middle" x="601" y="-151" font-family="Helvetica,sans-Serif" font-size="10.00">_app.InsiderOfTheMenu.addCustomer</text>
</a>
</g>
</g>
<!-- Node7&#45;&gt;Node8 -->
<g id="edge7" class="edge">
<title>Node7&#45;&gt;Node8</title>
<path fill="none" stroke="#63b8ff" d="M725.41,-150.75C713.95,-151.52 702.18,-152.31 690.68,-153.07"/>
<polygon fill="#63b8ff" stroke="#63b8ff" points="725.5,-154.26 735.24,-150.1 725.03,-147.27 725.5,-154.26"/>
</g>
<!-- Node9 -->
<g id="node9" class="node">
<title>Node9</title>
<g id="a_node9"><a xlink:href="$classce103__hw4__medical__store__app_1_1_insider_of_the_menu.html#aa560a0597ff17489f751b94beddfaf9a" xlink:title=" ">
<polygon fill="white" stroke="#666666" points="690.5,-126 511.5,-126 511.5,-96 690.5,-96 690.5,-126"/>
<text text-anchor="start" x="519.5" y="-114" font-family="Helvetica,sans-Serif" font-size="10.00">ce103_hw4_medical_store</text>
<text text-anchor="middle" x="601" y="-103" font-family="Helvetica,sans-Serif" font-size="10.00">_app.InsiderOfTheMenu.editCustomer</text>
</a>
</g>
</g>
<!-- Node7&#45;&gt;Node9 -->
<g id="edge9" class="edge">
<title>Node7&#45;&gt;Node9</title>
<path fill="none" stroke="#63b8ff" d="M725.41,-131.03C713.95,-129.17 702.18,-127.26 690.68,-125.39"/>
<polygon fill="#63b8ff" stroke="#63b8ff" points="724.83,-134.48 735.26,-132.63 725.95,-127.57 724.83,-134.48"/>
</g>
<!-- Node8&#45;&gt;Node4 -->
<g id="edge8" class="edge">
<title>Node8&#45;&gt;Node4</title>
<path fill="none" stroke="#63b8ff" d="M499.83,-146.95C488.12,-145.54 476.41,-144.13 465.36,-142.8"/>
<polygon fill="#63b8ff" stroke="#63b8ff" points="499.19,-150.4 509.54,-148.12 500.03,-143.45 499.19,-150.4"/>
</g>
<!-- Node9&#45;&gt;Node4 -->
<g id="edge10" class="edge">
<title>Node9&#45;&gt;Node4</title>
<path fill="none" stroke="#63b8ff" d="M499.83,-123.05C488.12,-124.46 476.41,-125.87 465.36,-127.2"/>
<polygon fill="#63b8ff" stroke="#63b8ff" points="500.03,-126.55 509.54,-121.88 499.19,-119.6 500.03,-126.55"/>
</g>
<!-- Node10&#45;&gt;Node3 -->
<g id="edge14" class="edge">
<title>Node10&#45;&gt;Node3</title>
<path fill="none" stroke="#63b8ff" d="M728.15,-224.38C718.99,-226.62 709.8,-228.86 701,-231 689.66,-233.76 677.59,-236.69 665.91,-239.52"/>
<polygon fill="#63b8ff" stroke="#63b8ff" points="728.93,-227.8 737.82,-222.02 727.27,-221 728.93,-227.8"/>
</g>
<!-- Node11 -->
<g id="node11" class="node">
<title>Node11</title>
<g id="a_node11"><a xlink:href="$classce103__hw4__medical__store__app_1_1_insider_of_the_menu.html#abbb3877121688713fb9c89334fd093b9" xlink:title=" ">
<polygon fill="white" stroke="#666666" points="701,-222 501,-222 501,-192 701,-192 701,-222"/>
<text text-anchor="start" x="509" y="-210" font-family="Helvetica,sans-Serif" font-size="10.00">ce103_hw4_medical_store</text>
<text text-anchor="middle" x="601" y="-199" font-family="Helvetica,sans-Serif" font-size="10.00">_app.InsiderOfTheMenu.purchasemedicine</text>
</a>
</g>
</g>
<!-- Node10&#45;&gt;Node11 -->
<g id="edge12" class="edge">
<title>Node10&#45;&gt;Node11</title>
<path fill="none" stroke="#63b8ff" d="M727.81,-205.2C719.12,-205.32 710.22,-205.45 701.37,-205.58"/>
<polygon fill="#63b8ff" stroke="#63b8ff" points="727.65,-208.7 737.6,-205.06 727.55,-201.7 727.65,-208.7"/>
</g>
<!-- Node11&#45;&gt;Node4 -->
<g id="edge13" class="edge">
<title>Node11&#45;&gt;Node4</title>
<path fill="none" stroke="#63b8ff" d="M517.5,-188.39C511.88,-186.69 506.33,-184.9 501,-183 475.86,-174.06 448.62,-160.81 428.85,-150.49"/>
<polygon fill="#63b8ff" stroke="#63b8ff" points="516.33,-191.69 526.91,-191.09 518.27,-184.97 516.33,-191.69"/>
</g>
<!-- Node13 -->
<g id="node13" class="node">
<title>Node13</title>
<g id="a_node13"><a xlink:href="$classce103__hw4__medical__store__app_1_1_insider_of_the_menu.html#a5a985628df103b1884695c250f7638ea" xlink:title=" ">
<polygon fill="white" stroke="#666666" points="687.5,-78 514.5,-78 514.5,-48 687.5,-48 687.5,-78"/>
<text text-anchor="start" x="522.5" y="-66" font-family="Helvetica,sans-Serif" font-size="10.00">ce103_hw4_medical_store</text>
<text text-anchor="middle" x="601" y="-55" font-family="Helvetica,sans-Serif" font-size="10.00">_app.InsiderOfTheMenu.addSupplier</text>
</a>
</g>
</g>
<!-- Node12&#45;&gt;Node13 -->
<g id="edge16" class="edge">
<title>Node12&#45;&gt;Node13</title>
<path fill="none" stroke="#63b8ff" d="M732.3,-63C717.79,-63 702.58,-63 687.88,-63"/>
<polygon fill="#63b8ff" stroke="#63b8ff" points="732.26,-66.5 742.26,-63 732.26,-59.5 732.26,-66.5"/>
</g>
<!-- Node14 -->
<g id="node14" class="node">
<title>Node14</title>
<g id="a_node14"><a xlink:href="$classce103__hw4__medical__store__app_1_1_insider_of_the_menu.html#aefa6b5dc1b968c81b8d10998a0981577" xlink:title=" ">
<polygon fill="white" stroke="#666666" points="687.5,-30 514.5,-30 514.5,0 687.5,0 687.5,-30"/>
<text text-anchor="start" x="522.5" y="-18" font-family="Helvetica,sans-Serif" font-size="10.00">ce103_hw4_medical_store</text>
<text text-anchor="middle" x="601" y="-7" font-family="Helvetica,sans-Serif" font-size="10.00">_app.InsiderOfTheMenu.editSupplier</text>
</a>
</g>
</g>
<!-- Node12&#45;&gt;Node14 -->
<g id="edge18" class="edge">
<title>Node12&#45;&gt;Node14</title>
<path fill="none" stroke="#63b8ff" d="M732.72,-44.95C711.91,-40.18 689.65,-35.08 669.5,-30.46"/>
<polygon fill="#63b8ff" stroke="#63b8ff" points="731.77,-48.32 742.3,-47.14 733.33,-41.5 731.77,-48.32"/>
</g>
<!-- Node13&#45;&gt;Node4 -->
<g id="edge17" class="edge">
<title>Node13&#45;&gt;Node4</title>
<path fill="none" stroke="#63b8ff" d="M517.5,-81.61C511.88,-83.31 506.33,-85.1 501,-87 475.86,-95.94 448.62,-109.19 428.85,-119.51"/>
<polygon fill="#63b8ff" stroke="#63b8ff" points="518.27,-85.03 526.91,-78.91 516.33,-78.31 518.27,-85.03"/>
</g>
<!-- Node14&#45;&gt;Node4 -->
<g id="edge19" class="edge">
<title>Node14&#45;&gt;Node4</title>
<path fill="none" stroke="#63b8ff" d="M509.37,-34.83C506.51,-36.13 503.71,-37.52 501,-39 463.1,-59.71 429.07,-98.4 412.02,-119.79"/>
<polygon fill="#63b8ff" stroke="#63b8ff" points="510.66,-38.08 518.58,-31.04 508,-31.6 510.66,-38.08"/>
</g>
</g>
</svg>
