<?xml version="1.0" encoding="UTF-8" standalone="no"?>
<!DOCTYPE svg PUBLIC "-//W3C//DTD SVG 1.1//EN"
 "http://www.w3.org/Graphics/SVG/1.1/DTD/svg11.dtd">
<!-- Generated by graphviz version 7.0.4 (20221203.1631)
 -->
<!-- Title: ce103_hw4_medical_store_app.InsiderOfTheMenu.listsupp Pages: 1 -->
<svg width="554pt" height="585pt"
 viewBox="0.00 0.00 554.00 584.50" xmlns="http://www.w3.org/2000/svg" xmlns:xlink="http://www.w3.org/1999/xlink">
<g id="graph0" class="graph" transform="scale(1 1) rotate(0) translate(4 580.5)">
<title>ce103_hw4_medical_store_app.InsiderOfTheMenu.listsupp</title>
<!-- Node1 -->
<g id="node1" class="node">
<title>Node1</title>
<g id="a_node1"><a xlink:title=" ">
<polygon fill="#999999" stroke="#666666" points="155,-212 0,-212 0,-182 155,-182 155,-212"/>
<text text-anchor="start" x="8" y="-200" font-family="Helvetica,sans-Serif" font-size="10.00">ce103_hw4_medical_store</text>
<text text-anchor="middle" x="77.5" y="-189" font-family="Helvetica,sans-Serif" font-size="10.00">_app.InsiderOfTheMenu.listsupp</text>
</a>
</g>
</g>
<!-- Node2 -->
<g id="node2" class="node">
<title>Node2</title>
<g id="a_node2"><a xlink:href="$classce103__hw4__medical__store__lib_1_1_supplier.html#abad3a97eeb6c990ec1fb06b41739e576" xlink:title=" ">
<polygon fill="white" stroke="#666666" points="338.5,-415.5 198.5,-415.5 198.5,-374.5 338.5,-374.5 338.5,-415.5"/>
<text text-anchor="start" x="206.5" y="-403.5" font-family="Helvetica,sans-Serif" font-size="10.00">ce103_hw4_medical_store</text>
<text text-anchor="start" x="206.5" y="-392.5" font-family="Helvetica,sans-Serif" font-size="10.00">_lib.Supplier.byteArrayBlock</text>
<text text-anchor="middle" x="268.5" y="-381.5" font-family="Helvetica,sans-Serif" font-size="10.00">ToSupplier</text>
</a>
</g>
</g>
<!-- Node1&#45;&gt;Node2 -->
<g id="edge1" class="edge">
<title>Node1&#45;&gt;Node2</title>
<path fill="none" stroke="#63b8ff" d="M84.87,-212.26C99.16,-244.77 136.84,-321.45 191,-365 192.32,-366.06 193.68,-367.09 195.08,-368.08"/>
<polygon fill="#63b8ff" stroke="#63b8ff" points="193.14,-371 203.47,-373.37 196.87,-365.08 193.14,-371"/>
</g>
<!-- Node10 -->
<g id="node10" class="node">
<title>Node10</title>
<g id="a_node10"><a xlink:href="$classce103__hw4__medical__store__lib_1_1_supplier.html#a735a56c6c0308a2f0ee870075f7bc320" xlink:title=" ">
<polygon fill="white" stroke="#666666" points="334,-356 203,-356 203,-326 334,-326 334,-356"/>
<text text-anchor="start" x="211" y="-344" font-family="Helvetica,sans-Serif" font-size="10.00">ce103_hw4_medical_store</text>
<text text-anchor="middle" x="268.5" y="-333" font-family="Helvetica,sans-Serif" font-size="10.00">_lib.Supplier.getCity</text>
</a>
</g>
</g>
<!-- Node1&#45;&gt;Node10 -->
<g id="edge9" class="edge">
<title>Node1&#45;&gt;Node10</title>
<path fill="none" stroke="#63b8ff" d="M88.76,-212.26C106.59,-237.66 145.78,-288.6 191,-317 193.11,-318.32 195.29,-319.58 197.54,-320.77"/>
<polygon fill="#63b8ff" stroke="#63b8ff" points="195.77,-323.81 206.31,-324.94 198.78,-317.48 195.77,-323.81"/>
</g>
<!-- Node11 -->
<g id="node11" class="node">
<title>Node11</title>
<g id="a_node11"><a xlink:href="$classce103__hw4__medical__store__lib_1_1_supplier.html#af1622d0e0af60af6763a2283e987b4a2" xlink:title=" ">
<polygon fill="white" stroke="#666666" points="334.5,-308 202.5,-308 202.5,-278 334.5,-278 334.5,-308"/>
<text text-anchor="start" x="210.5" y="-296" font-family="Helvetica,sans-Serif" font-size="10.00">ce103_hw4_medical_store</text>
<text text-anchor="middle" x="268.5" y="-285" font-family="Helvetica,sans-Serif" font-size="10.00">_lib.Supplier.getContactNo</text>
</a>
</g>
</g>
<!-- Node1&#45;&gt;Node11 -->
<g id="edge10" class="edge">
<title>Node1&#45;&gt;Node11</title>
<path fill="none" stroke="#63b8ff" d="M98.69,-212.27C120.51,-228.2 156.75,-253.01 191,-269 194.34,-270.56 197.81,-272.05 201.35,-273.48"/>
<polygon fill="#63b8ff" stroke="#63b8ff" points="200.08,-276.74 210.67,-277.01 202.56,-270.2 200.08,-276.74"/>
</g>
<!-- Node12 -->
<g id="node12" class="node">
<title>Node12</title>
<g id="a_node12"><a xlink:href="$classce103__hw4__medical__store__lib_1_1_supplier.html#a99a20bfe60b8ce74d349418a92f0c660" xlink:title=" ">
<polygon fill="white" stroke="#666666" points="334,-260 203,-260 203,-230 334,-230 334,-260"/>
<text text-anchor="start" x="211" y="-248" font-family="Helvetica,sans-Serif" font-size="10.00">ce103_hw4_medical_store</text>
<text text-anchor="middle" x="268.5" y="-237" font-family="Helvetica,sans-Serif" font-size="10.00">_lib.Supplier.getemailID</text>
</a>
</g>
</g>
<!-- Node1&#45;&gt;Node12 -->
<g id="edge11" class="edge">
<title>Node1&#45;&gt;Node12</title>
<path fill="none" stroke="#63b8ff" d="M139.34,-212.45C157.3,-217.01 177.12,-222.05 195.7,-226.76"/>
<polygon fill="#63b8ff" stroke="#63b8ff" points="194.75,-230.14 205.31,-229.2 196.48,-223.35 194.75,-230.14"/>
</g>
<!-- Node13 -->
<g id="node13" class="node">
<title>Node13</title>
<g id="a_node13"><a xlink:href="$classce103__hw4__medical__store__lib_1_1_supplier.html#a37b7283600f4fa52dec2d2e686e99899" xlink:title=" ">
<polygon fill="white" stroke="#666666" points="334,-212 203,-212 203,-182 334,-182 334,-212"/>
<text text-anchor="start" x="211" y="-200" font-family="Helvetica,sans-Serif" font-size="10.00">ce103_hw4_medical_store</text>
<text text-anchor="middle" x="268.5" y="-189" font-family="Helvetica,sans-Serif" font-size="10.00">_lib.Supplier.getsupplierId</text>
</a>
</g>
</g>
<!-- Node1&#45;&gt;Node13 -->
<g id="edge12" class="edge">
<title>Node1&#45;&gt;Node13</title>
<path fill="none" stroke="#63b8ff" d="M155.37,-197C167.3,-197 179.62,-197 191.52,-197"/>
<polygon fill="#63b8ff" stroke="#63b8ff" points="191.27,-200.5 201.27,-197 191.27,-193.5 191.27,-200.5"/>
</g>
<!-- Node14 -->
<g id="node14" class="node">
<title>Node14</title>
<g id="a_node14"><a xlink:href="$classce103__hw4__medical__store__lib_1_1_supplier.html#adb3937b10b3159b30c99ebbfc69889cc" xlink:title=" ">
<polygon fill="white" stroke="#666666" points="340.5,-164 196.5,-164 196.5,-134 340.5,-134 340.5,-164"/>
<text text-anchor="start" x="204.5" y="-152" font-family="Helvetica,sans-Serif" font-size="10.00">ce103_hw4_medical_store</text>
<text text-anchor="middle" x="268.5" y="-141" font-family="Helvetica,sans-Serif" font-size="10.00">_lib.Supplier.getsuppliername</text>
</a>
</g>
</g>
<!-- Node1&#45;&gt;Node14 -->
<g id="edge13" class="edge">
<title>Node1&#45;&gt;Node14</title>
<path fill="none" stroke="#63b8ff" d="M139.34,-181.55C157.3,-176.99 177.12,-171.95 195.7,-167.24"/>
<polygon fill="#63b8ff" stroke="#63b8ff" points="196.48,-170.65 205.31,-164.8 194.75,-163.86 196.48,-170.65"/>
</g>
<!-- Node15 -->
<g id="node15" class="node">
<title>Node15</title>
<g id="a_node15"><a xlink:href="$classce103__hw4__medical__store__app_1_1_insider_of_the_menu.html#aa208466ba46c8f7d58d2f2e970d23545" xlink:title=" ">
<polygon fill="white" stroke="#666666" points="546,-76 382,-76 382,-46 546,-46 546,-76"/>
<text text-anchor="start" x="390" y="-64" font-family="Helvetica,sans-Serif" font-size="10.00">ce103_hw4_medical_store</text>
<text text-anchor="middle" x="464" y="-53" font-family="Helvetica,sans-Serif" font-size="10.00">_app.InsiderOfTheMenu.main_box</text>
</a>
</g>
</g>
<!-- Node1&#45;&gt;Node15 -->
<g id="edge14" class="edge">
<title>Node1&#45;&gt;Node15</title>
<path fill="none" stroke="#63b8ff" d="M98.07,-181.53C119.66,-165.2 155.98,-139.82 191,-125 200.05,-121.17 306.61,-96.55 383.62,-78.99"/>
<polygon fill="#63b8ff" stroke="#63b8ff" points="384.3,-82.43 393.27,-76.79 382.75,-75.6 384.3,-82.43"/>
</g>
<!-- Node16 -->
<g id="node16" class="node">
<title>Node16</title>
<g id="a_node16"><a xlink:href="$classce103__hw4__medical__store__lib_1_1_file_utility.html#aac1f545c958fe49778c588ce463e809d" xlink:title=" ">
<polygon fill="white" stroke="#666666" points="334,-78 203,-78 203,-48 334,-48 334,-78"/>
<text text-anchor="start" x="211" y="-66" font-family="Helvetica,sans-Serif" font-size="10.00">ce103_hw4_medical_store</text>
<text text-anchor="middle" x="268.5" y="-55" font-family="Helvetica,sans-Serif" font-size="10.00">_lib.FileUtility.readBlock</text>
</a>
</g>
</g>
<!-- Node1&#45;&gt;Node16 -->
<g id="edge15" class="edge">
<title>Node1&#45;&gt;Node16</title>
<path fill="none" stroke="#63b8ff" d="M91.24,-181.82C110.71,-159.46 149.94,-117.55 191,-92 196.41,-88.63 202.27,-85.56 208.26,-82.77"/>
<polygon fill="#63b8ff" stroke="#63b8ff" points="209.24,-86.16 217.01,-78.97 206.45,-79.74 209.24,-86.16"/>
</g>
<!-- Node17 -->
<g id="node17" class="node">
<title>Node17</title>
<g id="a_node17"><a xlink:href="$classce103__hw4__medical__store__app_1_1_insider_of_the_menu.html#ad8d1f1f6efe690acbc398b741befb617" xlink:title=" ">
<polygon fill="white" stroke="#666666" points="346,-30 191,-30 191,0 346,0 346,-30"/>
<text text-anchor="start" x="199" y="-18" font-family="Helvetica,sans-Serif" font-size="10.00">ce103_hw4_medical_store</text>
<text text-anchor="middle" x="268.5" y="-7" font-family="Helvetica,sans-Serif" font-size="10.00">_app.InsiderOfTheMenu.supplier</text>
</a>
</g>
</g>
<!-- Node1&#45;&gt;Node17 -->
<g id="edge16" class="edge">
<title>Node1&#45;&gt;Node17</title>
<path fill="none" stroke="#63b8ff" d="M85.12,-181.9C99.64,-150.53 137.32,-77.98 191,-39 192.55,-37.88 194.15,-36.8 195.8,-35.78"/>
<polygon fill="#63b8ff" stroke="#63b8ff" points="197.19,-39.01 204.31,-31.16 193.85,-32.85 197.19,-39.01"/>
</g>
<!-- Node3 -->
<g id="node3" class="node">
<title>Node3</title>
<g id="a_node3"><a xlink:href="$classce103__hw4__medical__store__lib_1_1_conversion_utility.html#a73bfc22165c4d39e288482818b96f6a1" xlink:title=" ">
<polygon fill="white" stroke="#666666" points="540,-576.5 388,-576.5 388,-535.5 540,-535.5 540,-576.5"/>
<text text-anchor="start" x="396" y="-564.5" font-family="Helvetica,sans-Serif" font-size="10.00">ce103_hw4_medical_store</text>
<text text-anchor="start" x="396" y="-553.5" font-family="Helvetica,sans-Serif" font-size="10.00">_lib.ConversionUtility.byteArray</text>
<text text-anchor="middle" x="464" y="-542.5" font-family="Helvetica,sans-Serif" font-size="10.00">ToInteger</text>
</a>
</g>
</g>
<!-- Node2&#45;&gt;Node3 -->
<g id="edge2" class="edge">
<title>Node2&#45;&gt;Node3</title>
<path fill="none" stroke="#63b8ff" d="M282.18,-415.81C300.74,-444.62 337.9,-496.54 382,-527 383.34,-527.93 384.72,-528.83 386.13,-529.71"/>
<polygon fill="#63b8ff" stroke="#63b8ff" points="384,-532.52 394.43,-534.38 387.43,-526.42 384,-532.52"/>
</g>
<!-- Node4 -->
<g id="node4" class="node">
<title>Node4</title>
<g id="a_node4"><a xlink:href="$classce103__hw4__medical__store__lib_1_1_conversion_utility.html#a202f8f242fa0c940170289cb2b08b1f7" xlink:title=" ">
<polygon fill="white" stroke="#666666" points="540,-517.5 388,-517.5 388,-476.5 540,-476.5 540,-517.5"/>
<text text-anchor="start" x="396" y="-505.5" font-family="Helvetica,sans-Serif" font-size="10.00">ce103_hw4_medical_store</text>
<text text-anchor="start" x="396" y="-494.5" font-family="Helvetica,sans-Serif" font-size="10.00">_lib.ConversionUtility.byteArray</text>
<text text-anchor="middle" x="464" y="-483.5" font-family="Helvetica,sans-Serif" font-size="10.00">ToString</text>
</a>
</g>
</g>
<!-- Node2&#45;&gt;Node4 -->
<g id="edge3" class="edge">
<title>Node2&#45;&gt;Node4</title>
<path fill="none" stroke="#63b8ff" d="M298.09,-415.74C320.25,-431.19 352.11,-452.12 382,-467 385.22,-468.6 388.55,-470.17 391.94,-471.69"/>
<polygon fill="#63b8ff" stroke="#63b8ff" points="390.28,-474.79 400.85,-475.52 393.04,-468.36 390.28,-474.79"/>
</g>
<!-- Node5 -->
<g id="node5" class="node">
<title>Node5</title>
<g id="a_node5"><a xlink:href="$classce103__hw4__medical__store__lib_1_1_supplier.html#a63e69b6765041b2217c0411560f543d4" xlink:title=" ">
<polygon fill="white" stroke="#666666" points="529.5,-458 398.5,-458 398.5,-428 529.5,-428 529.5,-458"/>
<text text-anchor="start" x="406.5" y="-446" font-family="Helvetica,sans-Serif" font-size="10.00">ce103_hw4_medical_store</text>
<text text-anchor="middle" x="464" y="-435" font-family="Helvetica,sans-Serif" font-size="10.00">_lib.Supplier.setCity</text>
</a>
</g>
</g>
<!-- Node2&#45;&gt;Node5 -->
<g id="edge4" class="edge">
<title>Node2&#45;&gt;Node5</title>
<path fill="none" stroke="#63b8ff" d="M338.81,-412.19C355.36,-416.3 373.07,-420.69 389.79,-424.84"/>
<polygon fill="#63b8ff" stroke="#63b8ff" points="388.59,-428.15 399.13,-427.16 390.27,-421.35 388.59,-428.15"/>
</g>
<!-- Node6 -->
<g id="node6" class="node">
<title>Node6</title>
<g id="a_node6"><a xlink:href="$classce103__hw4__medical__store__lib_1_1_supplier.html#aa287ef6ae91ce808df837776ddb76c19" xlink:title=" ">
<polygon fill="white" stroke="#666666" points="530,-410 398,-410 398,-380 530,-380 530,-410"/>
<text text-anchor="start" x="406" y="-398" font-family="Helvetica,sans-Serif" font-size="10.00">ce103_hw4_medical_store</text>
<text text-anchor="middle" x="464" y="-387" font-family="Helvetica,sans-Serif" font-size="10.00">_lib.Supplier.setContactNo</text>
</a>
</g>
</g>
<!-- Node2&#45;&gt;Node6 -->
<g id="edge5" class="edge">
<title>Node2&#45;&gt;Node6</title>
<path fill="none" stroke="#63b8ff" d="M338.81,-395C354.26,-395 370.72,-395 386.44,-395"/>
<polygon fill="#63b8ff" stroke="#63b8ff" points="386.21,-398.5 396.21,-395 386.21,-391.5 386.21,-398.5"/>
</g>
<!-- Node7 -->
<g id="node7" class="node">
<title>Node7</title>
<g id="a_node7"><a xlink:href="$classce103__hw4__medical__store__lib_1_1_supplier.html#ad1b1647cc905e9c92aad10a6a2bf244a" xlink:title=" ">
<polygon fill="white" stroke="#666666" points="529.5,-362 398.5,-362 398.5,-332 529.5,-332 529.5,-362"/>
<text text-anchor="start" x="406.5" y="-350" font-family="Helvetica,sans-Serif" font-size="10.00">ce103_hw4_medical_store</text>
<text text-anchor="middle" x="464" y="-339" font-family="Helvetica,sans-Serif" font-size="10.00">_lib.Supplier.setemailID</text>
</a>
</g>
</g>
<!-- Node2&#45;&gt;Node7 -->
<g id="edge6" class="edge">
<title>Node2&#45;&gt;Node7</title>
<path fill="none" stroke="#63b8ff" d="M338.81,-377.81C355.36,-373.7 373.07,-369.31 389.79,-365.16"/>
<polygon fill="#63b8ff" stroke="#63b8ff" points="390.27,-368.65 399.13,-362.84 388.59,-361.85 390.27,-368.65"/>
</g>
<!-- Node8 -->
<g id="node8" class="node">
<title>Node8</title>
<g id="a_node8"><a xlink:href="$classce103__hw4__medical__store__lib_1_1_supplier.html#a447efde29cb96c324429232d65f41e52" xlink:title=" ">
<polygon fill="white" stroke="#666666" points="529.5,-314 398.5,-314 398.5,-284 529.5,-284 529.5,-314"/>
<text text-anchor="start" x="406.5" y="-302" font-family="Helvetica,sans-Serif" font-size="10.00">ce103_hw4_medical_store</text>
<text text-anchor="middle" x="464" y="-291" font-family="Helvetica,sans-Serif" font-size="10.00">_lib.Supplier.setsupplierId</text>
</a>
</g>
</g>
<!-- Node2&#45;&gt;Node8 -->
<g id="edge7" class="edge">
<title>Node2&#45;&gt;Node8</title>
<path fill="none" stroke="#63b8ff" d="M331.05,-374.03C336.28,-371.31 341.35,-368.31 346,-365 366.04,-350.76 361.37,-336.37 382,-323 383.97,-321.72 386.01,-320.51 388.11,-319.36"/>
<polygon fill="#63b8ff" stroke="#63b8ff" points="389.42,-322.61 396.88,-315.09 386.36,-316.32 389.42,-322.61"/>
</g>
<!-- Node9 -->
<g id="node9" class="node">
<title>Node9</title>
<g id="a_node9"><a xlink:href="$classce103__hw4__medical__store__lib_1_1_supplier.html#a673179f4d8714ef18b4053fe3b75a0a4" xlink:title=" ">
<polygon fill="white" stroke="#666666" points="536,-266 392,-266 392,-236 536,-236 536,-266"/>
<text text-anchor="start" x="400" y="-254" font-family="Helvetica,sans-Serif" font-size="10.00">ce103_hw4_medical_store</text>
<text text-anchor="middle" x="464" y="-243" font-family="Helvetica,sans-Serif" font-size="10.00">_lib.Supplier.setsuppliername</text>
</a>
</g>
</g>
<!-- Node2&#45;&gt;Node9 -->
<g id="edge8" class="edge">
<title>Node2&#45;&gt;Node9</title>
<path fill="none" stroke="#63b8ff" d="M334.55,-374.16C338.68,-371.46 342.56,-368.42 346,-365 376.57,-334.64 350.16,-304.02 382,-275 382.78,-274.29 383.59,-273.59 384.41,-272.92"/>
<polygon fill="#63b8ff" stroke="#63b8ff" points="386.3,-275.87 392.58,-267.34 382.35,-270.09 386.3,-275.87"/>
</g>
<!-- Node17&#45;&gt;Node15 -->
<g id="edge17" class="edge">
<title>Node17&#45;&gt;Node15</title>
<path fill="none" stroke="#63b8ff" d="M334.47,-30.45C351.22,-34.43 369.4,-38.75 386.68,-42.86"/>
<polygon fill="#63b8ff" stroke="#63b8ff" points="385.86,-46.26 396.4,-45.17 387.48,-39.45 385.86,-46.26"/>
</g>
</g>
</svg>
